<?xml version="1.0" encoding="utf-8"?>
<!-- Generator: Adobe Illustrator 25.2.0, SVG Export Plug-In . SVG Version: 6.00 Build 0)  -->
<svg version="1.1" id="圖層_1" xmlns="http://www.w3.org/2000/svg" xmlns:xlink="http://www.w3.org/1999/xlink" x="0px" y="0px"
	 viewBox="0 0 42.7 42.7" style="enable-background:new 0 0 42.7 42.7;" xml:space="preserve">
<style type="text/css">
	.st0{clip-path:url(#SVGID_2_);}
	.st1{fill:#3061AC;}
	.st2{fill:#231815;}
</style>
<g id="Group_908" transform="translate(0 0)">
	<g>
		<defs>
			<rect id="SVGID_1_" width="42.7" height="42.7"/>
		</defs>
		<clipPath id="SVGID_2_">
			<use xlink:href="#SVGID_1_"  style="overflow:visible;"/>
		</clipPath>
		<g id="Group_907" transform="translate(0 0)" class="st0">
			<path id="Path_1205" class="st1" d="M42.7,21.3c0,11.8-9.6,21.3-21.3,21.3S0,33.1,0,21.3S9.6,0,21.3,0c0,0,0,0,0,0
				C33.1,0,42.7,9.6,42.7,21.3C42.7,21.3,42.7,21.3,42.7,21.3"/>
			<path id="Path_1206" class="st2" d="M23,8.5l0.9,0.9l0.9-0.9l0.9,0.9l-0.9,0.9l0.8,0.8l-0.9,0.9l-0.8-0.9L23,11.9L22.1,11
				l0.9-0.8l-0.9-0.9L23,8.5z"/>
			<path id="Path_1207" class="st2" d="M11.8,22.6l-1.1,1.1l-1.1-1.1l1.1-1.1l-1.1-1.1l1.1-1.1l1.1,1.1l1.1-1.1l1.1,1.1l-1.1,1.1
				l1.1,1.1l-1.1,1.1L11.8,22.6z"/>
			<path id="Path_1208" class="st2" d="M15.5,36.6c-1.1-1.8-1.7-3.9-1.7-6.1c0-2.7,5.1-5.5,4.8-8.7c-0.3-3.3-6.6-6.1-6.9-8.9
				c-0.3-3.2,3.6-6.4,5-7.4c1.1-0.8,2.2-0.4,0.9,0.9c-1.5,1.3-3.5,3.7-3.2,6.2c0.3,2.8,7.2,5.5,7.5,8.9c0.3,3.2-4.3,6.2-4,8.8
				c0.2,1.7,0.7,3.4,1.5,5C19.9,38.3,15.9,37.6,15.5,36.6"/>
			<path id="Path_1209" class="st2" d="M25,29.5c0.5,1.9,1.2,3.7,2.3,5.3c1.3,3.5-3.2,2.8-3.6,1.7c-1.4-1.9-2.3-4.1-2.6-6.4
				c-0.3-2.6,4.5-6,3.8-9.1c-0.7-3.3-7.2-5.4-7.8-8.1c-0.6-3,2.1-5.9,3.4-7.1c1.3-1.3,1.9-0.1,1.3,0.5c-1.1,1.2-2.6,3.5-2.1,6.1
				c0.6,2.7,7.7,4.7,8.4,8C28.7,23.4,24.4,26.9,25,29.5"/>
			<path id="Path_1210" class="st2" d="M33,31.3l-1.2,1.2l-1.2-1.2l-1.2,1.2l-1.2-1.2l1.2-1.2L28.3,29l1.2-1.2l1.2,1.2l1.2-1.2
				L33,29l-1.2,1.2L33,31.3z"/>
		</g>
	</g>
</g>
</svg>
