<?xml version="1.0" encoding="utf-8"?>
<!-- Generator: Adobe Illustrator 25.2.0, SVG Export Plug-In . SVG Version: 6.00 Build 0)  -->
<svg version="1.1" id="圖層_1" xmlns="http://www.w3.org/2000/svg" xmlns:xlink="http://www.w3.org/1999/xlink" x="0px" y="0px"
	 viewBox="0 0 42.7 42.7" style="enable-background:new 0 0 42.7 42.7;" xml:space="preserve">
<style type="text/css">
	.st0{clip-path:url(#SVGID_2_);}
	.st1{fill:#ED7700;}
	.st2{fill:#231815;}
</style>
<g>
	<defs>
		<rect id="SVGID_1_" width="42.7" height="42.7"/>
	</defs>
	<clipPath id="SVGID_2_">
		<use xlink:href="#SVGID_1_"  style="overflow:visible;"/>
	</clipPath>
	<g id="Group_796" class="st0">
		<path id="Path_977" class="st1" d="M42.7,21.3c0,11.8-9.6,21.3-21.3,21.3S0,33.1,0,21.3S9.6,0,21.3,0c0,0,0,0,0,0
			C33.1,0,42.7,9.6,42.7,21.3C42.7,21.3,42.7,21.3,42.7,21.3"/>
		<path id="Path_978" class="st2" d="M34.5,32.6c0,1.1-0.9,2-2,2c0,0-22.9,0-22.9,0C9.3,34.5,9,34.3,8.8,34
			c-0.4-0.4-0.6-0.9-0.6-1.4V10.3c0.1-1.2,1-2.1,2.1-2.2h22.3c0.6,0,1.1,0.3,1.4,0.7c0.3,0.2,0.5,0.5,0.6,0.9
			C34.5,9.7,34.5,32.6,34.5,32.6 M9.6,11.6v19.5L31.1,9.7H11.6C10.5,9.7,9.6,10.5,9.6,11.6C9.6,11.6,9.6,11.6,9.6,11.6"/>
	</g>
</g>
</svg>
