<?xml version="1.0" encoding="utf-8"?>
<!-- Generator: Adobe Illustrator 25.2.0, SVG Export Plug-In . SVG Version: 6.00 Build 0)  -->
<svg version="1.1" id="圖層_1" xmlns="http://www.w3.org/2000/svg" xmlns:xlink="http://www.w3.org/1999/xlink" x="0px" y="0px"
	 viewBox="0 0 42.7 42.7" style="enable-background:new 0 0 42.7 42.7;" xml:space="preserve">
<style type="text/css">
	.st0{clip-path:url(#SVGID_2_);}
	.st1{fill:#F4DC2E;}
	.st2{fill:#231815;}
</style>
<g id="Group_854" transform="translate(0 0)">
	<g>
		<defs>
			<rect id="SVGID_1_" width="42.7" height="42.7"/>
		</defs>
		<clipPath id="SVGID_2_">
			<use xlink:href="#SVGID_1_"  style="overflow:visible;"/>
		</clipPath>
		<g id="Group_853" transform="translate(0 0)" class="st0">
			<path id="Path_1105" class="st1" d="M42.7,21.3c0,11.8-9.6,21.3-21.3,21.3S0,33.1,0,21.3C0,9.6,9.6,0,21.3,0
				C33.1,0,42.7,9.6,42.7,21.3C42.7,21.3,42.7,21.3,42.7,21.3"/>
			<path id="Path_1106" class="st2" d="M36.6,24.7c0,3.1-6.8,6.8-15.2,6.8S6.1,27.8,6.1,24.7c0-0.4-0.1-8.8,0.2-9.2
				c1.5-2.5,7.7-4.4,15-4.4c7.6,0,14.1,2,15.2,4.7C36.6,16.2,36.5,24.4,36.6,24.7 M7.3,18c0.8,3,6.8,5.4,14.1,5.4s13.3-2.4,14.1-5.4
				c-2.6,2.2-7.9,3.1-14.1,3.1S9.9,20.2,7.3,18"/>
		</g>
	</g>
</g>
</svg>
