<?xml version="1.0" encoding="utf-8"?>
<!-- Generator: Adobe Illustrator 25.2.0, SVG Export Plug-In . SVG Version: 6.00 Build 0)  -->
<svg version="1.1" id="圖層_1" xmlns="http://www.w3.org/2000/svg" xmlns:xlink="http://www.w3.org/1999/xlink" x="0px" y="0px"
	 viewBox="0 0 42.7 42.7" style="enable-background:new 0 0 42.7 42.7;" xml:space="preserve">
<style type="text/css">
	.st0{clip-path:url(#SVGID_2_);}
	.st1{fill:#3061AC;}
	.st2{fill:#231815;}
</style>
<g id="Group_912" transform="translate(0 0)">
	<g>
		<defs>
			<rect id="SVGID_1_" width="42.7" height="42.7"/>
		</defs>
		<clipPath id="SVGID_2_">
			<use xlink:href="#SVGID_1_"  style="overflow:visible;"/>
		</clipPath>
		<g id="Group_911" transform="translate(0 0)" class="st0">
			<path id="Path_1213" class="st1" d="M42.7,21.3c0,11.8-9.6,21.3-21.3,21.3S0,33.1,0,21.3S9.6,0,21.3,0c0,0,0,0,0,0
				C33.1,0,42.7,9.6,42.7,21.3"/>
			<path id="Path_1214" class="st2" d="M7.6,35.1V14.8c0,0,6.4-7.2,8.3-7.2s7.5,9.6,8.6,9.6s3.3-4.6,5-4.6c1.7,0,5.5,8.4,5.5,8.4
				l0,14.1L7.6,35.1z M13.8,29.8l0.8-0.8l-0.8-0.8L13,28.9l-0.8-0.8L11.4,29l0.8,0.8l-0.8,0.8l0.8,0.8l0.8-0.8l0.8,0.8l0.8-0.8
				L13.8,29.8z M14.9,24.8l0.6,0.6l0.6-0.6l0.6,0.6l0.6-0.6l-0.6-0.6l0.6-0.6L16.6,23L16,23.6L15.4,23l-0.6,0.6l0.6,0.6L14.9,24.8z
				 M18.1,21l0.4,0.4l0.4-0.4l0.4,0.4l0.4-0.4l-0.4-0.4l0.4-0.4l-0.4-0.4l-0.4,0.4l-0.4-0.4l-0.4,0.4l0.4,0.4L18.1,21z M24.2,17.7
				l-6.8,16.4l2.3-0.1L25,17.7L24.2,17.7z M22.9,17.6l-9,16.5l2.3-0.1l7.4-16.4L22.9,17.6z M24.8,27.9l-0.7,0.7l-0.7-0.7l-0.7,0.7
				l0.7,0.7l-0.7,0.7l0.7,0.7l0.7-0.7l0.7,0.7l0.7-0.7l-0.7-0.7l0.7-0.7L24.8,27.9z M25.9,19.8l-0.3,0.3l-0.3-0.3L25,20.1l0.3,0.3
				L25,20.7l0.3,0.3l0.3-0.3l0.3,0.3l0.3-0.3l-0.3-0.3l0.3-0.3L25.9,19.8z M25.1,23.3l-0.4,0.4l-0.4-0.4l-0.4,0.4l0.4,0.4l-0.4,0.4
				l0.4,0.4l0.4-0.4l0.4,0.4l0.4-0.4l-0.4-0.4l0.4-0.4L25.1,23.3z"/>
		</g>
	</g>
</g>
</svg>
