<?xml version="1.0" encoding="utf-8"?>
<!-- Generator: Adobe Illustrator 25.2.0, SVG Export Plug-In . SVG Version: 6.00 Build 0)  -->
<svg version="1.1" id="圖層_1" xmlns="http://www.w3.org/2000/svg" xmlns:xlink="http://www.w3.org/1999/xlink" x="0px" y="0px"
	 viewBox="0 0 42.7 42.7" style="enable-background:new 0 0 42.7 42.7;" xml:space="preserve">
<style type="text/css">
	.st0{clip-path:url(#SVGID_2_);}
	.st1{fill:#209BAD;}
	.st2{fill:#231815;}
</style>
<g>
	<defs>
		<rect id="SVGID_1_" width="42.7" height="42.7"/>
	</defs>
	<clipPath id="SVGID_2_">
		<use xlink:href="#SVGID_1_"  style="overflow:visible;"/>
	</clipPath>
	<g id="Group_818" class="st0">
		<path id="Path_1024" class="st1" d="M42.7,21.3c0,11.8-9.6,21.3-21.3,21.3S0,33.1,0,21.3S9.6,0,21.3,0c0,0,0,0,0,0
			C33.1,0,42.7,9.6,42.7,21.3"/>
		<path id="Path_1025" class="st2" d="M30.4,24c-0.1,0-0.1,0-0.2,0c-1,0.7-2,1.2-3.1,1.6c-0.7,0.5-1.3,0.9-2.1,1.2
			c-1.8,2.4-3.1,4.9-7.7,6.5c-3.9,1.2-6.9-0.9-8-1.1c-1.8-0.4-3.4-1.7-4.1-3.5c0,0,0,0.1,0,0.1c0,0.1,0.1,0.2,0.1,0.3
			c0-0.1-0.1-0.2-0.1-0.3c0-0.1,0-0.1-0.1-0.2c-0.1-0.4-0.2-0.9-0.2-1.3C4.4,22.9,3.6,12,11.7,14.1c5.7,1.5,8.8-2,12.3-4.3
			c3-2.2,4.7,1,5.6,0.4c6.5-1.6,6.8,1.2,8.3,2.6c0,0,0.1,4,0,4c0,0,0-0.1,0-0.2C38.3,18.7,36.9,23.1,30.4,24 M35.5,12.9
			c0.9,0.5,1.6,1.3,2,2.3C37.1,14.2,36.4,13.4,35.5,12.9 M38,16.5c0-0.2-0.1-0.4-0.2-0.6C37.9,16.1,37.9,16.3,38,16.5 M5.1,27
			c0,0.1,0,0.2,0,0.3c0,0,0,0,0,0.1C5.1,27.3,5.1,27.1,5.1,27 M29.3,12.4c-1.4,0.4-3.1-2.7-4.6-0.3c-3.3,5.4-3.7,5.8-10.7,4.8
			C11,16.4,8.9,15.7,8.1,17c-2.9,4.9-1.6,6.2-1.6,6.2s0,0-0.1,0.1c0,0,0,0,0.1-0.1c1.6-0.8,2.9-0.6,4.4-0.6s7.4-2.8,9.4-3.2
			c1.5-0.3,3.6,2,5,3c0.7,0.2,1.5,0.3,2.2,0.3c-0.6-1.1-0.7-2.4-0.2-3.5c0.4-2.2,3-4,4.6-5.1c1.1-0.6,2.2-1.1,3.3-1.4
			c0,0,0.1,0,0.3,0.1C34.2,12,32.2,11.6,29.3,12.4 M6.4,23.3c-0.3,0.3-0.5,0.6-0.7,0.9C6,23.9,6.2,23.5,6.4,23.3 M5.8,24.2
			C5.3,25,5,26,5.1,27C5.1,26,5.3,25.1,5.8,24.2 M17.5,25.4c-2.4,2.2-4.4,4.5-2.5,6.1c1.9,1.6,3.9,0.3,6.3-1.9s3.6-4.9,2.5-6.1
			S19.9,23.2,17.5,25.4 M31.9,17.4c-1.5,1.8-2.2,3.9-1.2,4.5c1.4,1,2.8-0.1,4.3-1.8s2.1-3.8,1.2-4.5S33.4,15.7,31.9,17.4 M37.7,15.7
			c0.1,0.1,0.1,0.2,0.1,0.2c-0.1-0.3-0.2-0.5-0.3-0.8C37.6,15.3,37.6,15.5,37.7,15.7 M13,32.2C13,32.2,13,32.2,13,32.2
			C13,32.2,13,32.2,13,32.2 M5.3,28.7c0,0,0,0.1,0,0.1c-0.1-0.3-0.2-0.8-0.3-1.4C5.1,27.8,5.2,28.2,5.3,28.7 M21.7,21.4
			c-2.5-0.3-5,0.3-7,1.7c-3.7,2.8-4.3,5.8-3,8.1c0.3,0.4,0.8,0.8,1.3,1C10.1,28.1,14.8,22.6,21.7,21.4"/>
	</g>
</g>
</svg>
