<?xml version="1.0" encoding="utf-8"?>
<!-- Generator: Adobe Illustrator 25.2.0, SVG Export Plug-In . SVG Version: 6.00 Build 0)  -->
<svg version="1.1" id="圖層_1" xmlns="http://www.w3.org/2000/svg" xmlns:xlink="http://www.w3.org/1999/xlink" x="0px" y="0px"
	 viewBox="0 0 42.7 42.7" style="enable-background:new 0 0 42.7 42.7;" xml:space="preserve">
<style type="text/css">
	.st0{clip-path:url(#SVGID_2_);}
	.st1{fill:#44AF35;}
	.st2{fill:#231815;}
</style>
<g>
	<defs>
		<rect id="SVGID_1_" width="42.7" height="42.7"/>
	</defs>
	<clipPath id="SVGID_2_">
		<use xlink:href="#SVGID_1_"  style="overflow:visible;"/>
	</clipPath>
	<g id="Group_808" class="st0">
		<path id="Path_1003" class="st1" d="M42.7,21.3c0,11.8-9.6,21.3-21.3,21.3S0,33.1,0,21.3S9.6,0,21.3,0c0,0,0,0,0,0
			C33.1,0,42.7,9.6,42.7,21.3"/>
		<path id="Path_1004" class="st2" d="M36,25.7c-3.1,1.9-6.7,2.8-10.4,2.4c-2.5-0.3-4.9-1.1-7.1-2.3c0.1,1.5,0.5,3,1.2,4.4
			c0.2,0.6,2.6,3.7-3.4,3.8c-3.8,0.1-6.6-3-7.7-4.5c-0.7-0.2-1.4-0.8-1.9-2.7c-0.8-3-1.4-9.9,2.5-13.1c1.7-1.4,3.7-2.5,5.8-3.1
			c0.6-1,1.7-1.7,2.9-1.8c1.2-0.2,2.4,0.3,3.1,1.3c4.2,0.4,10.7,2.6,11.7,12c-0.1,0.3,3.2,1.9,3.2,1.9S37.4,24.7,36,25.7 M17.6,23.7
			c-1.5-3.7-1.7-7.7-0.6-11.5c-0.6-0.1-1.1-0.3-1.7-0.5c-1.1,3.7-1.1,7.7,0.2,11.4L17.6,23.7z M21.5,11c0,0,0,0.2-1,0.8
			c7.3,5.1,8.7,11.4,8.7,11.4l1.4-0.4C30.6,22.7,28.2,14.5,21.5,11 M16.1,25.1c-0.6,0.2-4.9,3.5-4.9,3.5c0.2,2.2,4.1,2.9,4.6,2.9
			s2.7,0.3,1.6-1.9C15.6,25.1,16.7,24.9,16.1,25.1"/>
		<path id="Path_1005" class="st2" d="M21.3,31.2c0-0.8-0.2-1.6-0.7-2.2c3.9,0.8,2.7-0.2,3-0.1c0.6,0.1,1.2,0.2,1.8,0.3
			C25.8,32.6,20.9,31.2,21.3,31.2"/>
	</g>
</g>
</svg>
