<?xml version="1.0" encoding="utf-8"?>
<!-- Generator: Adobe Illustrator 25.2.0, SVG Export Plug-In . SVG Version: 6.00 Build 0)  -->
<svg version="1.1" id="圖層_1" xmlns="http://www.w3.org/2000/svg" xmlns:xlink="http://www.w3.org/1999/xlink" x="0px" y="0px"
	 viewBox="0 0 42.7 42.7" style="enable-background:new 0 0 42.7 42.7;" xml:space="preserve">
<style type="text/css">
	.st0{clip-path:url(#SVGID_2_);}
	.st1{fill:#E50012;}
	.st2{fill:#231815;}
</style>
<g id="Group_884" transform="translate(0 0)">
	<g>
		<defs>
			<rect id="SVGID_1_" width="42.7" height="42.7"/>
		</defs>
		<clipPath id="SVGID_2_">
			<use xlink:href="#SVGID_1_"  style="overflow:visible;"/>
		</clipPath>
		<g id="Group_883" transform="translate(0 0)" class="st0">
			<path id="Path_1146" class="st1" d="M42.7,21.3c0,11.8-9.6,21.3-21.3,21.3S0,33.1,0,21.3S9.6,0,21.3,0c0,0,0,0,0,0
				C33.1,0,42.7,9.6,42.7,21.3C42.7,21.3,42.7,21.3,42.7,21.3"/>
			<path id="Path_1147" class="st2" d="M17.5,7.1C17.7,7.1,17.9,7,18.1,7c0.7-0.2,1.4-0.3,2.1-0.3c0.4,0,0.8-0.1,1.2-0.1
				c0.2,0,0.4,0,0.6,0c0,0,0.6,0,0.6,0v2.3c0,0,0,0,0,0h-0.9c-0.5,0-1,0-1.6,0.1c-0.5,0.1-1,0.1-1.4,0.2c-0.3,0.1-0.6,0.1-0.9,0.2
				c0,0,0,0,0-0.1c-0.1-0.3-0.1-0.6-0.2-0.9c-0.1-0.4-0.1-0.7-0.2-1.1c0-0.1,0-0.2-0.1-0.3c0,0,0,0,0,0C17.3,7.2,17.5,7.1,17.5,7.1"
				/>
			<path id="Path_1148" class="st2" d="M9.3,12.9c0.4-0.5,0.8-1,1.2-1.5c0.3-0.3,0.6-0.6,0.9-0.9c0.4-0.4,0.9-0.8,1.4-1.1
				c0.1,0.1,0.2,0.3,0.4,0.4c0.2,0.3,0.5,0.6,0.7,0.9c0.1,0.2,0.3,0.3,0.4,0.5l0,0l-0.8,0.6c-0.4,0.4-0.8,0.7-1.2,1.1
				c-0.3,0.3-0.6,0.7-0.8,1c0,0-0.5,0.6-0.5,0.6c-0.2-0.1-0.4-0.3-0.5-0.4c-0.3-0.2-0.6-0.5-0.9-0.7c-0.1-0.1-0.2-0.2-0.3-0.2
				c0,0-0.1,0-0.1-0.1l0,0C9.1,13.1,9.2,12.9,9.3,12.9"/>
			<path id="Path_1149" class="st2" d="M6.7,23C6.7,23,6.7,23,6.7,23L6.7,23C6.7,23,6.7,22.9,6.7,23c-0.1-0.3-0.1-0.5-0.1-0.6
				c0-0.3,0-0.7,0-1c0-0.5,0-1,0.1-1.4c0.1-0.7,0.2-1.5,0.4-2.2c0.2,0,0.4,0.1,0.6,0.1C8,17.8,8.4,17.9,8.7,18
				c0.2,0,0.4,0.1,0.6,0.1c0,0.2-0.1,0.4-0.1,0.6c-0.1,0.4-0.1,0.8-0.2,1.2C9,20.5,9,21.2,9,21.8c0,0.3,0,0.7,0,1c0,0,0,0.1,0,0.1
				c0,0,0,0,0,0c-0.1,0-0.2,0-0.3,0l-1.1,0C7.3,22.9,7,22.9,6.7,23"/>
			<path id="Path_1150" class="st2" d="M12.9,30.5C12.9,30.5,12.9,30.5,12.9,30.5c-0.3,0.3-0.5,0.5-0.8,0.7
				c-0.3,0.2-0.5,0.5-0.8,0.7L11.2,32c0,0-0.3-0.3-0.3-0.3c-0.1-0.1-0.3-0.3-0.4-0.4c-0.5-0.5-0.9-1-1.3-1.6
				c-0.4-0.6-0.8-1.2-1.1-1.9c0,0,0-0.1-0.1-0.1c0,0,0,0,0,0c0,0,0.1,0,0.1-0.1c0.1-0.1,0.2-0.1,0.4-0.2c0.3-0.2,0.7-0.4,1-0.6
				c0.2-0.1,0.4-0.2,0.5-0.3c0.1,0.1,0.1,0.2,0.2,0.3c0.2,0.3,0.3,0.5,0.5,0.8c0.4,0.6,0.8,1.2,1.3,1.8c0.2,0.2,0.4,0.5,0.7,0.7
				C12.7,30.3,12.8,30.4,12.9,30.5C12.9,30.5,12.9,30.5,12.9,30.5"/>
			<path id="Path_1151" class="st2" d="M20.8,33.9c0,0.3-0.1,0.6-0.1,1s-0.1,0.7-0.1,1c0,0,0,0.1,0,0.1c0,0,0,0,0,0
				c-0.4,0-0.8-0.1-1.1-0.1c-0.6-0.1-1.2-0.2-1.8-0.4c-0.7-0.2-1.4-0.4-2.1-0.7c0,0-0.1,0-0.1-0.1c0,0,0,0,0,0l0-0.1
				c0-0.1,0.1-0.3,0.1-0.4c0.1-0.4,0.3-0.7,0.4-1.1c0.1-0.2,0.1-0.4,0.2-0.6c0,0,0,0,0,0c0.3,0.1,0.6,0.2,0.9,0.3
				c0.5,0.2,1,0.3,1.5,0.5c0.5,0.1,0.9,0.2,1.4,0.3c0.3,0,0.6,0.1,0.9,0.1C20.8,33.8,20.8,33.9,20.8,33.9"/>
			<path id="Path_1152" class="st2" d="M30.1,33.3c-0.3,0.2-0.6,0.4-0.9,0.6c-0.6,0.3-1.1,0.7-1.7,0.9c-0.3,0.1-0.7,0.3-1,0.4
				c-0.2,0.1-0.4,0.1-0.5,0.2c-0.1,0-0.2,0.1-0.3,0.1c0,0-0.1,0-0.1,0c-0.1-0.2-0.2-0.4-0.2-0.7c-0.1-0.4-0.3-0.7-0.4-1.1
				c0-0.1-0.1-0.2-0.1-0.4c0,0,0-0.1,0-0.1s0,0,0,0c0.3-0.1,0.6-0.2,0.9-0.3c0.5-0.2,1-0.4,1.4-0.6c0.4-0.2,0.8-0.5,1.2-0.7
				c0.2-0.2,0.5-0.3,0.7-0.5c0,0.1,0.1,0.1,0.1,0.2c0.2,0.3,0.4,0.6,0.5,0.9l0.5,0.8l0.1,0.1c0,0,0,0,0,0
				C30.1,33.2,30.1,33.3,30.1,33.3"/>
			<path id="Path_1153" class="st2" d="M30.4,21.4c0,0.6-0.1,1.2-0.2,1.8c-0.1,0.6-0.3,1.1-0.5,1.6c-0.5,1.1-1.1,2.1-2,3
				c-0.9,0.9-1.9,1.6-3,2c-2.2,0.9-4.7,0.9-6.9,0c-2.3-1-4.1-2.8-5-5c-0.9-2.2-0.9-4.7,0-6.9c0.5-1.1,1.2-2.1,2-3
				c0.4-0.4,0.9-0.8,1.4-1.2c0.5-0.3,1-0.6,1.6-0.8c2.2-0.9,4.7-0.9,6.9,0c1,0.4,2,1,2.8,1.8l1.8-1.7v5.9h-5.9l1.8-1.8
				c-0.5-0.5-1.1-0.8-1.8-1.1c-0.7-0.3-1.4-0.4-2.1-0.4c-1.5,0-3,0.6-4.1,1.7c-0.5,0.5-1,1.2-1.3,1.9c-0.6,1.4-0.6,3,0,4.4
				c0.6,1.4,1.7,2.6,3.1,3.2c1.4,0.6,3,0.6,4.4,0c1.4-0.6,2.5-1.7,3.1-3.1c0.3-0.7,0.4-1.4,0.4-2.2V21h3.3L30.4,21.4z"/>
			<path id="Path_1154" class="st2" d="M31.6,10.7C31.6,10.8,31.5,10.8,31.6,10.7c-0.2,0.2-0.2,0.3-0.3,0.4
				c-0.2,0.3-0.5,0.6-0.7,0.9c-0.1,0.2-0.3,0.3-0.4,0.5c0,0,0,0,0,0c-0.3-0.2-0.5-0.4-0.8-0.6c-0.4-0.3-0.8-0.6-1.3-0.9
				c-0.4-0.2-0.8-0.5-1.2-0.7c-0.3-0.1-0.5-0.3-0.8-0.4c0.1-0.2,0.2-0.3,0.3-0.5c0.2-0.3,0.4-0.7,0.5-1C27,8.2,27.1,8,27.2,7.8
				c0.5,0.2,1,0.5,1.5,0.8c0.4,0.2,0.8,0.5,1.2,0.7C30.4,9.7,31,10.1,31.6,10.7C31.5,10.6,31.6,10.7,31.6,10.7
				C31.6,10.7,31.6,10.7,31.6,10.7"/>
			<path id="Path_1155" class="st2" d="M35.6,25.3c0,0.2-0.1,0.4-0.2,0.5c-0.1,0.3-0.2,0.6-0.3,1c-0.1,0.2-0.1,0.4-0.2,0.5
				s-0.2,0.4-0.3,0.6c-0.1,0.2-0.2,0.4-0.3,0.7c-0.2,0.3-0.4,0.7-0.6,1c0,0,0,0.1-0.1,0.1c0,0,0,0,0,0c0,0-0.1,0-0.1-0.1
				c-0.1-0.1-0.2-0.1-0.4-0.2c-0.3-0.2-0.7-0.4-1-0.6c-0.2-0.1-0.4-0.2-0.5-0.3c0,0,0,0,0,0c0.2-0.3,0.3-0.6,0.5-0.8
				c0.3-0.5,0.5-0.9,0.7-1.4c0.2-0.4,0.3-0.9,0.5-1.3c0.1-0.3,0.2-0.5,0.3-0.8c0.2,0.1,0.3,0.1,0.5,0.2c0.4,0.1,0.7,0.2,1.1,0.3
				c0.2,0.1,0.4,0.1,0.6,0.2C35.8,24.8,35.6,25.2,35.6,25.3"/>
			<path id="Path_1156" class="st2" d="M36.1,19.8C36.1,19.8,36.1,19.8,36.1,19.8l-0.1,0c-0.1,0-0.3,0.1-0.4,0.1l-1.1,0.2
				c-0.2,0-0.4,0.1-0.6,0.1v0c-0.1-0.3-0.1-0.6-0.2-1c-0.1-0.5-0.2-1-0.4-1.5c-0.1-0.5-0.3-0.9-0.5-1.3c-0.1-0.3-0.2-0.5-0.3-0.8
				c0.2-0.1,0.3-0.1,0.5-0.2c0.3-0.1,0.7-0.3,1.1-0.4c0.2-0.1,0.4-0.2,0.6-0.2c0.3,0.6,0.6,1.2,0.8,1.8c0.2,0.5,0.3,0.9,0.4,1.4
				c0.1,0.6,0.2,1.2,0.3,1.7C36.1,19.7,36.1,19.7,36.1,19.8"/>
		</g>
	</g>
</g>
</svg>
