<?xml version="1.0" encoding="utf-8"?>
<!-- Generator: Adobe Illustrator 25.2.0, SVG Export Plug-In . SVG Version: 6.00 Build 0)  -->
<svg version="1.1" id="圖層_1" xmlns="http://www.w3.org/2000/svg" xmlns:xlink="http://www.w3.org/1999/xlink" x="0px" y="0px"
	 viewBox="0 0 42.7 42.7" style="enable-background:new 0 0 42.7 42.7;" xml:space="preserve">
<style type="text/css">
	.st0{clip-path:url(#SVGID_2_);}
	.st1{fill:#ED7700;}
	.st2{fill-rule:evenodd;clip-rule:evenodd;fill:#231815;}
</style>
<g>
	<defs>
		<rect id="SVGID_1_" width="42.7" height="42.7"/>
	</defs>
	<clipPath id="SVGID_2_">
		<use xlink:href="#SVGID_1_"  style="overflow:visible;"/>
	</clipPath>
	<g id="Group_782" class="st0">
		<path id="Path_956" class="st1" d="M42.7,21.3c0,11.8-9.6,21.3-21.3,21.3S0,33.1,0,21.3S9.6,0,21.3,0c0,0,0,0,0,0
			C33.1,0,42.7,9.6,42.7,21.3"/>
		<path id="Path_957" class="st2" d="M34.4,34.9c-1.7,1.5-4.7,1.5-6.1,0.1c-4-3.4-5.1-8.9-7.4-11c-3-2.2-6-2-9.1-3.9
			c-2.1-1.5-3.7-3.5-4.7-5.9c-2.1-4.2,1.3-9.4,8.1-7.2c2.5,0.8,4.8,2.2,6.7,4c5.5,5.1,2.8,7.4,10.6,13.9
			C38.5,30.4,35.3,34.1,34.4,34.9 M30.5,24.6c0,0-3,3.6,1.1,10.5C35.1,34.8,37.5,29.7,30.5,24.6 M33.6,32.3
			c-0.4,0.3-0.8,0.6-1.3,0.8c-2.2-3.8-0.8-5.8-0.8-5.8c0.5,0.3,0.9,0.6,1.4,0.9C32.2,30.1,33.6,32.3,33.6,32.3 M23.7,14.5
			c-0.9-1.3-1.9-2.5-3.1-3.5l-0.1,0.7L16.5,11l-0.1-2.6L15,7.9l0.1,2.9l-4.3-0.6l-0.7-2.3L9,8.6l0.4,1.5L8,10l-0.4,1.3l2.2,0.3
			l0.9,3.1l-2.5-0.2l0.6,1.4l2.2,0.2l1,3.4c2.5,1.3,5.8,1.9,7.9,2.9c-0.1-0.5-0.6-2.8-0.6-2.8l8.7,2.2C25.8,19,25.2,16.7,23.7,14.5
			 M11.3,11.7l3.9,0.5l0.1,2.9l-3.2-0.3L11.3,11.7z M13.2,18.8l-0.7-2.6l2.9,0.3l0.2,3.1L13.2,18.8z M19.3,18.4L17.9,18l0.6,2.6
			l-1.6-0.6l-0.1-3.4l2.8,0.6L19.3,18.4z M19.8,16l-3.1-0.7l-0.1-2.8l3.8,0.7L19.8,16z M21.5,13.6c0.5,0.5,0.9,1,1.3,1.6
			c0.4,0.6,0.8,1.3,1.2,1.9l-2.9-0.8L21.5,13.6z M20.8,17.7l3.7,1L25,20l-4.4-1.2L20.8,17.7z M24.5,27.7c2.1,5.4,5.1,7.2,5.8,7.2
			c-1-2.7-1.7-4-1.8-6.2C27.8,28.6,26,28.1,24.5,27.7"/>
	</g>
</g>
</svg>
