<?xml version="1.0" encoding="utf-8"?>
<!-- Generator: Adobe Illustrator 25.2.0, SVG Export Plug-In . SVG Version: 6.00 Build 0)  -->
<svg version="1.1" id="圖層_1" xmlns="http://www.w3.org/2000/svg" xmlns:xlink="http://www.w3.org/1999/xlink" x="0px" y="0px"
	 viewBox="0 0 42.7 42.7" style="enable-background:new 0 0 42.7 42.7;" xml:space="preserve">
<style type="text/css">
	.st0{clip-path:url(#SVGID_2_);}
	.st1{fill:#E50012;}
	.st2{fill:#231815;}
</style>
<g>
	<defs>
		<rect id="SVGID_1_" width="42.7" height="42.7"/>
	</defs>
	<clipPath id="SVGID_2_">
		<use xlink:href="#SVGID_1_"  style="overflow:visible;"/>
	</clipPath>
	<g id="Group_897" class="st0">
		<path id="Path_1176" class="st1" d="M42.7,21.3c0,11.8-9.6,21.3-21.3,21.3S0,33.1,0,21.3S9.6,0,21.3,0c0,0,0,0,0,0
			C33.1,0,42.7,9.6,42.7,21.3C42.7,21.3,42.7,21.3,42.7,21.3"/>
		<path id="Path_1177" class="st2" d="M11.2,26.4l-2.4-7l-1.2,1.6l-0.9-2.7l1.6-2l1.9,0l3.5,10L11.2,26.4z"/>
		<path id="Path_1178" class="st2" d="M19.7,36.1L9.2,6.6h1.9l10.5,29.5H19.7z"/>
		<path id="Path_1179" class="st2" d="M19.7,26.6L19,24.7l0.1-0.1c0.1-0.1,0.2-0.3,0.3-0.4c0.7-1,2.1-3.2,1.7-4.6
			c-0.3-0.7-0.9-1.1-1.6-1.1l0,0c-0.6,0.1-1.2,0.3-1.7,0.8l-0.3,0.3l-0.8-2.3l0.2-0.1c0.7-0.5,1.6-0.7,2.5-0.7h0
			c1.8,0,3.5,1.2,4,2.9c0.7,1.9-0.3,3.7-1.2,5.2l3.3,0l0.7,2.1L19.7,26.6z"/>
		<path id="Path_1180" class="st2" d="M31,36.1L31,35.9L20.5,6.6h1.9l0.1,0.2l10.5,29.3H31z"/>
		<path id="Path_1181" class="st2" d="M35.7,25.5c-0.6,0.7-1.5,1.1-2.4,1h0c-0.7,0-1.4-0.1-2.1-0.3l-0.2,0l-0.9-2.4l0.7,0.2
			c0.6,0.2,1.2,0.4,1.8,0.4h0c0.4,0,0.7-0.1,1-0.4c0.1-0.3,0.2-0.6,0-0.9c-0.3-0.9-1.2-1.4-2.1-1.4c-0.2,0-0.4,0-0.5,0.1l-0.3,0.1
			l-0.6-1.6l1-1.9l-3.2,0l-0.7-2l5.8,0l0.6,1.7l-0.9,1.7c0.6,0.1,1.2,0.4,1.6,0.8c0.7,0.6,1.2,1.4,1.5,2.3
			C36.2,23.8,36.2,24.8,35.7,25.5"/>
	</g>
</g>
</svg>
