<?xml version="1.0" encoding="utf-8"?>
<!-- Generator: Adobe Illustrator 25.2.0, SVG Export Plug-In . SVG Version: 6.00 Build 0)  -->
<svg version="1.1" id="圖層_1" xmlns="http://www.w3.org/2000/svg" xmlns:xlink="http://www.w3.org/1999/xlink" x="0px" y="0px"
	 viewBox="0 0 42.7 42.7" style="enable-background:new 0 0 42.7 42.7;" xml:space="preserve">
<style type="text/css">
	.st0{clip-path:url(#SVGID_2_);}
	.st1{fill:#44AF35;}
	.st2{fill:#231815;}
</style>
<g>
	<defs>
		<rect id="SVGID_1_" width="42.7" height="42.7"/>
	</defs>
	<clipPath id="SVGID_2_">
		<use xlink:href="#SVGID_1_"  style="overflow:visible;"/>
	</clipPath>
	<g id="Group_802" class="st0">
		<path id="Path_992" class="st1" d="M42.7,21.3c0,11.8-9.6,21.3-21.3,21.3S0,33.1,0,21.3S9.6,0,21.3,0c0,0,0,0,0,0
			C33.1,0,42.7,9.6,42.7,21.3"/>
		<path id="Path_993" class="st2" d="M32.6,24c-2.2-2.3-4.2-5-5.7-7.8c-0.9-2.1-2.3-3.9-4.1-5.3c-2-1.8-4.5-3.1-7.1-3.8
			c-2.6-0.8-5.5-0.1-7.5,1.8c-1.8,1.9-2.1,4.7-0.9,6.9c0.9,1.9,2.2,3.5,4,4.6c1.8,1.1,6.7,3.2,9.6,5.4c2.2,2.1,2.3,5.6,6.3,9
			c2.1,1.7,5.1,1.8,7.4,0.3C35.8,34.2,38,29.8,32.6,24 M11.5,18.5c-0.5-0.4-0.9-0.8-1.3-1.3v-3.7l0.1-0.1h3.1v-3.1l0.1-0.1h5.7
			c0.7,0.4,1.4,0.8,2,1.3h-6.5v3.1l-0.1,0.1h-3.1V18.5z M14.7,20.4c-0.5-0.3-1-0.5-1.3-0.7v-3.9l0.1-0.1h3.1v-3.1l0.1-0.1h5.5
			c0.4,0.4,0.8,0.9,1.2,1.3H18v3.1L17.8,17h-3.1V20.4z M17.8,22c-0.5-0.3-0.9-0.5-1.3-0.7v-3l0.1-0.1h3.1v-3.1l0.1-0.1h4.6
			c0.4,0.5,0.6,0.9,0.9,1.3h-4.3v3.1l-0.1,0.1h-3.1L17.8,22z M24,21.9L23.9,22h-3.1v1.7c-0.4-0.3-0.9-0.6-1.3-0.8v-2.1l0.1-0.1h3.1
			v-3.1l0.1-0.1H26c0.3,0.4,0.6,0.9,0.9,1.3H24L24,21.9z M24.1,28.1l2.5-1l0.8,1.2L25,29.8C24.6,29.2,24.3,28.7,24.1,28.1
			 M27.2,32.9c-0.4-0.5-0.8-1-1.2-1.5l2.2-1.7l1,1L27.2,32.9z M28.3,25.7l2.1-2.3c0.6,0.7,1,1.2,1,1.2c0.1,0.1,0.2,0.2,0.3,0.4
			l-2.3,1.9L28.3,25.7z M33.2,32.3l-1.3-0.1l-0.1,1.2l-0.9-0.1l0.1-1.2l-1.3-0.1l0.1-0.9l1.3,0.2l0.1-1.2l0.9,0.1L32,31.2l1.3,0.1
			L33.2,32.3z M31,29.1l-0.6-1l2.3-1.9c0.4,0.5,0.7,1,1,1.5L31,29.1z"/>
	</g>
</g>
</svg>
