<?xml version="1.0" encoding="utf-8"?>
<!-- Generator: Adobe Illustrator 25.2.0, SVG Export Plug-In . SVG Version: 6.00 Build 0)  -->
<svg version="1.1" id="圖層_1" xmlns="http://www.w3.org/2000/svg" xmlns:xlink="http://www.w3.org/1999/xlink" x="0px" y="0px"
	 viewBox="0 0 42.7 42.7" style="enable-background:new 0 0 42.7 42.7;" xml:space="preserve">
<style type="text/css">
	.st0{clip-path:url(#SVGID_2_);}
	.st1{fill:#F4DC2E;}
	.st2{fill:#231815;}
</style>
<g id="Group_856" transform="translate(0 0)">
	<g>
		<defs>
			<rect id="SVGID_1_" width="42.7" height="42.7"/>
		</defs>
		<clipPath id="SVGID_2_">
			<use xlink:href="#SVGID_1_"  style="overflow:visible;"/>
		</clipPath>
		<g id="Group_855" transform="translate(0 0)" class="st0">
			<path id="Path_1107" class="st1" d="M42.7,21.3c0,11.8-9.6,21.3-21.3,21.3S0,33.1,0,21.3S9.6,0,21.3,0c0,0,0,0,0,0
				C33.1,0,42.7,9.6,42.7,21.3"/>
			<path id="Path_1108" class="st2" d="M21.3,36.1c-8.1,0-14.7-6.6-14.7-14.7S13.2,6.6,21.3,6.6s14.7,6.6,14.7,14.7c0,0,0,0,0,0
				C36.1,29.5,29.5,36.1,21.3,36.1 M27.8,9.5c-0.3-0.1-1.9-0.2-1.9-0.2s6.4,4,5.9,10.1c-1.1-0.4-2.2-0.9-3.3-1.5
				c0-8-9.4-9.9-9.4-9.9s-1.6,0.6-1.6,0.6c0.5,0.2,1.1,0.4,1.6,0.7c-5.5,2.5-9.5,7.4-10.9,13.2L9,23.9c0,0,2.9-9.5,11.9-13.7
				c0.8,0.5,1.6,1,2.4,1.6c-10.3,6-11.9,18.2-11.9,18.2l1.2,0.8c0,0,3.2-11.4,12.4-17.2c0.9,1.1,1.5,2.5,1.7,3.9
				c-8.4,6.1-9.9,16-9.9,16l1.2,0.6c0.5-1.6,1.2-3.1,1.9-4.5c5.4,3.8,8.3,3.4,8.3,3.4l1.2-1c0,0-3.6-0.6-8.6-4.3
				c0.7-0.9,1-1.7,2.1-3.1c5.4,3.3,9.8,3.2,9.8,3.2l1-1.4c0,0-3.1-0.2-9.5-3.5c1-1.2,2.1-2.3,3.3-3.3c2.2,1.4,4.7,2.3,7.3,2.5v-1.5
				c-0.4,0-0.8,0-1.2-0.2C33.5,19.7,34.2,14.1,27.8,9.5"/>
		</g>
	</g>
</g>
</svg>
