<?xml version="1.0" encoding="utf-8"?>
<!-- Generator: Adobe Illustrator 25.2.0, SVG Export Plug-In . SVG Version: 6.00 Build 0)  -->
<svg version="1.1" id="圖層_1" xmlns="http://www.w3.org/2000/svg" xmlns:xlink="http://www.w3.org/1999/xlink" x="0px" y="0px"
	 viewBox="0 0 42.7 42.7" style="enable-background:new 0 0 42.7 42.7;" xml:space="preserve">
<style type="text/css">
	.st0{clip-path:url(#SVGID_2_);}
	.st1{fill:#44AF35;}
	.st2{fill:#231815;}
</style>
<g>
	<defs>
		<rect id="SVGID_1_" width="42.7" height="42.7"/>
	</defs>
	<clipPath id="SVGID_2_">
		<use xlink:href="#SVGID_1_"  style="overflow:visible;"/>
	</clipPath>
	<g id="Group_816" class="st0">
		<path id="Path_1021" class="st1" d="M42.7,21.3c0,11.8-9.6,21.3-21.3,21.3S0,33.1,0,21.3S9.6,0,21.3,0c0,0,0,0,0,0
			C33.1,0,42.7,9.6,42.7,21.3C42.7,21.3,42.7,21.3,42.7,21.3"/>
		<path id="Path_1022" class="st2" d="M31.4,7.6c4.2,2.2,5.9,7.3,3.7,11.5c0,0,0,0,0,0l-2.5,0c1.6-3.1,0.4-6.9-2.8-8.5
			s-6.9-0.4-8.5,2.8l-1.4-2.1C22,7.1,27.2,5.4,31.4,7.6C31.4,7.6,31.4,7.6,31.4,7.6"/>
		<path id="Path_1023" class="st2" d="M36.1,36.1l-29.5,0v-9.9c0,0,9.5-9.9,10.9-9.9s5.5,7,6.2,7s2.4-3.3,3.6-3.3
			c1.2,0,8.7,15.1,8.7,15.1L36.1,36.1z"/>
	</g>
</g>
</svg>
