<?xml version="1.0" encoding="utf-8"?>
<!-- Generator: Adobe Illustrator 25.2.0, SVG Export Plug-In . SVG Version: 6.00 Build 0)  -->
<svg version="1.1" id="圖層_1" xmlns="http://www.w3.org/2000/svg" xmlns:xlink="http://www.w3.org/1999/xlink" x="0px" y="0px"
	 viewBox="0 0 42.7 42.7" style="enable-background:new 0 0 42.7 42.7;" xml:space="preserve">
<style type="text/css">
	.st0{clip-path:url(#SVGID_2_);}
	.st1{fill:#ED7700;}
	.st2{fill:#231815;}
</style>
<g>
	<defs>
		<rect id="SVGID_1_" width="42.7" height="42.7"/>
	</defs>
	<clipPath id="SVGID_2_">
		<use xlink:href="#SVGID_1_"  style="overflow:visible;"/>
	</clipPath>
	<g id="Group_790" class="st0">
		<path id="Path_969" class="st1" d="M42.7,21.3c0,11.8-9.6,21.3-21.3,21.3S0,33.1,0,21.3S9.6,0,21.3,0c0,0,0,0,0,0
			C33.1,0,42.7,9.6,42.7,21.3C42.7,21.3,42.7,21.3,42.7,21.3"/>
		<path id="Path_970" class="st2" d="M19.3,27.1L16,26.6l5.8-5.8l2.2,1.6L19.3,27.1z M8.2,29.7c0.4-0.1,0.8-0.2,1.3-0.2
			c0.8,0,1.6,0.3,2.2,0.8c0.6,0,1.4,0,2.1,0c1.4-1.9,4.1-2.4,6-1c0.4,0.3,0.7,0.6,1,0.9l1,0c1.4-1.9,4.1-2.3,6.1-0.9
			c0.3,0.2,0.6,0.5,0.8,0.8c1,0,1.9,0,2.6,0c0.6-0.3,1.2-0.5,1.9-0.5c0.2,0,0.4,0,0.6,0.1c0.1-0.2,0.2-0.5,0.3-0.7
			c1.7-7.9-13.1-6.1-11.5-12c2.4-10.2-0.3-7.6-2-6.9c-1.5-1.1-3.3-1.5-5.1-1.3c-0.2,0.2-1.4-2.9-2.5-1.9c-0.8,0.9-1.1,2-1,3.2
			c0,0-4,11.8-4.2,13.1C7.7,24,6.6,27.5,8.2,29.7"/>
		<path id="Path_971" class="st2" d="M33.2,35.8c-1.2,0-2.2-0.7-2.7-1.8h-2.2c-0.7,1.7-2.6,2.5-4.4,1.8c-0.8-0.3-1.5-1-1.8-1.8h-1.8
			c-0.7,1.7-2.6,2.5-4.4,1.8c-0.8-0.3-1.5-1-1.8-1.8h-2.1c-0.4,1.5-2,2.4-3.5,2c-1.5-0.4-2.4-2-2-3.5c0.4-1.5,2-2.4,3.5-2
			c0.7,0.2,1.3,0.7,1.7,1.3h2.2c0.5-1.8,2.4-2.8,4.1-2.3c1.1,0.3,1.9,1.2,2.3,2.3h1.5c0.5-1.8,2.4-2.8,4.1-2.3
			c1.1,0.3,1.9,1.2,2.3,2.3h2.1c0.6-1.4,2.3-2.1,3.8-1.5c1.4,0.6,2.1,2.3,1.5,3.8C35.4,35.1,34.4,35.8,33.2,35.8"/>
	</g>
</g>
</svg>
