<?xml version="1.0" encoding="utf-8"?>
<!-- Generator: Adobe Illustrator 25.2.0, SVG Export Plug-In . SVG Version: 6.00 Build 0)  -->
<svg version="1.1" id="Group_848" xmlns="http://www.w3.org/2000/svg" xmlns:xlink="http://www.w3.org/1999/xlink" x="0px" y="0px"
	 viewBox="0 0 42.7 42.7" style="enable-background:new 0 0 42.7 42.7;" xml:space="preserve">
<style type="text/css">
	.st0{fill:#80167D;}
	.st1{fill:#231815;}
</style>
<path id="Path_1099" class="st0" d="M42.7,21.3c0,11.8-9.6,21.3-21.3,21.3S0,33.1,0,21.3C0,9.6,9.6,0,21.3,0
	C33.1,0,42.7,9.6,42.7,21.3C42.7,21.3,42.7,21.3,42.7,21.3"/>
<path id="Path_1100" class="st1" d="M21.3,36.1c-8.1,0-14.7-6.6-14.7-14.7S13.2,6.6,21.3,6.6s14.7,6.6,14.7,14.7c0,0,0,0,0,0
	C36.1,29.5,29.5,36.1,21.3,36.1 M10.7,14.1c0-0.2,0-0.4-0.1-0.6c-0.4,0.6-0.8,1.2-1.1,1.8C10.2,15.4,10.7,14.8,10.7,14.1 M9.4,23.4
	c-0.4,0-0.8,0.2-1.1,0.5c0.1,0.7,0.4,1.5,0.6,2.2c0.2,0.1,0.3,0.1,0.5,0.1c0.8,0,1.4-0.6,1.4-1.4S10.2,23.4,9.4,23.4 M13.2,12
	c0.6,0,1.1-0.5,1.1-1.1c0-0.2-0.1-0.5-0.2-0.7c-0.6,0.4-1.2,0.9-1.8,1.4C12.5,11.9,12.8,12,13.2,12 M13.8,14.5
	c0,0.8,0.6,1.4,1.4,1.4s1.4-0.6,1.4-1.4c0-0.8-0.6-1.4-1.4-1.4l0,0C14.4,13.1,13.8,13.7,13.8,14.5 M12.9,27.6
	c-0.8,0-1.4,0.6-1.4,1.4c0,0.8,0.6,1.4,1.4,1.4c0.8,0,1.4-0.6,1.4-1.4C14.3,28.3,13.7,27.6,12.9,27.6 M13.8,19.9
	c-1,0-1.9,0.8-1.9,1.9c0,1,0.8,1.9,1.9,1.9c1,0,1.9-0.8,1.9-1.9c0,0,0,0,0,0C15.6,20.7,14.8,19.9,13.8,19.9
	C13.8,19.9,13.8,19.9,13.8,19.9 M12.5,17.8c0-0.8-0.6-1.4-1.4-1.4c-0.8,0-1.4,0.6-1.4,1.4c0,0.8,0.6,1.4,1.4,1.4c0,0,0,0,0,0
	C11.9,19.3,12.5,18.6,12.5,17.8 M23,8.2c-0.6-0.1-1.1-0.1-1.7-0.1h-0.2C21.7,8.6,22.5,8.6,23,8.2 M25.3,12.2c0.8,0,1.4-0.6,1.4-1.4
	S26,9.5,25.3,9.5s-1.4,0.6-1.4,1.4c0,0,0,0,0,0C23.9,11.6,24.5,12.2,25.3,12.2 M18.1,19.9c1,0,1.9-0.8,1.9-1.9s-0.8-1.9-1.9-1.9
	S16.2,17,16.2,18c0,0,0,0,0,0C16.2,19,17.1,19.9,18.1,19.9 M23.6,18c0,1.1,0.9,1.9,1.9,1.9c1.1,0,1.9-0.9,1.9-1.9
	c0-1.1-0.9-1.9-1.9-1.9c0,0,0,0,0,0C24.5,16.1,23.7,17,23.6,18C23.6,18,23.6,18,23.6,18 M21.8,16.4c1,0,1.9-0.8,1.9-1.9
	c0-1-0.8-1.9-1.9-1.9S20,13.5,20,14.5C20,15.5,20.8,16.4,21.8,16.4C21.8,16.4,21.8,16.4,21.8,16.4 M19.1,12.2c0.8,0,1.4-0.6,1.4-1.4
	s-0.6-1.4-1.4-1.4c-0.8,0-1.4,0.6-1.4,1.4c0,0,0,0,0,0C17.7,11.6,18.3,12.2,19.1,12.2 M31.5,24.8c0,0.8,0.6,1.4,1.4,1.4c0,0,0,0,0,0
	c0.4,0,0.7-0.1,1-0.4c0.2-0.4,0.3-0.9,0.4-1.3c-0.2-0.7-0.9-1.2-1.6-1.1C31.9,23.6,31.5,24.2,31.5,24.8 M34.6,21.6
	c0-0.1,0-0.2,0-0.3c0-0.6,0-1.3-0.1-1.9c-0.6,0.5-0.6,1.4-0.1,2C34.4,21.5,34.5,21.6,34.6,21.6 M29.3,27.8c-0.8,0-1.4,0.6-1.4,1.4
	c0,0.8,0.6,1.4,1.4,1.4c0.8,0,1.4-0.6,1.4-1.4c0,0,0,0,0,0C30.7,28.5,30,27.8,29.3,27.8 M29.1,19.9c-1.1,0-2,0.9-2,2
	c0,1.1,0.9,2,2,2s2-0.9,2-2c0,0,0,0,0,0C31.1,20.8,30.2,19.9,29.1,19.9 M28.6,15.8c0.8,0,1.4-0.6,1.4-1.4c0-0.8-0.6-1.4-1.4-1.4
	c-0.8,0-1.4,0.6-1.4,1.4C27.2,15.2,27.8,15.8,28.6,15.8C28.6,15.8,28.6,15.8,28.6,15.8 M30.8,17.6c0,0.8,0.6,1.4,1.4,1.4
	s1.4-0.6,1.4-1.4c0-0.8-0.6-1.4-1.4-1.4l0,0C31.4,16.2,30.8,16.8,30.8,17.6 M17.3,24.2c-1,0-1.9,0.8-1.9,1.9s0.8,1.9,1.9,1.9
	s1.9-0.8,1.9-1.9c0,0,0,0,0,0C19.2,25,18.3,24.2,17.3,24.2 M21,28c-1,0-1.9,0.8-1.9,1.9c0,1,0.8,1.9,1.9,1.9s1.9-0.8,1.9-1.9
	c0,0,0,0,0,0C22.9,28.8,22,28,21,28 M19.8,34.5c0.5,0.1,1,0.1,1.6,0.1h0.1c-0.3-0.2-0.6-0.3-0.9-0.3C20.3,34.3,20,34.4,19.8,34.5
	 M16.6,31.3c-0.8,0-1.4,0.6-1.4,1.4c0,0.1,0,0.3,0.1,0.4c0.6,0.3,1.3,0.6,2,0.8c0.7-0.4,1-1.2,0.6-1.9
	C17.6,31.6,17.1,31.3,16.6,31.3 M21.5,20.1c-1.1,0-2,0.9-2,2c0,1.1,0.9,2,2,2c1.1,0,2-0.9,2-2C23.5,21,22.6,20.1,21.5,20.1
	C21.5,20.1,21.5,20.1,21.5,20.1 M25.2,31.6c-0.8,0-1.4,0.6-1.4,1.4c0,0.5,0.3,1,0.7,1.2c0.7-0.2,1.3-0.4,1.9-0.6
	c0.1-0.2,0.1-0.4,0.1-0.6C26.5,32.3,25.9,31.6,25.2,31.6C25.2,31.6,25.2,31.6,25.2,31.6 M25.4,24.2c-1,0-1.9,0.8-1.9,1.9
	s0.8,1.9,1.9,1.9s1.9-0.8,1.9-1.9c0,0,0,0,0,0C27.3,25.1,26.4,24.2,25.4,24.2"/>
</svg>
