<?xml version="1.0" encoding="utf-8"?>
<!-- Generator: Adobe Illustrator 25.2.0, SVG Export Plug-In . SVG Version: 6.00 Build 0)  -->
<svg version="1.1" id="圖層_1" xmlns="http://www.w3.org/2000/svg" xmlns:xlink="http://www.w3.org/1999/xlink" x="0px" y="0px"
	 viewBox="0 0 42.7 42.7" style="enable-background:new 0 0 42.7 42.7;" xml:space="preserve">
<style type="text/css">
	.st0{clip-path:url(#SVGID_2_);}
	.st1{fill:#3061AC;}
	.st2{fill:#231815;}
</style>
<g id="Group_916" transform="translate(0 0)">
	<g>
		<defs>
			<rect id="SVGID_1_" width="42.7" height="42.7"/>
		</defs>
		<clipPath id="SVGID_2_">
			<use xlink:href="#SVGID_1_"  style="overflow:visible;"/>
		</clipPath>
		<g id="Group_915" transform="translate(0 0)" class="st0">
			<path id="Path_1217" class="st1" d="M42.7,21.3c0,11.8-9.6,21.3-21.3,21.3S0,33.1,0,21.3S9.6,0,21.3,0c0,0,0,0,0,0
				C33.1,0,42.7,9.6,42.7,21.3"/>
			<path id="Path_1218" class="st2" d="M27.9,9.5l0.8,0.8l0.8-0.8l0.8,0.8L29.5,11l0.8,0.8l-0.8,0.8l-0.8-0.8l-0.8,0.8l-0.8-0.8
				l0.8-0.8l-0.8-0.8L27.9,9.5z"/>
			<path id="Path_1219" class="st2" d="M9.5,15.2l0.9,0.9l0.9-0.9l1,1l-0.9,0.9l0.9,0.9l-1,1l-0.9-0.9L9.5,19l-1-1l0.9-0.9l-0.9-0.9
				L9.5,15.2z"/>
			<path id="Path_1220" class="st2" d="M7.4,24.3c9.1-5,20.5-8.2,27.2-9.9c1.2-0.3,2.1,1.2,0.9,2C29,18.3,18,21.8,8.5,26.9
				C7,27.2,5.9,25.7,7.4,24.3"/>
			<path id="Path_1221" class="st2" d="M29.4,31.4l-1,1l-1-1l-1,1l-1-1l1-1l-1-1l1-1l1,1l1-1l1,1l-1,1L29.4,31.4z"/>
			<path id="Path_1222" class="st2" d="M35.4,20.7c-6.9,2.5-18,6.9-26.6,12.4c-1.4,0.5-3.3-1.3-1.4-3.2c8.1-4.8,19.5-9.1,26.8-11.6
				c0.7-0.3,1.5-0.1,1.8,0.6S36,20.4,35.4,20.7C35.4,20.7,35.4,20.7,35.4,20.7"/>
		</g>
	</g>
</g>
</svg>
