<?xml version="1.0" encoding="utf-8"?>
<!-- Generator: Adobe Illustrator 25.2.0, SVG Export Plug-In . SVG Version: 6.00 Build 0)  -->
<svg version="1.1" id="圖層_1" xmlns="http://www.w3.org/2000/svg" xmlns:xlink="http://www.w3.org/1999/xlink" x="0px" y="0px"
	 viewBox="0 0 42.7 42.7" style="enable-background:new 0 0 42.7 42.7;" xml:space="preserve">
<style type="text/css">
	.st0{clip-path:url(#SVGID_2_);}
	.st1{fill:#F4DC2E;}
	.st2{fill:#231815;}
</style>
<g id="Group_862" transform="translate(0 0)">
	<g>
		<defs>
			<rect id="SVGID_1_" width="42.7" height="42.7"/>
		</defs>
		<clipPath id="SVGID_2_">
			<use xlink:href="#SVGID_1_"  style="overflow:visible;"/>
		</clipPath>
		<g id="Group_861" transform="translate(0 0)" class="st0">
			<path id="Path_1113" class="st1" d="M42.7,21.3c0,11.8-9.6,21.3-21.3,21.3S0,33.1,0,21.3S9.6,0,21.3,0c0,0,0,0,0,0
				C33.1,0,42.7,9.6,42.7,21.3"/>
			<path id="Path_1114" class="st2" d="M28.4,36.1l-9.1-12.7c-4.4,2.1-9.7,0.3-11.8-4.1S7.2,9.6,11.6,7.5s9.7-0.3,11.8,4.1
				c1.6,3.4,1,7.4-1.7,10.1l9.1,12.7L28.4,36.1z M22.4,18c0.2-0.5-4-3-4.2-3.4s1.8-4.7,1.4-5.1s-4,2.8-4.3,2.8s-4.1-3.4-4.4-3.1
				s1.6,4.7,1.5,5.2c-0.1,0.4-4.3,2.6-4.1,3.2s4.9,0.2,5.3,0.4s1.5,5.1,1.9,5.1s1.4-4.7,1.7-5S22.1,18.5,22.4,18"/>
			<path id="Path_1115" class="st2" d="M14.2,36.1l-2.4-1.7l6.5-8.9l1.8,2.5L14.2,36.1z"/>
			<path id="Path_1116" class="st2" d="M34.4,20.6c-1.9,2.6-5,4-8.2,3.6l-2.3-3.1c0.7-1,1.1-2,1.5-3.1c0.1,0,0.1,0,0.2,0
				c0.3,0.2,1.3,5,1.7,5s1.5-4.9,1.9-5.1s5.1,0.2,5.3-0.4s-4-2.7-4.1-3.2s1.8-4.9,1.5-5.2s-4.1,3.1-4.4,3.1c-0.2,0-2.2-1.7-3.4-2.5
				c-0.4-0.7-0.9-1.3-1.5-1.8c4.1-2.6,9.6-1.3,12.2,2.8C36.6,13.8,36.5,17.7,34.4,20.6"/>
		</g>
	</g>
</g>
</svg>
