<?xml version="1.0" encoding="utf-8"?>
<!-- Generator: Adobe Illustrator 25.2.0, SVG Export Plug-In . SVG Version: 6.00 Build 0)  -->
<svg version="1.1" id="圖層_1" xmlns="http://www.w3.org/2000/svg" xmlns:xlink="http://www.w3.org/1999/xlink" x="0px" y="0px"
	 viewBox="0 0 42.7 42.7" style="enable-background:new 0 0 42.7 42.7;" xml:space="preserve">
<style type="text/css">
	.st0{clip-path:url(#SVGID_2_);}
	.st1{fill:#E50012;}
	.st2{fill:#231815;}
</style>
<g id="Group_882" transform="translate(0 0)">
	<g>
		<defs>
			<rect id="SVGID_1_" width="42.7" height="42.7"/>
		</defs>
		<clipPath id="SVGID_2_">
			<use xlink:href="#SVGID_1_"  style="overflow:visible;"/>
		</clipPath>
		<g id="Group_881" transform="translate(0 0)" class="st0">
			<path id="Path_1139" class="st1" d="M42.7,21.3c0,11.8-9.6,21.3-21.3,21.3S0,33.1,0,21.3S9.6,0,21.3,0c0,0,0,0,0,0
				C33.1,0,42.7,9.6,42.7,21.3"/>
			<path id="Path_1140" class="st2" d="M32.1,31.4l0.5,1.7l-1.2,1.4L11,33.8l-1.5-1.6c1.2-1.1,2.3-2.2,3.3-3.5
				c1-1.9,1.3-4.1,0.7-6.1L11,13.3l1.9-0.7c0,0,0.6,1.8,2.6,9.2c0.6,2.2,2.4,1.1,2.8,0.8c2.8-2.6,5.9-4.9,9.2-6.9L26,8.7l6.1,0
				l-0.4,2.1l-3.8,0l1.7,8.3h0.1c3.6,0,6.4,2.9,6.4,6.4C36.1,28.1,34.5,30.4,32.1,31.4 M29.7,21.3c-2.3,0-4.1,1.9-4.1,4.1
				c0,2.3,1.9,4.1,4.1,4.1c2.3,0,4.1-1.9,4.1-4.1C33.8,23.2,31.9,21.3,29.7,21.3C29.7,21.3,29.7,21.3,29.7,21.3 M18.2,25
				c-1.4,0-2.5,1.1-2.5,2.5c0,1.4,1.1,2.5,2.5,2.5c1.4,0,2.5-1.1,2.5-2.5c0,0,0,0,0,0C20.7,26.1,19.5,25,18.2,25"/>
			<path id="Path_1141" class="st2" d="M6.9,9.1c0.8-0.6,1.7-0.9,2.7-0.8c1.8,0.5,5.2,0,6.5,0.1s2.1,1.5,1.4,1.7
				c-0.9,0.3-1.9,0.5-2.9,0.5c-2.1,0-2.2,1-4.9,1.5C5.7,12.1,6.6,9.5,6.9,9.1"/>
			<path id="Path_1142" class="st2" d="M21.3,21.4C21.3,21.4,21.3,21.4,21.3,21.4C21.3,21.4,21.3,21.4,21.3,21.4"/>
			<path id="Path_1143" class="st2" d="M21.3,21.3L21.3,21.3L21.3,21.3C21.4,21.3,21.4,21.3,21.3,21.3"/>
			<path id="Path_1144" class="st2" d="M21.3,21.4C21.3,21.4,21.3,21.4,21.3,21.4C21.3,21.4,21.3,21.4,21.3,21.4"/>
			<path id="Path_1145" class="st2" d="M21.4,21.3C21.3,21.3,21.3,21.3,21.4,21.3C21.3,21.3,21.3,21.3,21.4,21.3"/>
		</g>
	</g>
</g>
</svg>
