<?xml version="1.0" encoding="utf-8"?>
<!-- Generator: Adobe Illustrator 25.2.0, SVG Export Plug-In . SVG Version: 6.00 Build 0)  -->
<svg version="1.1" id="圖層_1" xmlns="http://www.w3.org/2000/svg" xmlns:xlink="http://www.w3.org/1999/xlink" x="0px" y="0px"
	 viewBox="0 0 42.7 42.7" style="enable-background:new 0 0 42.7 42.7;" xml:space="preserve">
<style type="text/css">
	.st0{clip-path:url(#SVGID_2_);}
	.st1{fill:#E50012;}
	.st2{fill:#231815;}
</style>
<g id="Group_890" transform="translate(0 0)">
	<g>
		<defs>
			<rect id="SVGID_1_" width="42.7" height="42.7"/>
		</defs>
		<clipPath id="SVGID_2_">
			<use xlink:href="#SVGID_1_"  style="overflow:visible;"/>
		</clipPath>
		<g id="Group_889" transform="translate(0 0)" class="st0">
			<path id="Path_1162" class="st1" d="M42.7,21.3c0,11.8-9.6,21.3-21.3,21.3S0,33.1,0,21.3S9.6,0,21.3,0c0,0,0,0,0,0
				C33.1,0,42.7,9.6,42.7,21.3"/>
			<path id="Path_1163" class="st2" d="M21,5.9c3.9-1.8,8.8,1.8,10.7,4.6s1.7,4.8,1.6,5.9s-6.1,2.3-6.1,2.3s-3,0.7-6.2-4.4
				S21,5.8,21,5.9"/>
			<path id="Path_1164" class="st2" d="M11.7,9l-0.8-1.7l5.9,1L14,13.9l-0.8-2c-1.7,1.5-2.9,3.4-3.6,5.5l-2.9-1.3
				C7.6,13.3,9.3,10.9,11.7,9"/>
			<path id="Path_1165" class="st2" d="M21.2,27.6c0,0-2,5.7-3.1,5.7s-3.1-0.1-5.6-2.4s-5.3-7.6-3-11.3c0,0,3.6-2.7,8.3,1.2
				S21.2,27.6,21.2,27.6"/>
			<path id="Path_1166" class="st2" d="M27.2,37.3c-1.1,0.1-3.8-2.2-4.3-3.3c-0.4-1.2,0.1-2.4,1.3-2.9c0.1,0,0.1,0,0.2-0.1
				c1.3-0.3,4.9,1,5.3,2.7C29.8,35.3,28.8,36.9,27.2,37.3"/>
			<path id="Path_1167" class="st2" d="M36.1,25.7c-0.7,1.5-2.3,2.3-3.9,1.9c-1.6-0.6-2.4-4.4-1.9-5.6c0.5-1.1,1.8-1.6,3-1.1
				c0.1,0,0.1,0.1,0.2,0.1C34.4,21.6,36.3,24.6,36.1,25.7"/>
		</g>
	</g>
</g>
</svg>
