<?xml version="1.0" encoding="utf-8"?>
<!-- Generator: Adobe Illustrator 25.2.0, SVG Export Plug-In . SVG Version: 6.00 Build 0)  -->
<svg version="1.1" id="圖層_1" xmlns="http://www.w3.org/2000/svg" xmlns:xlink="http://www.w3.org/1999/xlink" x="0px" y="0px"
	 viewBox="0 0 42.7 42.7" style="enable-background:new 0 0 42.7 42.7;" xml:space="preserve">
<style type="text/css">
	.st0{clip-path:url(#SVGID_2_);}
	.st1{fill:#ED7700;}
	.st2{fill:#231815;}
</style>
<g>
	<defs>
		<rect id="SVGID_1_" width="42.7" height="42.7"/>
	</defs>
	<clipPath id="SVGID_2_">
		<use xlink:href="#SVGID_1_"  style="overflow:visible;"/>
	</clipPath>
	<g id="Group_784" class="st0">
		<path id="Path_958" class="st1" d="M42.7,21.3c0,11.8-9.6,21.3-21.3,21.3S0,33.1,0,21.3S9.6,0,21.3,0c0,0,0,0,0,0
			C33.1,0,42.7,9.6,42.7,21.3"/>
		<path id="Path_959" class="st2" d="M10.9,26c-0.6,0-1-0.4-1-1c0-0.6,0.4-1,1-1c0.6,0,1,0.4,1,1C12,25.6,11.5,26,10.9,26
			C11,26,11,26,10.9,26"/>
		<path id="Path_960" class="st2" d="M31.9,31.5c-3.3,0-6-2.5-6.4-5.7h-1.2c-0.4,1-1.5,1.5-2.4,1.1c-1-0.4-1.5-1.5-1.1-2.4
			c0,0,0-0.1,0-0.1l-5.8-6l-0.3,1.4c2.9,2.1,3.6,6.1,1.5,9s-6.1,3.6-9,1.5s-3.6-6.1-1.5-9c1.2-1.7,3.2-2.7,5.2-2.7
			c0.9,0,1.7,0.2,2.5,0.5l1.3-5.3l-1.9,0.2c-0.4,0-0.7,0.4-0.8,0.8c0,0.3,0.2,0.7,0.5,0.8c0.4,0.1,0.5,0.5,0.4,0.9
			c-0.1,0.3-0.4,0.5-0.6,0.5c0,0-0.1,0-0.1,0c-1-0.2-1.7-1.1-1.6-2.1c0-1.1,0.9-1.9,1.9-2l2.4-0.3c0,0,0.6-0.1,0.6-0.1
			c0.4,0,0.7,0.3,0.7,0.7c0,0,0,0,0,0c0,0,0,0.1,0,0.1l0,0l-0.6,2.5l9.3,0l1-2.9l-1.2,0c-0.4,0-0.7-0.2-0.8-0.6
			c0-0.4,0.2-0.7,0.6-0.8c0,0,0,0,0,0l3.5-0.3c0.5,0,0.9,0.3,1,0.8c0,0.5-0.3,0.9-0.8,1c-0.1,0-0.1,0-0.2,0l-0.6,0l-1.1,3.1l2.3,3.5
			c3.1-1.8,7-0.8,8.8,2.2s0.8,7-2.2,8.8C34.1,31.2,33,31.5,31.9,31.5 M27.9,20L26,17l-2.2,6.7c0.2,0.2,0.3,0.4,0.4,0.7h1.2
			C25.6,22.7,26.5,21.1,27.9,20 M10.8,20.6c-2.5,0-4.5,2-4.5,4.5s2,4.5,4.5,4.5c2.5,0,4.5-2,4.5-4.5c0,0,0,0,0-0.1
			c0-2.4-1.9-4.4-4.4-4.5C10.9,20.6,10.9,20.6,10.8,20.6 M15.3,16.8l-0.1,0.6l6.3,6.1c0.3-0.2,0.6-0.3,1-0.3h0l2.1-6.4L15.3,16.8z
			 M31.8,20.6c-2.5,0-4.4,2-4.5,4.5c0,2.5,1.9,4.5,4.4,4.5s4.5-1.9,4.5-4.4c0,0,0-0.1,0-0.1C36.3,22.6,34.3,20.7,31.8,20.6"/>
		<path id="Path_961" class="st2" d="M31.9,26c-0.6,0-1-0.4-1-1c0-0.6,0.4-1,1-1c0.6,0,1,0.4,1,1C32.9,25.6,32.5,26,31.9,26
			C31.9,26,31.9,26,31.9,26"/>
	</g>
</g>
</svg>
