<?xml version="1.0" encoding="utf-8"?>
<!-- Generator: Adobe Illustrator 25.2.0, SVG Export Plug-In . SVG Version: 6.00 Build 0)  -->
<svg version="1.1" id="圖層_1" xmlns="http://www.w3.org/2000/svg" xmlns:xlink="http://www.w3.org/1999/xlink" x="0px" y="0px"
	 viewBox="0 0 42.7 42.7" style="enable-background:new 0 0 42.7 42.7;" xml:space="preserve">
<style type="text/css">
	.st0{clip-path:url(#SVGID_2_);}
	.st1{fill:#209BAD;}
	.st2{fill:#231815;}
</style>
<g>
	<defs>
		<rect id="SVGID_1_" width="42.7" height="42.7"/>
	</defs>
	<clipPath id="SVGID_2_">
		<use xlink:href="#SVGID_1_"  style="overflow:visible;"/>
	</clipPath>
	<g id="Group_832" class="st0">
		<path id="Path_1050" class="st1" d="M42.7,21.3c0,11.8-9.6,21.3-21.3,21.3S0,33.1,0,21.3S9.6,0,21.3,0c0,0,0,0,0,0
			C33.1,0,42.7,9.6,42.7,21.3"/>
		<path id="Path_1051" class="st2" d="M34.2,24.6l-10.7,6.8L13.5,6.6C31.3,7.6,34.2,24.6,34.2,24.6"/>
		<path id="Path_1052" class="st2" d="M35.5,35.3c-1,0.5-2.1,0.7-3.1,0.8c-1.1,0-2.3-1.6-3.6-1.6c-1.2,0-2.4,1.6-3.7,1.6
			c-1.2,0-2.4-1.6-3.7-1.6S18.8,36,17.6,36c-1.3,0-2.5-1.6-3.6-1.6c-1.4,0-2.6,1.7-3.7,1.7c-1.1,0-2.2-0.3-3.2-0.8
			c-0.7-0.3-0.7-1.6,0.2-1.6c1,0.3,1.9,0.4,2.9,0.4c1.1,0,2.3-1.7,3.7-1.7c1.2,0,2.4,1.7,3.6,1.7c1.2,0,2.4-1.7,3.6-1.7
			c1.3,0,2.5,1.7,3.8,1.7c1.3,0,2.5-1.7,3.7-1.7c1.4,0,2.6,1.7,3.7,1.7c1,0,1.9-0.1,2.8-0.4C36.3,33.6,36.3,35.1,35.5,35.3"/>
	</g>
</g>
</svg>
