<?xml version="1.0" encoding="utf-8"?>
<!-- Generator: Adobe Illustrator 25.2.0, SVG Export Plug-In . SVG Version: 6.00 Build 0)  -->
<svg version="1.1" id="圖層_1" xmlns="http://www.w3.org/2000/svg" xmlns:xlink="http://www.w3.org/1999/xlink" x="0px" y="0px"
	 viewBox="0 0 42.7 42.7" style="enable-background:new 0 0 42.7 42.7;" xml:space="preserve">
<style type="text/css">
	.st0{fill:#80167D;}
	.st1{fill:#231815;}
</style>
<g id="Group_845" transform="translate(0 0)">
	<path id="Path_1090" class="st0" d="M42.7,21.3c0,11.8-9.6,21.3-21.3,21.3S0,33.1,0,21.3C0,9.6,9.6,0,21.3,0
		C33.1,0,42.7,9.6,42.7,21.3C42.7,21.3,42.7,21.3,42.7,21.3"/>
	<path id="Path_1091" class="st1" d="M29.7,30.9c-2.2,0-3.9-1.8-3.9-3.9s1.8-3.9,3.9-3.9c2.2,0,3.9,1.8,3.9,3.9
		C33.6,29.1,31.8,30.9,29.7,30.9"/>
	<path id="Path_1092" class="st1" d="M33.7,21.9c-0.2,0.2-0.3,0.3-0.5,0.5c-2.5-2-6.1-1.5-8.1,0.9c-0.8,1-1.2,2.3-1.2,3.6
		c0,0.1,0,0.2,0,0.3c-2.5,0.6-4.9,0.8-6.5,0c0,0-1.7,0.7-7.7,7.7c0,0-0.2-0.3-0.6-0.6s-0.7-0.7-1-1c-0.1-0.1-0.2-0.2-0.3-0.4
		c7.4-5.7,7.8-7.8,7.8-7.8c-1.9-4.2,1.7-12.6,5.3-16.3c2.5-2.5,6.6-0.8,10.1,2.8S36.7,18.9,33.7,21.9"/>
</g>
</svg>
