<?xml version="1.0" encoding="utf-8"?>
<!-- Generator: Adobe Illustrator 25.2.0, SVG Export Plug-In . SVG Version: 6.00 Build 0)  -->
<svg version="1.1" id="Group_846" xmlns="http://www.w3.org/2000/svg" xmlns:xlink="http://www.w3.org/1999/xlink" x="0px" y="0px"
	 viewBox="0 0 42.7 42.7" style="enable-background:new 0 0 42.7 42.7;" xml:space="preserve">
<style type="text/css">
	.st0{fill:#80167D;}
	.st1{fill:#231815;}
</style>
<path id="Path_1093" class="st0" d="M42.7,21.3c0,11.8-9.6,21.3-21.3,21.3S0,33.1,0,21.3S9.6,0,21.3,0C33.1,0,42.7,9.6,42.7,21.3"/>
<path id="Path_1094" class="st1" d="M33.6,23.5c-1.8-1.7-4.6-1.6-6.3,0.2c-1.2,1.2-1.5,3.1-0.9,4.6c-1.5,0.3-3.1,0.2-4.6-0.3
	c-1.4-0.5-2.9-0.4-4.2,0.1c-0.5,0.2-2-0.1-7.5,6.8c-0.4-0.4-2.2-2.1-2.5-2.5c5.1-3.5,6.9-6.8,7-7.1c0.5-1.3,0.6-2.7,0.3-4.1
	c-0.3-1-0.5-2.1-0.5-3.2c0.1-5.7,4.7-10.2,10.4-10.2c5.7,0.1,10.2,4.7,10.2,10.4C35,20.1,34.5,21.9,33.6,23.5 M22.9,26.6l-6.4-7
	C16.8,23.2,19.4,26,22.9,26.6"/>
<path id="Path_1095" class="st1" d="M30.7,30c-1.7,0-3-1.4-3-3s1.4-3,3-3c1.7,0,3,1.4,3,3C33.8,28.7,32.4,30,30.7,30
	C30.7,30,30.7,30,30.7,30"/>
</svg>
