<?xml version="1.0" encoding="utf-8"?>
<!-- Generator: Adobe Illustrator 25.2.0, SVG Export Plug-In . SVG Version: 6.00 Build 0)  -->
<svg version="1.1" id="圖層_1" xmlns="http://www.w3.org/2000/svg" xmlns:xlink="http://www.w3.org/1999/xlink" x="0px" y="0px"
	 viewBox="0 0 42.7 42.7" style="enable-background:new 0 0 42.7 42.7;" xml:space="preserve">
<style type="text/css">
	.st0{clip-path:url(#SVGID_2_);}
	.st1{fill:#F4DC2E;}
	.st2{fill:#231815;}
</style>
<g id="Group_874" transform="translate(0 0)">
	<g>
		<defs>
			<rect id="SVGID_1_" width="42.7" height="42.7"/>
		</defs>
		<clipPath id="SVGID_2_">
			<use xlink:href="#SVGID_1_"  style="overflow:visible;"/>
		</clipPath>
		<g id="Group_873" transform="translate(0 0)" class="st0">
			<path id="Path_1128" class="st1" d="M42.7,21.3c0,11.8-9.6,21.3-21.3,21.3S0,33.1,0,21.3S9.6,0,21.3,0c0,0,0,0,0,0
				C33.1,0,42.7,9.6,42.7,21.3"/>
			<path id="Path_1129" class="st2" d="M27.2,29.8c-10,6.9-20.6,1.5-20.6,1.5s-1-11.5,9-18.4S36,11.2,36,11.2S37.2,23,27.2,29.8
				 M17.1,15.2c-4.4,3.1-6.8,8.2-6.6,13.5c0,0,7.7,4,15.1-1.1s6.5-13.7,6.5-13.7S24.5,10.1,17.1,15.2"/>
			<path id="Path_1130" class="st2" d="M24.2,25.5c-3,1.9-6.8,2.2-10,0.7c-0.3-5.6,3.9-10.3,9.5-10.7c1.7-0.1,3.3,0.2,4.8,0.9
				C28.7,20,27.1,23.4,24.2,25.5"/>
		</g>
	</g>
</g>
</svg>
