<?xml version="1.0" encoding="utf-8"?>
<!-- Generator: Adobe Illustrator 25.2.0, SVG Export Plug-In . SVG Version: 6.00 Build 0)  -->
<svg version="1.1" id="圖層_1" xmlns="http://www.w3.org/2000/svg" xmlns:xlink="http://www.w3.org/1999/xlink" x="0px" y="0px"
	 viewBox="0 0 42.7 42.7" style="enable-background:new 0 0 42.7 42.7;" xml:space="preserve">
<style type="text/css">
	.st0{clip-path:url(#SVGID_2_);}
	.st1{fill:#209BAD;}
	.st2{fill:#231815;}
</style>
<g>
	<defs>
		<rect id="SVGID_1_" width="42.7" height="42.7"/>
	</defs>
	<clipPath id="SVGID_2_">
		<use xlink:href="#SVGID_1_"  style="overflow:visible;"/>
	</clipPath>
	<g id="Group_836" class="st0">
		<path id="Path_1056" class="st1" d="M42.7,21.3c0,11.8-9.6,21.3-21.3,21.3S0,33.1,0,21.3S9.6,0,21.3,0c0,0,0,0,0,0
			C33.1,0,42.7,9.6,42.7,21.3C42.7,21.3,42.7,21.3,42.7,21.3"/>
		<path id="Path_1057" class="st2" d="M24.1,15.6l-2.7,2.8l-2.7-2.8L24.1,15.6z"/>
		<path id="Path_1058" class="st2" d="M10.4,10.2l1.1-1.1c0.2-0.2,0.6-0.2,0.9,0c0.2,0.2,0.2,0.6,0,0.9l-0.1,0.1l8,8.7l-0.9,0.9
			L11.3,11l-0.1,0.1c-0.2,0.2-0.6,0.2-0.9,0C10.1,10.8,10.1,10.4,10.4,10.2L10.4,10.2"/>
		<path id="Path_1059" class="st2" d="M13.7,15.4l5.1,5.4c-2.5,0-5-0.1-7.5-0.5c-1.3-0.5-4.6-4.5-4.6-5.2L13.7,15.4z"/>
		<path id="Path_1060" class="st2" d="M16.9,29.9c-2.4,2.6-3.8,5.3-6.5,2.7c-2.8-2.6,0-4,2.4-6.6c2-2.1,4.5-3.1,5.8-3l12-12.9
			L30.4,10c-0.2-0.2-0.3-0.6,0-0.9s0.6-0.3,0.9,0l0,0l1.1,1.1c0.2,0.2,0.3,0.6,0,0.9s-0.6,0.3-0.9,0L31.5,11l-12,12.9
			C19.7,25.2,18.9,27.8,16.9,29.9"/>
		<path id="Path_1061" class="st2" d="M32.4,32.7c-2.7,2.6-4.1-0.1-6.5-2.7c-2-2.1-2.8-4.7-2.6-6l-1-1.1l1-0.8l1,1.1
			c1.3-0.1,3.8,0.9,5.8,3C32.4,28.7,35.2,30.1,32.4,32.7"/>
		<path id="Path_1062" class="st2" d="M31.5,20.3c-2.5,0.3-4.9,0.5-7.4,0.5l5.1-5.4l7-0.2C36.1,15.9,32.8,19.9,31.5,20.3"/>
	</g>
</g>
</svg>
