<?xml version="1.0" encoding="utf-8"?>
<!-- Generator: Adobe Illustrator 25.2.0, SVG Export Plug-In . SVG Version: 6.00 Build 0)  -->
<svg version="1.1" id="圖層_1" xmlns="http://www.w3.org/2000/svg" xmlns:xlink="http://www.w3.org/1999/xlink" x="0px" y="0px"
	 viewBox="0 0 42.7 42.7" style="enable-background:new 0 0 42.7 42.7;" xml:space="preserve">
<style type="text/css">
	.st0{clip-path:url(#SVGID_2_);}
	.st1{fill:#ED7700;}
	.st2{fill:#231815;}
</style>
<g>
	<defs>
		<rect id="SVGID_1_" width="42.7" height="42.7"/>
	</defs>
	<clipPath id="SVGID_2_">
		<use xlink:href="#SVGID_1_"  style="overflow:visible;"/>
	</clipPath>
	<g id="Group_786" class="st0">
		<path id="Path_962" class="st1" d="M42.7,21.3c0,11.8-9.6,21.3-21.3,21.3S0,33.1,0,21.3S9.6,0,21.3,0c0,0,0,0,0,0
			C33.1,0,42.7,9.6,42.7,21.3C42.7,21.3,42.7,21.3,42.7,21.3"/>
		<path id="Path_963" class="st2" d="M12.4,20.6c-0.2,0.5-0.7,0.8-1.3,0.6s-0.8-0.7-0.6-1.3c0.2-0.5,0.7-0.8,1.3-0.7
			C12.3,19.5,12.6,20.1,12.4,20.6C12.4,20.6,12.4,20.6,12.4,20.6"/>
		<path id="Path_964" class="st2" d="M31.4,33.5c-3.8,0-6.9-3.1-6.9-6.9c0-0.4,0-0.9,0.1-1.3l-0.5-0.2L23.9,25
			c-0.6,0.8-1.8,1-2.7,0.3c-0.6-0.5-0.9-1.3-0.6-2.1c0.1-0.2,0.2-0.5,0.4-0.7l-3.7-7.4l-0.5,0.9c2.4,3,1.8,7.3-1.2,9.7
			s-7.3,1.8-9.7-1.2S4,17.3,7,14.9c2.6-2,6.2-2,8.7,0.1l2.7-4.3c0,0-2.1-0.4-2.1-0.4l0,0c-0.3-0.1-0.5-0.4-0.5-0.7
			c0-0.2,0.2-0.3,0.3-0.4c0.1-0.1,0.3-0.1,0.5-0.1l2.4,0.4c0,0,0.6,0.1,0.6,0.1c0.4,0.1,0.6,0.5,0.5,0.9c0,0,0,0.1-0.1,0.1l0,0
			L18.6,13l8.9,2.8l1.2-1.7l-1.1-0.4c-0.4-0.1-0.6-0.4-0.5-0.8c0.1-0.4,0.4-0.6,0.8-0.5c0,0,0,0,0,0l3.4,0.7c0.5,0.1,0.8,0.6,0.7,1
			c-0.1,0.5-0.6,0.8-1,0.7l0,0c-0.1,0-0.1,0-0.2-0.1l-0.6-0.2l-1.4,1.9l1,3.6c0.5-0.1,1.1-0.2,1.6-0.2c3.8,0,6.9,3.1,6.9,6.9
			C38.3,30.4,35.2,33.5,31.4,33.5 M28.2,17.2L24.1,23c0.1,0.2,0.2,0.5,0.2,0.8l0.8,0.2c0.7-1.7,2.2-3.1,3.9-3.8L28.2,17.2z
			 M18.1,13.8l-0.3,0.5L22,22c0.3-0.1,0.7-0.1,1,0c0,0,0,0,0,0l3.9-5.5L18.1,13.8z M12.7,16c-2.4-0.8-4.9,0.5-5.7,2.9
			c-0.8,2.4,0.5,4.9,2.9,5.7s4.9-0.5,5.7-2.9c0,0,0,0,0-0.1C16.3,19.3,15.1,16.8,12.7,16C12.7,16,12.7,16,12.7,16 M32.7,22.4
			c-2.4-0.7-4.8,0.6-5.6,2.9c-0.7,2.4,0.6,4.9,2.9,5.6c2.4,0.7,4.9-0.6,5.6-2.9C36.3,25.7,35,23.2,32.7,22.4"/>
		<path id="Path_965" class="st2" d="M32.4,26.9c-0.2,0.5-0.7,0.8-1.3,0.6s-0.8-0.7-0.6-1.3c0.2-0.5,0.7-0.8,1.3-0.7
			C32.3,25.8,32.5,26.4,32.4,26.9C32.4,26.9,32.4,26.9,32.4,26.9"/>
	</g>
</g>
</svg>
