<?xml version="1.0" encoding="utf-8"?>
<!-- Generator: Adobe Illustrator 25.2.0, SVG Export Plug-In . SVG Version: 6.00 Build 0)  -->
<svg version="1.1" id="圖層_1" xmlns="http://www.w3.org/2000/svg" xmlns:xlink="http://www.w3.org/1999/xlink" x="0px" y="0px"
	 viewBox="0 0 42.7 42.7" style="enable-background:new 0 0 42.7 42.7;" xml:space="preserve">
<style type="text/css">
	.st0{clip-path:url(#SVGID_2_);}
	.st1{fill:#E50012;}
	.st2{fill:#231815;}
</style>
<g id="Group_902" transform="translate(0 0)">
	<g>
		<defs>
			<rect id="SVGID_1_" width="42.7" height="42.7"/>
		</defs>
		<clipPath id="SVGID_2_">
			<use xlink:href="#SVGID_1_"  style="overflow:visible;"/>
		</clipPath>
		<g id="Group_901" transform="translate(0 0)" class="st0">
			<path id="Path_1184" class="st1" d="M42.7,21.3c0,11.8-9.6,21.3-21.3,21.3S0,33.1,0,21.3S9.6,0,21.3,0c0,0,0,0,0,0
				C33.1,0,42.7,9.6,42.7,21.3"/>
			<path id="Path_1185" class="st2" d="M12.7,8l7.3,7.4l-4.7,4.7L8,12.6l-0.3-5L12.7,8z"/>
			<path id="Path_1186" class="st2" d="M30,34.7l-7.4-7.5l4.7-4.7l7.4,7.4l0.3,5.1L30,34.7z"/>
			<path id="Path_1187" class="st2" d="M34.7,12.7l-22,22l-5.1,0.3L8,30L30,8l5-0.3L34.7,12.7z"/>
		</g>
	</g>
</g>
</svg>
