<?xml version="1.0" encoding="utf-8"?>
<!-- Generator: Adobe Illustrator 25.2.0, SVG Export Plug-In . SVG Version: 6.00 Build 0)  -->
<svg version="1.1" id="圖層_1" xmlns="http://www.w3.org/2000/svg" xmlns:xlink="http://www.w3.org/1999/xlink" x="0px" y="0px"
	 viewBox="0 0 42.7 42.7" style="enable-background:new 0 0 42.7 42.7;" xml:space="preserve">
<style type="text/css">
	.st0{clip-path:url(#SVGID_2_);}
	.st1{fill:#E50012;}
	.st2{fill:#231815;}
</style>
<g id="Group_904" transform="translate(0 0)">
	<g>
		<defs>
			<rect id="SVGID_1_" width="42.7" height="42.7"/>
		</defs>
		<clipPath id="SVGID_2_">
			<use xlink:href="#SVGID_1_"  style="overflow:visible;"/>
		</clipPath>
		<g id="Group_903" transform="translate(0 0)" class="st0">
			<path id="Path_1188" class="st1" d="M42.7,21.3c0,11.8-9.6,21.3-21.3,21.3S0,33.1,0,21.3S9.6,0,21.3,0c0,0,0,0,0,0
				C33.1,0,42.7,9.6,42.7,21.3C42.7,21.3,42.7,21.3,42.7,21.3"/>
			<path id="Path_1189" class="st2" d="M17.5,7.1c0.2,0,0.4-0.1,0.5-0.1c0.7-0.2,1.4-0.3,2.1-0.3c0.4,0,0.8-0.1,1.2-0.1
				c0.2,0,0.4,0,0.6,0c0,0,0.6,0,0.6,0v2.3c0,0,0,0,0,0h-0.9c-0.5,0-1,0-1.6,0.1c-0.5,0.1-1,0.1-1.4,0.2c-0.3,0.1-0.6,0.1-0.9,0.2
				c0,0,0,0,0-0.1c-0.1-0.3-0.1-0.6-0.2-0.9c-0.1-0.4-0.1-0.7-0.2-1.1c0-0.1,0-0.2-0.1-0.3v0C17.3,7.2,17.5,7.1,17.5,7.1"/>
			<path id="Path_1190" class="st2" d="M27.8,14.5c0.8,1,1.2,2.4,1,3.7c-0.1,0.7-3.8,1.4-3.8,1.4s-1.9,0.5-3.9-2.7s0-5.2,0-5.2
				C23.5,10.6,26.6,12.8,27.8,14.5"/>
			<path id="Path_1191" class="st2" d="M14.8,12.6l3.7,0.7l-1.8,3.5l-0.5-1.3c-1.1,0.9-1.8,2.1-2.3,3.5l-1.8-0.8
				c0.6-1.7,1.7-3.3,3.2-4.4L14.8,12.6z"/>
			<path id="Path_1192" class="st2" d="M9.3,12.9c0.4-0.5,0.8-1,1.2-1.5c0.3-0.3,0.6-0.6,0.9-0.9c0.4-0.4,0.9-0.8,1.4-1.1h0
				c0,0,0,0,0,0c0,0-0.1,0.1-0.1,0.1s0,0,0,0c0,0,0.1,0,0.1-0.1c0,0,0,0,0,0h0c0.1,0.1,0.2,0.3,0.4,0.4c0.2,0.3,0.5,0.6,0.7,0.9
				c0.1,0.2,0.3,0.3,0.4,0.5l0,0l-0.8,0.6c-0.4,0.4-0.8,0.7-1.2,1.1c-0.3,0.3-0.6,0.7-0.9,1c0,0-0.5,0.6-0.5,0.6
				c-0.2-0.1-0.4-0.3-0.5-0.4c-0.3-0.2-0.6-0.5-0.9-0.7c-0.1-0.1-0.2-0.2-0.3-0.2c0,0-0.1,0-0.1-0.1l0,0C9.1,13.1,9.2,13,9.3,12.9"
				/>
			<path id="Path_1193" class="st2" d="M6.7,23C6.7,23,6.7,23,6.7,23L6.7,23L6.7,23c-0.1-0.3-0.1-0.5-0.1-0.6c0-0.3,0-0.7,0-1
				c0-0.5,0-1,0.1-1.4c0.1-0.7,0.2-1.5,0.4-2.2c0,0,0,0,0,0c0,0,0,0,0,0s0,0,0,0.1s0,0,0,0.1s0,0,0,0.1l0,0c0,0,0,0,0-0.1s0,0,0-0.1
				s0,0,0-0.1s0,0,0,0c0,0,0,0,0,0c0.2,0,0.4,0.1,0.6,0.1C8,17.8,8.4,17.9,8.7,18c0.2,0,0.4,0.1,0.6,0.1c0,0.2-0.1,0.4-0.1,0.6
				c-0.1,0.4-0.1,0.8-0.2,1.2C9,20.5,9,21.2,9,21.8c0,0.3,0,0.7,0,1c0,0,0,0.1,0,0.1h0c-0.1,0-0.2,0-0.3,0l-1.1,0
				C7.3,22.9,7,22.9,6.7,23"/>
			<path id="Path_1194" class="st2" d="M12.9,30.5C12.9,30.5,12.9,30.5,12.9,30.5c-0.3,0.3-0.5,0.5-0.8,0.7
				c-0.3,0.2-0.5,0.5-0.8,0.7c-0.1,0-0.1,0.1-0.2,0.1c0,0-0.3-0.3-0.3-0.3c-0.1-0.1-0.3-0.3-0.4-0.4c-0.9-1-1.7-2.2-2.4-3.4
				c0,0-0.1-0.1-0.1-0.1c0,0,0,0,0,0c0,0,0.1,0,0.1-0.1c0.1-0.1,0.2-0.1,0.4-0.2c0.3-0.2,0.7-0.4,1-0.6c0.2-0.1,0.4-0.2,0.5-0.3
				c0.1,0.1,0.1,0.2,0.2,0.3c0.2,0.3,0.3,0.5,0.5,0.8c0.4,0.6,0.8,1.2,1.3,1.8c0.2,0.2,0.4,0.5,0.7,0.7
				C12.7,30.3,12.8,30.4,12.9,30.5C12.9,30.5,12.9,30.5,12.9,30.5"/>
			<path id="Path_1195" class="st2" d="M20.8,33.9c0,0.3-0.1,0.6-0.1,1s-0.1,0.7-0.1,1c0,0,0,0.1,0,0.1c0,0,0,0,0,0
				c-0.4,0-0.8-0.1-1.1-0.1c-0.6-0.1-1.2-0.2-1.8-0.4c-0.7-0.2-1.4-0.4-2.1-0.7c0,0-0.1,0-0.1-0.1s0,0,0,0l0-0.1
				c0-0.1,0.1-0.3,0.1-0.4c0.1-0.4,0.3-0.7,0.4-1.1c0.1-0.2,0.1-0.4,0.2-0.6c0,0,0,0,0,0c0.3,0.1,0.6,0.2,0.9,0.3
				c0.5,0.2,1,0.3,1.5,0.5c0.5,0.1,0.9,0.2,1.4,0.2c0.3,0,0.6,0.1,0.9,0.1C20.8,33.8,20.8,33.9,20.8,33.9"/>
			<path id="Path_1196" class="st2" d="M21.2,25.2c0,0-1.2,3.5-1.9,3.6c-1.3,0-2.6-0.5-3.5-1.5c-1.6-1.4-3.3-4.8-1.9-7
				c0,0,2.3-1.7,5.2,0.7S21.2,25.2,21.2,25.2"/>
			<path id="Path_1197" class="st2" d="M22.2,29.2c-0.3-0.7,0.1-1.5,0.8-1.8c0,0,0.1,0,0.1,0c0.8-0.2,3,0.6,3.3,1.7
				c0.1,1-0.5,2-1.5,2.2C24.2,31.4,22.5,29.9,22.2,29.2"/>
			<path id="Path_1198" class="st2" d="M30.1,33.3c-0.3,0.2-0.6,0.4-0.9,0.6c-0.6,0.3-1.1,0.7-1.7,0.9c-0.3,0.2-0.7,0.3-1,0.4
				c-0.2,0.1-0.4,0.1-0.5,0.2l-0.3,0.1c0,0-0.1,0-0.1,0c-0.1-0.2-0.2-0.4-0.2-0.7c-0.1-0.4-0.3-0.7-0.4-1.1c0-0.1-0.1-0.2-0.1-0.4
				c0,0,0-0.1,0-0.1s0,0,0,0c0.3-0.1,0.6-0.2,0.9-0.3c0.5-0.2,1-0.4,1.4-0.6c0.4-0.2,0.8-0.5,1.2-0.7c0.2-0.2,0.5-0.3,0.7-0.5
				c0,0.1,0.1,0.1,0.1,0.2c0.2,0.3,0.4,0.6,0.5,0.9s0.3,0.6,0.5,0.8c0,0,0,0.1,0.1,0.1c0,0,0,0,0,0C30.1,33.2,30.1,33.3,30.1,33.3"
				/>
			<path id="Path_1199" class="st2" d="M30.4,24.1C30,25,29,25.5,28,25.2c-1-0.4-1.5-2.7-1.2-3.5c0.3-0.7,1.1-1,1.8-0.7
				c0,0,0.1,0,0.1,0.1C29.4,21.5,30.6,23.4,30.4,24.1"/>
			<path id="Path_1200" class="st2" d="M31.6,10.7C31.6,10.8,31.5,10.8,31.6,10.7c-0.2,0.2-0.2,0.3-0.3,0.4L30.5,12
				c-0.1,0.2-0.3,0.3-0.4,0.5c0,0,0,0,0,0c-0.3-0.2-0.5-0.4-0.8-0.6c-0.4-0.3-0.8-0.6-1.3-0.9c-0.4-0.2-0.8-0.5-1.2-0.7l-0.8-0.4
				c0.1-0.2,0.2-0.3,0.3-0.5c0.2-0.3,0.4-0.7,0.5-1C27,8.2,27.1,8,27.2,7.8c0.5,0.2,1,0.5,1.5,0.7c0.4,0.2,0.8,0.5,1.2,0.7
				c0.6,0.4,1.1,0.9,1.7,1.3C31.5,10.6,31.6,10.7,31.6,10.7C31.6,10.7,31.6,10.7,31.6,10.7"/>
			<path id="Path_1201" class="st2" d="M35.6,25.3c0,0.2-0.1,0.4-0.2,0.5c-0.1,0.3-0.2,0.6-0.3,1c-0.1,0.2-0.1,0.4-0.2,0.5
				c-0.1,0.2-0.2,0.4-0.3,0.6c-0.1,0.2-0.2,0.4-0.3,0.7c-0.2,0.3-0.4,0.7-0.6,1c0,0,0,0.1-0.1,0.1c0,0,0,0,0,0c0,0-0.1,0-0.1-0.1
				c-0.1-0.1-0.2-0.1-0.4-0.2l-1-0.6c-0.2-0.1-0.4-0.2-0.5-0.3c0,0,0,0,0,0c0.2-0.3,0.3-0.6,0.5-0.8c0.3-0.5,0.5-0.9,0.7-1.4
				c0.2-0.4,0.3-0.9,0.5-1.3c0.1-0.3,0.2-0.6,0.3-0.8c0.2,0.1,0.3,0.1,0.5,0.2c0.4,0.1,0.7,0.2,1.1,0.3c0.2,0.1,0.4,0.1,0.6,0.2
				C35.8,24.8,35.6,25.2,35.6,25.3"/>
			<path id="Path_1202" class="st2" d="M36.1,19.8C36.1,19.8,36.1,19.8,36.1,19.8l-0.1,0c-0.1,0-0.3,0-0.4,0.1l-1.1,0.2
				c-0.2,0-0.4,0.1-0.6,0.1v0c-0.1-0.3-0.1-0.6-0.2-1c-0.1-0.5-0.2-1-0.4-1.5c-0.1-0.5-0.3-0.9-0.5-1.3c-0.1-0.3-0.2-0.5-0.3-0.8
				c0.2-0.1,0.3-0.1,0.5-0.2c0.3-0.1,0.7-0.3,1.1-0.4c0.2-0.1,0.4-0.2,0.6-0.2c0.3,0.6,0.6,1.2,0.8,1.8c0.2,0.5,0.3,0.9,0.4,1.4
				c0.1,0.6,0.2,1.2,0.3,1.7C36.1,19.7,36.1,19.7,36.1,19.8"/>
		</g>
	</g>
</g>
</svg>
