<?xml version="1.0" encoding="utf-8"?>
<!-- Generator: Adobe Illustrator 25.2.0, SVG Export Plug-In . SVG Version: 6.00 Build 0)  -->
<svg version="1.1" id="圖層_1" xmlns="http://www.w3.org/2000/svg" xmlns:xlink="http://www.w3.org/1999/xlink" x="0px" y="0px"
	 viewBox="0 0 42.7 42.7" style="enable-background:new 0 0 42.7 42.7;" xml:space="preserve">
<style type="text/css">
	.st0{clip-path:url(#SVGID_2_);}
	.st1{fill:#F4DC2E;}
	.st2{fill:#231815;}
</style>
<g>
	<defs>
		<rect id="SVGID_1_" width="42.7" height="42.7"/>
	</defs>
	<clipPath id="SVGID_2_">
		<use xlink:href="#SVGID_1_"  style="overflow:visible;"/>
	</clipPath>
	<g id="Group_851" class="st0">
		<path id="Path_1103" class="st1" d="M42.7,21.3c0,11.8-9.6,21.3-21.3,21.3S0,33.1,0,21.3C0,9.6,9.6,0,21.3,0
			C33.1,0,42.7,9.6,42.7,21.3"/>
		<path id="Path_1104" class="st2" d="M21.3,36.1c-8.1,0-14.7-6.6-14.7-14.7S13.2,6.6,21.3,6.6s14.7,6.6,14.7,14.7c0,0,0,0,0,0
			C36.1,29.5,29.5,36.1,21.3,36.1C21.3,36.1,21.3,36.1,21.3,36.1 M14.6,23.6l-3,4.3l4.7,4.3l5-1.2l-0.3-5.3L14.6,23.6z M18.5,13.7
			l-1.6-3.8l-5.3,1.6l-2.2,4.4l3.8,2.5L18.5,13.7z M28,9.8l-4.9-2.1l-3.3,0.7l7.5,2.9L28,9.8z M25.9,31.7v2.2l7.1-5.7L30.7,28
			L25.9,31.7z M22.6,16l1.3,6l6.3,1.3l2.4-5.2l-4.8-4.8L22.6,16z"/>
	</g>
</g>
</svg>
