<?xml version="1.0" encoding="utf-8"?>
<!-- Generator: Adobe Illustrator 25.2.0, SVG Export Plug-In . SVG Version: 6.00 Build 0)  -->
<svg version="1.1" id="圖層_1" xmlns="http://www.w3.org/2000/svg" xmlns:xlink="http://www.w3.org/1999/xlink" x="0px" y="0px"
	 viewBox="0 0 42.7 42.7" style="enable-background:new 0 0 42.7 42.7;" xml:space="preserve">
<style type="text/css">
	.st0{clip-path:url(#SVGID_2_);}
	.st1{fill:#E50012;}
	.st2{fill:#231815;}
</style>
<g id="Group_888" transform="translate(0 0)">
	<g>
		<defs>
			<rect id="SVGID_1_" width="42.7" height="42.7"/>
		</defs>
		<clipPath id="SVGID_2_">
			<use xlink:href="#SVGID_1_"  style="overflow:visible;"/>
		</clipPath>
		<g id="Group_887" transform="translate(0 0)" class="st0">
			<path id="Path_1159" class="st1" d="M42.7,21.3c0,11.8-9.6,21.3-21.3,21.3S0,33.1,0,21.3S9.6,0,21.3,0c0,0,0,0,0,0
				C33.1,0,42.7,9.6,42.7,21.3C42.7,21.3,42.7,21.3,42.7,21.3"/>
			<path id="Path_1160" class="st2" d="M36.1,34.5l-0.2,0.7l0,0l-0.5,2.2L19.6,34c-2,3.3-6.3,4.3-9.6,2.3c-3-1.8-4.1-5.5-2.8-8.7
				l2.7-9.7l0,0c0.1-0.3,0.3-0.6,0.6-0.7l0,0l0,0c0,0,0,0,0,0l7.9-3.4L16,7.5c0,0,0,0,0,0l0,0l0,0c0-0.1-0.1-0.2-0.1-0.4
				c0-0.6,0.5-1.1,1.1-1.1c0.5,0,0.9,0.3,1,0.7l2.8,7.3c0.1,0.2,0.1,0.3,0.1,0.5c0,0.5-0.3,0.9-0.7,1l0,0c0,0,0,0,0,0l-8.4,3.6
				l-1.4,5.1c3.4-1.7,7.5-0.4,9.3,3l8.8-1.8l-0.1-0.7c-0.1-0.3,0.1-0.7,0.5-0.8c0,0,0,0,0,0l5.6-1.2c0.3-0.1,0.7,0.1,0.8,0.5
				c0,0,0,0,0,0l0.2,0.7l0,0l0.1,0.4l0.1,0.3v0l0.3,1.5l-15.4,3.2c0.1,0.9,0.1,1.8-0.1,2.6l8.6,1.8l0.2-0.7c0.1-0.3,0.4-0.6,0.8-0.5
				c0,0,0,0,0,0l5.6,1.2C35.9,33.8,36.1,34.1,36.1,34.5 M13.6,26.9c-2.1,0-3.7,1.7-3.7,3.8c0,2,1.7,3.7,3.7,3.7c0,0-2-1.7-2-3.8
				S13.6,26.9,13.6,26.9"/>
			<path id="Path_1161" class="st2" d="M22.2,5.3c0.5,0,0.9,0.3,1.1,0.8l1.8,4.6c0,0.1,0,0.2,0,0.3c0,0.5-0.3,0.9-0.7,1.1l-2.1,0.9
				l-0.8-2.1l1.1-0.5l-1.4-3.6c0-0.1-0.1-0.2-0.1-0.4C21.1,5.8,21.6,5.3,22.2,5.3"/>
		</g>
	</g>
</g>
</svg>
