<?xml version="1.0" encoding="utf-8"?>
<!-- Generator: Adobe Illustrator 25.2.0, SVG Export Plug-In . SVG Version: 6.00 Build 0)  -->
<svg version="1.1" id="圖層_1" xmlns="http://www.w3.org/2000/svg" xmlns:xlink="http://www.w3.org/1999/xlink" x="0px" y="0px"
	 viewBox="0 0 42.7 42.7" style="enable-background:new 0 0 42.7 42.7;" xml:space="preserve">
<style type="text/css">
	.st0{clip-path:url(#SVGID_2_);}
	.st1{fill:#F4DC2E;}
	.st2{fill:#231815;}
</style>
<g id="Group_872" transform="translate(0 0)">
	<g>
		<defs>
			<rect id="SVGID_1_" width="42.7" height="42.7"/>
		</defs>
		<clipPath id="SVGID_2_">
			<use xlink:href="#SVGID_1_"  style="overflow:visible;"/>
		</clipPath>
		<g id="Group_871" transform="translate(0 0)" class="st0">
			<path id="Path_1126" class="st1" d="M42.7,21.3c0,11.8-9.6,21.3-21.3,21.3S0,33.1,0,21.3S9.6,0,21.3,0c0,0,0,0,0,0
				C33.1,0,42.7,9.6,42.7,21.3"/>
			<path id="Path_1127" class="st2" d="M36.1,21.8v0.1c0,0.1,0,0.2,0,0.3c0,0,0,0.1,0,0.1c0,0.1,0,0.2,0,0.4c0,0,0,0.1,0,0.1
				c0,0.1,0,0.3,0,0.4c0,0,0,0.1,0,0.1c0,0.1,0,0.2-0.1,0.3c0,0,0,0.1,0,0.1c0,0.1,0,0.2-0.1,0.3c0,0,0,0.1,0,0.1
				c0,0.1-0.1,0.3-0.1,0.4l0,0c0,0.1-0.1,0.3-0.1,0.4c0,0,0,0,0,0l0,0c-0.3,1-0.6,2-1.1,2.9v0c-0.1,0.1-0.1,0.3-0.2,0.4
				c0,0,0,0.1-0.1,0.1c-0.2,0.3-0.3,0.6-0.5,0.8c0,0,0,0.1-0.1,0.1c-0.1,0.1-0.2,0.3-0.3,0.4c0,0,0,0,0,0c-0.1,0.1-0.2,0.3-0.3,0.4
				c0,0,0,0.1-0.1,0.1c-0.1,0.1-0.2,0.3-0.3,0.4c0,0,0,0,0,0c-0.1,0.1-0.2,0.2-0.3,0.3c0,0,0,0-0.1,0.1c-0.1,0.1-0.2,0.2-0.3,0.4
				l-0.1,0.1c-0.1,0.1-0.2,0.2-0.3,0.3c0,0,0,0-0.1,0.1c-0.1,0.1-0.2,0.2-0.4,0.3c0,0,0,0-0.1,0.1c-0.1,0.1-0.2,0.2-0.3,0.3
				c0,0,0,0-0.1,0c-0.1,0.1-0.2,0.2-0.4,0.3c0,0-0.1,0-0.1,0.1c-0.1,0.1-0.2,0.2-0.4,0.3c0,0,0,0,0,0c-0.1,0.1-0.3,0.2-0.4,0.3
				c0,0-0.1,0-0.1,0.1c-0.3,0.2-0.6,0.3-0.8,0.5c0,0,0,0-0.1,0c-1,0.6-2.1,1-3.2,1.3l0,0c0,0,0,0-0.1,0c-0.1,0-0.2,0.1-0.4,0.1
				c0,0-0.1,0-0.1,0c-0.3,0.1-0.6,0.1-0.9,0.2c0,0-0.1,0-0.1,0c-0.1,0-0.2,0-0.4,0.1c0,0-0.1,0-0.1,0c-0.1,0-0.3,0-0.4,0.1
				s-0.3,0-0.5,0l-0.1,0c-0.1,0-0.2,0-0.3,0c0,0-0.1,0-0.1,0c-0.2,0-0.3,0-0.5,0s-0.3,0-0.5,0c0,0-0.1,0-0.1,0c-0.1,0-0.2,0-0.3,0
				l-0.1,0c-0.2,0-0.3,0-0.5,0l0,0c-0.1,0-0.3,0-0.4-0.1c0,0-0.1,0-0.1,0c-0.1,0-0.2,0-0.4-0.1c0,0-0.1,0-0.1,0
				c-0.3,0-0.6-0.1-0.9-0.2l-0.1,0c-0.1,0-0.2-0.1-0.4-0.1c0,0,0,0-0.1,0l0,0c-1.1-0.3-2.2-0.8-3.2-1.3c0,0,0,0,0,0
				c-0.3-0.2-0.6-0.3-0.8-0.5c0,0-0.1,0-0.1-0.1c-0.1-0.1-0.3-0.2-0.4-0.3c0,0,0,0,0,0c-0.1-0.1-0.2-0.2-0.4-0.3c0,0-0.1,0-0.1-0.1
				c-0.1-0.1-0.3-0.2-0.4-0.3l-0.1,0c-0.1-0.1-0.2-0.2-0.3-0.3c0,0,0,0-0.1-0.1c-0.1-0.1-0.2-0.2-0.4-0.3c0,0,0,0-0.1-0.1
				c-0.1-0.1-0.2-0.2-0.3-0.3c0,0,0,0-0.1-0.1c-0.1-0.1-0.2-0.2-0.3-0.4c0,0,0,0-0.1-0.1c-0.1-0.1-0.2-0.2-0.3-0.3l0,0
				c-0.1-0.1-0.2-0.3-0.3-0.4c0,0,0-0.1-0.1-0.1c-0.1-0.1-0.2-0.3-0.3-0.4c0,0,0,0,0,0c-0.1-0.1-0.2-0.3-0.3-0.4c0,0,0-0.1-0.1-0.1
				c-0.2-0.3-0.4-0.6-0.5-0.8c0,0,0-0.1,0-0.1c-0.1-0.1-0.2-0.3-0.2-0.4l0,0c-0.5-0.9-0.8-1.9-1.1-2.9l0,0c0,0,0,0,0,0
				C7.1,25,7,24.8,7,24.7v0c0-0.1-0.1-0.3-0.1-0.4c0,0,0-0.1,0-0.1c0-0.1,0-0.2-0.1-0.3c0,0,0-0.1,0-0.1c0-0.1,0-0.2-0.1-0.3
				c0,0,0-0.1,0-0.1c0-0.1,0-0.3-0.1-0.4c0,0,0-0.1,0-0.1c0-0.1,0-0.2,0-0.4c0,0,0-0.1,0-0.1c0-0.1,0-0.2,0-0.3c0,0,0-0.1,0-0.1
				c0-0.2,0-0.3,0-0.4s0-0.3,0-0.4c0,0,0-0.1,0-0.1c0-0.1,0-0.2,0-0.3c0,0,0-0.1,0-0.1c0-0.1,0-0.2,0-0.4c0,0,0-0.1,0-0.1
				c0-0.1,0-0.3,0.1-0.4l0-0.1c0-0.1,0-0.2,0.1-0.3c0,0,0-0.1,0-0.1c0-0.1,0-0.2,0.1-0.3c0,0,0-0.1,0-0.1C6.9,18.3,7,18.1,7,18
				c0,0,0,0,0,0c0-0.1,0.1-0.3,0.1-0.4c0,0,0,0,0,0l0,0c0.3-1,0.6-2,1.1-2.9l0,0c0.1-0.1,0.2-0.3,0.2-0.4c0,0,0-0.1,0.1-0.1
				c0.2-0.3,0.3-0.6,0.5-0.8l0.1-0.1c0.1-0.1,0.2-0.3,0.3-0.4c0,0,0,0,0,0c0.1-0.1,0.2-0.3,0.3-0.4c0,0,0-0.1,0.1-0.1
				c0.1-0.1,0.2-0.3,0.3-0.4c0,0,0,0,0,0c0.1-0.1,0.2-0.2,0.3-0.3c0,0,0-0.1,0.1-0.1c0.1-0.1,0.2-0.2,0.3-0.4l0.1-0.1
				c0.1-0.1,0.2-0.2,0.3-0.3c0,0,0,0,0.1-0.1c0.1-0.1,0.2-0.2,0.4-0.3c0,0,0.1,0,0.1-0.1c0.1-0.1,0.2-0.2,0.3-0.3c0,0,0,0,0.1-0.1
				c0.1-0.1,0.2-0.2,0.4-0.3c0,0,0.1,0,0.1-0.1c0.1-0.1,0.2-0.2,0.4-0.3l0,0c0.1-0.1,0.3-0.2,0.4-0.3c0,0,0.1,0,0.1-0.1
				c0.1-0.1,0.3-0.2,0.4-0.3l0,0c0.1-0.1,0.3-0.2,0.4-0.2c0,0,0,0,0.1,0c1-0.6,2.1-1,3.2-1.3l0,0c0,0,0,0,0.1,0
				c0.1,0,0.2-0.1,0.4-0.1c0,0,0.1,0,0.1,0c0.1,0,0.3-0.1,0.4-0.1l0,0c0.1,0,0.3-0.1,0.4-0.1l0.1,0c0.1,0,0.2,0,0.3-0.1
				c0,0,0.1,0,0.1,0c0.1,0,0.3,0,0.4-0.1h0c0.2,0,0.3,0,0.5,0c0,0,0.1,0,0.1,0c0.1,0,0.2,0,0.3,0c0,0,0.1,0,0.1,0c0.2,0,0.3,0,0.5,0
				s0.3,0,0.5,0c0,0,0.1,0,0.1,0c0.1,0,0.2,0,0.3,0c0,0,0.1,0,0.1,0c0.2,0,0.3,0,0.5,0l0,0c0.2,0,0.3,0,0.4,0.1c0,0,0.1,0,0.1,0
				l0.4,0.1l0.1,0c0.1,0,0.3,0.1,0.4,0.1l0,0c0.1,0,0.3,0.1,0.4,0.1c0,0,0.1,0,0.1,0c0.1,0,0.2,0.1,0.4,0.1c0,0,0,0,0.1,0l0,0
				c1.1,0.3,2.2,0.8,3.2,1.3c0,0,0,0,0.1,0c0.1,0.1,0.3,0.2,0.4,0.2l0,0c0.1,0.1,0.3,0.2,0.4,0.3c0,0,0.1,0,0.1,0.1
				c0.1,0.1,0.3,0.2,0.4,0.3c0,0,0,0,0,0c0.1,0.1,0.2,0.2,0.4,0.3c0,0,0.1,0,0.1,0.1c0.1,0.1,0.2,0.2,0.4,0.3c0,0,0,0,0.1,0.1
				c0.1,0.1,0.2,0.2,0.3,0.3l0.1,0.1c0.1,0.1,0.2,0.2,0.3,0.3c0,0,0,0,0.1,0.1c0.1,0.1,0.2,0.2,0.3,0.3c0,0,0,0,0.1,0.1
				c0.1,0.1,0.2,0.2,0.3,0.3c0,0,0,0.1,0.1,0.1c0.1,0.1,0.2,0.2,0.3,0.3l0,0.1c0.1,0.1,0.2,0.2,0.3,0.4c0,0,0,0.1,0.1,0.1
				c0.1,0.1,0.2,0.2,0.3,0.4c0,0,0,0,0,0c0.1,0.1,0.2,0.3,0.3,0.4c0,0,0,0.1,0.1,0.1c0.2,0.3,0.3,0.6,0.5,0.8c0,0,0,0.1,0.1,0.1
				c0.1,0.1,0.2,0.3,0.2,0.4v0c0.5,0.9,0.8,1.9,1.1,2.9c0,0,0,0,0,0c0,0.1,0.1,0.3,0.1,0.4v0c0,0.1,0.1,0.3,0.1,0.4c0,0,0,0.1,0,0.1
				c0,0.1,0,0.2,0.1,0.3c0,0,0,0.1,0,0.1c0,0.1,0,0.2,0.1,0.3c0,0,0,0.1,0,0.1c0,0.1,0,0.3,0,0.4c0,0,0,0.1,0,0.1c0,0.1,0,0.2,0,0.4
				c0,0,0,0.1,0,0.1c0,0.1,0,0.2,0,0.3v0.1c0,0.1,0,0.3,0,0.4S36,21.6,36.1,21.8 M34.3,18.5c-0.2-1-0.6-2-1-2.9l-1.5,1.2l-3.6-2.6
				l-1.7-4.5L27,9.3c-3.6-1.7-7.7-1.7-11.2,0l0.5,0.3l-1.7,4.5l-3.6,2.6l-1.5-1.2c-0.5,0.9-0.8,1.9-1,2.9l1,0.7v4.2l-1,0.7
				c0.2,1,0.6,2,1,2.9l1.5-1.2l3.6,2.6l1.7,4.5l-0.5,0.3c3.6,1.7,7.7,1.7,11.2,0l-0.5-0.3l1.7-4.5l3.6-2.6l1.5,1.2
				c0.4-0.9,0.8-1.9,1-2.9l-1-0.7v-4.2L34.3,18.5z M18.9,10.9h4.8l1.4,3.5l-3.8,2.5l-3.8-2.5L18.9,10.9z M16,25.9l-3.7-2.5v-4.2
				l3.7-2.5l3.9,2.6v4L16,25.9z M23.8,31.8h-4.8l-1.4-3.5l3.8-2.5l3.8,2.5L23.8,31.8z M30.4,23.5l-3.7,2.5l-3.9-2.6v-4l3.9-2.6
				l3.7,2.5L30.4,23.5z"/>
		</g>
	</g>
</g>
</svg>
