<?xml version="1.0" encoding="utf-8"?>
<!-- Generator: Adobe Illustrator 25.2.0, SVG Export Plug-In . SVG Version: 6.00 Build 0)  -->
<svg version="1.1" id="圖層_1" xmlns="http://www.w3.org/2000/svg" xmlns:xlink="http://www.w3.org/1999/xlink" x="0px" y="0px"
	 viewBox="0 0 42.7 42.7" style="enable-background:new 0 0 42.7 42.7;" xml:space="preserve">
<style type="text/css">
	.st0{clip-path:url(#SVGID_2_);}
	.st1{fill:#F4DC2E;}
	.st2{fill:#231815;}
</style>
<g id="Group_864" transform="translate(0 0)">
	<g>
		<defs>
			<rect id="SVGID_1_" width="42.7" height="42.7"/>
		</defs>
		<clipPath id="SVGID_2_">
			<use xlink:href="#SVGID_1_"  style="overflow:visible;"/>
		</clipPath>
		<g id="Group_863" transform="translate(0 0)" class="st0">
			<path id="Path_1117" class="st1" d="M42.7,21.3c0,11.8-9.6,21.3-21.3,21.3S0,33.1,0,21.3S9.6,0,21.3,0c0,0,0,0,0,0
				C33.1,0,42.7,9.6,42.7,21.3"/>
			<path id="Path_1118" class="st2" d="M17.8,7c0.2,0,0.6,0.1,1.1,0.3l0.3,0.8L19.6,8l-0.2-0.5c0.2,0.1,0.5,0.1,0.7,0.2l0.2,0.7
				l0.4-0.1l-0.1-0.4l0.7,0.2l0.3,0.8l0.5-0.1l-0.2-0.5c0.2,0.1,0.4,0.2,0.7,0.3l0.3,1l0.5-0.1l-0.2-0.6c0.2,0.1,0.4,0.2,0.7,0.3
				l0.2,1l0.5-0.1l-0.1-0.6c0.2,0.1,0.5,0.2,0.7,0.4l0.1,1l0.6-0.1l-0.1-0.6c0.2,0.1,0.5,0.3,0.7,0.4l0,1l0.6,0l0-0.6c0,0,0,0,0.1,0
				c0.2,0.1,0.3,0.3,0.5,0.4l-0.1,1.1l0.6,0.1l0.1-0.6c0.2,0.2,0.4,0.4,0.5,0.6l-0.2,1.1l0.6,0.1l0.1-0.6c0.2,0.2,0.3,0.5,0.5,0.7
				l-0.4,1l0.6,0.2l0.2-0.5c0.1,0.3,0.3,0.5,0.4,0.8l-0.5,0.9l0.6,0.3l0.2-0.4c0.1,0.3,0.2,0.5,0.3,0.8l-0.6,0.9l0.6,0.4l0.2-0.4
				c0.1,0.3,0.2,0.7,0.2,0.9L31,19.6l0.5,0.5l0.2-0.3c0,0.3,0,0.6,0,0.9L31,21.2l0.4,0.6l0.3-0.2c0,0.3-0.1,0.6-0.1,1l-1,0.5
				l0.3,0.7l0.4-0.2c-0.1,0.3-0.2,0.6-0.3,0.9l-1,0.2l0.2,0.7l0.5-0.1c-0.1,0.3-0.3,0.5-0.4,0.7L29,26.1l0.1,0.8l0.6,0
				c-0.2,0.2-0.4,0.4-0.6,0.6L28,27.2L27.8,28l0.6,0.2c-0.2,0.2-0.5,0.4-0.8,0.5l-1.1-0.7l-0.5,0.7l0.7,0.4
				c-0.3,0.1-0.7,0.2-1.1,0.3l-0.9-1L24.2,29l0.5,0.5c-0.4,0-0.7,0-1.1-0.1l-0.6-1.3l-0.8,0.4l0.3,0.7c-0.4-0.1-0.7-0.3-1.1-0.5
				l-0.1-1.3l-0.9,0.1l0.1,0.6c-0.1-0.1-0.2-0.2-0.4-0.3s-0.3-0.2-0.5-0.4l0.1-1.2l-0.9-0.1l-0.1,0.6c-0.3-0.3-0.6-0.6-0.9-0.9
				l0.3-1.2l-0.8-0.2L17.2,25c-0.2-0.2-0.3-0.5-0.5-0.8l0.5-1l-0.7-0.3l-0.2,0.5c-0.1-0.3-0.3-0.5-0.4-0.8l0.6-1.1L15.8,21l-0.3,0.5
				c-0.1-0.3-0.2-0.6-0.4-1l0.6-0.8l-0.6-0.5l-0.3,0.4c-0.1-0.4-0.2-0.8-0.4-1.2c0,0,0,0,0-0.1l0.5-1l-0.7-0.3L14,17.4
				c-0.2-0.4-0.4-0.8-0.7-1.1l0.1-0.9l-0.7-0.1l0,0.3c-0.3-0.3-0.6-0.5-0.9-0.7L11.7,14L11,14l0,0.3c-0.3-0.2-0.6-0.3-0.9-0.5
				L10,13.1l-0.6,0.1l0.1,0.3c-0.3-0.1-0.4-0.1-0.5-0.2C11,10.2,14.1,8,17.8,7"/>
			<path id="Path_1119" class="st2" d="M21.3,36.1c-8.1,0-14.7-6.6-14.7-14.7c0-2.2,0.5-4.5,1.5-6.5c0,0,0.3,0.1,0.6,0.3l-0.4,0.2
				L8.6,16l0.8-0.4c0.2,0.1,0.4,0.3,0.6,0.4l-0.3,0.1l0.3,0.6l0.7-0.3c0.2,0.2,0.4,0.3,0.5,0.5l-0.4,0l0.1,0.7l0.9-0.1
				c0.2,0.2,0.3,0.5,0.4,0.7l-0.5-0.1l-0.1,0.8l0.9,0.2c0.1,0.3,0.1,0.5,0.2,0.9L12.3,20L12,20.7l1,0.4c0.1,0.4,0.3,0.7,0.4,1.1
				l-0.5-0.1l-0.2,0.8l1.1,0.3c0.2,0.4,0.3,0.7,0.5,1.1l-0.5-0.1L13.6,25l1.1,0.2c0.2,0.4,0.4,0.8,0.7,1.2h-0.5v0.8h1
				c0.3,0.4,0.6,0.9,1,1.3l-0.6,0l0.1,0.9l1.4-0.1c0.1,0.1,0.3,0.2,0.4,0.3c0.3,0.2,0.6,0.4,0.9,0.6l-0.5,0.2l0.3,0.8l1.3-0.5
				c0.5,0.3,1.1,0.4,1.7,0.6l-0.5,0.4l0.6,0.7l1.1-0.9c0.6,0.1,1.2,0.1,1.8,0l-0.3,0.6l0.7,0.5l0.8-1.2c0.5-0.1,0.9-0.3,1.4-0.4
				L27,31.6l0.8,0.3l0.5-1.4c0.4-0.2,0.8-0.5,1.2-0.8v0.6h0.8l0-1.3c0.4-0.3,0.7-0.7,1-1l0.2,0.6l0.8-0.3l-0.4-1.1
				c0.2-0.3,0.4-0.6,0.6-1l0.2,0.3l0.7-0.4l-0.4-0.8c0.2-0.4,0.4-0.8,0.5-1.3l0.3,0.3l0.6-0.5l-0.6-0.7c0.1-0.5,0.2-0.9,0.2-1.4
				l0.3,0.2l0.4-0.7l-0.6-0.5c0-0.3,0-0.6,0-0.9c0-0.2,0-0.3-0.1-0.5l0.3,0.2l0.3-0.7l-0.7-0.3c-0.1-0.4-0.2-0.8-0.3-1.2l0.3,0.1
				l0.2-0.7l-0.8-0.3c-0.1-0.3-0.3-0.7-0.5-1l0.4,0.1l0.1-0.7l-1-0.2c-0.2-0.3-0.3-0.5-0.5-0.8L32,14l0.1-0.7L31,13.2
				c-0.2-0.3-0.4-0.5-0.7-0.8l0.5,0l0-0.6l-1.1,0c-0.2-0.2-0.4-0.4-0.7-0.6l0.5-0.1l-0.1-0.6l-1,0.2c-0.2-0.2-0.4-0.4-0.7-0.6
				l0.5-0.1l-0.1-0.5l-0.9,0.2c-0.2-0.2-0.5-0.3-0.8-0.5L26.9,9l-0.2-0.5l-0.9,0.4c-0.3-0.1-0.5-0.2-0.8-0.4l0.4-0.2l-0.3-0.5
				l-0.8,0.4c-0.2-0.1-0.4-0.2-0.7-0.3l0.3-0.2l-0.3-0.4l-0.7,0.4c-0.3-0.1-0.5-0.2-0.8-0.3l0.4-0.2l-0.3-0.4l-0.7,0.4
				c-0.9-0.3-1.5-0.5-1.7-0.5c0.4,0,0.8-0.1,1.3-0.1c8.1,0,14.7,6.6,14.7,14.7S29.5,36.1,21.3,36.1L21.3,36.1"/>
		</g>
	</g>
</g>
</svg>
