<?xml version="1.0" encoding="utf-8"?>
<!-- Generator: Adobe Illustrator 25.2.0, SVG Export Plug-In . SVG Version: 6.00 Build 0)  -->
<svg version="1.1" id="圖層_1" xmlns="http://www.w3.org/2000/svg" xmlns:xlink="http://www.w3.org/1999/xlink" x="0px" y="0px"
	 viewBox="0 0 42.7 42.7" style="enable-background:new 0 0 42.7 42.7;" xml:space="preserve">
<style type="text/css">
	.st0{clip-path:url(#SVGID_2_);}
	.st1{fill:#209BAD;}
	.st2{fill:#231815;}
</style>
<g>
	<defs>
		<rect id="SVGID_1_" width="42.7" height="42.7"/>
	</defs>
	<clipPath id="SVGID_2_">
		<use xlink:href="#SVGID_1_"  style="overflow:visible;"/>
	</clipPath>
	<g id="Group_822" class="st0">
		<path id="Path_1031" class="st1" d="M42.7,21.3c0,11.8-9.6,21.3-21.3,21.3S0,33.1,0,21.3S9.6,0,21.3,0c0,0,0,0,0,0
			C33.1,0,42.7,9.6,42.7,21.3"/>
		<path id="Path_1032" class="st2" d="M11.9,23.5c-1.2-0.4-4.3-4-4.3-4.7c0-0.3,3.9,0,8.8,0.2l5.5,4.9
			C21.5,23.9,12.9,23.8,11.9,23.5"/>
		<path id="Path_1033" class="st2" d="M35,32.7c-0.3,0.9-0.9,1.8-1.8,2.3c-0.4,0.1-1.7-0.8-3.6-2.5c-2-1.7-2.7-4.5-3.2-5.8
			c0-0.1-10.8-9.8-10.8-9.8c-1.3-0.1-2.7-0.6-3.8-1.3c-1.4-1-4.5-4.5-4-5.7C8,9,8.6,8.2,9.4,7.6c0.4-0.1,1.7,0.8,3.6,2.5
			s2.7,4.5,3.2,5.8c0,0.1,10.8,9.8,10.8,9.8c1.3,0.1,2.7,0.6,3.8,1.3C32.4,28,35.5,31.6,35,32.7"/>
		<path id="Path_1034" class="st2" d="M30.8,23.5c-1.4,0.3-2.9,0.5-4.3,0.4l-5.3-4.7c5.9-0.1,13.9-0.8,13.9-0.4
			C35.1,19.5,32,23,30.8,23.5"/>
	</g>
</g>
</svg>
