<?xml version="1.0" encoding="utf-8"?>
<!-- Generator: Adobe Illustrator 25.2.0, SVG Export Plug-In . SVG Version: 6.00 Build 0)  -->
<svg version="1.1" id="圖層_1" xmlns="http://www.w3.org/2000/svg" xmlns:xlink="http://www.w3.org/1999/xlink" x="0px" y="0px"
	 viewBox="0 0 42.7 42.7" style="enable-background:new 0 0 42.7 42.7;" xml:space="preserve">
<style type="text/css">
	.st0{clip-path:url(#SVGID_2_);}
	.st1{fill:#E50012;}
	.st2{fill:#231815;}
</style>
<g id="Group_906" transform="translate(0 0)">
	<g>
		<defs>
			<rect id="SVGID_1_" width="42.7" height="42.7"/>
		</defs>
		<clipPath id="SVGID_2_">
			<use xlink:href="#SVGID_1_"  style="overflow:visible;"/>
		</clipPath>
		<g id="Group_905" transform="translate(0 0)" class="st0">
			<path id="Path_1203" class="st1" d="M42.7,21.3c0,11.8-9.6,21.3-21.3,21.3S0,33.1,0,21.3S9.6,0,21.3,0c0,0,0,0,0,0
				C33.1,0,42.7,9.6,42.7,21.3"/>
			<path id="Path_1204" class="st2" d="M27.7,25.1c-0.3,1,4.1,10.8,3.1,11.4s-8.5-6.6-9.4-6.6s-8.7,7.2-9.4,6.6s3.5-10.7,3.1-11.5
				S5.8,19,6.1,17.7s10.6,0.2,11.3-0.5s3-11.2,3.9-11.2s3.3,10.7,3.9,11.2s11-0.8,11.3,0.5S28,24.1,27.7,25.1"/>
		</g>
	</g>
</g>
</svg>
