<?xml version="1.0" encoding="utf-8"?>
<!-- Generator: Adobe Illustrator 25.2.0, SVG Export Plug-In . SVG Version: 6.00 Build 0)  -->
<svg version="1.1" id="圖層_1" xmlns="http://www.w3.org/2000/svg" xmlns:xlink="http://www.w3.org/1999/xlink" x="0px" y="0px"
	 viewBox="0 0 42.7 42.7" style="enable-background:new 0 0 42.7 42.7;" xml:space="preserve">
<style type="text/css">
	.st0{clip-path:url(#SVGID_2_);}
	.st1{fill:#ED7700;}
	.st2{fill:#231815;}
</style>
<g>
	<defs>
		<rect id="SVGID_1_" width="42.7" height="42.7"/>
	</defs>
	<clipPath id="SVGID_2_">
		<use xlink:href="#SVGID_1_"  style="overflow:visible;"/>
	</clipPath>
	<g id="Group_780" class="st0">
		<path id="Path_949" class="st1" d="M42.7,21.3c0,11.8-9.6,21.3-21.3,21.3S0,33.1,0,21.3S9.6,0,21.3,0c0,0,0,0,0,0
			C33.1,0,42.7,9.6,42.7,21.3C42.7,21.3,42.7,21.3,42.7,21.3"/>
		<path id="Path_950" class="st2" d="M21.3,5.9c2.4,0,4.4,2,4.4,4.4s-2,4.4-4.4,4.4c-2.4,0-4.4-2-4.4-4.4l0,0
			C16.9,7.9,18.9,5.9,21.3,5.9"/>
		<path id="Path_951" class="st2" d="M29.9,23.1c-0.7,0.3-1.4,0.7-1.9,1.2l-4.7-8.1c0.7-0.2,1.4-0.6,2-1.1L29.9,23.1z"/>
		<path id="Path_952" class="st2" d="M17.4,15.1c0.6,0.5,1.3,0.9,2,1.1l-4.7,8.1c-0.6-0.5-1.2-0.9-1.9-1.2L17.4,15.1z"/>
		<path id="Path_953" class="st2" d="M10.5,33.4c-2.5,0-4.4-2-4.4-4.4c0-2.5,2-4.4,4.4-4.4s4.4,2,4.4,4.4c0,0,0,0,0,0
			C15,31.4,13,33.4,10.5,33.4"/>
		<path id="Path_954" class="st2" d="M26,30.1h-9.4c0.1-0.7,0.1-1.5,0-2.3H26C25.9,28.6,25.9,29.3,26,30.1"/>
		<path id="Path_955" class="st2" d="M32.2,33.4c-2.5,0-4.4-2-4.4-4.4s2-4.4,4.4-4.4c2.5,0,4.4,2,4.4,4.4
			C36.6,31.4,34.6,33.4,32.2,33.4C32.2,33.4,32.2,33.4,32.2,33.4"/>
	</g>
</g>
</svg>
