<?xml version="1.0" encoding="utf-8"?>
<!-- Generator: Adobe Illustrator 25.2.0, SVG Export Plug-In . SVG Version: 6.00 Build 0)  -->
<svg version="1.1" id="圖層_1" xmlns="http://www.w3.org/2000/svg" xmlns:xlink="http://www.w3.org/1999/xlink" x="0px" y="0px"
	 viewBox="0 0 42.7 42.7" style="enable-background:new 0 0 42.7 42.7;" xml:space="preserve">
<style type="text/css">
	.st0{clip-path:url(#SVGID_2_);}
	.st1{fill:#209BAD;}
	.st2{fill:#231815;}
</style>
<g>
	<defs>
		<rect id="SVGID_1_" width="42.7" height="42.7"/>
	</defs>
	<clipPath id="SVGID_2_">
		<use xlink:href="#SVGID_1_"  style="overflow:visible;"/>
	</clipPath>
	<g id="Group_828" class="st0">
		<path id="Path_1042" class="st1" d="M42.7,21.3c0,11.8-9.6,21.3-21.3,21.3S0,33.1,0,21.3S9.6,0,21.3,0c0,0,0,0,0,0
			C33.1,0,42.7,9.6,42.7,21.3"/>
		<path id="Path_1043" class="st2" d="M35.8,24.6c-2,3.8-5.4,6.2-6.6,5.8c-1.8-0.3-3.9-5.5-4.3-6s-1.5-4-3.6-4.1
			c-1.9-0.3-3.7,4-3.8,4.1c-0.4,0.5-1.8,4.8-4.1,6c-1.3,0.4-4.7-2-6.6-5.8c-1.8-3.1,0.2-4,0.5-4.3c0.4-0.2,0.6-0.4,1-2.7
			c0.4-2.3,1.5-3.1,2-3.4c1.9-0.1,3.8,0,5.7,0.3c1.6,0.2,3.3,1.4,5.4,1.4c2,0,4.3-1.3,5.4-1.4c1.9-0.3,3.8-0.4,5.7-0.3
			c0.5,0.2,1.6,1,2,3.4s0.7,2.5,1,2.7C35.7,20.7,37.6,21.5,35.8,24.6 M32.8,20.8c-1-1.2-0.2-3.5-1.6-4.4c-1.3-0.5-7.5,0.1-7.5,1.4
			c0.1,1,3.4,10.3,5.3,9.7c0.5-0.1,1.2-0.3,2.8-1.9c2-2.1,1.9-3.3,1.9-3.8S33.2,21,32.8,20.8 M11,16.5c-1.4,0.9-0.7,3.2-1.6,4.4
			c-0.4,0.3-1,0.5-1,1s-0.1,1.7,1.9,3.8c1.6,1.6,2.3,1.8,2.8,1.9c2,0.6,5.3-8.7,5.3-9.7C18.6,16.6,12.4,16,11,16.5"/>
		<path id="Path_1044" class="st2" d="M21.3,10.4c2.2,0.1,4.5,0.6,6.5,1.5c0,0-2.8,1-3.7,1.4c-1.8,0.8-3.8,0.8-5.5,0
			c-1-0.4-3.8-1.3-3.8-1.3C16.8,11,19,10.5,21.3,10.4"/>
		<path id="Path_1045" class="st2" d="M21.4,31.2c-2.1,0-4.2,0.3-6.2,1c0,0,4.1-8.8,6.2-8.6c1.9-0.2,6.1,8.6,6.1,8.6
			C25.5,31.6,23.5,31.2,21.4,31.2"/>
	</g>
</g>
</svg>
