<?xml version="1.0" encoding="utf-8"?>
<!-- Generator: Adobe Illustrator 25.2.0, SVG Export Plug-In . SVG Version: 6.00 Build 0)  -->
<svg version="1.1" id="圖層_1" xmlns="http://www.w3.org/2000/svg" xmlns:xlink="http://www.w3.org/1999/xlink" x="0px" y="0px"
	 viewBox="0 0 42.7 42.7" style="enable-background:new 0 0 42.7 42.7;" xml:space="preserve">
<style type="text/css">
	.st0{clip-path:url(#SVGID_2_);}
	.st1{fill:#F4DC2E;}
	.st2{fill:#231815;}
</style>
<g id="Group_866" transform="translate(0 0)">
	<g>
		<defs>
			<rect id="SVGID_1_" width="42.7" height="42.7"/>
		</defs>
		<clipPath id="SVGID_2_">
			<use xlink:href="#SVGID_1_"  style="overflow:visible;"/>
		</clipPath>
		<g id="Group_865" transform="translate(0 0)" class="st0">
			<path id="Path_1120" class="st1" d="M42.7,21.3c0,11.8-9.6,21.3-21.3,21.3S0,33.1,0,21.3S9.6,0,21.3,0c0,0,0,0,0,0
				C33.1,0,42.7,9.6,42.7,21.3"/>
			<path id="Path_1121" class="st2" d="M21.3,36.1c-8.1,0-14.7-6.6-14.7-14.7S13.2,6.6,21.3,6.6c8.1,0,14.7,6.6,14.7,14.7
				C36.1,29.5,29.5,36.1,21.3,36.1C21.3,36.1,21.3,36.1,21.3,36.1 M20.4,24.6c-1.6,0-2.8,1.3-2.8,2.8c0,1.6,1.3,2.8,2.8,2.8
				c1.5,0,2.8-1.3,2.8-2.8C23.2,25.9,22,24.6,20.4,24.6 M15,14.5c0.8-1.2,0.9-2.6,0.2-3.1s-1.9,0-2.7,1.2s-0.9,2.6-0.2,3.1
				S14.2,15.7,15,14.5 M16.7,32.3c-1.1-0.6-2.2-0.7-2.4-0.4s0.6,1.1,1.8,1.7s2.2,0.7,2.4,0.4S17.9,32.9,16.7,32.3 M9.8,22.9
				c-0.9,0.2-1.2,1.6-0.7,2.9s1.5,2.3,2.4,2s1.2-1.5,0.7-2.9S10.7,22.6,9.8,22.9 M19.9,16.9c0.1,1.7,1.5,2.9,3.1,2.9
				s2.9-1.5,2.9-3.1c-0.1-1.6-1.4-2.9-3-2.9C21.2,13.9,19.9,15.3,19.9,16.9 M21.9,9.4c1.4,0,2.6-0.3,2.6-0.7S23.3,8,21.9,8
				s-2.6,0.3-2.6,0.7S20.4,9.4,21.9,9.4 M29.7,12.6c-0.3,0.2,0.2,1.4,1.1,2.5c0.9,1.1,1.9,1.8,2.2,1.6s-0.2-1.4-1.1-2.5
				S30,12.3,29.7,12.6 M31.1,22c-0.9-0.2-1.9,0.7-2.3,2.1s0,2.6,0.8,2.8c0.9,0.2,1.9-0.7,2.3-2.1S31.9,22.2,31.1,22 M25.5,32.8
				c-1.2,0.5-2.1,1.2-1.9,1.5s1.2,0.2,2.4-0.4s2.1-1.2,1.9-1.5S26.7,32.2,25.5,32.8"/>
		</g>
	</g>
</g>
</svg>
