<?xml version="1.0" encoding="utf-8"?>
<!-- Generator: Adobe Illustrator 25.2.0, SVG Export Plug-In . SVG Version: 6.00 Build 0)  -->
<svg version="1.1" id="圖層_1" xmlns="http://www.w3.org/2000/svg" xmlns:xlink="http://www.w3.org/1999/xlink" x="0px" y="0px"
	 viewBox="0 0 42.7 42.7" style="enable-background:new 0 0 42.7 42.7;" xml:space="preserve">
<style type="text/css">
	.st0{clip-path:url(#SVGID_2_);}
	.st1{fill:#44AF35;}
	.st2{fill:#231815;}
</style>
<g>
	<defs>
		<rect id="SVGID_1_" width="42.7" height="42.7"/>
	</defs>
	<clipPath id="SVGID_2_">
		<use xlink:href="#SVGID_1_"  style="overflow:visible;"/>
	</clipPath>
	<g id="Group_804" class="st0">
		<path id="Path_994" class="st1" d="M42.7,21.3c0,11.8-9.6,21.3-21.3,21.3S0,33.1,0,21.3S9.6,0,21.3,0c0,0,0,0,0,0
			C33.1,0,42.7,9.6,42.7,21.3"/>
		<path id="Path_995" class="st2" d="M34.2,35.3c-3.2,2.2-7.5-0.7-7.5-0.7l-0.6,0.7l-1.7-1.9l0.7-0.6c-0.3-0.4-0.6-0.7-0.8-1.2
			l-0.8,0.6L22.3,30l0.9-0.4c-2.7-4.5-4.8-5.6-5.6-5.9l-0.3,1.1l-2.5-0.8l0.5-1.1c-0.6-0.2-1.1-0.5-1.6-0.9l-0.7,1l-2-1.6l0.9-1
			c-0.5-0.4-0.9-0.8-1.2-1.2L9.8,20l-1.6-2l1-0.6c-0.3-0.5-0.6-0.9-0.9-1.4l-0.8,0.4c0,0-2.4-4.2,0.6-7.5c1.9-2,4.7-2.7,7.3-1.9
			l-0.2,0.7C16,7.8,16.8,8,17.5,8.2l0.4-1.2l2.4,1l-0.6,1c0.7,0.3,1.3,0.7,1.9,1.1l0.7-1l2,1.6l-0.8,0.8c0.7,0.6,1.3,1.3,1.9,2.1
			l0.9-0.7l1.4,2.2l-1,0.5c0,0.1,0.9,3.1,4.9,7.3l0.7-0.7l1.8,1.9l-0.8,0.6c0.1,0.1,0.7,0.8,1,1.2l0.8-0.6l1.1,2.2l-0.7,0.5
			C35.3,28.1,37.5,33.1,34.2,35.3 M15.9,21.5l2,0.6l0.8-3.1l-1.4-0.5L15.9,21.5z M16,13.1l1.3,0.5l1.6-3L17,9.7L16,13.1z M24.1,14.6
			l-2.7,1.8l0.8,1.2l3-1.3L24.1,14.6z M20.7,11.7L19,14.5l1.1,0.8l2.2-2.4L20.7,11.7z M11.2,13.8l1.4,0.1l0.2-1.8l1.9,0.2l0.1-1.4
			l-1.9-0.2L13,8.9l-1.4-0.1l-0.2,1.8l-1.9-0.2l-0.1,1.4l1.9,0.2L11.2,13.8z M13.1,15l-3,1.7l1.4,1.7l2.5-2.2L13.1,15z M14.9,17.2
			l-2.2,2.2l1.6,1.3l1.7-2.7L14.9,17.2z M27,28l-2.6,1l1,1.8l2.4-1.6L27,28z M26.2,32.1l1.4,1.5l1.9-2.2l-1-1L26.2,32.1z M30.7,28.9
			l0.6,1l2.7-1.2l-1-1.8L30.7,28.9z M30.6,24.2l-1.9,2.3l1.1,1.1l2.2-1.9L30.6,24.2z M32.7,31l-0.9-0.1l-0.1,1.2L30.4,32l-0.1,0.9
			l1.3,0.1l-0.1,1.2l0.9,0.1l0.1-1.2l1.3,0.1l0.1-0.9l-1.3-0.1L32.7,31z"/>
	</g>
</g>
</svg>
