<svg xmlns="http://www.w3.org/2000/svg" xmlns:xlink="http://www.w3.org/1999/xlink" width="42.686" height="42.686" viewBox="0 0 42.686 42.686">
  <defs>
    <clipPath id="clip-path">
      <rect id="Rectangle_223" data-name="Rectangle 223" width="42.686" height="42.686" fill="none"/>
    </clipPath>
  </defs>
  <g id="Group_920" data-name="Group 920" transform="translate(0 0)">
    <g id="Group_919" data-name="Group 919" transform="translate(0 0)" clip-path="url(#clip-path)">
      <path id="Path_1225" data-name="Path 1225" d="M42.686,21.343A21.343,21.343,0,1,1,21.343,0,21.344,21.344,0,0,1,42.686,21.343" transform="translate(0 0)" fill="#3061ac"/>
      <path id="Path_1226" data-name="Path 1226" d="M32.112,15.058l-.446.163-.01.009a50.968,50.968,0,0,1-.187,8.02c-.078.458-.137.942-.185,1.443l.419.02a.6.6,0,0,1,.566.622l-.111,2.372a.6.6,0,0,1-.62.566l-.475-.026h0a24.421,24.421,0,0,1-.834,5.973c.245.293.475.557.511.585l.36.309a.6.6,0,0,1,.06.839l-1.55,1.8a.6.6,0,0,1-.838.062l-.356-.311a2.323,2.323,0,0,1-.19-.248,5.485,5.485,0,0,1-3.349.965,5.5,5.5,0,0,1-3.311-.938,2.6,2.6,0,0,1-.165.22l-.361.311a.6.6,0,0,1-.837-.062l-1.55-1.8a.6.6,0,0,1,.06-.839l.36-.309c.034-.028.246-.272.47-.538a24.081,24.081,0,0,1-.854-6.019l-.45.026a.6.6,0,0,1-.621-.566l-.111-2.372a.6.6,0,0,1,.566-.622l.392-.016c-.045-.505-.1-.989-.183-1.447a51.153,51.153,0,0,1-.188-8.02l-.009-.009-.447-.163a.594.594,0,0,1-.348-.763l.835-2.224a.588.588,0,0,1,.763-.348l.225.083A6.822,6.822,0,0,1,23.1,8.559v-.4a.6.6,0,0,1,.592-.594h2.375a.6.6,0,0,1,.592.594v.4a6.83,6.83,0,0,1,3.985,3.247l.221-.083a.59.59,0,0,1,.766.348L32.46,14.3a.592.592,0,0,1-.348.763M25.789,31.519H23.968L22.484,35.89c-.015.038-.029.072-.046.107.049.038.1.082.149.118a3.78,3.78,0,0,0,2.29.623,3.78,3.78,0,0,0,2.29-.623c.052-.036.1-.08.151-.121a.735.735,0,0,1-.045-.1Zm-5.029.872,1.385-4.078v-.1h-1.8a33.21,33.21,0,0,0,.416,4.178m8.068-20.455a5.285,5.285,0,0,0-1.307-1.293,4.878,4.878,0,0,0-2.645-.88,4.882,4.882,0,0,0-2.646.88,5.265,5.265,0,0,0-1.306,1.293,5.81,5.81,0,0,0-.332.532h8.568a5.8,5.8,0,0,0-.331-.532M19.66,18.429c.037,1.821.192,3.708.266,4.655.087.519.151,1.052.2,1.6h2.018v-8.7H19.7c-.039.643-.057,1.435-.036,2.437m7.946-2.437v8.7h1.908c.038,0,.076.007.11.01.049-.555.113-1.1.2-1.615.076-.946.229-2.834.268-4.655.019-1,0-1.794-.037-2.437Zm0,12.312,1.385,4.078a33.171,33.171,0,0,0,.419-4.17h-1.8Z" transform="translate(-3.532 -1.549)" fill="#231815"/>
    </g>
  </g>
</svg>
