<?xml version="1.0" encoding="utf-8"?>
<!-- Generator: Adobe Illustrator 25.2.0, SVG Export Plug-In . SVG Version: 6.00 Build 0)  -->
<svg version="1.1" id="圖層_1" xmlns="http://www.w3.org/2000/svg" xmlns:xlink="http://www.w3.org/1999/xlink" x="0px" y="0px"
	 viewBox="0 0 42.7 42.7" style="enable-background:new 0 0 42.7 42.7;" xml:space="preserve">
<style type="text/css">
	.st0{clip-path:url(#SVGID_2_);}
	.st1{fill:#E50012;}
	.st2{fill:#231815;}
</style>
<g id="Group_892" transform="translate(0 0)">
	<g>
		<defs>
			<rect id="SVGID_1_" width="42.7" height="42.7"/>
		</defs>
		<clipPath id="SVGID_2_">
			<use xlink:href="#SVGID_1_"  style="overflow:visible;"/>
		</clipPath>
		<g id="Group_891" transform="translate(0 0)" class="st0">
			<path id="Path_1168" class="st1" d="M42.7,21.3c0,11.8-9.6,21.3-21.3,21.3S0,33.1,0,21.3S9.6,0,21.3,0c0,0,0,0,0,0
				C33.1,0,42.7,9.6,42.7,21.3"/>
			<path id="Path_1169" class="st2" d="M36.1,18.7c0,0.4-1.4,2.9-1.8,2.9h-2.6L36,34.5c0,0.1,0.1,0.2,0.1,0.3c0,0.1,0,0.1,0,0.2
				c0,0.6-0.5,1.1-1.1,1.1c-0.4,0-0.8-0.3-1-0.7h0l-4.4-13.2l-4.3,12.9c0,0.1,0,0.2-0.1,0.3c-0.3,0.6-0.9,0.8-1.5,0.5
				c-0.4-0.2-0.6-0.6-0.6-1c0-0.1,0-0.1,0-0.2h0l4.4-13.2H15.2l4.3,12.9c0,0.1,0.1,0.2,0.1,0.3c0,0.1,0,0.1,0,0.2
				c0,0.6-0.5,1.1-1.1,1.1c-0.4,0-0.8-0.3-1-0.7h0l-4.4-13.2L8.8,35.2c-0.1,0.6-0.7,1-1.3,0.9C7,36,6.6,35.5,6.6,35
				c0-0.1,0-0.1,0-0.2h0L11,21.6H8.4c-0.3,0-1.8-2.5-1.8-2.9v-4.8c0-0.4,3.2-1.9,3.5-1.9h2.4c0-0.4,0-0.7,0-0.8
				c0-2.5,1.2-4.6,3.8-4.6s3.8,2,3.8,4.6c0,0.1,0,0.4,0,0.8h2.7c0-0.4,0-0.7,0-0.8c0-2.5,1.2-4.6,3.8-4.6s3.8,2,3.8,4.6V12h2.4
				c0.3,0,3.5,1.5,3.5,1.9L36.1,18.7z M20,15.1h7.9c0-0.5,0-1.2,0-1.9H20C20,13.8,20,14.5,20,15.1 M16.3,8.8c-1.3,0-1.5,1-1.5,2.3
				c0,0.1,0,0.5,0,0.8h3c0-0.5,0-0.8,0-0.8C17.8,9.9,17.5,8.8,16.3,8.8 M8.1,14.5L8.1,14.5C8.1,14.5,8.1,14.5,8.1,14.5
				C8.1,14.5,8.1,14.5,8.1,14.5L8.1,14.5c0,0.4,0.3,0.6,0.6,0.6h9.1c0-0.5,0-1.2,0-1.9h-7.6C9.8,13.2,8.2,14,8.1,14.5 M34.6,14.5
				c-0.1-0.5-1.7-1.3-2.1-1.3h-2.4c0,0.7,0,1.4,0,1.9H34C34.3,15.1,34.6,14.8,34.6,14.5L34.6,14.5C34.6,14.5,34.6,14.5,34.6,14.5
				C34.6,14.5,34.6,14.5,34.6,14.5L34.6,14.5z M26.4,8.8c-1.3,0-1.5,1-1.5,2.3c0,0.1,0,0.5,0,0.8h3c0-0.5,0-0.8,0-0.8
				C27.9,9.9,27.7,8.8,26.4,8.8"/>
		</g>
	</g>
</g>
</svg>
