<?xml version="1.0" encoding="utf-8"?>
<!-- Generator: Adobe Illustrator 25.2.0, SVG Export Plug-In . SVG Version: 6.00 Build 0)  -->
<svg version="1.1" id="圖層_1" xmlns="http://www.w3.org/2000/svg" xmlns:xlink="http://www.w3.org/1999/xlink" x="0px" y="0px"
	 viewBox="0 0 42.7 42.7" style="enable-background:new 0 0 42.7 42.7;" xml:space="preserve">
<style type="text/css">
	.st0{clip-path:url(#SVGID_2_);}
	.st1{fill:#3061AC;}
	.st2{fill:#231815;}
</style>
<g id="Group_910" transform="translate(0 0)">
	<g>
		<defs>
			<rect id="SVGID_1_" width="42.7" height="42.7"/>
		</defs>
		<clipPath id="SVGID_2_">
			<use xlink:href="#SVGID_1_"  style="overflow:visible;"/>
		</clipPath>
		<g id="Group_909" transform="translate(0 0)" class="st0">
			<path id="Path_1211" class="st1" d="M42.7,21.3c0,11.8-9.6,21.3-21.3,21.3S0,33.1,0,21.3S9.6,0,21.3,0c0,0,0,0,0,0
				C33.1,0,42.7,9.6,42.7,21.3"/>
			<path id="Path_1212" class="st2" d="M31.6,17.6c-5.7,3.9-11.3,9.4-13.3,12.9c-1.6,1.9-5,7.1-9.2,2.9c-4-4,0.9-7.7,2.9-9.3
				c3.6-1.9,9.2-7.4,13-13.1c1.1-1.7,4.5-5.6,8.4-1.8C37.3,13.2,33.5,16.3,31.6,17.6 M24.8,20.5h-7c-0.4,0-0.6,0.4-0.6,0.7
				c0,0.4,0.2,0.7,0.6,0.8h7c0,0,0.6,0,0.6-0.7S24.8,20.5,24.8,20.5 M21.7,23.4H15c-0.3,0-0.6,0.3-0.6,0.7c0,0.4,0.2,0.7,0.6,0.7
				h6.7c0,0,0.5,0,0.5-0.7C22.3,23.8,22.1,23.5,21.7,23.4 M28.3,17.7h-7.5c-0.4,0-0.6,0.3-0.6,0.7c0,0.4,0.3,0.7,0.6,0.7h7.5
				c0.3,0,0.6-0.3,0.6-0.7c0,0,0,0,0,0C28.9,18.1,28.6,17.7,28.3,17.7"/>
		</g>
	</g>
</g>
</svg>
