<?xml version="1.0" encoding="utf-8"?>
<!-- Generator: Adobe Illustrator 25.2.0, SVG Export Plug-In . SVG Version: 6.00 Build 0)  -->
<svg version="1.1" id="圖層_1" xmlns="http://www.w3.org/2000/svg" xmlns:xlink="http://www.w3.org/1999/xlink" x="0px" y="0px"
	 viewBox="0 0 42.7 42.7" style="enable-background:new 0 0 42.7 42.7;" xml:space="preserve">
<style type="text/css">
	.st0{clip-path:url(#SVGID_2_);}
	.st1{fill:#F4DC2E;}
	.st2{fill:#231815;}
</style>
<g>
	<defs>
		<rect id="SVGID_1_" width="42.7" height="42.7"/>
	</defs>
	<clipPath id="SVGID_2_">
		<use xlink:href="#SVGID_1_"  style="overflow:visible;"/>
	</clipPath>
	<g id="Group_849" class="st0">
		<path id="Path_1101" class="st1" d="M42.7,21.3c0,11.8-9.6,21.3-21.3,21.3S0,33.1,0,21.3C0,9.6,9.6,0,21.3,0
			C33.1,0,42.7,9.6,42.7,21.3"/>
		<path id="Path_1102" class="st2" d="M21.3,36.1c-8.1,0-14.7-6.6-14.7-14.7S13.2,6.6,21.3,6.6c8.1,0,14.7,6.6,14.7,14.7
			C36.1,29.5,29.5,36.1,21.3,36.1C21.3,36.1,21.3,36.1,21.3,36.1 M30.4,15.5c0.3-0.9,0.8-1.6,1.4-2.3l-1-1.1c-0.9,0.5-1.6,1.3-2,2.2
			c-0.4-0.3-0.8-0.6-1.3-0.8c0-1.3,0-2.5-0.1-3.8l-1.6-0.8c0,1.2,0,2.4-0.1,3.6c-0.4-0.2-0.9-0.4-1.4-0.5c-0.8-1.6-1.9-2.9-3.4-3.8
			l-1.6,0.2c1.1,0.7,2,1.8,2.6,3c-3.8-0.5-7.6,0.1-11,1.8l-1.4,2.1c4-1.7,8.3-2.2,12.6-1.5c-0.7,2.9-5.8,5.8-9.3,7.5
			c-3.7,1.8-3.9,4.5-3.9,4.5l1.3,2.7c0.4-2.5,2-4.7,4.3-5.8c3.4-1.5,8.6-5.5,9.9-8.4c0.4,0.1,0.8,0.3,1.1,0.4
			c-0.7,5.5-2.7,13.7-8.5,19l2,0.6c6.1-4.9,7.9-13,8.4-18.6c0.3,0.2,0.6,0.3,0.8,0.5c-0.2,2.6,1,6.8,0.9,9.9
			c-0.2,2.3-0.6,4.5-1.2,6.7l1.6-1c0.8-1.9,1.3-4,1.5-6c0-2.5-0.3-5-0.9-7.5c0-0.2-0.1-0.4-0.1-0.7c1.8,1.5,3.3,3.3,4.5,5.3l0.1-2.4
			C33.5,18.7,32.1,16.9,30.4,15.5"/>
	</g>
</g>
</svg>
