<svg xmlns="http://www.w3.org/2000/svg" xmlns:xlink="http://www.w3.org/1999/xlink" width="42.686" height="42.686" viewBox="0 0 42.686 42.686">
  <defs>
    <clipPath id="clip-path">
      <rect id="Rectangle_226" data-name="Rectangle 226" width="42.686" height="42.686" fill="none"/>
    </clipPath>
  </defs>
  <g id="Group_926" data-name="Group 926" transform="translate(0 0)">
    <g id="Group_925" data-name="Group 925" transform="translate(0 0)" clip-path="url(#clip-path)">
      <path id="Path_1232" data-name="Path 1232" d="M42.686,21.343A21.343,21.343,0,1,1,21.343,0,21.344,21.344,0,0,1,42.686,21.343" transform="translate(0 0)" fill="#d8ac55"/>
      <path id="Path_1233" data-name="Path 1233" d="M29.252,26.662c-.293.972,4.1,10.786,3.079,11.45S23.792,31.5,22.914,31.5,14.23,38.675,13.5,38.113s3.469-10.684,3.081-11.45-9.241-6.133-8.9-7.366,10.59.206,11.323-.46S21.99,7.671,22.914,7.671s3.333,10.705,3.918,11.166,11.028-.766,11.319.46-8.606,6.394-8.9,7.366" transform="translate(-1.57 -1.571)" fill="#231815"/>
    </g>
  </g>
</svg>
