<?xml version="1.0" encoding="utf-8"?>
<!-- Generator: Adobe Illustrator 25.2.0, SVG Export Plug-In . SVG Version: 6.00 Build 0)  -->
<svg version="1.1" id="圖層_1" xmlns="http://www.w3.org/2000/svg" xmlns:xlink="http://www.w3.org/1999/xlink" x="0px" y="0px"
	 viewBox="0 0 42.7 42.7" style="enable-background:new 0 0 42.7 42.7;" xml:space="preserve">
<style type="text/css">
	.st0{clip-path:url(#SVGID_2_);}
	.st1{fill:#F4DC2E;}
	.st2{fill:#231815;}
</style>
<g id="Group_858" transform="translate(0 0)">
	<g>
		<defs>
			<rect id="SVGID_1_" width="42.7" height="42.7"/>
		</defs>
		<clipPath id="SVGID_2_">
			<use xlink:href="#SVGID_1_"  style="overflow:visible;"/>
		</clipPath>
		<g id="Group_857" transform="translate(0 0)" class="st0">
			<path id="Path_1109" class="st1" d="M42.7,21.3c0,11.8-9.6,21.3-21.3,21.3S0,33.1,0,21.3S9.6,0,21.3,0c0,0,0,0,0,0
				C33.1,0,42.7,9.6,42.7,21.3"/>
			<path id="Path_1110" class="st2" d="M27.2,29.8c-10,6.9-20.6,1.5-20.6,1.5s-1-11.5,9-18.4S36,11.3,36,11.3S37.2,22.9,27.2,29.8
				 M8.6,25l4.3,6.5l4.1,0.2l-6.7-9.9L8.6,25z M24,17.4l-2.3,1.8l-1.8-2.3l-2.3,1.8l1.8,2.3L17,22.7l1.8,2.3l2.3-1.8l1.8,2.3
				l2.3-1.8l-1.8-2.3l2.3-1.8L24,17.4z M25.7,11l6.7,9.9l1.7-3.2l-4.3-6.5L25.7,11z"/>
		</g>
	</g>
</g>
</svg>
