<?xml version="1.0" encoding="utf-8"?>
<!-- Generator: Adobe Illustrator 25.2.0, SVG Export Plug-In . SVG Version: 6.00 Build 0)  -->
<svg version="1.1" id="圖層_1" xmlns="http://www.w3.org/2000/svg" xmlns:xlink="http://www.w3.org/1999/xlink" x="0px" y="0px"
	 viewBox="0 0 42.7 42.7" style="enable-background:new 0 0 42.7 42.7;" xml:space="preserve">
<style type="text/css">
	.st0{clip-path:url(#SVGID_2_);}
	.st1{fill:#E50012;}
	.st2{fill:#231815;}
</style>
<g id="Group_886" transform="translate(0 0)">
	<g>
		<defs>
			<rect id="SVGID_1_" width="42.7" height="42.7"/>
		</defs>
		<clipPath id="SVGID_2_">
			<use xlink:href="#SVGID_1_"  style="overflow:visible;"/>
		</clipPath>
		<g id="Group_885" transform="translate(0 0)" class="st0">
			<path id="Path_1157" class="st1" d="M42.7,21.3c0,11.8-9.6,21.3-21.3,21.3S0,33.1,0,21.3S9.6,0,21.3,0c0,0,0,0,0,0
				C33.1,0,42.7,9.6,42.7,21.3"/>
			<path id="Path_1158" class="st2" d="M29.8,30.7c-6.3,0-6.2-6.9-6.2-6.9l-6.8-3c-1.8,2.5-5.3,3.1-7.9,1.3s-3.1-5.3-1.3-7.9
				s5.3-3.1,7.9-1.3c1.8,1.3,2.6,3.5,2.2,5.6l6.6,2.9c1.7-3,5.5-4.1,8.5-2.4c3,1.7,4.1,5.5,2.4,8.5C34.2,29.5,32.1,30.8,29.8,30.7
				 M12.2,14c-2.2,0-4,1.8-4,4c1.2-2.2,3.9-3.1,6.1-2c0.8,0.4,1.5,1.1,2,2C16.2,15.8,14.4,14,12.2,14 M29.8,20.2
				c-2.4,0-4.3,1.9-4.3,4.3c1.2-2.4,4.1-3.3,6.5-2.1c0.9,0.5,1.6,1.2,2.1,2.1C34.1,22.1,32.2,20.2,29.8,20.2"/>
		</g>
	</g>
</g>
</svg>
