<?xml version="1.0" encoding="utf-8"?>
<!-- Generator: Adobe Illustrator 25.2.0, SVG Export Plug-In . SVG Version: 6.00 Build 0)  -->
<svg version="1.1" id="圖層_1" xmlns="http://www.w3.org/2000/svg" xmlns:xlink="http://www.w3.org/1999/xlink" x="0px" y="0px"
	 viewBox="0 0 42.7 42.7" style="enable-background:new 0 0 42.7 42.7;" xml:space="preserve">
<style type="text/css">
	.st0{clip-path:url(#SVGID_2_);}
	.st1{fill:#209BAD;}
	.st2{fill:#231815;}
</style>
<g>
	<defs>
		<rect id="SVGID_1_" width="42.7" height="42.7"/>
	</defs>
	<clipPath id="SVGID_2_">
		<use xlink:href="#SVGID_1_"  style="overflow:visible;"/>
	</clipPath>
	<g id="Group_820" class="st0">
		<path id="Path_1026" class="st1" d="M42.7,21.3c0,11.8-9.6,21.3-21.3,21.3S0,33.1,0,21.3S9.6,0,21.3,0c0,0,0,0,0,0
			C33.1,0,42.7,9.6,42.7,21.3C42.7,21.3,42.7,21.3,42.7,21.3"/>
		<path id="Path_1027" class="st2" d="M34.7,36c-1,0.4-2,0.7-3.1,0.7c-1,0-2.2-1.6-3.5-1.6c-1.1,0-2.4,1.6-3.6,1.6
			c-1.2,0-2.4-1.6-3.6-1.6s-2.4,1.6-3.6,1.6c-1.2,0-2.4-1.6-3.5-1.6c-1.3,0-2.5,1.6-3.6,1.6c-1.1,0-2.1-0.3-3.1-0.7
			c-0.7-0.3-0.7-1.6,0.2-1.6c0.9,0.3,1.9,0.4,2.9,0.4c1,0,2.3-1.6,3.6-1.6c1.1,0,2.3,1.6,3.5,1.6c1.2,0,2.4-1.6,3.5-1.6
			c1.2,0,2.5,1.6,3.7,1.6c1.2,0,2.4-1.6,3.5-1.6c1.3,0,2.5,1.6,3.6,1.6c0.9,0,1.8-0.1,2.7-0.4C35.5,34.4,35.5,35.9,34.7,36"/>
		<path id="Path_1028" class="st2" d="M15.8,17.2l0.8-0.1c0.2,0,0.4,0.1,0.4,0.3c0,0,0,0,0,0l1.9,12.1c0,0.2-0.1,0.4-0.3,0.4
			l-0.8,0.1c-0.2,0-0.4-0.1-0.4-0.3c0,0,0,0,0,0l-1.9-12.1C15.5,17.4,15.7,17.2,15.8,17.2C15.8,17.2,15.8,17.2,15.8,17.2"/>
		<path id="Path_1029" class="st2" d="M20.5,29.9l8.3-8.9c0.1-0.1,0.3-0.1,0.5,0l0.6,0.5c0.1,0.1,0.1,0.3,0,0.5l-8.3,8.9
			c-0.1,0.1-0.3,0.1-0.5,0l-0.6-0.5C20.4,30.3,20.4,30.1,20.5,29.9"/>
		<path id="Path_1030" class="st2" d="M35.6,22.4l-3.7,0.8c1.4-5.1-1.5-10.4-6.6-11.9c-5.1-1.4-10.4,1.5-11.9,6.6l-2.8-2.6
			c2-6.9,9.2-10.9,16.1-9S37.5,15.5,35.6,22.4"/>
	</g>
</g>
</svg>
