<?xml version="1.0" encoding="utf-8"?>
<!-- Generator: Adobe Illustrator 25.2.0, SVG Export Plug-In . SVG Version: 6.00 Build 0)  -->
<svg version="1.1" id="圖層_1" xmlns="http://www.w3.org/2000/svg" xmlns:xlink="http://www.w3.org/1999/xlink" x="0px" y="0px"
	 viewBox="0 0 42.7 42.7" style="enable-background:new 0 0 42.7 42.7;" xml:space="preserve">
<style type="text/css">
	.st0{clip-path:url(#SVGID_2_);}
	.st1{fill:#F4DC2E;}
	.st2{fill:#231815;}
</style>
<g id="Group_876" transform="translate(0 0)">
	<g>
		<defs>
			<rect id="SVGID_1_" width="42.7" height="42.7"/>
		</defs>
		<clipPath id="SVGID_2_">
			<use xlink:href="#SVGID_1_"  style="overflow:visible;"/>
		</clipPath>
		<g id="Group_875" transform="translate(0 0)" class="st0">
			<path id="Path_1131" class="st1" d="M42.7,21.3c0,11.8-9.6,21.3-21.3,21.3S0,33.1,0,21.3S9.6,0,21.3,0c0,0,0,0,0,0
				C33.1,0,42.7,9.6,42.7,21.3"/>
			<path id="Path_1132" class="st2" d="M21.4,24.3c-5,0-9.1-2-9.1-4.4s4.1-4.4,9.1-4.4s9.1,2,9.1,4.4S26.5,24.3,21.4,24.3"/>
			<path id="Path_1133" class="st2" d="M21.3,14.3c-6.9,0-12.5,2.7-12.5,6s5.6,6,12.5,6s12.5-2.7,12.5-6S28.3,14.3,21.3,14.3
				 M21.3,29.1c-8.1,0-14.7-3.5-14.7-7.7s6.6-7.7,14.7-7.7s14.7,3.5,14.7,7.7S29.5,29.1,21.3,29.1"/>
		</g>
	</g>
</g>
</svg>
