<?xml version="1.0" encoding="utf-8"?>
<!-- Generator: Adobe Illustrator 25.2.0, SVG Export Plug-In . SVG Version: 6.00 Build 0)  -->
<svg version="1.1" id="圖層_1" xmlns="http://www.w3.org/2000/svg" xmlns:xlink="http://www.w3.org/1999/xlink" x="0px" y="0px"
	 viewBox="0 0 42.7 42.7" style="enable-background:new 0 0 42.7 42.7;" xml:space="preserve">
<style type="text/css">
	.st0{clip-path:url(#SVGID_2_);}
	.st1{fill:#44AF35;}
	.st2{fill:#231815;}
</style>
<g>
	<defs>
		<rect id="SVGID_1_" width="42.7" height="42.7"/>
	</defs>
	<clipPath id="SVGID_2_">
		<use xlink:href="#SVGID_1_"  style="overflow:visible;"/>
	</clipPath>
	<g id="Group_810" class="st0">
		<path id="Path_1006" class="st1" d="M42.7,21.3c0,11.8-9.6,21.3-21.3,21.3S0,33.1,0,21.3S9.6,0,21.3,0c0,0,0,0,0,0
			C33.1,0,42.7,9.6,42.7,21.3C42.7,21.3,42.7,21.3,42.7,21.3"/>
		<path id="Path_1007" class="st2" d="M27.2,15.6c0.3,0.3,2.8,3.2,2.3,2.7c0.6,0.5,0.2,0.8,0.2,0.8c0,0,0.9,1.3,1,1.4
			c0.3,0.5,0,0.7-0.1,0.7s0.4,0.4,0.2,0.5c-0.2,0.2-1,0.8-0.9,1.2c0,0.2,1.4,1.4,1.4,1.8s-0.9,1.4-1.4,1c-0.7-0.8-1.3-1.6-1.8-2.5
			c-0.4,0.3-0.8-0.2-0.8-0.2s-0.8-0.9-1.1-1.2c-0.2-0.2-0.3,0.2-0.7-0.4s-2.1-2.6-2.1-3s0.3-0.3,0.5-0.7c0.1-0.3-1.5-2-2.1-3
			c0,0,1.1-1.5,2,0.7c1.3,3.1,2.5,1,2.6,0.9C26.4,16.1,26.9,15.3,27.2,15.6"/>
		<path id="Path_1008" class="st2" d="M24.3,33.2c-7.6-6.7-7.5-5.7-13-10.2c-8.8-8.4,1-13.6,1-13.6c7.1-5,11.5,1.6,13.8,5.8
			c-2,2.8-1.7-6.4-5.2-1.6C20,13,18.5,9.4,14,11.9c-6.3,3.3-1.1,8.2-1.1,8.2s9.5,7.1,13.7,10.9c4.5,3.3,6.4-1.6,4.7-2.9
			c-0.6-0.7,0.3-1.3,0.9-1.7c1.5-1.2-0.9-2.3-0.9-3c0-0.4,0.4-0.4,0.4-0.4c0,0,2,2,2.3,2.6C37.6,30.6,31.1,38.7,24.3,33.2"/>
	</g>
</g>
</svg>
