<?xml version="1.0" encoding="utf-8"?>
<!-- Generator: Adobe Illustrator 25.2.0, SVG Export Plug-In . SVG Version: 6.00 Build 0)  -->
<svg version="1.1" id="圖層_1" xmlns="http://www.w3.org/2000/svg" xmlns:xlink="http://www.w3.org/1999/xlink" x="0px" y="0px"
	 viewBox="0 0 42.7 42.7" style="enable-background:new 0 0 42.7 42.7;" xml:space="preserve">
<style type="text/css">
	.st0{clip-path:url(#SVGID_2_);}
	.st1{fill:#209BAD;}
	.st2{fill:#231815;}
</style>
<g>
	<defs>
		<rect id="SVGID_1_" width="42.7" height="42.7"/>
	</defs>
	<clipPath id="SVGID_2_">
		<use xlink:href="#SVGID_1_"  style="overflow:visible;"/>
	</clipPath>
	<g id="Group_824" class="st0">
		<path id="Path_1035" class="st1" d="M42.7,21.3c0,11.8-9.6,21.3-21.3,21.3S0,33.1,0,21.3S9.6,0,21.3,0c0,0,0,0,0,0
			C33.1,0,42.7,9.6,42.7,21.3"/>
		<path id="Path_1036" class="st2" d="M34.5,33.4c-0.9,0.4-1.9,0.7-2.9,0.7c-1,0-2.1-1.5-3.4-1.5c-1.1,0-2.3,1.5-3.5,1.5
			c-1.1,0-2.3-1.5-3.4-1.5s-2.3,1.5-3.5,1.5c-1.2,0-2.3-1.5-3.4-1.5c-1.3,0-2.4,1.6-3.4,1.6c-1,0-2-0.3-2.9-0.7
			c-0.7-0.2-0.7-1.5,0.2-1.5c0.9,0.3,1.8,0.4,2.8,0.4c1,0,2.2-1.6,3.4-1.6c1.1,0,2.2,1.5,3.4,1.5c1.1,0,2.3-1.5,3.4-1.5
			c1.2,0,2.4,1.5,3.5,1.5c1.2,0,2.3-1.5,3.4-1.5c1.3,0,2.4,1.5,3.4,1.5c0.9,0,1.8-0.1,2.6-0.4C35.3,31.8,35.3,33.2,34.5,33.4"/>
		<path id="Path_1037" class="st2" d="M28.8,20.9c-0.1,0-0.1,0-0.2,0c-0.8,0.6-1.6,1-2.6,1.3c-0.5,0.4-1.1,0.7-1.7,1
			c-1.5,2-2.5,4-6.3,5.3c-3.2,1-5.7-0.7-6.6-0.9c-1.5-0.3-2.8-1.4-3.3-2.8c0,0,0,0.1,0,0.1c0,0.1,0,0.1,0.1,0.2
			c0-0.1-0.1-0.1-0.1-0.2c0-0.1,0-0.1,0-0.2C8,24.4,8,24,7.9,23.7C7.4,20,6.8,11.1,13.4,12.8c4.7,1.2,7.2-1.7,10.2-3.5
			c2.5-1.8,3.9,0.8,4.6,0.4c5.3-1.3,5.6,1,6.8,2.1c0,0,0,3.3,0,3.3c0,0,0-0.1,0-0.2C35.3,16.6,34.1,20.2,28.8,20.9 M27.9,11.4
			c-1.1,0.4-2.6-2.2-3.7-0.2c-2.7,4.5-3.1,4.8-8.8,3.9c-2.5-0.4-4.2-1-4.9,0.2c-2.4,4.1-1.3,5.1-1.3,5.1s0,0-0.1,0.1
			c0,0,0,0,0.1-0.1c1.1-0.5,2.4-0.7,3.6-0.5c1.2,0,6.1-2.3,7.7-2.6c1.2-0.2,3,1.7,4.1,2.5c0.6,0.2,1.2,0.3,1.8,0.3
			C26,19,25.9,18,26.3,17c0.3-1.8,2.5-3.3,3.7-4.2c0.9-0.5,1.8-0.9,2.7-1.2c0,0,0.1,0,0.2,0.1C31.9,11.1,30.3,10.8,27.9,11.4
			 M33,11.8c0.7,0.5,1.3,1.1,1.7,1.9C34.3,12.8,33.7,12.2,33,11.8 M8.5,21.1c-0.4,0.7-0.6,1.5-0.6,2.3C8,22.6,8.2,21.8,8.5,21.1
			 M34.8,14.1c0,0.1,0.1,0.1,0.1,0.2c-0.1-0.2-0.2-0.4-0.3-0.6C34.7,13.8,34.7,13.9,34.8,14.1 M35,14.8c0-0.2-0.1-0.3-0.1-0.5
			C34.9,14.4,35,14.6,35,14.8 M9.1,20.3c-0.2,0.2-0.4,0.5-0.5,0.7C8.7,20.8,8.9,20.6,9.1,20.3 M7.9,23.4c0,0.1,0,0.2,0,0.2
			c0,0,0,0,0,0.1C8,23.6,8,23.5,7.9,23.4 M8.1,24.8C8.2,24.8,8.2,24.8,8.1,24.8c0-0.2-0.1-0.6-0.2-1C8,24.1,8.1,24.4,8.1,24.8
			 M14.4,27.7C14.5,27.7,14.5,27.7,14.4,27.7C14.5,27.7,14.5,27.7,14.4,27.7 M18.2,22.1c-2,1.8-3.6,3.7-2.1,5s3.2,0.3,5.2-1.5
			s3-4,2.1-5S20.2,20.3,18.2,22.1 M30,15.5c-1.3,1.4-1.8,3.2-1,3.7c1.2,0.8,2.3-0.1,3.5-1.5c1.3-1.4,1.7-3.1,1-3.7
			S31.2,14.1,30,15.5 M21.6,18.8c-2-0.3-4.1,0.2-5.8,1.4c-3,2.3-3.6,4.8-2.4,6.7c0.3,0.3,0.6,0.6,1,0.8C12.1,24.3,16,19.8,21.6,18.8
			"/>
	</g>
</g>
</svg>
