<?xml version="1.0" encoding="utf-8"?>
<!-- Generator: Adobe Illustrator 25.2.0, SVG Export Plug-In . SVG Version: 6.00 Build 0)  -->
<svg version="1.1" id="圖層_1" xmlns="http://www.w3.org/2000/svg" xmlns:xlink="http://www.w3.org/1999/xlink" x="0px" y="0px"
	 viewBox="0 0 42.7 42.7" style="enable-background:new 0 0 42.7 42.7;" xml:space="preserve">
<style type="text/css">
	.st0{clip-path:url(#SVGID_2_);}
	.st1{fill:#E50012;}
	.st2{fill:#231815;}
</style>
<g id="Group_880" transform="translate(0 0)">
	<g>
		<defs>
			<rect id="SVGID_1_" width="42.7" height="42.7"/>
		</defs>
		<clipPath id="SVGID_2_">
			<use xlink:href="#SVGID_1_"  style="overflow:visible;"/>
		</clipPath>
		<g id="Group_879" transform="translate(0 0)" class="st0">
			<path id="Path_1137" class="st1" d="M42.7,21.3c0,11.8-9.6,21.3-21.3,21.3S0,33.1,0,21.3S9.6,0,21.3,0c0,0,0,0,0,0
				C33.1,0,42.7,9.6,42.7,21.3"/>
			<path id="Path_1138" class="st2" d="M6.6,21c0-9.8,9.2-14.7,14.8-14.4C22,6.7,22.5,6.8,23,7l0,0c3.5,1.2,5.5,5,4.3,8.5
				c-0.8,2.6-3.2,4.4-5.9,4.6l0,0c-4.9,0.1-8.9,4-9.1,8.9c0,2.1,0.6,4.2,1.9,6C11.4,33.8,6.6,29.9,6.6,21 M21.3,36.1
				c-0.5,0-1.1-0.2-1.6-0.4c0,0,0,0,0,0c-3.5-1.2-5.5-5-4.3-8.5c0.8-2.6,3.2-4.4,5.9-4.6l0,0c4.9-0.1,8.9-4,9.1-8.9
				c0-2.1-0.6-4.3-1.9-6c2.9,1.1,7.7,5.1,7.7,14C36.1,31.5,26.9,36.4,21.3,36.1 M21.9,26.7c-1.5,0-2.7,1.2-2.7,2.7
				c0,1.5,1.2,2.7,2.7,2.7c1.5,0,2.7-1.2,2.7-2.7c0,0,0,0,0,0C24.6,27.9,23.4,26.7,21.9,26.7 M20.7,16c1.5,0,2.7-1.2,2.7-2.7
				c0-1.5-1.2-2.7-2.7-2.7c-1.5,0-2.7,1.2-2.7,2.7C18.1,14.8,19.3,16,20.7,16C20.7,16,20.7,16,20.7,16"/>
		</g>
	</g>
</g>
</svg>
