<?xml version="1.0" encoding="utf-8"?>
<!-- Generator: Adobe Illustrator 25.2.0, SVG Export Plug-In . SVG Version: 6.00 Build 0)  -->
<svg version="1.1" id="圖層_1" xmlns="http://www.w3.org/2000/svg" xmlns:xlink="http://www.w3.org/1999/xlink" x="0px" y="0px"
	 viewBox="0 0 42.7 42.7" style="enable-background:new 0 0 42.7 42.7;" xml:space="preserve">
<style type="text/css">
	.st0{clip-path:url(#SVGID_2_);}
	.st1{fill:#F4DC2E;}
	.st2{fill:#231815;}
</style>
<g>
	<defs>
		<rect id="SVGID_1_" width="42.7" height="42.7"/>
	</defs>
	<clipPath id="SVGID_2_">
		<use xlink:href="#SVGID_1_"  style="overflow:visible;"/>
	</clipPath>
	<g id="Group_877" class="st0">
		<path id="Path_1134" class="st1" d="M42.7,21.3c0,11.8-9.6,21.3-21.3,21.3S0,33.1,0,21.3S9.6,0,21.3,0c0,0,0,0,0,0
			C33.1,0,42.7,9.6,42.7,21.3C42.7,21.3,42.7,21.3,42.7,21.3"/>
		<path id="Path_1135" class="st2" d="M21.4,21.3C21.3,21.4,21.3,21.5,21.4,21.3"/>
		<path id="Path_1136" class="st2" d="M34.7,12.4L31,15.8c-0.6,0.4-1,1.1-1.2,1.8l-0.5,5.7h2.4c0.3,0,0.5,0.2,0.5,0.5
			c0,0,2.8,8.5,2.8,8.6c0,0,0,0,0,0.1c0,0.1,0,0.2,0,0.3c0,1-0.8,2.3-1.8,2.3H9.4c-1,0-1.8-1.4-1.8-2.3c0-0.2,0-0.4,0.1-0.6
			c0,0,0,0,0-0.1l2.7-8.2c0-0.3,0.8-0.5,1.1-0.5h15.9l0.5-5.5c0.1-0.9,0.4-1.7,0.9-2.4c-0.8,0.6-1.8,0.9-2.8,0.8L21.9,16
			c-0.4,0-0.8-0.3-0.9-0.7c0-0.4,0.3-0.8,0.7-0.9c0.1,0,0.1,0,0.2,0v0l4.1,0.2c0.8,0.1,1.5-0.1,2.1-0.6l2-1.8L28.9,11l-0.6,0.6
			c-0.8,0.7-1.9,1-2.9,0.9l-3.1-0.2c-0.2,0-0.5-0.1-0.6-0.2c-0.3-0.3-0.3-0.8,0-1.1c0.2-0.2,0.4-0.2,0.7-0.2v0l3,0.2
			c0.8,0.1,1.5-0.1,2.1-0.6L29.9,8l0-0.1c0.1-0.1,0.1-0.1,0.2-0.1c0.1-0.1,0.3-0.1,0.4-0.1h0c0.2,0,0.4,0.1,0.6,0.2l3.6,3
			c0.1,0.1,0.2,0.2,0.2,0.4C35.2,11.7,35,12.1,34.7,12.4L34.7,12.4z M9.8,29.9h17.1l0.5-5.4h-16L9.8,29.9z M30.3,32.6
			c0,1,0.8,1.8,1.8,1.8c1,0,1.8-0.8,1.8-1.8c0-1-0.8-1.8-1.8-1.8C31.2,30.8,30.4,31.6,30.3,32.6L30.3,32.6 M10.4,30.8
			c-1,0-1.8,0.8-1.8,1.8c0,1,0.8,1.8,1.8,1.8c1,0,1.8-0.8,1.8-1.8C12.2,31.6,11.4,30.8,10.4,30.8C10.4,30.8,10.4,30.8,10.4,30.8
			 M28.8,29.9H33l-1.6-5.4h-2.2L28.8,29.9z"/>
	</g>
</g>
</svg>
