<?xml version="1.0" encoding="utf-8"?>
<!-- Generator: Adobe Illustrator 25.2.0, SVG Export Plug-In . SVG Version: 6.00 Build 0)  -->
<svg version="1.1" id="圖層_1" xmlns="http://www.w3.org/2000/svg" xmlns:xlink="http://www.w3.org/1999/xlink" x="0px" y="0px"
	 viewBox="0 0 42.7 42.7" style="enable-background:new 0 0 42.7 42.7;" xml:space="preserve">
<style type="text/css">
	.st0{clip-path:url(#SVGID_2_);}
	.st1{fill:#44AF35;}
	.st2{fill:#231815;}
</style>
<g>
	<defs>
		<rect id="SVGID_1_" width="42.7" height="42.7"/>
	</defs>
	<clipPath id="SVGID_2_">
		<use xlink:href="#SVGID_1_"  style="overflow:visible;"/>
	</clipPath>
	<g id="Group_812" class="st0">
		<path id="Path_1009" class="st1" d="M42.7,21.3c0,11.8-9.6,21.3-21.3,21.3S0,33.1,0,21.3S9.6,0,21.3,0c0,0,0,0,0,0
			C33.1,0,42.7,9.6,42.7,21.3"/>
		<path id="Path_1010" class="st2" d="M7.6,35.1V14.9c0,0,6.5-7.2,8.4-7.2s7.6,9.7,8.7,9.7s3.3-4.7,5-4.7c1.7,0,5.4,8.5,5.4,8.5
			l0,13.9L7.6,35.1z M27,25.1c0-0.1-0.3,0-0.3,0.3c0,0.5,1.6,1.3,0.5,1.9c-1,0.9-1.3,0.5-0.5,1.5c0.6,1.1-0.1,4.1-3.4,2.1
			c-3-2.7-9.8-7.8-9.8-7.8s-3.7-3.5,0.8-5.9c3.2-1.7,4.6,1.2,5.2,1.5c2.5-3.4,2,2.8,3.4,0.9c-1.6-3-4.8-7.7-9.8-4.1
			c0,0-7,3.8-0.7,9.8c3.9,3.2,3.9,2.5,9.3,7.3c3.1,3.2,9.9,0.6,7-5.5C28.1,26.3,27.6,25.7,27,25.1 M21.2,19.4
			c-0.6-1.5-1.5-0.2-1.5-0.2c0.4,0.7,1.6,1.9,1.5,2.1s-0.3,0.2-0.3,0.5s1.2,1.7,1.5,2.2s0.4,0.1,0.5,0.3c0.2,0.2,0.8,0.9,0.8,0.9
			s0.3,0.4,0.6,0.1c0.4,0.7,0.8,1.3,1.3,1.8c0.3,0.3,1-0.4,1-0.7s-1-1.2-1-1.3c-0.1-0.3,0.5-0.7,0.6-0.8c0.1-0.1-0.2-0.4-0.2-0.4
			s0.3-0.1,0-0.5c0,0-0.7-1-0.7-1s0.3-0.2-0.1-0.6c0.4,0.3-1.4-1.7-1.6-2s-0.5,0.3-0.6,0.4C23,20.3,22.2,21.7,21.2,19.4"/>
	</g>
</g>
</svg>
