<?xml version="1.0" encoding="utf-8"?>
<!-- Generator: Adobe Illustrator 25.2.0, SVG Export Plug-In . SVG Version: 6.00 Build 0)  -->
<svg version="1.1" id="圖層_1" xmlns="http://www.w3.org/2000/svg" xmlns:xlink="http://www.w3.org/1999/xlink" x="0px" y="0px"
	 viewBox="0 0 42.7 42.7" style="enable-background:new 0 0 42.7 42.7;" xml:space="preserve">
<style type="text/css">
	.st0{clip-path:url(#SVGID_2_);}
	.st1{fill:#209BAD;}
	.st2{fill:#231815;}
</style>
<g>
	<defs>
		<rect id="SVGID_1_" width="42.7" height="42.7"/>
	</defs>
	<clipPath id="SVGID_2_">
		<use xlink:href="#SVGID_1_"  style="overflow:visible;"/>
	</clipPath>
	<g id="Group_830" class="st0">
		<path id="Path_1046" class="st1" d="M42.7,21.3c0,11.8-9.6,21.3-21.3,21.3S0,33.1,0,21.3S9.6,0,21.3,0c0,0,0,0,0,0
			C33.1,0,42.7,9.6,42.7,21.3C42.7,21.3,42.7,21.3,42.7,21.3"/>
		<path id="Path_1047" class="st2" d="M11.2,21.1c-1.3-0.5-4.6-4.3-4.6-5c0-0.4,4.5,0,9.7,0.2l5.4,5.4
			C21.3,21.7,12.3,21.5,11.2,21.1"/>
		<path id="Path_1048" class="st2" d="M34.9,32.4c-2.8,2.8-4.3,0-7-2.7c-2.2-2.2-3.1-4.9-3-6.3L12.7,11.3l-0.1,0.1
			c-0.3,0.3-0.7,0.3-0.9,0c-0.3-0.3-0.3-0.7,0-0.9l0,0l1.2-1.2c0.3-0.2,0.7-0.2,0.9,0c0.2,0.2,0.2,0.6,0,0.9l-0.1,0.1l12.3,12.2
			c1.3-0.1,4,0.9,6.2,3C34.8,28.2,37.8,29.6,34.9,32.4"/>
		<path id="Path_1049" class="st2" d="M31.5,21.1c-1.7,0.4-3.4,0.5-5.1,0.5l-5.2-5.1c6.3-0.2,14.8-0.9,14.8-0.4
			C36.1,16.8,32.8,20.7,31.5,21.1"/>
	</g>
</g>
</svg>
