<?xml version="1.0" encoding="utf-8"?>
<!-- Generator: Adobe Illustrator 25.2.0, SVG Export Plug-In . SVG Version: 6.00 Build 0)  -->
<svg version="1.1" id="圖層_1" xmlns="http://www.w3.org/2000/svg" xmlns:xlink="http://www.w3.org/1999/xlink" x="0px" y="0px"
	 viewBox="0 0 42.7 42.7" style="enable-background:new 0 0 42.7 42.7;" xml:space="preserve">
<style type="text/css">
	.st0{clip-path:url(#SVGID_2_);}
	.st1{fill:#3061AC;}
	.st2{fill:#231815;}
</style>
<g id="Group_914" transform="translate(0 0)">
	<g>
		<defs>
			<rect id="SVGID_1_" width="42.7" height="42.7"/>
		</defs>
		<clipPath id="SVGID_2_">
			<use xlink:href="#SVGID_1_"  style="overflow:visible;"/>
		</clipPath>
		<g id="Group_913" transform="translate(0 0)" class="st0">
			<path id="Path_1215" class="st1" d="M42.7,21.3c0,11.8-9.6,21.3-21.3,21.3S0,33.1,0,21.3S9.6,0,21.3,0c0,0,0,0,0,0
				C33.1,0,42.7,9.6,42.7,21.3C42.7,21.3,42.7,21.3,42.7,21.3"/>
			<path id="Path_1216" class="st2" d="M33,35.6c-0.8,0.5-21.5,0.4-23.1-0.2c-1.7-1.5-1.6-4.8-1.6-4.8c0,0,0.7-1.3,0.7-1.3
				c-2.2-2.1-1-6.1-0.9-7.1c0.2-1.3,4.1-12.1,4.1-12.1C12.1,9,12.4,7.8,13.2,7c1.1-1,2.3,2,2.5,1.9c1.8-0.2,3.5,0.2,5,1.2
				c1.7-0.7,5.2-4.1,2,5.9c-0.8,2.6,0.4,2.9,0.8,3.3s4,4,6.3,4.3s4.4,2.7,4.3,4.3c-0.1,0.8-0.3,1-0.5,1.1c-0.2,0.1-0.4,0.2-0.5,0.3
				c0,0,1.5,0.9,1.5,0.9C36.2,34.1,33.8,35.2,33,35.6 M15.1,30.3l-0.6,2c5.8,0.7,13.8,0.5,17.8-0.8L30,30.2
				C25.6,31.2,19.6,30.8,15.1,30.3 M24,21.6L21.8,20l-5.7,5.7l3.3,0.5L24,21.6z"/>
		</g>
	</g>
</g>
</svg>
