<?xml version="1.0" encoding="utf-8"?>
<!-- Generator: Adobe Illustrator 25.2.0, SVG Export Plug-In . SVG Version: 6.00 Build 0)  -->
<svg version="1.1" id="圖層_1" xmlns="http://www.w3.org/2000/svg" xmlns:xlink="http://www.w3.org/1999/xlink" x="0px" y="0px"
	 viewBox="0 0 42.7 42.7" style="enable-background:new 0 0 42.7 42.7;" xml:space="preserve">
<style type="text/css">
	.st0{clip-path:url(#SVGID_2_);}
	.st1{fill:#44AF35;}
	.st2{fill-rule:evenodd;clip-rule:evenodd;fill:#231815;}
</style>
<g>
	<defs>
		<rect id="SVGID_1_" width="42.7" height="42.7"/>
	</defs>
	<clipPath id="SVGID_2_">
		<use xlink:href="#SVGID_1_"  style="overflow:visible;"/>
	</clipPath>
	<g id="Group_814" class="st0">
		<path id="Path_1011" class="st1" d="M42.7,21.3c0,11.8-9.6,21.3-21.3,21.3S0,33.1,0,21.3S9.6,0,21.3,0c0,0,0,0,0,0
			C33.1,0,42.7,9.6,42.7,21.3"/>
		<path id="Path_1012" class="st2" d="M21,23.9c-2.8-2.1-5.6-1.9-8.5-3.6c-1.9-1.4-3.4-3.3-4.3-5.5c-1.9-3.9,1.2-8.7,7.5-6.7
			c2.3,0.8,4.4,2.1,6.2,3.8c3.9,3.6,3.4,5.7,6,9l-5.9,4.3C21.8,24.7,21.4,24.3,21,23.9 M19.2,11.4c-3.7-2.8-7.7-3.1-9.5-1.3
			c-1.9,1.9,0.1,6.6,3.4,9c3.6,2.5,8.9,2,10,1C24.9,18.6,23,14.1,19.2,11.4"/>
		<path id="Path_1013" class="st2" d="M11.3,15c-0.9-1.6-1.2-3.3-0.5-4c1-0.9,2.9-0.8,4.8-0.2L11.3,15z"/>
		<path id="Path_1014" class="st2" d="M13.1,17.4c-0.4-0.4-0.8-0.8-1.1-1.2l5-4.8c0.4,0.2,1.4,0.8,1.5,0.9L13.1,17.4z"/>
		<path id="Path_1015" class="st2" d="M14.3,18.2l5.3-5c0.4,0.4,0.8,0.8,1.1,1.2l-4.8,4.5C15.3,18.7,14.8,18.5,14.3,18.2"/>
		<path id="Path_1016" class="st2" d="M21.9,19c-0.5,0.5-2.4,0.7-4.5,0.3l4-3.8C22.3,17,22.6,18.4,21.9,19"/>
		<path id="Path_1017" class="st2" d="M33.5,34c-1.6,1.4-4.4,1.4-5.7,0.1c-2.3-1.9-3.6-4.6-4.7-6.8l6.2-4.7c0.8,0.8,1.5,1.5,2.4,2.2
			C37.3,29.7,34.4,33.2,33.5,34 M27.2,25.9c-1.5,1.1-1.4,3.6,0,5.5c1.4,1.9,3.6,2.6,5.1,1.5c1.5-1.1,1.4-3.6,0-5.5
			C30.9,25.5,28.7,24.8,27.2,25.9"/>
		<path id="Path_1018" class="st2" d="M31.4,31.7c-1,0.7-2.4,0.3-3.3-1s-1-2.8,0-3.6s2.4-0.3,3.3,1S32.4,31,31.4,31.7"/>
		<path id="Path_1019" class="st2" d="M12.8,34.8l-1.9,0.3l-0.4-2.5l-2.6,0.4L7.6,31l2.6-0.4l-0.4-2.5l1.9-0.3l0.4,2.5l2.6-0.4
			l0.3,1.9l-2.6,0.4L12.8,34.8z"/>
		<path id="Path_1020" class="st2" d="M32.4,12l0.4,2.5l-1.9,0.3l-0.4-2.5l-2.6,0.4l-0.3-1.9l2.6-0.4l-0.4-2.5l1.9-0.3l0.4,2.5
			l2.7-0.4l0.3,1.9L32.4,12z"/>
	</g>
</g>
</svg>
