<?xml version="1.0" encoding="utf-8"?>
<!-- Generator: Adobe Illustrator 25.2.0, SVG Export Plug-In . SVG Version: 6.00 Build 0)  -->
<svg version="1.1" id="Group_844" xmlns="http://www.w3.org/2000/svg" xmlns:xlink="http://www.w3.org/1999/xlink" x="0px" y="0px"
	 viewBox="0 0 42.7 42.7" style="enable-background:new 0 0 42.7 42.7;" xml:space="preserve">
<style type="text/css">
	.st0{fill:#80167D;}
	.st1{fill:#231815;}
</style>
<path id="Path_1087" class="st0" d="M42.7,21.3c0,11.8-9.6,21.3-21.3,21.3S0,33.1,0,21.3C0,9.6,9.6,0,21.3,0
	C33.1,0,42.7,9.6,42.7,21.3"/>
<path id="Path_1088" class="st1" d="M30.2,26.9c-1.7,0-3-1.4-3-3s1.4-3,3-3s3,1.4,3,3c0,0,0,0,0,0C33.2,25.5,31.9,26.8,30.2,26.9"/>
<path id="Path_1089" class="st1" d="M34.4,17.5c-0.4,0.7-0.9,1.3-1.4,1.8c-0.2,0.2-0.4,0.3-0.5,0.5c-0.7-0.5-1.6-0.8-2.5-0.8
	c-2.5,0-4.5,2-4.5,4.5c0,0,0,0,0,0c0,0.1,0,0.2,0,0.3c-2.2,0.7-4.1,0.7-5.3,0.1c-3.7,3.5-7.1,7.2-10.4,11.1c0,0-2.3-2.3-2.3-2.3
	c3.9-3.2,7.6-6.7,11.1-10.4c-1.3-2.4,0-8.2,4.6-12.8c2.1-2.1,4-2.4,5.8-1.7c0.4,0.2,0.7,0.3,1.1,0.6c0.2,0.1,0.4,0.2,0.5,0.4
	c0.6,0.4,1.1,0.9,1.6,1.4C34.7,12.6,35.9,14.9,34.4,17.5"/>
</svg>
