<?xml version="1.0" encoding="utf-8"?>
<!-- Generator: Adobe Illustrator 25.2.0, SVG Export Plug-In . SVG Version: 6.00 Build 0)  -->
<svg version="1.1" id="Group_847" xmlns="http://www.w3.org/2000/svg" xmlns:xlink="http://www.w3.org/1999/xlink" x="0px" y="0px"
	 viewBox="0 0 42.7 42.7" style="enable-background:new 0 0 42.7 42.7;" xml:space="preserve">
<style type="text/css">
	.st0{fill:#80167D;}
	.st1{fill:#231815;}
</style>
<path id="Path_1096" class="st0" d="M42.7,21.3c0,11.8-9.6,21.3-21.3,21.3S0,33.1,0,21.3C0,9.6,9.6,0,21.3,0
	C33.1,0,42.7,9.6,42.7,21.3"/>
<path id="Path_1097" class="st1" d="M11.5,7.7c0.1,0,7.1,6.6,7.2,6.5c1.2-0.5,2.6,0.1,3,1.4c0.5,1.2-0.1,2.6-1.4,3
	c-1.2,0.5-2.6-0.1-3-1.4c0-0.1-9.6-0.7-9.6-0.8C7.1,14.2,10,8.3,11.5,7.7"/>
<path id="Path_1098" class="st1" d="M35,15.9c0,0.3,0,0.6-0.1,0.8c-0.3,2.1-1.3,4-2.8,5.4c-3.3,3.3-8.4,3.7-11.6,1.1l-7.4,7.4
	l0.2,0.2l-4.2,4.2l-0.2-0.2l-0.6-0.6l-0.8-0.8l4.2-4.2l0.2,0.2l7.4-7.4c-0.6-0.7-1-1.5-1.3-2.4c0.5,0.2,1,0.4,1.6,0.4
	c2.1,0,3.7-1.7,3.7-3.7s-1.7-3.7-3.7-3.7c-0.3,0-0.6,0-0.9,0.1c1.1-2,2.7-3.5,4.8-4.4c1.3-0.6,2.7-0.8,4.1-0.8c0.3,0,0.6,0,0.8,0.1
	c1.7,0.2,3.2,1,4.4,2.2C34.4,11.5,35.2,13.7,35,15.9"/>
</svg>
