<?xml version="1.0" encoding="utf-8"?>
<!-- Generator: Adobe Illustrator 25.2.0, SVG Export Plug-In . SVG Version: 6.00 Build 0)  -->
<svg version="1.1" id="圖層_1" xmlns="http://www.w3.org/2000/svg" xmlns:xlink="http://www.w3.org/1999/xlink" x="0px" y="0px"
	 viewBox="0 0 42.7 42.7" style="enable-background:new 0 0 42.7 42.7;" xml:space="preserve">
<style type="text/css">
	.st0{clip-path:url(#SVGID_2_);}
	.st1{fill:#209BAD;}
	.st2{fill:#231815;}
</style>
<g>
	<defs>
		<rect id="SVGID_1_" width="42.7" height="42.7"/>
	</defs>
	<clipPath id="SVGID_2_">
		<use xlink:href="#SVGID_1_"  style="overflow:visible;"/>
	</clipPath>
	<g id="Group_838" class="st0">
		<path id="Path_1063" class="st1" d="M42.7,21.3c0,11.8-9.6,21.3-21.3,21.3S0,33.1,0,21.3S9.6,0,21.3,0c0,0,0,0,0,0
			C33.1,0,42.7,9.6,42.7,21.3"/>
		<path id="Path_1064" class="st2" d="M21,16.8L17.7,20C13.5,20,6.6,19.7,6.6,18.4C6.6,16.6,20.4,16.8,21,16.8"/>
		<path id="Path_1065" class="st2" d="M14.7,29.8c-2.7,2.7-4.2,5.5-7,2.7c-2.8-2.8,0.1-4.2,2.8-6.9c2.2-2.2,4.8-3.2,6.2-3L29,10.3
			l-0.1-0.1c-0.3-0.3-0.3-0.7,0-0.9c0,0,0,0,0,0c0.3-0.3,0.7-0.3,0.9,0l1.2,1.2c0.2,0.3,0.2,0.7,0,0.9c-0.3,0.2-0.6,0.2-0.9,0
			L30,11.3L17.7,23.5C17.9,24.8,16.9,27.6,14.7,29.8"/>
		<path id="Path_1066" class="st2" d="M22.6,20.1l3.3-3.3c4.2,0.1,10.1,0.3,10.1,1.6C36.1,20.2,23.2,20.1,22.6,20.1"/>
	</g>
</g>
</svg>
