<?xml version="1.0" encoding="utf-8"?>
<!-- Generator: Adobe Illustrator 25.2.0, SVG Export Plug-In . SVG Version: 6.00 Build 0)  -->
<svg version="1.1" id="圖層_1" xmlns="http://www.w3.org/2000/svg" xmlns:xlink="http://www.w3.org/1999/xlink" x="0px" y="0px"
	 viewBox="0 0 42.7 42.7" style="enable-background:new 0 0 42.7 42.7;" xml:space="preserve">
<style type="text/css">
	.st0{clip-path:url(#SVGID_2_);}
	.st1{fill:#ED7700;}
	.st2{fill:#231815;}
</style>
<g>
	<defs>
		<rect id="SVGID_1_" width="42.7" height="42.7"/>
	</defs>
	<clipPath id="SVGID_2_">
		<use xlink:href="#SVGID_1_"  style="overflow:visible;"/>
	</clipPath>
	<g id="Group_798" class="st0">
		<path id="Path_979" class="st1" d="M42.7,21.3c0,11.8-9.6,21.3-21.3,21.3S0,33.1,0,21.3S9.6,0,21.3,0c0,0,0,0,0,0
			C33.1,0,42.7,9.6,42.7,21.3"/>
		<path id="Path_980" class="st2" d="M34.4,29.8c-1.5,0-2.9-0.9-3.5-2.2h-19c-0.9,2-3.3,2.8-5.2,1.9s-2.8-3.3-1.9-5.2
			S8,21.4,10,22.3c1.4,0.6,2.2,2,2.2,3.5c0,0.1,0,0.1,0,0.2h3.3c-0.4-0.1-0.7-0.1-0.7-0.1c-1.3-1.2-0.6-3.5-0.5-4.1
			c0.1-0.8,2.4-7,2.4-7c-0.1-0.7,0.1-1.3,0.5-1.8c0.6-0.6,1.3,1.2,1.4,1.1c1-0.1,2,0.1,2.9,0.7c1-0.4,3-2.4,1.1,3.4
			c-0.5,1.5,0.2,1.7,0.5,1.9s2.3,2.3,3.6,2.5s2.6,1.5,2.5,2.5c0,0.4-0.2,0.6-0.3,0.6c-0.2,0.1-0.4,0.2-0.7,0.3h2.3
			c0-0.1,0-0.1,0-0.2c0-2.2,1.8-3.9,3.9-3.9s3.9,1.8,3.9,3.9C38.3,28,36.5,29.8,34.4,29.8C34.4,29.8,34.4,29.8,34.4,29.8 M34.4,24.1
			c-1,0-1.8,0.8-1.8,1.8c0,1,0.8,1.8,1.8,1.8c1,0,1.8-0.8,1.8-1.8c0,0,0,0,0,0C36.1,24.9,35.3,24.1,34.4,24.1
			C34.4,24.1,34.4,24.1,34.4,24.1 M8.3,24.1c-1,0-1.8,0.8-1.8,1.8s0.8,1.8,1.8,1.8c1,0,1.8-0.8,1.8-1.8C10.1,24.9,9.3,24.1,8.3,24.1
			 M18.9,23.8l1.9,0.3l2.7-2.6l-1.3-0.9L18.9,23.8z"/>
	</g>
</g>
</svg>
