<?xml version="1.0" encoding="utf-8"?>
<!-- Generator: Adobe Illustrator 25.2.0, SVG Export Plug-In . SVG Version: 6.00 Build 0)  -->
<svg version="1.1" id="圖層_1" xmlns="http://www.w3.org/2000/svg" xmlns:xlink="http://www.w3.org/1999/xlink" x="0px" y="0px"
	 viewBox="0 0 42.7 42.7" style="enable-background:new 0 0 42.7 42.7;" xml:space="preserve">
<style type="text/css">
	.st0{clip-path:url(#SVGID_2_);}
	.st1{fill:#F4DC2E;}
	.st2{fill:#231815;}
</style>
<g id="Group_870" transform="translate(0 0)">
	<g>
		<defs>
			<rect id="SVGID_1_" width="42.7" height="42.7"/>
		</defs>
		<clipPath id="SVGID_2_">
			<use xlink:href="#SVGID_1_"  style="overflow:visible;"/>
		</clipPath>
		<g id="Group_869" transform="translate(0 0)" class="st0">
			<path id="Path_1124" class="st1" d="M42.7,21.3c0,11.8-9.6,21.3-21.3,21.3S0,33.1,0,21.3S9.6,0,21.3,0c0,0,0,0,0,0
				C33.1,0,42.7,9.6,42.7,21.3"/>
			<path id="Path_1125" class="st2" d="M21.3,36.1c-8.1,0-14.7-6.6-14.7-14.7S13.2,6.6,21.3,6.6c8.1,0,14.7,6.6,14.7,14.7
				C36.1,29.5,29.5,36.1,21.3,36.1C21.3,36.1,21.3,36.1,21.3,36.1 M18.3,18.2l-1.8-2.6l-1.3,0.6l1.8,2.6L18.3,18.2z M15,19.3
				l1.8,2.6l1.3-0.6l-1.8-2.6L15,19.3z M18.9,15.1l-1.8-2.6l-1.3,0.6l1.8,2.6L18.9,15.1z M15.2,14.1l-1.7-3l-1.3,0.8l1.7,3
				L15.2,14.1z M14.6,17.8l-1.7-3l-1.3,0.8l1.7,3L14.6,17.8z M14.3,21.5l-1.7-3l-1.3,0.7l1.7,3L14.3,21.5z M30.5,11.8l-1.3-0.8
				l-1.7,3l1.3,0.8L30.5,11.8z M26.6,10.1l-1.3-0.6L23.5,12l1.3,0.6L26.6,10.1z M24.7,21.2l1.3,0.6l1.8-2.6l-1.3-0.6L24.7,21.2z
				 M14.6,25.7l-1.7-3l-1.3,0.7l1.7,3L14.6,25.7z M28.1,17.8l1.3,0.7l1.7-3l-1.3-0.7L28.1,17.8z M23.8,15.1l1.3,0.6l1.8-2.6
				l-1.3-0.6L23.8,15.1z M24.4,18.2l1.3,0.6l1.8-2.6l-1.3-0.6L24.4,18.2z M21.3,8.1c-0.3,0-0.6,0-0.8,0c-0.2,2-0.5,6.6-0.5,13.2
				c0,6.6,0.3,11.3,0.5,13.3c0.3,0,0.5,0,0.8,0s0.6,0,0.8,0c0.2-2.1,0.5-6.8,0.5-13.4c0-6.5-0.3-11.1-0.5-13.1
				C21.9,8.1,21.6,8.1,21.3,8.1 M12.2,27.7l1.7,3l1.3-0.7l-1.7-3L12.2,27.7z M28.1,25.7l1.3,0.7l1.7-3l-1.3-0.7L28.1,25.7z
				 M24.4,24.8l1.3,0.6l1.8-2.6l-1.3-0.6L24.4,24.8z M23.8,28.5l1.3,0.6l1.8-2.6l-1.3-0.6L23.8,28.5z M28.3,21.5l1.3,0.7l1.7-3
				l-1.3-0.7L28.3,21.5z M27.5,30l1.3,0.7l1.7-3l-1.3-0.7L27.5,30z M23.5,32.1l1.3,0.6l1.8-2.6l-1.3-0.6L23.5,32.1z M18.9,28.5
				l-1.8-2.6l-1.3,0.6l1.8,2.6L18.9,28.5z M18.3,24.8l-1.8-2.6l-1.3,0.6l1.8,2.6L18.3,24.8z M16.1,30.2l1.8,2.6l1.3-0.6l-1.8-2.6
				L16.1,30.2z M16.1,10.1l1.8,2.6l1.3-0.6l-1.8-2.6L16.1,10.1z"/>
		</g>
	</g>
</g>
</svg>
