<?xml version="1.0" encoding="utf-8"?>
<!-- Generator: Adobe Illustrator 25.2.0, SVG Export Plug-In . SVG Version: 6.00 Build 0)  -->
<svg version="1.1" id="圖層_1" xmlns="http://www.w3.org/2000/svg" xmlns:xlink="http://www.w3.org/1999/xlink" x="0px" y="0px"
	 viewBox="0 0 42.7 42.7" style="enable-background:new 0 0 42.7 42.7;" xml:space="preserve">
<style type="text/css">
	.st0{clip-path:url(#SVGID_2_);}
	.st1{fill:#F4DC2E;}
	.st2{fill:#231815;}
</style>
<g id="Group_860" transform="translate(0 0)">
	<g>
		<defs>
			<rect id="SVGID_1_" width="42.7" height="42.7"/>
		</defs>
		<clipPath id="SVGID_2_">
			<use xlink:href="#SVGID_1_"  style="overflow:visible;"/>
		</clipPath>
		<g id="Group_859" transform="translate(0 0)" class="st0">
			<path id="Path_1111" class="st1" d="M42.7,21.3c0,11.8-9.6,21.3-21.3,21.3S0,33.1,0,21.3S9.6,0,21.3,0c0,0,0,0,0,0
				C33.1,0,42.7,9.6,42.7,21.3"/>
			<path id="Path_1112" class="st2" d="M21.3,36.1c-8.1,0-14.7-6.6-14.7-14.7S13.2,6.6,21.3,6.6c8.1,0,14.7,6.6,14.7,14.7
				C36.1,29.5,29.5,36.1,21.3,36.1C21.3,36.1,21.3,36.1,21.3,36.1 M31.4,11.8C31.4,11.8,31.4,11.8,31.4,11.8
				c-0.1-0.4-0.8-0.6-1.1-0.7l-0.1-0.5l-0.8,0.2l0.3,0.9c-0.1,0.2-0.2,0.3-0.3,0.5l-0.2-0.6l-0.8,0.3l0.5,1.2
				c-0.1,0.2-0.2,0.4-0.3,0.6L28,13.3l-0.8,0.5l0.7,1.2c-0.1,0.3-0.2,0.5-0.4,0.8L27,15l-0.8,0.6l0.9,1.3c-0.1,0.3-0.2,0.5-0.2,0.8
				L26.3,17l-0.8,0.7l1,1.2c-0.1,0.3-0.1,0.5-0.1,0.8l-0.6-0.5L25.1,20l1.2,1.1c0,0.2,0,0.5,0,0.7l-0.6-0.4l-0.7,0.9l1.3,1
				c0,0.3,0,0.5,0.1,0.8l-0.7-0.4l-0.6,0.9l1.5,0.9c0,0.1,0.1,0.3,0.1,0.5l-0.5-0.3l-0.5,1l1.4,0.6c0.1,0.2,0.1,0.3,0.2,0.5
				l-0.5-0.2l-0.3,1l1.3,0.5c0.1,0.2,0.2,0.4,0.3,0.6l-0.4-0.1l-0.2,0.9l1.2,0.3c0.1,0.1,0.2,0.3,0.3,0.4l-0.3,0L28.4,32l1.1,0.2
				l1.2-0.7l0.5-1.1L30.4,30l-0.2,0.5c-0.1-0.1-0.2-0.3-0.2-0.4l0.6-1.1l-0.8-0.5L29.4,29c-0.1-0.2-0.2-0.4-0.2-0.5l0.8-1.2
				l-0.8-0.6l-0.4,0.6c-0.1-0.2-0.1-0.3-0.1-0.5l1-1.2L28.8,25l-0.5,0.6c0-0.2-0.1-0.3-0.1-0.5l1.1-1.1l-0.8-0.8L28,23.7
				c0-0.2,0-0.4,0-0.5l1.4-1.1l-0.7-0.9L28,21.8c0-0.2,0-0.4,0-0.6v0l1.3-0.8l-0.6-0.9l-0.6,0.4c0-0.2,0.1-0.5,0.1-0.8l1.3-0.6
				l-0.5-1l-0.5,0.2c0.1-0.2,0.1-0.4,0.2-0.6l1.2-0.4l-0.3-1l-0.4,0.1c0.1-0.2,0.1-0.3,0.2-0.5l1.1-0.3l-0.2-0.9l-0.4,0.1
				c0.1-0.1,0.2-0.3,0.3-0.5l0.9-0.1l-0.1-0.9l-0.2,0c0-0.1,0.1-0.1,0.1-0.2l0.9,0l0-0.8L31.4,11.8z M17.5,22.2l-0.7-0.9l-0.6,0.5
				c0-0.2,0-0.4,0-0.7l1.2-1.1l-0.8-0.8L16,19.7c0-0.3-0.1-0.5-0.1-0.8l1-1.2L16.1,17l-0.6,0.6c-0.1-0.2-0.1-0.5-0.2-0.8l0.9-1.3
				L15.4,15l-0.5,0.8c-0.1-0.2-0.2-0.5-0.4-0.8l0.7-1.2l-0.8-0.5L14,13.9c-0.1-0.2-0.2-0.4-0.3-0.6l0.5-1.2l-0.8-0.3l-0.2,0.6
				c-0.1-0.2-0.2-0.3-0.3-0.5L13,11l-0.8-0.2l-0.1,0.5l-0.9,0.6l-0.5,0l0,0.8l0.9,0c0,0.1,0.1,0.1,0.1,0.2l-0.2,0l-0.1,0.9l0.9,0.1
				c0.1,0.2,0.2,0.3,0.3,0.5l-0.4-0.1l-0.2,0.9l1.1,0.3c0.1,0.2,0.1,0.3,0.2,0.5l-0.4-0.1l-0.3,1l1.2,0.4c0.1,0.2,0.1,0.4,0.2,0.6
				l-0.5-0.2l-0.5,1l1.3,0.6c0,0.3,0.1,0.5,0.1,0.8l-0.6-0.4L13,20.4l1.3,0.8v0c0,0.2,0,0.4,0,0.6l-0.7-0.6l-0.7,0.9l1.4,1.1
				c0,0.2,0,0.4,0,0.5l-0.5-0.5L13,24l1.1,1.1c0,0.2-0.1,0.3-0.1,0.5L13.5,25l-0.8,0.7l1,1.2c0,0.1-0.1,0.3-0.1,0.5l-0.4-0.6
				l-0.8,0.6l0.8,1.2c-0.1,0.2-0.1,0.3-0.2,0.5l-0.3-0.5L11.8,29l0.6,1.1c-0.1,0.1-0.2,0.3-0.2,0.4L12,30l-0.8,0.3l0.5,1.1l1.2,0.7
				L14,32l-0.1-0.9l-0.3,0c0.1-0.1,0.2-0.3,0.3-0.4l1.2-0.3l-0.2-0.9l-0.4,0.1c0.1-0.2,0.2-0.4,0.3-0.6l1.3-0.5l-0.3-1l-0.5,0.2
				c0.1-0.2,0.1-0.4,0.2-0.5l1.4-0.6l-0.5-1l-0.5,0.3c0-0.2,0.1-0.3,0.1-0.5l1.5-0.9l-0.6-0.9L16,24c0-0.2,0.1-0.5,0.1-0.8
				L17.5,22.2z"/>
		</g>
	</g>
</g>
</svg>
