<?xml version="1.0" encoding="utf-8"?>
<!-- Generator: Adobe Illustrator 25.2.0, SVG Export Plug-In . SVG Version: 6.00 Build 0)  -->
<svg version="1.1" id="圖層_1" xmlns="http://www.w3.org/2000/svg" xmlns:xlink="http://www.w3.org/1999/xlink" x="0px" y="0px"
	 viewBox="0 0 42.7 42.7" style="enable-background:new 0 0 42.7 42.7;" xml:space="preserve">
<style type="text/css">
	.st0{clip-path:url(#SVGID_2_);}
	.st1{fill:#ED7700;}
	.st2{fill:#231815;}
</style>
<g>
	<defs>
		<rect id="SVGID_1_" width="42.7" height="42.7"/>
	</defs>
	<clipPath id="SVGID_2_">
		<use xlink:href="#SVGID_1_"  style="overflow:visible;"/>
	</clipPath>
	<g id="Group_794" class="st0">
		<path id="Path_975" class="st1" d="M42.7,21.3c0,11.8-9.6,21.3-21.3,21.3S0,33.1,0,21.3S9.6,0,21.3,0c0,0,0,0,0,0
			C33.1,0,42.7,9.6,42.7,21.3"/>
		<path id="Path_976" class="st2" d="M34.1,36L29,22.1c-1.9,0-3.7,1-4.9,2.5c-1.3,1.9-3.4,3.2-5.7,3.5L10.9,29
			c0,0-3.7-12.8-4.3-14.5c3.5,0.3,6.9-0.7,9.7-2.8c1.7-1.2,4.4-5.4,9-5L36.1,36H34.1z M10.5,23.8c0.2,0.9,1.2,3.9,1.2,3.9
			s3.2-0.5,6.3-0.8l-1.2-4C16.8,23,15.9,23.5,10.5,23.8 M22.3,19l-1.6-4.6c0,0-2.9,3.4-5.2,4l-1.3-3.9c-2,0.8-4.1,1.2-6.2,1.2
			l1.2,3.8c2.1-0.1,4.2-0.5,6.3-1.1c0.1,0.2,1.3,4.6,1.3,4.6C19.1,22.5,21.1,21,22.3,19c0.2,0.4,1.5,4.3,1.5,4.3
			c1.5-1.6,3.5-2.4,5.7-2.4l-1.6-4.2C25.8,16.2,23.5,17.1,22.3,19 M19.2,10.6c0.7,1.9,1.5,3.8,1.5,3.8s2.6-3.3,5.5-2.6
			c0-0.1-1.5-4-1.5-4S21.8,7.5,19.2,10.6"/>
	</g>
</g>
</svg>
