<?xml version="1.0" encoding="utf-8"?>
<!-- Generator: Adobe Illustrator 25.2.0, SVG Export Plug-In . SVG Version: 6.00 Build 0)  -->
<svg version="1.1" id="圖層_1" xmlns="http://www.w3.org/2000/svg" xmlns:xlink="http://www.w3.org/1999/xlink" x="0px" y="0px"
	 viewBox="0 0 42.7 42.7" style="enable-background:new 0 0 42.7 42.7;" xml:space="preserve">
<style type="text/css">
	.st0{clip-path:url(#SVGID_2_);}
	.st1{fill:#209BAD;}
	.st2{fill:#231815;}
</style>
<g>
	<defs>
		<rect id="SVGID_1_" width="42.7" height="42.7"/>
	</defs>
	<clipPath id="SVGID_2_">
		<use xlink:href="#SVGID_1_"  style="overflow:visible;"/>
	</clipPath>
	<g id="Group_826" class="st0">
		<path id="Path_1038" class="st1" d="M42.7,21.3c0,11.8-9.6,21.3-21.3,21.3S0,33.1,0,21.3S9.6,0,21.3,0c0,0,0,0,0,0
			C33.1,0,42.7,9.6,42.7,21.3C42.7,21.3,42.7,21.3,42.7,21.3"/>
		<path id="Path_1039" class="st2" d="M35.8,26.6c-2,3.8-5.4,6.2-6.6,5.8c-1.8-0.3-3.9-5.5-4.3-6s-1.5-4-3.6-4.1
			c-1.9-0.3-3.6,3.9-3.8,4.1c-0.4,0.5-1.8,4.8-4.1,6c-1.3,0.4-4.7-2-6.6-5.8c-1.8-3.1,0.2-4,0.5-4.3c0.4-0.2,0.6-0.4,1-2.7
			c0.4-2.3,1.5-3.1,2-3.4c1.9-0.1,3.8,0,5.6,0.3c1.6,0.2,3.3,1.4,5.4,1.4c2,0,4.3-1.3,5.4-1.4c1.9-0.3,3.8-0.4,5.7-0.3
			c0.5,0.2,1.6,1,2,3.4s0.7,2.5,1,2.7C35.7,22.6,37.6,23.5,35.8,26.6 M32.8,22.7l-1.6-4.4c-1.3-0.5-7.5,0.1-7.5,1.4
			c0.1,1,3.4,10.3,5.3,9.7c0.5-0.1,1.2-0.3,2.8-1.9c2-2.1,1.9-3.3,1.9-3.8S33.2,23,32.8,22.7 M27.6,25.1c-0.2-0.4-0.4-0.8-0.6-1.3
			c-0.6-1.3-1-2.5-1.3-3.3c0.3-0.1,0.7-0.2,1.1-0.2c0.3,0,0.5-0.1,0.8-0.1L27.6,25.1z M11,18.4c-1.4,0.9-0.6,3.2-1.6,4.4
			c-0.4,0.3-1,0.5-1,1s-0.1,1.7,1.9,3.8c1.6,1.6,2.3,1.8,2.8,1.9c2,0.6,5.2-8.7,5.3-9.7C18.6,18.5,12.4,17.9,11,18.4 M15.2,23.9
			c0,0.1-0.1,0.2-0.1,0.3v-3.9c0.1,0,0.2,0,0.3,0.1c0.4,0.1,0.7,0.1,1.1,0.2C16.2,21.3,15.8,22.5,15.2,23.9"/>
		<path id="Path_1040" class="st2" d="M19.7,12.6h0.1V11c-0.8,0-1.5-0.7-1.5-1.5s0.7-1.5,1.5-1.5l0,0V7.6c0-0.8,0.7-1.5,1.5-1.5
			c0.7,0,1.4,0.5,1.5,1.2h0.7c0.8,0,1.5,0.7,1.5,1.5c0,0,0,0,0,0V10c0,0.8-0.7,1.5-1.5,1.5c0,0,0,0,0,0h-0.7v1.1H23
			c1.5,0,2.9,0.7,3.8,2c-0.1,0-0.2,0-0.3,0c-0.8,0.1-1.5,0.3-2.2,0.6c-0.9,0.4-1.9,0.7-2.9,0.8h-0.1c-0.9-0.1-1.7-0.3-2.5-0.6
			c-0.8-0.3-1.7-0.6-2.5-0.7c-0.1,0-0.2,0-0.3-0.1C16.7,13.3,18.2,12.6,19.7,12.6"/>
		<path id="Path_1041" class="st2" d="M23,36.6h-3.3c-2,0-3.8-1.3-4.4-3.3c0.8-0.7,1.4-1.5,1.9-2.3c0.6-0.9,1.1-1.9,1.5-2.9
			c0.1-0.2,0.2-0.5,0.3-0.6c0.1-0.2,0.2-0.4,0.3-0.5c0.3-0.6,0.6-1.2,1-1.8c0.2-0.4,0.5-0.8,0.9-1h0.1c0.1,0,0.3,0.1,0.6,0.6
			c0.4,0.6,0.7,1.2,1,1.8c0.1,0.3,0.3,0.7,0.5,1c0.1,0.1,0.2,0.5,0.4,0.7c0.5,1.1,1.1,2.2,1.8,3.2c0.4,0.6,0.8,1.1,1.3,1.6
			c0.2,0.2,0.3,0.3,0.5,0.4C26.7,35.3,25,36.6,23,36.6"/>
	</g>
</g>
</svg>
