<?xml version="1.0" encoding="utf-8"?>
<!-- Generator: Adobe Illustrator 25.2.0, SVG Export Plug-In . SVG Version: 6.00 Build 0)  -->
<svg version="1.1" id="圖層_1" xmlns="http://www.w3.org/2000/svg" xmlns:xlink="http://www.w3.org/1999/xlink" x="0px" y="0px"
	 viewBox="0 0 42.7 42.7" style="enable-background:new 0 0 42.7 42.7;" xml:space="preserve">
<style type="text/css">
	.st0{clip-path:url(#SVGID_2_);}
	.st1{fill:#E50012;}
	.st2{fill-rule:evenodd;clip-rule:evenodd;fill:#231815;}
</style>
<g id="Group_900" transform="translate(0 0)">
	<g>
		<defs>
			<rect id="SVGID_1_" width="42.7" height="42.7"/>
		</defs>
		<clipPath id="SVGID_2_">
			<use xlink:href="#SVGID_1_"  style="overflow:visible;"/>
		</clipPath>
		<g id="Group_899" transform="translate(0 0)" class="st0">
			<path id="Path_1182" class="st1" d="M42.7,21.3c0,11.8-9.6,21.3-21.3,21.3S0,33.1,0,21.3S9.6,0,21.3,0c0,0,0,0,0,0
				C33.1,0,42.7,9.6,42.7,21.3"/>
			<path id="Path_1183" class="st2" d="M32.4,25.3c0,2.4-0.7,9.2-5,10.5c-2,0.5-4.1,0.7-6.1,0.6v0c-2.1,0.1-4.1-0.1-6.2-0.6
				c-4.3-1.3-5-8.1-5-10.5c0-1.9,0.5-3.7,1.5-5.3c-0.9-1.6-1.3-3.4-1.3-5.3c0-6.1,5-8.4,11.1-8.4s11.1,2.3,11.1,8.4
				c0,1.9-0.5,3.8-1.4,5.5C32,21.8,32.4,23.5,32.4,25.3 M21.4,9.9c-4.7,0-7.6,0.9-7.6,5.6c0,0.6,0.1,1.2,0.4,1.7
				c2.1-1.5,4.6-2.3,7.1-2.2v0c2.6,0,5.2,0.8,7.3,2.4c0.3-0.6,0.5-1.2,0.5-1.9C29.1,10.8,26.1,9.9,21.4,9.9"/>
		</g>
	</g>
</g>
</svg>
