<?xml version="1.0" encoding="utf-8"?>
<!-- Generator: Adobe Illustrator 25.2.0, SVG Export Plug-In . SVG Version: 6.00 Build 0)  -->
<svg version="1.1" id="圖層_1" xmlns="http://www.w3.org/2000/svg" xmlns:xlink="http://www.w3.org/1999/xlink" x="0px" y="0px"
	 viewBox="0 0 42.7 42.7" style="enable-background:new 0 0 42.7 42.7;" xml:space="preserve">
<style type="text/css">
	.st0{clip-path:url(#SVGID_2_);}
	.st1{fill:#44AF35;}
	.st2{fill:#231815;}
</style>
<g>
	<defs>
		<rect id="SVGID_1_" width="42.7" height="42.7"/>
	</defs>
	<clipPath id="SVGID_2_">
		<use xlink:href="#SVGID_1_"  style="overflow:visible;"/>
	</clipPath>
	<g id="Group_806" class="st0">
		<path id="Path_996" class="st1" d="M42.7,21.3c0,11.8-9.6,21.3-21.3,21.3S0,33.1,0,21.3S9.6,0,21.3,0c0,0,0,0,0,0
			C33.1,0,42.7,9.6,42.7,21.3C42.7,21.3,42.7,21.3,42.7,21.3"/>
		<path id="Path_997" class="st2" d="M10.5,14.4C9.8,13.1,9.1,11,10,10.2c1.2-1.1,3.6-0.8,5.2-0.2L10.5,14.4z"/>
		<path id="Path_998" class="st2" d="M11.3,15.7l5.4-5.2c0.3,0.1,1.3,0.8,1.6,1l-5.8,5.5C12,16.7,11.6,16.2,11.3,15.7"/>
		<path id="Path_999" class="st2" d="M21.9,18.8c-0.6,0.6-2.6,0.8-4.8,0.4l4.3-4.1C22.3,16.6,22.6,18.1,21.9,18.8"/>
		<path id="Path_1000" class="st2" d="M15.5,18.7c-0.6-0.2-1.2-0.5-1.7-0.8l5.7-5.4l1.2,1.3L15.5,18.7z"/>
		<path id="Path_1001" class="st2" d="M35.9,29.8c-0.6-1.9-1.8-3.5-3.3-4.7c-4.3-3.5-4.2-3.9-6.9-9c-0.9-1.9-2.2-3.6-3.7-4.9
			C17.3,6.5,8.8,4.3,6.9,10c-0.9,2.5,0.6,5.5,2.5,7.8c2,2.5,3.8,3.1,7.2,4.1c1.6,0.3,3.2,1,4.5,2.1c0.9,1.1,1.7,2.4,2.3,3.7
			c2.4,4.8,4.6,8.4,8,8.3c2.7-0.1,4.9-2.3,4.8-5C36.1,30.6,36,30.2,35.9,29.8 M23.3,20c-1.2,1-4.4,1-6.5,0.6
			c-3.7-0.7-6.8-3.2-8.2-6.7c-0.7-1.9-0.8-3.6,0.3-4.7c2.3-2.3,6.8-1.1,10.2,1.4C22.2,13,25.5,18.1,23.3,20 M33.1,33.8
			c-1.8,1.3-4.2,0.3-5.5-1.6c-1.4-1.9-1.7-4.7,0-5.9c1.7-1.2,4-0.4,5.5,1.7C34.5,29.9,34.8,32.5,33.1,33.8"/>
		<path id="Path_1002" class="st2" d="M32.1,32.4c-1.1,0.9-2.7,0.1-3.5-1.1c-1-1.3-1.1-3,0-3.8c1.1-0.7,2.6-0.3,3.6,1
			C33.2,30,33.2,31.6,32.1,32.4"/>
	</g>
</g>
</svg>
