<?xml version="1.0" encoding="utf-8"?>
<!-- Generator: Adobe Illustrator 25.1.0, SVG Export Plug-In . SVG Version: 6.00 Build 0)  -->
<svg version="1.1" id="圖層_1" xmlns="http://www.w3.org/2000/svg" xmlns:xlink="http://www.w3.org/1999/xlink" x="0px" y="0px"
	 viewBox="0 0 1024 1024" style="enable-background:new 0 0 1024 1024;" xml:space="preserve">
<path id="connectivity_large_circled" transform="translate(0)" d="M512,41.6C252.2,41.6,41.6,252.2,41.6,512S252.2,982.4,512,982.4
	S982.4,771.8,982.4,512S771.8,41.6,512,41.6 M512,73c242.5,0,439,196.5,439,439S754.5,951,512,951S73,754.5,73,512
	C73.3,269.7,269.7,73.3,512,73 M644.1,512c0,25.9-6.8,51.3-19.8,73.8c-2.8,4.8-8,7.8-13.6,7.8c-2.8,0-5.5-0.7-7.8-2.1
	c-7.5-4.3-10-13.9-5.7-21.3c0,0,0-0.1,0-0.1c20.7-35.9,20.7-80.1,0-116c-4.4-7.5-1.8-17.1,5.7-21.4c7.5-4.4,17.1-1.8,21.4,5.7
	C637.3,460.7,644.2,486.1,644.1,512 M549,512c0,15.1-4,30-11.5,43c-4.4,7.5-14,10-21.4,5.7c-7.5-4.4-10-14-5.7-21.4
	c9.7-16.9,9.7-37.7,0-54.6c-4.4-7.5-1.8-17.1,5.7-21.4c7.5-4.4,17.1-1.8,21.4,5.7C545.1,482,549,496.9,549,512 M621.8,755.8
	c-3.1,10.5-9.3,19.9-17.8,26.8l-1.6,1.3c-0.2,0.2-24.3,18.3-89.4,18.3h-0.5c-23.4,0.5-46.7-2.5-69.1-9.1c-7.1-2-13.9-5.1-20.1-9.1
	l-1.9-1.4c-8.4-6.9-14.6-16.1-17.7-26.5c-0.9-2.8-5.8-21.2-11.1-42.1c36.4,21.6,78,33,120.4,33c42.3,0.1,83.7-11.4,119.9-33.2
	C627.4,734.7,622.7,753.1,621.8,755.8 M403.5,268.2c3.1-10.5,9.3-19.8,17.8-26.8l1.9-1.4c0.2-0.2,24.4-18.2,89.2-18.2h0.5
	c23.4-0.5,46.6,2.5,69.1,9.1c7.1,2,13.9,5.1,20.1,9.1l1.9,1.4c8.4,6.9,14.6,16.1,17.8,26.6c0.9,2.8,5.8,21.7,11.2,43
	c-73.9-44.5-166.3-44.8-240.5-0.7C397.8,289.4,402.6,270.9,403.5,268.2 M512.9,715.6c-112.4,0.4-203.8-90.3-204.2-202.7
	c-0.4-112.4,90.3-203.8,202.7-204.2c56.6-0.2,110.7,23.2,149.4,64.5l27.8-16.1c-4.9-5.5-10-10.8-15.4-15.8
	c-7.9-31.2-20.2-79.5-21.9-84c-5.4-16.8-15.8-31.5-29.9-42.1c-6.5-4.9-36.8-24.7-108.1-24.8h-1.2c-71.3,0.1-101.6,19.8-108.1,24.8
	c-14.1,10.6-24.5,25.3-29.9,42.1c-1.6,4.5-13.9,52-21.8,82.9c-94.9,87.4-101.1,235.2-13.7,330.2c4.3,4.7,8.9,9.3,13.6,13.6l0.1,0.1
	c7.9,30.7,20.1,78.2,21.8,82.6c5.4,16.8,15.8,31.5,29.9,42.1c6.5,4.9,36.8,24.7,108.1,24.8h1.2c71.3-0.1,101.6-19.8,108.1-24.8
	c14.1-10.6,24.5-25.3,29.9-42.1c1.6-4.5,13.8-52,21.7-83.1c5.7-5.2,11-10.7,16-16.5L661.3,651C623,692.2,569.2,715.7,512.9,715.6
	 M747.1,507.6c0-1.1,0-2.2-0.1-3.3c0-0.8-0.1-1.6-0.1-2.4c-0.1-2.4-0.2-4.7-0.4-7.1c-0.1-0.7-0.1-1.3-0.2-2
	c-0.2-2.3-0.5-4.6-0.7-6.9c0-0.4-0.1-0.8-0.1-1.2c-0.1-1.1-0.2-2.1-0.4-3.2c-0.1-0.8-0.2-1.6-0.3-2.4c-0.2-0.9-0.2-1.8-0.4-2.7
	c-0.2-0.9-0.3-2.1-0.5-3.1c-0.3-2-0.6-4.1-1-6.1c-0.1-0.2-0.1-0.5-0.2-0.7l-0.2-1.2c0-0.2-0.1-0.3-0.1-0.5c-0.4-2-0.9-3.8-1.3-5.8
	c-0.2-0.9-0.5-1.9-0.7-2.8c-0.2-0.8-0.3-1.5-0.6-2.3c-0.8-3.2-1.7-6.4-2.7-9.6c0-0.1,0-0.2-0.1-0.2c-0.2-0.9-0.5-1.8-0.8-2.7
	c-0.1-0.5-0.3-0.9-0.5-1.3c-0.9-2.7-1.8-5.6-2.8-8.3c-0.2-0.7-0.4-1.3-0.7-1.9c-0.9-2.6-2-5.1-3-7.6c-1.1-2.5-2.2-5-3.3-7.5
	c-0.8-1.6-1.6-3.3-2.4-4.9c-0.1-0.2-0.2-0.4-0.2-0.5c-0.1-0.2-0.2-0.2-0.2-0.4c-0.1-0.2-0.2-0.5-0.4-0.8c-0.9-2-2-4.1-3-6.1
	l-0.5-0.7c-0.1-0.2-0.2-0.4-0.3-0.6c-0.2-0.1-0.3-0.3-0.4-0.5c0,0,0-0.1-0.1-0.1c0,0,0,0,0,0c-1-1.5-2.4-2.7-3.9-3.7h-0.1
	c-4.7-3.2-10.8-3.5-15.8-0.8c-5.3,2.9-8.5,8.7-8.1,14.7c0.1,2.2,0.7,4.4,1.7,6.3c3.8,7.1,7.2,14.5,10.1,22
	c18.2,47.4,18.2,99.9,0,147.3c-2.9,7.6-6.2,14.9-10.1,22c-0.9,1.7-1.5,3.6-1.7,5.5c-1,8.6,5.1,16.3,13.6,17.4
	c0.6,0.1,1.2,0.1,1.8,0.1c3.4,0,6.6-1.1,9.3-3.1c0.6-0.5,1.1-0.9,1.6-1.5c0.9-0.9,1.8-2,2.4-3.1c0.1-0.2,0.2-0.4,0.3-0.5
	c1.6-2.8,3-5.7,4.4-8.7c1.5-3.1,2.9-6.3,4.3-9.5c0.3-0.6,0.5-1.3,0.9-2c1.3-3.1,2.5-6.3,3.7-9.6c1.2-3.2,2.3-6.4,3.3-9.6
	c0.2-0.5,0.4-1.1,0.5-1.6c0.9-2.9,1.8-5.7,2.6-8.7c0.3-1.1,0.5-2.3,0.9-3.4c1.3-5,2.4-10,3.2-15.1c0.8-4.4,1.5-8.8,2-13.2
	c0.2-2.1,0.5-4.3,0.6-6.5c0.3-3,0.5-6,0.7-8.9c0.1-1.7,0.2-3.4,0.2-5.2c0.1-1,0.1-2,0.1-2.9c0-0.5,0-1.1,0-1.6
	c0.1-1.3,0.1-2.5,0.1-3.8v-2.4C747.2,509.2,747.2,508.4,747.1,507.6"/>
</svg>
