<?xml version="1.0" encoding="utf-8"?>
<!-- Generator: Adobe Illustrator 25.1.0, SVG Export Plug-In . SVG Version: 6.00 Build 0)  -->
<svg version="1.1" id="圖層_1" xmlns="http://www.w3.org/2000/svg" xmlns:xlink="http://www.w3.org/1999/xlink" x="0px" y="0px"
	 viewBox="0 0 1024 1024" style="enable-background:new 0 0 1024 1024;" xml:space="preserve">
<path d="M512,31C246.4,31,31,246.4,31,512s215.3,481,481,481s481-215.3,481-481S777.6,31,512,31z M512,960.9
	c-247.9,0-448.9-201-448.9-448.9C63.4,264.2,264.2,63.4,512,63.1c247.9,0,448.9,201,448.9,448.9S759.9,960.9,512,960.9z
	 M632.2,568.1H525.5c-6.8-20.9-26.4-36.1-49.6-36.1c-23.2,0-42.8,15.1-49.6,36.1h-34.6c-8.9,0-16,7.2-16,16s7.2,16,16,16h34.6
	c6.8,20.9,26.4,36.1,49.6,36.1c23.2,0,42.8-15.1,49.6-36.1h106.7c8.9,0,16-7.2,16-16S641.1,568.1,632.2,568.1z M475.9,604.2
	c-11.1,0-20-9-20-20c0-11.1,9-20,20-20c11.1,0,20,9,20,20C496,595.2,487,604.2,475.9,604.2z M676.6,337L676.6,337l0-0.1h0
	c-8.1-31.8-20.6-80.6-22.3-85.2c-5.5-17.2-16.2-32.2-30.6-43.1c-6.6-5.1-37.7-25.3-110.5-25.3H512c-72.9,0-103.9,20.2-110.5,25.3
	c-14.4,10.9-25.1,25.9-30.5,43.1c-1.7,4.6-14,52.5-22.1,83.9c-97.5,89.9-103.6,241.7-13.7,339.2c4.3,4.7,8.9,9.3,13.6,13.6
	c8.1,31.4,20.5,79.4,22.2,83.9c5.5,17.2,16.2,32.2,30.6,43.1c6.6,5,37.7,25.2,110.5,25.3h1.2c72.9-0.1,103.9-20.2,110.5-25.3
	c14.4-10.8,25.1-25.9,30.6-43.1c1.7-4.6,14.1-53.2,22.2-85.1l0.1-0.1c96.7-90.5,101.7-242.3,11.2-339
	C684.1,344.3,680.4,340.6,676.6,337z M400.9,262.8L400.9,262.8c3.2-10.8,9.5-20.3,18.2-27.5l1.7-1.2c0.2-0.2,24.8-18.8,91.5-18.8
	h0.5c66.6,0,91.2,18.6,91.2,18.6l2,1.4c8.6,7,14.9,16.5,18.1,27.2c1,2.9,5.9,21.9,11.4,43.2h-0.1c-75.5-45.4-169.8-45.7-245.6-0.7
	C395.2,284.1,400.1,265.6,400.9,262.8z M624.2,761.1c-3.2,10.8-9.5,20.3-18.2,27.4l-1.7,1.2c-0.2,0.2-24.8,18.8-91.5,18.8h-0.5
	c-66.6,0-91.2-18.6-91.2-18.6l-2-1.4c-8.6-7.1-14.9-16.5-18.1-27.2c-0.9-2.9-5.8-21.4-11.3-42.4c75.8,44.9,170.2,44.6,245.7-0.8
	C630,739.6,625.1,758.4,624.2,761.1z M512,720.4c-115.1,0-208.4-93.3-208.4-208.4S396.9,303.6,512,303.6S720.4,396.9,720.4,512
	C720.3,627,627,720.3,512,720.4z M632.2,423.8h-34.6c-6.8-20.9-26.4-36.1-49.6-36.1c-23.2,0-42.8,15.1-49.6,36.1H391.8
	c-8.9,0-16,7.2-16,16s7.2,16,16,16h106.7c6.8,20.9,26.4,36.1,49.6,36.1c23.2,0,42.8-15.1,49.6-36.1h34.6c8.9,0,16-7.2,16-16
	S641.1,423.8,632.2,423.8z M548.1,459.9c-11.1,0-20-9-20-20c0-11.1,9-20,20-20c11.1,0,20,9,20,20
	C568.1,450.9,559.1,459.9,548.1,459.9z"/>
</svg>
