<?xml version="1.0" encoding="utf-8"?>
<!-- Generator: Adobe Illustrator 25.1.0, SVG Export Plug-In . SVG Version: 6.00 Build 0)  -->
<svg version="1.1" id="圖層_1" xmlns="http://www.w3.org/2000/svg" xmlns:xlink="http://www.w3.org/1999/xlink" x="0px" y="0px"
	 viewBox="0 0 1024 1024" style="enable-background:new 0 0 1024 1024;" xml:space="preserve">
<path id="gps_navigation_large_circled" transform="translate(0)" d="M512,40.2C251.5,40.2,40.2,251.5,40.2,512
	S251.5,983.8,512,983.8S983.8,772.5,983.8,512S772.5,40.2,512,40.2 M512,71.7c243.2,0,440.3,197.1,440.3,440.3
	S755.2,952.3,512,952.3S71.7,755.2,71.7,512C72,268.9,268.9,72,512,71.7 M685.9,701.5c0.4,5.8-2.4,11.4-7.4,14.5l-158.3,98.4
	c-5.1,3.2-11.5,3.2-16.6,0l-158.3-98.9c-7.3-4.6-9.6-14.3-4.9-21.7c1.7-2.8,4.3-4.9,7.3-6.1l94-38.7c7.3,9.9,13.9,18.7,19.6,25.9
	L388,705.1l124,77.5l124.4-77.4l-72.3-31.1c5.6-7.3,12.2-16,19.4-25.9l92.9,40.1C681.8,690.6,685.5,695.7,685.9,701.5 M512.3,638.2
	C463.7,574.8,370.9,441,370.9,380c0-78.1,63.4-141.3,141.4-141.3c78,0,141.3,63.3,141.3,141.3C653.7,441,560.8,574.8,512.3,638.2
	 M512.3,207.2c-95.4,0.1-172.7,77.4-172.8,172.8c0,39.1,27.3,100.6,81.1,183c39.2,60,79,110,79.4,110.6l12.3,15.3l12.3-15.3
	C525,673,564.8,623,604,563c53.9-82.3,81.1-143.9,81.1-183C685.1,284.6,607.7,207.3,512.3,207.2 M512.3,418.8
	c-23.9,0-43.2-19.4-43.2-43.2c0-23.9,19.4-43.2,43.2-43.2c23.9,0,43.2,19.4,43.2,43.2l0,0C555.6,399.4,536.2,418.8,512.3,418.8
	 M512.3,300.8c-41.3,0-74.7,33.4-74.7,74.7s33.4,74.7,74.7,74.7s74.7-33.4,74.7-74.7l0,0C587,334.3,553.6,300.9,512.3,300.8"/>
</svg>
