<?xml version="1.0" encoding="utf-8"?>
<!-- Generator: Adobe Illustrator 25.1.0, SVG Export Plug-In . SVG Version: 6.00 Build 0)  -->
<svg version="1.1" id="圖層_1" xmlns="http://www.w3.org/2000/svg" xmlns:xlink="http://www.w3.org/1999/xlink" x="0px" y="0px"
	 viewBox="0 0 1024 1024" style="enable-background:new 0 0 1024 1024;" xml:space="preserve">
<path id="stress_and_recovery_icon_large" d="M512,968.5C260,968.6,55.6,764.4,55.4,512.4c0-26.9,2.4-53.8,7.1-80.3
	c1.4-15.9,5-31.5,10.7-46.3l0.2-0.8C143.7,142.8,396.9,3.4,639.1,73.7c224,65,363,288.3,322.4,517.9c-1.4,15.7-4.9,31.1-10.4,45.9
	l-0.5,1.1l-0.2,0.4C893.4,833.8,715,967.8,512,968.5z M483.6,550.7c-32.6,23.2-67.2,43.3-103.3,60.3l-5.2,2.4v303.9l6.2,2
	c34.7,11.1,70.6,17.7,106.9,19.7l9.4,0.5V541L483.6,550.7z M636,448.3c-37.2,19.6-72.7,42.4-106,68l-3.5,2.7v420.5l9.4-0.5
	c36.3-2,72.3-8.6,106.9-19.7l6.2-2V441.7L636,448.3z M235.6,838.4l3.2,2.7c28.9,24,60.9,44.1,95.1,59.7l12.6,5.8V625.2l-11.6,3.8
	c-28.4,9.7-58.2,14.9-88.2,15.4l-11-0.1L235.6,838.4L235.6,838.4z M776.7,408.3c-32.1,0.7-63.7,7.1-93.5,18.9l-6.5,2.4l0.9,7.8
	c0.1,0.3,0.1,0.6,0.2,1v468.2l12.6-5.8c39-17.8,75-41.5,106.9-70.1l3-2.7V418.9c0-0.3,0.1-0.5,0.1-0.8l0.4-8.5l-8.4-0.7
	C787.1,408.5,782,408.3,776.7,408.3z M90.7,586.1c13.6,77.5,48.4,149.8,100.5,208.7l15.5,17.6v-172l-6.8-1.7
	c-20.9-5.1-40.7-14-58.4-26.3c-13.1-9.6-25-20.9-35.3-33.4c-3.7-5.7-20.7-32.4-20.7-32.4L90.7,586.1z M829,800.2l15.8-19.5
	c45-55.7,75.2-121.7,88-192.1l0.2-0.8c4.9-59.8-22-121.2-67-152.8c-7.7-5.4-15.9-10-24.5-13.8l-12.4-5.5V800.2z M512,84
	C305.7,83.9,128.8,231,91.3,433.8l-0.1,0.8c-5.5,59.4,22.1,122.8,67,154.3c26.2,18,57.5,27.3,89.3,26.6c35.8-0.9,71-8.7,103.8-23
	l0.8-0.4l0.8-0.5c1.6-1.1,3.3-1.8,5.2-2.1l0.9-0.2l0.8-0.4c51.1-23.4,99.1-52.9,142.9-88l0.5-0.5c102.1-79.3,196.9-121,274.3-121
	c37.4-0.6,74.2,10.5,104.9,31.8c14.3,10.3,27,22.6,37.8,36.5c6.8,8.3,12.3,17.6,16.4,27.5l-3.4-37.9C897.5,232.7,719.6,83.6,512,84z
	"/>
</svg>
