<?xml version="1.0" encoding="utf-8"?>
<!-- Generator: Adobe Illustrator 25.1.0, SVG Export Plug-In . SVG Version: 6.00 Build 0)  -->
<svg version="1.1" id="圖層_1" xmlns="http://www.w3.org/2000/svg" xmlns:xlink="http://www.w3.org/1999/xlink" x="0px" y="0px"
	 viewBox="0 0 1024 1024" style="enable-background:new 0 0 1024 1024;" xml:space="preserve">
<style type="text/css">
	.st0{fill-rule:evenodd;clip-rule:evenodd;}
</style>
<g id="water_resistant_50m_large_circled" transform="translate(0)">
	<g id="_RING">
		<path id="Fill-1" class="st0" d="M512,29.5c-266.5,0-482.5,216-482.5,482.5s216,482.5,482.5,482.5s482.5-216,482.5-482.5
			S778.5,29.5,512,29.5 M512,61.7c248.7,0,450.3,201.6,450.3,450.3S760.7,962.3,512,962.3S61.7,760.7,61.7,512
			C62,263.4,263.4,62,512,61.7"/>
	</g>
	<g id="water_resistant_50m_large" transform="translate(12 12)">
		<path id="Fill-4" class="st0" d="M222.8,548.6c14.4,14.5,34,22.4,54.4,22c24.1,0,37.9-13.8,37.9-30.6c0-18.6-13.4-31.2-36.7-31.2
			c-15.9-0.4-31.4,5.6-42.8,16.8l-30.3-8.2V401h139.9v37.3h-97.5v51c12.8-10.9,29-16.9,45.8-16.8c35-1.1,64.3,26.4,65.4,61.4
			c0,1.4,0,2.8,0,4.3c0,43.1-32.4,70.3-81.6,70.3c-35.4,0-61.1-11.6-78.5-30.6L222.8,548.6z"/>
		<path id="Fill-6" class="st0" d="M463.3,436.5c-29.3,0-40.3,29-40.3,66.6s11,66.9,40.3,66.9c29,0,40-29.3,40-66.9
			S492.3,436.5,463.3,436.5 M463.3,398c58.1,0,84.3,52.6,84.3,105.1s-26.3,105.4-84.3,105.4c-58.4,0-84.3-52.9-84.3-105.4
			S404.9,398,463.3,398"/>
		<path id="Fill-8" class="st0" d="M759.1,511.6c0-13.8-6.1-23.5-22-23.5c-12.3,0.6-23.6,6.9-30.6,17.1v99.6h-39.1v-93.2
			c0-13.8-6.1-23.5-22-23.5c-12.3,0.7-23.6,7.2-30.6,17.4v99.3h-38.8V457.3h38.8v19.3c12-14.2,29.6-22.6,48.2-22.9
			c21.7,0,35.5,10.1,40.9,26.9c11.6-16.6,30.5-26.7,50.7-26.9c27.2,0,43.4,14.4,43.4,44.6v106.6h-39.1V511.6z"/>
	</g>
</g>
</svg>
