<?xml version="1.0" encoding="utf-8"?>
<!-- Generator: Adobe Illustrator 25.1.0, SVG Export Plug-In . SVG Version: 6.00 Build 0)  -->
<svg version="1.1" id="圖層_1" xmlns="http://www.w3.org/2000/svg" xmlns:xlink="http://www.w3.org/1999/xlink" x="0px" y="0px"
	 viewBox="0 0 1024 1024" style="enable-background:new 0 0 1024 1024;" xml:space="preserve">
<path d="M592.5,333.7c37.4-0.2,67.6-30.7,67.5-68.1c-0.2-37.3-30.5-67.5-67.8-67.5c-37.5,0.1-67.9,30.6-67.8,68.1c0,0,0,0,0,0
	C524.5,303.7,555,333.9,592.5,333.7z M552.2,266.3c0.2-22,18.2-39.8,40.2-39.6c22,0.2,39.8,18.2,39.6,40.2
	c-0.2,21.9-18,39.6-39.9,39.6C570,306.4,552.1,288.4,552.2,266.3L552.2,266.3z M474.5,531.7c13.4-27.7,27.3-57.4,40.9-87.1
	c4.8-10.4,9.1-20.1,13-28.7c1.4-3,2.6-5.7,3.6-8l1.3-2.8l-0.5,1.3c2-5.9,4.7-11.4,8-16.6c11.9-18.4,29.8-26.7,50-13.8
	c5.6,3.5,12,7.6,20,12.7c9.1,5.7,18.8,11.8,28.5,17.9l9.4,5.9l2,1.2c4.5,1,9.2-0.2,12.7-3.2c2.6-2.2,4.8-4.7,6.6-7.6
	c5.6-8.9,15.4-23.7,28.9-43.8c7.4-11.1,15.4-22.9,23.4-34.7l7.7-11.4l2.9-4.3l23.1,15.6l-2.9,4.3l-7.6,11.5
	c-8,11.8-15.9,23.6-24,35.6c-12.7,19-22.4,33.7-28,42.4c-3.4,5.5-7.8,10.4-12.9,14.5c-10.2,8.4-23.7,11.6-36.5,8.4
	c-1.5-0.4-3.1-0.8-4.5-1.4l-2-1l-3.6-2.2l-9.4-5.9c-9.8-6.1-19.5-12.2-29.5-18.5c-7.2-4.6-13.7-8.7-19.3-12.2
	c-4.4-2.8-7-1.6-11.5,5.4c-1.5,2.3-2.7,4.7-3.8,7.2c-0.6,1.5-1,2.5-1.2,3l-0.5,1.3l-1.3,2.9c-1,2.3-2.3,5-3.6,8.1
	c-3.9,8.7-8.3,18.4-13.1,28.9c-9.9,21.6-19.9,43.1-29.8,64l68.9,35.5c3.3,1.6,6.4,3.5,9.4,5.6c7,4.7,13.5,10.1,19.3,16.3
	c18.4,18.8,28.7,44,28.6,70.3c0.1,16.2,0.2,37.2,0.3,62c0.1,8.2,0.1,16.8,0.2,25.5c0.1,17,0.3,34,0.4,50.4c0,5.7,0.1,10.8,0.1,15.6
	c0,4.7,0,4.7,0,5.8l-27.9,0.2c0-1,0-1.1,0-5.8c0-4.6-0.1-9.8-0.1-15.6c-0.1-16.4-0.3-33.4-0.4-50.4c-0.1-8.8-0.1-17.3-0.2-25.6
	c-0.2-24.8-0.3-45.8-0.3-62.1c0.1-19.2-7.4-37.6-20.9-51.2c-4.4-4.6-9.3-8.8-14.6-12.3c-2-1.4-4.1-2.7-6.3-3.8l-68.5-35.3
	c-2.9,5.9-5.7,11.7-8.5,17.4c-26.5,53.8-46.6,90.2-59.1,105.1c-25.3,28.9-59,49.2-96.4,58c-9.1,2.4-23,6.1-40.7,10.9l-35.6,9.6
	l-11.7,3.2l-4.4,1.2l-7.2-26.9l4.4-1.2l11.7-3.2l35.9-9.6c17.4-4.7,31.4-8.4,40.5-10.8c31.9-7.4,60.6-24.5,82.2-49.1
	c10.5-12.4,30.1-48.1,55.5-99.5C468.4,544.4,471.4,538.1,474.5,531.7z M322.6,454.9l55-63.1l0.6-0.7l0.7-0.6
	c5.6-4.7,11.5-9.1,17.7-12.9c6.7-4.4,13.9-7.9,21.4-10.6c5.5-2,11.3-3.1,17.2-3.2h69.4v27.9h-69.4c-2.7,0.1-5.5,0.6-8,1.6
	c-5.5,2-10.8,4.7-15.7,7.9c-3.6,2.3-7.2,4.8-10.4,7.3c-1.5,1.2-2.5,2-3.3,2.6l-54.2,62.2L322.6,454.9z M343.6,473.2L343.6,473.2
	L343.6,473.2L343.6,473.2z M961.3,337.9C889.9,152.8,712.1,30.6,513.7,30.2v0H512h0h-1.8v0C244.9,31.2,30.1,246.5,30.1,512
	c0,266.1,215.7,481.8,481.9,481.8c266.1,0,481.9-215.7,481.8-481.9C993.9,452.5,982.8,393.4,961.3,337.9z M513,962.2
	c-248.5,0.3-450.2-201-450.4-449.5C62.3,326.9,176.4,160.1,349.6,92.8C401.4,72.7,456.4,62.3,512,62.3h0
	c248.5-0.2,450.1,201,450.4,449.5C962.7,760.2,761.5,961.9,513,962.2z"/>
</svg>
