<svg xmlns="http://www.w3.org/2000/svg" xmlns:xlink="http://www.w3.org/1999/xlink" width="42.686" height="42.686" viewBox="0 0 42.686 42.686">
  <defs>
    <clipPath id="clip-path">
      <rect id="Rectangle_215" data-name="Rectangle 215" width="42.686" height="42.686" fill="none"/>
    </clipPath>
  </defs>
  <g id="Group_904" data-name="Group 904" transform="translate(0 0)">
    <g id="Group_903" data-name="Group 903" transform="translate(0 0)" clip-path="url(#clip-path)">
      <path id="Path_1188" data-name="Path 1188" d="M42.686,21.343A21.343,21.343,0,1,1,21.343,0,21.342,21.342,0,0,1,42.686,21.343" transform="translate(0 0)" fill="#e50012"/>
      <path id="Path_1189" data-name="Path 1189" d="M21.967,8.816c.18-.047.359-.092.54-.132a14.354,14.354,0,0,1,2.1-.325c.41-.037.822-.054,1.231-.054.211,0,.419,0,.629.013.048,0,.554.025.554.035v2.293c0,.012.006.02-.01.02h-.946a14.431,14.431,0,0,0-1.562.073,13.517,13.517,0,0,0-1.435.236c-.285.054-.572.111-.859.168,0-.021-.009-.039-.012-.06-.059-.288-.116-.577-.174-.865-.069-.353-.142-.7-.212-1.056-.021-.09-.038-.18-.055-.269l0-.016s.2-.053.215-.06" transform="translate(-4.453 -1.701)" fill="#231815"/>
      <path id="Path_1190" data-name="Path 1190" d="M32.951,17.455a4.744,4.744,0,0,1,.967,3.691c-.12.676-3.793,1.412-3.793,1.412s-1.887.458-3.881-2.741,0-5.2,0-5.2c2.445-1.1,5.512,1.094,6.7,2.838" transform="translate(-5.192 -2.932)" fill="#231815"/>
      <path id="Path_1191" data-name="Path 1191" d="M17.864,15.862l3.664.654L19.776,19.97l-.523-1.254a7.842,7.842,0,0,0-2.267,3.455l-1.8-.833a9.834,9.834,0,0,1,3.162-4.432Z" transform="translate(-3.11 -3.248)" fill="#231815"/>
      <path id="Path_1192" data-name="Path 1192" d="M11.6,15.334a15.473,15.473,0,0,1,1.186-1.487c.3-.328.616-.644.944-.945a14,14,0,0,1,1.414-1.145l-.007,0c-.007.008-.01.011-.017.012-.036.028-.1.074-.126.092s-.007.006,0,0,.053-.041.126-.092c.006,0,.012-.009.017-.012l.007,0c.119.143.24.285.361.428.243.293.49.578.732.865.133.161.266.317.4.476l-.049.039-.767.647a13.275,13.275,0,0,0-1.2,1.128c-.3.325-.576.667-.85,1.012-.038.047-.5.634-.508.631-.177-.14-.354-.283-.531-.421-.3-.236-.591-.468-.886-.7q-.156-.122-.307-.242c-.027-.021-.052-.039-.076-.06l-.011-.009s.132-.192.146-.212" transform="translate(-2.345 -2.407)" fill="#231815"/>
      <path id="Path_1193" data-name="Path 1193" d="M8.429,27.515a.1.1,0,0,0-.03,0h0l-.01-.069c-.021-.192-.037-.385-.049-.578-.021-.328-.029-.653-.029-.981,0-.481.025-.958.071-1.437a15.017,15.017,0,0,1,.388-2.206.165.165,0,0,0-.006.027c0,.016-.009.033-.014.05s-.01.042-.014.064-.015.048-.021.075-.012.049-.017.072h0c0-.023.011-.045.017-.072s.014-.047.021-.075.011-.045.014-.064.011-.037.014-.05a.135.135,0,0,1,.006-.027c.185.029.367.063.551.093.373.066.746.129,1.121.192.206.037.41.069.612.106-.036.212-.074.429-.111.642-.068.4-.14.8-.187,1.2a13.481,13.481,0,0,0-.075,1.862c.01.335.018.67.032,1,0,.037,0,.07,0,.1l-.041,0c-.1,0-.209.006-.312.011l-1.1.029c-.277.01-.553.017-.828.023" transform="translate(-1.701 -4.555)" fill="#231815"/>
      <path id="Path_1194" data-name="Path 1194" d="M14.978,37.346c-.025.023-.049.043-.073.063q-.355.32-.71.635c-.258.231-.518.46-.775.693-.053.046-.1.091-.157.139-.009.006-.291-.282-.32-.309-.129-.134-.256-.27-.38-.4a14.752,14.752,0,0,1-2.36-3.442c-.006-.014-.063-.113-.054-.116a.06.06,0,0,1,.02-.013c.034-.02.064-.041.1-.056.121-.069.242-.143.362-.212.326-.192.655-.381.98-.574.18-.1.359-.21.538-.312.06.1.116.2.176.3.154.261.309.527.464.79a12.468,12.468,0,0,0,1.268,1.754c.214.25.437.491.655.737.091.1.181.2.272.3.012.012.012.009,0,.023" transform="translate(-2.078 -6.846)" fill="#231815"/>
      <path id="Path_1195" data-name="Path 1195" d="M24.723,42.332c-.045.326-.091.647-.138.973s-.094.666-.142,1c-.006.043-.013.083-.017.127a.346.346,0,0,1-.007.048c-.384-.025-.767-.061-1.148-.116a14.687,14.687,0,0,1-1.755-.355,14.335,14.335,0,0,1-2.113-.739c-.014,0-.126-.048-.121-.057s0-.017.006-.023l.037-.106c.047-.13.093-.262.14-.4.127-.355.255-.711.381-1.068.069-.192.14-.389.209-.585a.03.03,0,0,0,.016.008c.3.111.6.216.908.322a13.843,13.843,0,0,0,1.5.451,14.218,14.218,0,0,0,1.4.248c.288.045.577.084.864.122-.006.051-.014.1-.021.143" transform="translate(-3.947 -8.402)" fill="#231815"/>
      <path id="Path_1196" data-name="Path 1196" d="M24.641,30.311S23.4,33.84,22.709,33.865a4.739,4.739,0,0,1-3.518-1.474c-1.564-1.424-3.3-4.768-1.874-7.037,0,0,2.265-1.693,5.154.729s2.169,4.228,2.169,4.228" transform="translate(-3.437 -5.073)" fill="#231815"/>
      <path id="Path_1197" data-name="Path 1197" d="M27.931,36.267a1.392,1.392,0,0,1,.919-1.832c.779-.185,3.041.631,3.279,1.662A2.06,2.06,0,0,1,30.64,38.34c-.707.064-2.394-1.4-2.71-2.073" transform="translate(-5.697 -7.044)" fill="#231815"/>
      <path id="Path_1198" data-name="Path 1198" d="M36.4,41.342c-.3.216-.605.423-.921.615a14.27,14.27,0,0,1-1.745.921c-.338.151-.681.291-1.031.414-.178.063-.359.122-.543.183l-.272.084c-.016,0-.107.04-.112.026-.082-.219-.163-.434-.244-.655-.134-.351-.264-.7-.4-1.054-.046-.119-.09-.239-.137-.362-.01-.027-.02-.054-.029-.08s0-.014.021-.02c.3-.117.609-.227.914-.342a13.735,13.735,0,0,0,1.432-.618c.418-.213.819-.454,1.216-.7.25-.15.5-.309.743-.46.032.052.067.1.1.155.181.287.36.575.542.864s.346.551.519.826c.017.03.038.063.059.093a.075.075,0,0,0,.01.019.865.865,0,0,1-.124.095" transform="translate(-6.341 -8.044)" fill="#231815"/>
      <path id="Path_1199" data-name="Path 1199" d="M37.335,29.436A2.059,2.059,0,0,1,34.908,30.6c-.99-.382-1.481-2.734-1.188-3.481a1.393,1.393,0,0,1,1.944-.653c.62.407,1.832,2.282,1.671,2.972" transform="translate(-6.886 -5.381)" fill="#231815"/>
      <path id="Path_1200" data-name="Path 1200" d="M38.314,12.732c-.025.03-.049.06-.072.09-.088.106-.177.216-.266.326l-.717.875c-.132.161-.262.32-.392.481a.15.15,0,0,1-.025-.02c-.254-.209-.51-.414-.763-.62a13.873,13.873,0,0,0-1.261-.929c-.39-.248-.8-.472-1.206-.686l-.776-.408c.089-.162.176-.33.262-.495.177-.332.354-.666.527-1,.1-.182.2-.365.291-.547a15.123,15.123,0,0,1,1.515.748c.4.227.779.473,1.152.733a14.616,14.616,0,0,1,1.663,1.349c.011.014.091.08.086.088a.087.087,0,0,0-.017.017" transform="translate(-6.722 -2.006)" fill="#231815"/>
      <path id="Path_1201" data-name="Path 1201" d="M43.784,31.447c-.05.183-.1.366-.162.546-.1.322-.216.636-.336.951-.08.18-.149.366-.229.542-.083.192-.171.383-.262.566-.115.224-.228.445-.348.666-.185.328-.383.651-.589.961a.721.721,0,0,1-.077.114.063.063,0,0,0-.021-.014c-.032-.018-.065-.037-.1-.056-.122-.066-.244-.135-.366-.207l-.989-.557c-.18-.1-.36-.2-.542-.3a.138.138,0,0,0,.011-.021q.243-.426.481-.849a14.037,14.037,0,0,0,.7-1.4c.181-.431.331-.873.477-1.315.089-.278.176-.554.266-.829.172.052.339.111.509.165.359.114.72.233,1.08.348.206.064.41.13.616.2.01,0-.114.455-.125.5" transform="translate(-8.141 -6.191)" fill="#231815"/>
      <path id="Path_1202" data-name="Path 1202" d="M44.429,23.57a.073.073,0,0,1-.023.006l-.111.021c-.138.023-.276.05-.414.077l-1.115.208c-.2.036-.408.077-.61.116l0-.013c-.06-.322-.122-.637-.179-.952a13.274,13.274,0,0,0-.364-1.525c-.138-.45-.312-.888-.49-1.325q-.166-.4-.328-.807c.173-.072.344-.142.518-.212.349-.145.7-.286,1.051-.429.192-.076.383-.155.576-.231a14.553,14.553,0,0,1,.77,1.812c.156.45.286.905.4,1.371a14.922,14.922,0,0,1,.309,1.745.6.6,0,0,1,.012.138" transform="translate(-8.351 -3.789)" fill="#231815"/>
    </g>
  </g>
</svg>
