<svg id="Group_847" data-name="Group 847" xmlns="http://www.w3.org/2000/svg" width="42.686" height="42.686" viewBox="0 0 42.686 42.686">
  <path id="Path_1096" data-name="Path 1096" d="M134.92,21.344A21.343,21.343,0,1,1,113.577,0,21.344,21.344,0,0,1,134.92,21.344" transform="translate(-92.234 0)" fill="#80167d"/>
  <path id="Path_1097" data-name="Path 1097" d="M105.688,9.724c.12-.044,7.09,6.571,7.212,6.524a2.358,2.358,0,1,1-1.361,3.048c-.044-.114-9.582-.733-9.613-.844-.578-2.263,2.278-8.173,3.762-8.729" transform="translate(-94.202 -1.991)" fill="#231815"/>
  <path id="Path_1098" data-name="Path 1098" d="M129.245,17.894c-.015.279-.044.562-.085.841a9.68,9.68,0,0,1-2.8,5.421c-3.344,3.3-8.366,3.73-11.628,1.131L107.292,32.7l.178.181-4.154,4.153-.186-.185-.561-.563-.751-.751,4.151-4.154.2.2,7.434-7.406a7.348,7.348,0,0,1-1.33-2.432,3.62,3.62,0,0,0,1.6.382,3.732,3.732,0,0,0,0-7.464,3.605,3.605,0,0,0-.9.127,9.991,9.991,0,0,1,4.761-4.417,9.1,9.1,0,0,1,4.138-.775c.277.015.553.042.822.082a7.681,7.681,0,0,1,4.355,2.2,7.844,7.844,0,0,1,2.2,6.027" transform="translate(-94.196 -1.961)" fill="#231815"/>
</svg>
