<svg xmlns="http://www.w3.org/2000/svg" xmlns:xlink="http://www.w3.org/1999/xlink" width="42.686" height="42.686" viewBox="0 0 42.686 42.686">
  <defs>
    <clipPath id="clip-path">
      <rect id="Rectangle_196" data-name="Rectangle 196" width="42.686" height="42.686" fill="none"/>
    </clipPath>
  </defs>
  <g id="Group_866" data-name="Group 866" transform="translate(0 0)">
    <g id="Group_865" data-name="Group 865" transform="translate(0 0)" clip-path="url(#clip-path)">
      <path id="Path_1120" data-name="Path 1120" d="M42.686,21.343A21.343,21.343,0,1,1,21.343,0,21.344,21.344,0,0,1,42.686,21.343" transform="translate(0 0)" fill="#f4dc2e"/>
      <path id="Path_1121" data-name="Path 1121" d="M23.044,37.781A14.737,14.737,0,1,1,37.782,23.043,14.737,14.737,0,0,1,23.044,37.781m-.939-11.468a2.811,2.811,0,1,0,2.835,2.811,2.824,2.824,0,0,0-2.835-2.811m-5.4-10.1c.807-1.185.919-2.579.243-3.113s-1.875-.015-2.686,1.168-.917,2.576-.242,3.113,1.874.013,2.685-1.168M18.416,34.03c-1.15-.573-2.212-.743-2.373-.384s.64,1.118,1.791,1.692,2.211.747,2.37.387-.641-1.12-1.788-1.694m-6.9-9.438c-.86.25-1.195,1.553-.744,2.915s1.509,2.259,2.369,2.006,1.2-1.548.749-2.908-1.509-2.262-2.375-2.013M21.6,18.649a3,3,0,1,0,3-3.111,3.058,3.058,0,0,0-3,3.111m1.968-7.529c1.428,0,2.583-.326,2.583-.728S25,9.669,23.569,9.669s-2.584.326-2.584.724,1.157.728,2.584.728m7.851,3.159c-.289.248.222,1.368,1.131,2.5s1.885,1.848,2.17,1.6-.219-1.366-1.132-2.5-1.882-1.851-2.169-1.6m1.357,9.465c-.86-.191-1.886.74-2.288,2.08s-.035,2.578.825,2.767,1.886-.743,2.289-2.084.034-2.574-.826-2.764M27.163,34.455c-1.212.527-2.082,1.218-1.942,1.547s1.238.169,2.449-.355,2.082-1.221,1.942-1.55-1.234-.165-2.449.359" transform="translate(-1.701 -1.701)" fill="#231815"/>
    </g>
  </g>
</svg>
