<svg xmlns="http://www.w3.org/2000/svg" xmlns:xlink="http://www.w3.org/1999/xlink" width="42.686" height="42.686" viewBox="0 0 42.686 42.686">
  <defs>
    <clipPath id="clip-path">
      <rect id="Rectangle_183" data-name="Rectangle 183" width="42.686" height="42.686" fill="none"/>
    </clipPath>
  </defs>
  <g id="Group_830" data-name="Group 830" clip-path="url(#clip-path)">
    <path id="Path_1046" data-name="Path 1046" d="M42.686,21.343A21.343,21.343,0,1,1,21.343,0,21.342,21.342,0,0,1,42.686,21.343" transform="translate(0 0)" fill="#209bad"/>
    <path id="Path_1047" data-name="Path 1047" d="M12.877,25.232c-1.325-.472-4.57-4.275-4.57-5.011,0-.362,4.454-.043,9.741.2l5.436,5.359c-.468-.01-9.477-.147-10.607-.547" transform="translate(-1.701 -4.107)" fill="#231815"/>
    <path id="Path_1048" data-name="Path 1048" d="M37.893,34.78c-2.793,2.8-4.306-.014-6.976-2.678-2.18-2.177-3.121-4.918-2.963-6.281L15.7,13.618l-.08.08a.652.652,0,0,1-.923-.922l1.161-1.162a.652.652,0,0,1,.924.919l-.119.123L28.921,24.864c1.349-.136,4.029.857,6.2,3.026,2.669,2.666,5.605,4.052,2.771,6.89" transform="translate(-2.971 -2.339)" fill="#231815"/>
    <path id="Path_1049" data-name="Path 1049" d="M36.98,25.234a22.428,22.428,0,0,1-5.091.472l-5.157-5.094c6.308-.153,14.819-.851,14.819-.389,0,.736-3.247,4.539-4.572,5.011" transform="translate(-5.473 -4.109)" fill="#231815"/>
  </g>
</svg>
