<svg xmlns="http://www.w3.org/2000/svg" xmlns:xlink="http://www.w3.org/1999/xlink" width="42.686" height="42.686" viewBox="0 0 42.686 42.686">
  <defs>
    <clipPath id="clip-path">
      <rect id="Rectangle_176" data-name="Rectangle 176" width="42.686" height="42.686" fill="none"/>
    </clipPath>
  </defs>
  <g id="Group_816" data-name="Group 816" clip-path="url(#clip-path)">
    <path id="Path_1021" data-name="Path 1021" d="M42.686,21.343A21.343,21.343,0,1,1,21.343,0,21.342,21.342,0,0,1,42.686,21.343" transform="translate(0 0)" fill="#44af35"/>
    <path id="Path_1022" data-name="Path 1022" d="M36.531,9.253a8.57,8.57,0,0,1,3.72,11.535l-2.513.022a6.346,6.346,0,1,0-11.3-5.786L25,12.974A8.567,8.567,0,0,1,36.531,9.253" transform="translate(-5.117 -1.701)" fill="#231815"/>
    <path id="Path_1023" data-name="Path 1023" d="M37.781,40.24l-29.475.011V30.313s9.543-9.939,10.879-9.939,5.453,6.955,6.227,6.955,2.364-3.346,3.622-3.346c1.2,0,8.746,15.109,8.746,15.109Z" transform="translate(-1.7 -4.171)" fill="#231815"/>
  </g>
</svg>
