<svg xmlns="http://www.w3.org/2000/svg" xmlns:xlink="http://www.w3.org/1999/xlink" width="42.686" height="42.686" viewBox="0 0 42.686 42.686">
  <defs>
    <clipPath id="clip-path">
      <rect id="Rectangle_194" data-name="Rectangle 194" width="42.686" height="42.686" fill="none"/>
    </clipPath>
  </defs>
  <g id="Group_862" data-name="Group 862" transform="translate(0 0)">
    <g id="Group_861" data-name="Group 861" transform="translate(0 0)" clip-path="url(#clip-path)">
      <path id="Path_1113" data-name="Path 1113" d="M42.686,21.343A21.343,21.343,0,1,1,21.344,0,21.344,21.344,0,0,1,42.686,21.343" transform="translate(0 0)" fill="#f4dc2e"/>
      <path id="Path_1114" data-name="Path 1114" d="M30.118,37.781,21.021,25.1a8.842,8.842,0,1,1,2.4-1.712l9.1,12.679ZM24.054,19.66c.2-.516-4.03-3-4.178-3.437s1.79-4.715,1.356-5.095-3.988,2.844-4.328,2.828-4.068-3.358-4.411-3.113,1.6,4.745,1.5,5.188S9.712,18.651,9.91,19.2s4.911.2,5.259.378,1.467,5.058,1.886,5.075S18.477,19.929,18.8,19.7s5.048.481,5.251-.037" transform="translate(-1.701 -1.701)" fill="#231815"/>
      <path id="Path_1115" data-name="Path 1115" d="M17.212,42.625l-2.4-1.709,6.54-8.947,1.783,2.473Z" transform="translate(-3.032 -6.545)" fill="#231815"/>
      <path id="Path_1116" data-name="Path 1116" d="M40.236,22.29a8.831,8.831,0,0,1-8.246,3.638l-2.26-3.137a10.8,10.8,0,0,0,1.454-3.139.448.448,0,0,1,.206.043c.325.231,1.326,4.966,1.745,4.95s1.542-4.887,1.89-5.071,5.057.17,5.257-.378S36.292,16.47,36.2,16.03s1.848-4.942,1.5-5.188-4.073,3.1-4.412,3.114c-.247.009-2.215-1.709-3.424-2.486a10.4,10.4,0,0,0-1.5-1.824A8.843,8.843,0,0,1,40.236,22.29" transform="translate(-5.806 -1.701)" fill="#231815"/>
    </g>
  </g>
</svg>
