<svg id="Group_848" data-name="Group 848" xmlns="http://www.w3.org/2000/svg" width="42.686" height="42.686" viewBox="0 0 42.686 42.686">
  <path id="Path_1099" data-name="Path 1099" d="M493.981,21.344A21.343,21.343,0,1,1,472.638,0a21.343,21.343,0,0,1,21.343,21.344" transform="translate(-451.295 0)" fill="#80167d"/>
  <path id="Path_1100" data-name="Path 1100" d="M474.339,37.781a14.737,14.737,0,1,1,14.737-14.736,14.737,14.737,0,0,1-14.737,14.736M463.729,15.834a1.261,1.261,0,0,0-.138-.566,13.419,13.419,0,0,0-1.1,1.81,1.243,1.243,0,0,0,1.237-1.244m-1.3,9.274a1.385,1.385,0,0,0-1.1.542,13.175,13.175,0,0,0,.62,2.152,1.413,1.413,0,0,0,.476.085,1.389,1.389,0,0,0,0-2.779m3.756-11.38a1.129,1.129,0,0,0,1.126-1.128,1.118,1.118,0,0,0-.22-.666,13.714,13.714,0,0,0-1.774,1.386,1.118,1.118,0,0,0,.868.409m.607,2.437a1.4,1.4,0,1,0,1.4-1.4,1.4,1.4,0,0,0-1.4,1.4m-.909,13.163a1.4,1.4,0,1,0,1.4,1.405,1.406,1.406,0,0,0-1.4-1.405m.894-7.739a1.863,1.863,0,1,0,1.863,1.862,1.86,1.86,0,0,0-1.863-1.862m-1.256-2.051a1.446,1.446,0,1,0-1.446,1.443,1.446,1.446,0,0,0,1.446-1.443m10.5-9.651a13.348,13.348,0,0,0-1.682-.1h-.19a1.386,1.386,0,0,0,1.872.1m2.241,4.042a1.387,1.387,0,1,0-1.386-1.383,1.386,1.386,0,0,0,1.386,1.383M471.1,21.588a1.879,1.879,0,1,0-1.878-1.88,1.88,1.88,0,0,0,1.878,1.88m5.546-1.88a1.908,1.908,0,1,0,1.909-1.906,1.907,1.907,0,0,0-1.909,1.906m-1.834-1.649a1.863,1.863,0,1,0-1.864-1.862,1.861,1.861,0,0,0,1.864,1.862m-2.743-4.188a1.373,1.373,0,1,0-1.373-1.373,1.374,1.374,0,0,0,1.373,1.373m12.409,12.654a1.385,1.385,0,0,0,1.385,1.387,1.369,1.369,0,0,0,.965-.391,13.332,13.332,0,0,0,.39-1.292,1.386,1.386,0,0,0-2.741.3m3.121-3.207c0-.091,0-.181,0-.275a13.645,13.645,0,0,0-.13-1.875,1.386,1.386,0,0,0,.126,2.15m-5.332,6.215a1.4,1.4,0,1,0,1.4,1.4,1.4,1.4,0,0,0-1.4-1.4m-.157-7.92a1.966,1.966,0,1,0,1.962,1.968,1.968,1.968,0,0,0-1.962-1.968m-.507-4.1a1.4,1.4,0,1,0-1.4-1.405,1.4,1.4,0,0,0,1.4,1.405m2.18,1.773a1.4,1.4,0,1,0,1.4-1.4,1.4,1.4,0,0,0-1.4,1.4m-13.507,6.6a1.893,1.893,0,1,0,1.892,1.893,1.893,1.893,0,0,0-1.892-1.893M474,29.677a1.893,1.893,0,1,0,1.891,1.893A1.892,1.892,0,0,0,474,29.677m-1.22,6.543a14.351,14.351,0,0,0,1.559.087h.131a1.4,1.4,0,0,0-.9-.332,1.367,1.367,0,0,0-.787.245m-3.217-3.249a1.417,1.417,0,0,0-1.416,1.415,1.4,1.4,0,0,0,.067.426,13.125,13.125,0,0,0,1.989.837,1.416,1.416,0,0,0-.639-2.678m4.957-11.209a2.007,2.007,0,1,0,2.009,2.006,2.007,2.007,0,0,0-2.009-2.006m3.627,11.585a1.386,1.386,0,0,0-.687,2.591,12.608,12.608,0,0,0,1.949-.637,1.344,1.344,0,0,0,.123-.565,1.386,1.386,0,0,0-1.385-1.389m.245-7.4a1.864,1.864,0,1,0,1.864,1.863,1.864,1.864,0,0,0-1.864-1.863" transform="translate(-452.996 -1.7)" fill="#231815"/>
</svg>
