<svg xmlns="http://www.w3.org/2000/svg" xmlns:xlink="http://www.w3.org/1999/xlink" width="42.686" height="42.686" viewBox="0 0 42.686 42.686">
  <defs>
    <clipPath id="clip-path">
      <rect id="Rectangle_165" data-name="Rectangle 165" width="42.686" height="42.686" fill="none"/>
    </clipPath>
  </defs>
  <g id="Group_794" data-name="Group 794" clip-path="url(#clip-path)">
    <path id="Path_975" data-name="Path 975" d="M42.686,21.343A21.343,21.343,0,1,1,21.343,0,21.343,21.343,0,0,1,42.686,21.343" transform="translate(0 0)" fill="#ed7700"/>
    <path id="Path_976" data-name="Path 976" d="M35.784,37.721,30.673,23.867A6.272,6.272,0,0,0,25.784,26.4,7.757,7.757,0,0,1,20.1,29.851l-7.512.876S8.875,17.885,8.307,16.222a14.432,14.432,0,0,0,9.745-2.815c1.671-1.177,4.373-5.421,9.036-4.965L37.781,37.721ZM12.217,25.568c.2.9,1.161,3.944,1.161,3.944s3.176-.519,6.345-.806L18.5,24.673s-.868.527-6.288.9M23.983,20.69l-1.626-4.635s-2.912,3.357-5.211,3.974l-1.264-3.89A15.253,15.253,0,0,1,9.649,17.3l1.216,3.828a26.35,26.35,0,0,0,6.256-1.086c.061.236,1.33,4.632,1.33,4.632A8.426,8.426,0,0,0,24,20.728c.14.411,1.513,4.249,1.513,4.249A7.877,7.877,0,0,1,31.2,22.53l-1.566-4.161a5.375,5.375,0,0,0-5.647,2.321m-3.065-8.383c.744,1.851,1.463,3.777,1.463,3.777s2.581-3.291,5.5-2.56c-.029-.136-1.464-4.019-1.464-4.019s-2.891-.28-5.5,2.8" transform="translate(-1.701 -1.722)" fill="#231815"/>
  </g>
</svg>
