<svg xmlns="http://www.w3.org/2000/svg" xmlns:xlink="http://www.w3.org/1999/xlink" width="42.686" height="42.686" viewBox="0 0 42.686 42.686">
  <defs>
    <clipPath id="clip-path">
      <rect id="Rectangle_197" data-name="Rectangle 197" width="42.686" height="42.686" fill="none"/>
    </clipPath>
  </defs>
  <g id="Group_868" data-name="Group 868" transform="translate(0 0)">
    <g id="Group_867" data-name="Group 867" transform="translate(0 0)" clip-path="url(#clip-path)">
      <path id="Path_1122" data-name="Path 1122" d="M42.686,21.343A21.343,21.343,0,1,1,21.343,0,21.343,21.343,0,0,1,42.686,21.343" transform="translate(0 0)" fill="#f4dc2e"/>
      <path id="Path_1123" data-name="Path 1123" d="M23.043,37.78A14.735,14.735,0,1,1,37.78,23.044,14.736,14.736,0,0,1,23.043,37.78M26.3,21.76a2.525,2.525,0,1,0,2.523,2.525A2.527,2.527,0,0,0,26.3,21.76m.872-5.829A2.066,2.066,0,1,0,25.11,18a2.065,2.065,0,0,0,2.066-2.068m4.315.229a1.928,1.928,0,1,0,1.928,1.928,1.928,1.928,0,0,0-1.928-1.928" transform="translate(-1.701 -1.701)" fill="#231815"/>
    </g>
  </g>
</svg>
