<svg xmlns="http://www.w3.org/2000/svg" xmlns:xlink="http://www.w3.org/1999/xlink" width="42.686" height="42.686" viewBox="0 0 42.686 42.686">
  <defs>
    <clipPath id="clip-path">
      <rect id="Rectangle_216" data-name="Rectangle 216" width="42.686" height="42.686" fill="none"/>
    </clipPath>
  </defs>
  <g id="Group_906" data-name="Group 906" transform="translate(0 0)">
    <g id="Group_905" data-name="Group 905" transform="translate(0 0)" clip-path="url(#clip-path)">
      <path id="Path_1203" data-name="Path 1203" d="M42.686,21.343A21.343,21.343,0,1,1,21.343,0,21.343,21.343,0,0,1,42.686,21.343" transform="translate(0 0)" fill="#e50012"/>
      <path id="Path_1204" data-name="Path 1204" d="M29.252,26.664c-.293.971,4.1,10.786,3.077,11.45S23.794,31.5,22.914,31.5s-8.686,7.179-9.415,6.615,3.469-10.685,3.079-11.45-9.24-6.135-8.9-7.367S18.267,19.5,19,18.837,21.989,7.666,22.914,7.666s3.331,10.711,3.917,11.171,11.029-.77,11.32.46-8.606,6.395-8.9,7.367" transform="translate(-1.57 -1.57)" fill="#231815"/>
    </g>
  </g>
</svg>
