<svg xmlns="http://www.w3.org/2000/svg" xmlns:xlink="http://www.w3.org/1999/xlink" width="42.686" height="42.686" viewBox="0 0 42.686 42.686">
  <defs>
    <clipPath id="clip-path">
      <rect id="Rectangle_175" data-name="Rectangle 175" width="42.686" height="42.686" fill="none"/>
    </clipPath>
  </defs>
  <g id="Group_814" data-name="Group 814" clip-path="url(#clip-path)">
    <path id="Path_1011" data-name="Path 1011" d="M42.686,21.343A21.343,21.343,0,1,1,21.343,0,21.343,21.343,0,0,1,42.686,21.343" transform="translate(0 0)" fill="#44af35"/>
    <path id="Path_1012" data-name="Path 1012" d="M22.981,25.835c-2.753-2.085-5.56-1.863-8.5-3.614a12.414,12.414,0,0,1-4.335-5.478c-1.933-3.89,1.213-8.724,7.518-6.668a17.1,17.1,0,0,1,6.223,3.755c3.856,3.568,3.393,5.655,6.008,9.021L24.045,27.2a6.642,6.642,0,0,0-1.064-1.366M21.2,13.348c-3.717-2.756-7.674-3.065-9.5-1.263-1.928,1.918.1,6.637,3.42,9,3.568,2.534,8.9,1.982,10.047.982C26.9,20.56,24.922,16.1,21.2,13.348" transform="translate(-1.962 -1.963)" fill="#231815" fill-rule="evenodd"/>
    <path id="Path_1013" data-name="Path 1013" d="M13.942,17.617c-.851-1.616-1.181-3.323-.46-3.968.965-.859,2.9-.842,4.838-.2Z" transform="translate(-2.679 -2.658)" fill="#231815" fill-rule="evenodd"/>
    <path id="Path_1014" data-name="Path 1014" d="M16.191,20.315a8.164,8.164,0,0,1-1.1-1.237l5.031-4.785c.394.191,1.356.8,1.464.88Z" transform="translate(-3.09 -2.926)" fill="#231815" fill-rule="evenodd"/>
    <path id="Path_1015" data-name="Path 1015" d="M17.923,21.576l5.3-5.04a11.215,11.215,0,0,1,1.094,1.235l-4.766,4.537a9.808,9.808,0,0,1-1.624-.732" transform="translate(-3.669 -3.386)" fill="#231815" fill-rule="evenodd"/>
    <path id="Path_1016" data-name="Path 1016" d="M26.377,23.006c-.542.5-2.383.737-4.456.338l3.99-3.8c.837,1.451,1.142,2.843.466,3.461" transform="translate(-4.488 -4.002)" fill="#231815" fill-rule="evenodd"/>
    <path id="Path_1017" data-name="Path 1017" d="M39.508,39.82c-1.616,1.366-4.357,1.411-5.677.134-2.3-1.916-3.56-4.6-4.678-6.846l6.231-4.694a31.487,31.487,0,0,0,2.372,2.2c5.512,4.939,2.589,8.4,1.752,9.206m-6.37-8.094c-1.5,1.1-1.407,3.564.013,5.5s3.627,2.622,5.13,1.518,1.407-3.563-.014-5.5-3.623-2.622-5.128-1.519" transform="translate(-5.968 -5.817)" fill="#231815" fill-rule="evenodd"/>
    <path id="Path_1018" data-name="Path 1018" d="M38.45,38.588c-.972.709-2.4.27-3.313-.982s-.979-2.843-.01-3.554,2.4-.274,3.312.978.981,2.846.011,3.558" transform="translate(-7.047 -6.902)" fill="#231815" fill-rule="evenodd"/>
    <path id="Path_1019" data-name="Path 1019" d="M14.73,41.969l-1.862.266L12.5,39.7l-2.648.381-.269-1.867,2.648-.379L11.864,35.3l1.86-.266.368,2.531,2.647-.378.271,1.867-2.647.381Z" transform="translate(-1.962 -7.173)" fill="#231815" fill-rule="evenodd"/>
    <path id="Path_1020" data-name="Path 1020" d="M39.529,13.983l.367,2.535-1.86.266-.369-2.531-2.646.381-.27-1.869,2.647-.381L37.032,9.85l1.86-.266.367,2.532,2.65-.384.268,1.871Z" transform="translate(-7.114 -1.963)" fill="#231815" fill-rule="evenodd"/>
  </g>
</svg>
