<svg xmlns="http://www.w3.org/2000/svg" xmlns:xlink="http://www.w3.org/1999/xlink" width="42.686" height="42.686" viewBox="0 0 42.686 42.686">
  <defs>
    <clipPath id="clip-path">
      <rect id="Rectangle_224" data-name="Rectangle 224" width="42.686" height="42.686" fill="none"/>
    </clipPath>
  </defs>
  <g id="Group_922" data-name="Group 922" transform="translate(0 0)">
    <g id="Group_921" data-name="Group 921" transform="translate(0 0)" clip-path="url(#clip-path)">
      <path id="Path_1227" data-name="Path 1227" d="M42.686,21.343A21.343,21.343,0,1,1,21.344,0,21.344,21.344,0,0,1,42.686,21.343" transform="translate(0 0)" fill="#d8ac55"/>
      <path id="Path_1228" data-name="Path 1228" d="M37.727,30.108c-.27,1.368-1.147,5.413-2.492,5.946a10.976,10.976,0,0,1-5.321-.1c-1.123-.339-3.149.149-3.972-.445A4.971,4.971,0,0,1,24.3,32.092a5.4,5.4,0,0,1,.16-.721A7.813,7.813,0,0,1,23.4,31.2s-6.1,1.474-10.584.872c-1.618-.279-2.894-.935-3.423-2.16a14.578,14.578,0,0,1-.977-6.968,23.819,23.819,0,0,1,.794-3.911c.466-1.421,1.6-3.412,3.124-3.645s2.049.143,3.093-.126,2.135-1.645,3.142-2.057,2.823.5,3.246.113S24.5,10.64,25.37,10.74c2.6.052,2,.856,4.018,2.036s4.24-.858,5.388.346,2.737,2.741,2.49,4.165c-.317,1.851.365,9.155-.437,9.374.332.792,1.169,2.076.9,3.447m-11.057.558a4.318,4.318,0,0,0-.928,2.129,2.659,2.659,0,0,0,1.229,1.941c1.053.037,5.145-.362,5.22-2.1,0-2.35-5.521-1.974-5.521-1.974m7.947-3.375s-3.064.412-4.311-1.6-.575-4.341-.55-9.164c0,0-1.577.45-1.991,9.512.026.952-1.174,1.8-2.585,1.656-1.569-.163-3.473-.415-3.113-10.825,0,0-2.307,2.506-1.479,9.822,0,0-.238,2.3-2.359,2.356-1.823.05-2.519-.912-2.65-1.354-.087-.786-.918-5.461-.331-8.342,0,0-2.32,1.439-1.789,9.516-.076.338-.6,1.981-1.9,1.808,1.226,1.341,3.117-1.178,3.117-1.178s1.5,1.826,3.212,1.732a5.029,5.029,0,0,0,4.087-2.5c1.8,2.172,2.807,1.828,3.117,1.458a4.262,4.262,0,0,1,2.033-1.062A23.27,23.27,0,0,1,35,28.446a1.213,1.213,0,0,0-.386-1.156" transform="translate(-1.701 -2.199)" fill="#231815"/>
      <path id="Path_1229" data-name="Path 1229" d="M28.617,36.68a.049.049,0,0,0,.014-.006s0-.019-.014.006" transform="translate(-5.859 -7.507)" fill="#231815"/>
    </g>
  </g>
</svg>
