<svg xmlns="http://www.w3.org/2000/svg" xmlns:xlink="http://www.w3.org/1999/xlink" width="42.686" height="42.686" viewBox="0 0 42.686 42.686">
  <defs>
    <clipPath id="clip-path">
      <rect id="Rectangle_164" data-name="Rectangle 164" width="42.686" height="42.686" fill="none"/>
    </clipPath>
  </defs>
  <g id="Group_792" data-name="Group 792" clip-path="url(#clip-path)">
    <path id="Path_972" data-name="Path 972" d="M42.686,21.343A21.343,21.343,0,1,1,21.343,0,21.343,21.343,0,0,1,42.686,21.343" transform="translate(0 0)" fill="#ed7700"/>
    <path id="Path_973" data-name="Path 973" d="M23.043,37.779A14.736,14.736,0,1,1,37.781,23.044,14.736,14.736,0,0,1,23.043,37.779m0-25.823a11.089,11.089,0,1,0,11.09,11.09,11.089,11.089,0,0,0-11.09-11.09" transform="translate(-1.701 -1.701)" fill="#231815"/>
    <path id="Path_974" data-name="Path 974" d="M18.9,29.623l6.364-10.847,6.255,10.847Z" transform="translate(-3.869 -3.844)" fill="#231815"/>
  </g>
</svg>
