<svg xmlns="http://www.w3.org/2000/svg" xmlns:xlink="http://www.w3.org/1999/xlink" width="42.686" height="42.686" viewBox="0 0 42.686 42.686">
  <defs>
    <clipPath id="clip-path">
      <rect id="Rectangle_184" data-name="Rectangle 184" width="42.686" height="42.686" fill="none"/>
    </clipPath>
  </defs>
  <g id="Group_832" data-name="Group 832" clip-path="url(#clip-path)">
    <path id="Path_1050" data-name="Path 1050" d="M42.686,21.343A21.343,21.343,0,1,1,21.343,0,21.343,21.343,0,0,1,42.686,21.343" transform="translate(0 0)" fill="#209bad"/>
    <path id="Path_1051" data-name="Path 1051" d="M37.715,26.285,26.969,33.117,17.026,8.308C34.8,9.262,37.715,26.285,37.715,26.285" transform="translate(-3.486 -1.701)" fill="#231815"/>
    <path id="Path_1052" data-name="Path 1052" d="M37.229,43.647a8.118,8.118,0,0,1-3.138.756c-1.059,0-2.3-1.645-3.647-1.645-1.17,0-2.426,1.645-3.717,1.645-1.2,0-2.445-1.645-3.685-1.645s-2.5,1.645-3.719,1.645c-1.268,0-2.5-1.645-3.648-1.645-1.363,0-2.615,1.68-3.683,1.68a8.553,8.553,0,0,1-3.162-.751c-.73-.262-.74-1.606.247-1.618a9.808,9.808,0,0,0,2.949.441c1.07,0,2.322-1.684,3.684-1.684,1.152,0,2.379,1.65,3.65,1.65,1.193,0,2.418-1.65,3.646-1.65,1.265,0,2.527,1.65,3.753,1.65,1.268,0,2.5-1.65,3.651-1.65,1.362,0,2.612,1.65,3.681,1.65a10.068,10.068,0,0,0,2.814-.39c1.136-.153,1.082,1.413.324,1.562" transform="translate(-1.701 -8.358)" fill="#231815"/>
  </g>
</svg>
