<svg xmlns="http://www.w3.org/2000/svg" xmlns:xlink="http://www.w3.org/1999/xlink" width="42.686" height="42.686" viewBox="0 0 42.686 42.686">
  <defs>
    <clipPath id="clip-path">
      <rect id="Rectangle_220" data-name="Rectangle 220" width="42.686" height="42.686" fill="none"/>
    </clipPath>
  </defs>
  <g id="Group_914" data-name="Group 914" transform="translate(0 0)">
    <g id="Group_913" data-name="Group 913" transform="translate(0 0)" clip-path="url(#clip-path)">
      <path id="Path_1215" data-name="Path 1215" d="M42.686,21.343A21.343,21.343,0,1,1,21.343,0,21.342,21.342,0,0,1,42.686,21.343" transform="translate(0 0)" fill="#3061ac"/>
      <path id="Path_1216" data-name="Path 1216" d="M34.958,37.37c-.815.453-21.486.407-23.121-.226-1.722-1.543-1.632-4.761-1.632-4.761.028.026.715-1.341.715-1.341-2.236-2.057-1.024-6.14-.868-7.065.226-1.321,4.147-12.113,4.147-12.113A4.109,4.109,0,0,1,15.142,8.7c1.09-1.009,2.278,2.038,2.5,1.884a6.955,6.955,0,0,1,4.993,1.248c1.657-.7,5.16-4.12,1.962,5.928-.841,2.643.414,2.942.791,3.281s4,4.036,6.256,4.3,4.449,2.678,4.3,4.263c-.075.775-.263,1.016-.525,1.1-.173.1-.354.2-.541.293,0,0,1.5.9,1.532.853,1.723,3.987-.634,5.076-1.452,5.53M17.082,32.02l-.629,1.988c5.755.651,13.817.522,17.768-.8l-2.236-1.234c-4.425,1-10.435.6-14.9.046m8.913-8.684-2.2-1.621-5.731,5.729,3.289.458Z" transform="translate(-1.962 -1.738)" fill="#231815"/>
    </g>
  </g>
</svg>
