<svg xmlns="http://www.w3.org/2000/svg" xmlns:xlink="http://www.w3.org/1999/xlink" width="42.686" height="42.686" viewBox="0 0 42.686 42.686">
  <defs>
    <clipPath id="clip-path">
      <rect id="Rectangle_221" data-name="Rectangle 221" width="42.686" height="42.686" fill="none"/>
    </clipPath>
  </defs>
  <g id="Group_916" data-name="Group 916" transform="translate(0 0)">
    <g id="Group_915" data-name="Group 915" transform="translate(0 0)" clip-path="url(#clip-path)">
      <path id="Path_1217" data-name="Path 1217" d="M42.686,21.343A21.343,21.343,0,1,1,21.344,0,21.343,21.343,0,0,1,42.686,21.343" transform="translate(0 0)" fill="#3061ac"/>
      <path id="Path_1218" data-name="Path 1218" d="M34.86,11.89l.78.783.784-.783.8.8-.783.78.774.777-.8.8-.778-.777-.774.777-.8-.8.775-.777-.783-.78Z" transform="translate(-6.973 -2.435)" fill="#231815"/>
      <path id="Path_1219" data-name="Path 1219" d="M11.687,19.125l.94.939.937-.939.958.958-.934.939.928.933-.96.958-.93-.932-.93.932-.961-.958.932-.933-.938-.939Z" transform="translate(-2.196 -3.916)" fill="#231815"/>
      <path id="Path_1220" data-name="Path 1220" d="M9.093,28.042c9.1-5.018,20.539-8.163,27.2-9.865,1.216-.265,2.1,1.214.866,1.975-6.48,1.824-17.466,5.341-26.99,10.467-1.434.339-2.542-1.248-1.072-2.577" transform="translate(-1.719 -3.715)" fill="#231815"/>
      <path id="Path_1221" data-name="Path 1221" d="M35.938,38.78l-1,1-.97-.969L33,39.779l-1-1,.969-.973-.976-.974,1-1,.975.977.978-.977,1,1-.977.974Z" transform="translate(-6.55 -7.336)" fill="#231815"/>
      <path id="Path_1222" data-name="Path 1222" d="M37.06,25.423c-6.909,2.47-17.97,6.87-26.557,12.407-1.385.525-3.269-1.3-1.438-3.172,8.143-4.819,19.454-9.093,26.771-11.615a1.338,1.338,0,1,1,1.223,2.38" transform="translate(-1.701 -4.692)" fill="#231815"/>
    </g>
  </g>
</svg>
