<svg xmlns="http://www.w3.org/2000/svg" xmlns:xlink="http://www.w3.org/1999/xlink" width="42.686" height="42.686" viewBox="0 0 42.686 42.686">
  <defs>
    <clipPath id="clip-path">
      <rect id="Rectangle_167" data-name="Rectangle 167" width="42.686" height="42.686" fill="none"/>
    </clipPath>
  </defs>
  <g id="Group_798" data-name="Group 798" clip-path="url(#clip-path)">
    <path id="Path_979" data-name="Path 979" d="M42.686,21.343A21.343,21.343,0,1,1,21.344,0,21.343,21.343,0,0,1,42.686,21.343" transform="translate(0 0)" fill="#ed7700"/>
    <path id="Path_980" data-name="Path 980" d="M35.5,33.1a3.907,3.907,0,0,1-3.529-2.236H12.989a3.916,3.916,0,1,1,.376-1.677c0,.056,0,.111-.007.166h3.25c-.447-.08-.705-.128-.705-.128-1.286-1.187-.592-3.54-.5-4.069.13-.763,2.39-6.983,2.39-6.983a2.35,2.35,0,0,1,.541-1.823c.63-.583,1.317,1.175,1.445,1.089a3.971,3.971,0,0,1,2.876.716c.954-.4,2.971-2.372,1.129,3.41-.484,1.526.235,1.7.454,1.892s2.3,2.322,3.6,2.476,2.562,1.544,2.473,2.457c-.04.446-.152.581-.3.632a5.2,5.2,0,0,1-.674.331H31.6c0-.056-.006-.11-.006-.166A3.912,3.912,0,1,1,35.5,33.1m0-5.69a1.779,1.779,0,1,0,1.78,1.777A1.778,1.778,0,0,0,35.5,27.41m-26.051,0a1.779,1.779,0,1,0,1.781,1.777A1.779,1.779,0,0,0,9.452,27.41m10.565-.261,1.892.264,2.674-2.628-1.267-.934Z" transform="translate(-1.134 -3.323)" fill="#231815"/>
  </g>
</svg>
