<svg xmlns="http://www.w3.org/2000/svg" xmlns:xlink="http://www.w3.org/1999/xlink" width="42.686" height="42.686" viewBox="0 0 42.686 42.686">
  <defs>
    <clipPath id="clip-path">
      <rect id="Rectangle_206" data-name="Rectangle 206" width="42.686" height="42.686" fill="none"/>
    </clipPath>
  </defs>
  <g id="Group_886" data-name="Group 886" transform="translate(0 0)">
    <g id="Group_885" data-name="Group 885" transform="translate(0 0)" clip-path="url(#clip-path)">
      <path id="Path_1157" data-name="Path 1157" d="M42.686,21.343A21.343,21.343,0,1,1,21.343,0,21.343,21.343,0,0,1,42.686,21.343" transform="translate(0 0)" fill="#e50012"/>
      <path id="Path_1158" data-name="Path 1158" d="M31.538,33.822c-6.349-.045-6.214-6.911-6.2-6.911l-6.845-2.963a5.635,5.635,0,1,1,.973-2.254l6.617,2.865a6.24,6.24,0,1,1,5.456,9.263M13.864,17.07A4.044,4.044,0,0,0,9.82,21.113a4.551,4.551,0,0,1,8.086,0,4.044,4.044,0,0,0-4.042-4.044m17.644,6.19a4.291,4.291,0,0,0-4.287,4.289,4.824,4.824,0,0,1,8.575,0,4.29,4.29,0,0,0-4.288-4.289" transform="translate(-1.7 -3.073)" fill="#231815"/>
    </g>
  </g>
</svg>
