<svg xmlns="http://www.w3.org/2000/svg" xmlns:xlink="http://www.w3.org/1999/xlink" width="42.686" height="42.686" viewBox="0 0 42.686 42.686">
  <defs>
    <clipPath id="clip-path">
      <rect id="Rectangle_217" data-name="Rectangle 217" width="42.686" height="42.686" fill="none"/>
    </clipPath>
  </defs>
  <g id="Group_908" data-name="Group 908" transform="translate(0 0)">
    <g id="Group_907" data-name="Group 907" transform="translate(0 0)" clip-path="url(#clip-path)">
      <path id="Path_1205" data-name="Path 1205" d="M42.686,21.343A21.343,21.343,0,1,1,21.343,0,21.342,21.342,0,0,1,42.686,21.343" transform="translate(0 0)" fill="#3061ac"/>
      <path id="Path_1206" data-name="Path 1206" d="M28.654,10.629l.855.857.856-.857.875.876-.853.856.849.849-.876.88-.849-.85-.85.85-.876-.88.851-.849-.857-.856Z" transform="translate(-5.686 -2.176)" fill="#231815"/>
      <path id="Path_1207" data-name="Path 1207" d="M14.308,27.574l-1.062,1.064-1.1-1.1,1.062-1.06L12.14,25.41l1.1-1.1,1.07,1.071,1.07-1.071,1.093,1.1L15.4,26.481l1.062,1.06-1.1,1.1Z" transform="translate(-2.485 -4.978)" fill="#231815"/>
      <path id="Path_1208" data-name="Path 1208" d="M18.55,37.941a12.367,12.367,0,0,1-1.715-6.066C16.8,29.2,21.925,26.381,21.6,23.212c-.34-3.337-6.587-6.1-6.872-8.868-.332-3.238,3.639-6.376,5.02-7.36,1.053-.754,2.188-.421.862.872-1.46,1.333-3.472,3.656-3.216,6.16.287,2.8,7.155,5.5,7.5,8.868.327,3.2-4.3,6.183-4.031,8.843a15.236,15.236,0,0,0,1.488,5c.511,2.921-3.44,2.227-3.8,1.215" transform="translate(-3.011 -1.349)" fill="#231815"/>
      <path id="Path_1209" data-name="Path 1209" d="M29.342,30.889a18.331,18.331,0,0,0,2.267,5.293c1.341,3.5-3.246,2.818-3.63,1.667a14.523,14.523,0,0,1-2.624-6.384c-.317-2.647,4.466-6.009,3.8-9.127-.7-3.275-7.209-5.351-7.791-8.074-.635-2.976,2.124-5.945,3.4-7.13C26.111,5.881,26.689,7,26.04,7.6c-1.083,1.241-2.6,3.514-2.059,6.052.587,2.748,7.708,4.691,8.414,8,.671,3.14-3.612,6.615-3.053,9.232" transform="translate(-4.355 -1.344)" fill="#231815"/>
      <path id="Path_1210" data-name="Path 1210" d="M40.3,38.5l-1.2,1.206-1.167-1.169L36.759,39.7,35.552,38.5l1.166-1.165-1.173-1.176,1.2-1.21,1.178,1.178L39.1,34.945l1.2,1.21L39.13,37.331Z" transform="translate(-7.277 -7.155)" fill="#231815"/>
    </g>
  </g>
</svg>
