<svg xmlns="http://www.w3.org/2000/svg" xmlns:xlink="http://www.w3.org/1999/xlink" width="42.686" height="42.686" viewBox="0 0 42.686 42.686">
  <defs>
    <clipPath id="clip-path">
      <rect id="Rectangle_171" data-name="Rectangle 171" width="42.686" height="42.686" fill="none"/>
    </clipPath>
  </defs>
  <g id="Group_806" data-name="Group 806" clip-path="url(#clip-path)">
    <path id="Path_996" data-name="Path 996" d="M42.686,21.343A21.343,21.343,0,1,1,21.343,0,21.342,21.342,0,0,1,42.686,21.343" transform="translate(0 0)" fill="#44af35"/>
    <path id="Path_997" data-name="Path 997" d="M12.97,16.882c-.732-1.333-1.375-3.44-.5-4.249,1.152-1.082,3.56-.794,5.19-.235Z" transform="translate(-2.466 -2.437)" fill="#231815"/>
    <path id="Path_998" data-name="Path 998" d="M14.209,18.467l5.4-5.162c.324.15,1.268.8,1.564.974L15.389,19.8a7.5,7.5,0,0,1-1.18-1.328" transform="translate(-2.909 -2.724)" fill="#231815"/>
    <path id="Path_999" data-name="Path 999" d="M26.322,22.7c-.589.561-2.566.8-4.807.352l4.307-4.068c.912,1.532,1.208,3.039.5,3.716" transform="translate(-4.405 -3.886)" fill="#231815"/>
    <path id="Path_1000" data-name="Path 1000" d="M18.99,21.94a9.139,9.139,0,0,1-1.741-.8l5.693-5.428,1.18,1.327Z" transform="translate(-3.531 -3.218)" fill="#231815"/>
    <path id="Path_1001" data-name="Path 1001" d="M37.6,31.456a10.452,10.452,0,0,0-3.333-4.72c-4.284-3.546-4.228-3.879-6.873-8.964a15.232,15.232,0,0,0-3.747-4.924c-4.627-4.629-13.12-6.816-15.071-1.094-.9,2.482.593,5.461,2.476,7.818,1.97,2.458,3.831,3.106,7.169,4.069a9.9,9.9,0,0,1,4.454,2.093,17.519,17.519,0,0,1,2.33,3.687c2.4,4.791,4.609,8.437,7.993,8.347a4.9,4.9,0,0,0,4.6-6.312M25.034,21.695c-1.2.958-4.359,1.042-6.548.648a10.791,10.791,0,0,1-8.2-6.724c-.739-1.859-.767-3.628.266-4.662,2.341-2.338,6.823-1.079,10.2,1.358,3.16,2.372,6.493,7.441,4.277,9.379m9.793,13.773c-1.761,1.257-4.2.279-5.516-1.622-1.419-1.89-1.727-4.671-.031-5.928,1.73-1.234,3.988-.387,5.517,1.652,1.435,2.01,1.754,4.621.03,5.9" transform="translate(-1.701 -1.704)" fill="#231815"/>
    <path id="Path_1002" data-name="Path 1002" d="M39.278,39.443c-1.149.878-2.744.082-3.54-1.062-1.031-1.327-1.06-3.009-.029-3.8,1.062-.736,2.595-.3,3.569,1.033,1.034,1.385,1.06,3.037,0,3.833" transform="translate(-7.155 -7.006)" fill="#231815"/>
  </g>
</svg>
