<svg xmlns="http://www.w3.org/2000/svg" width="42.686" height="42.686" viewBox="0 0 42.686 42.686">
  <g id="Group_842" data-name="Group 842" transform="translate(0 0)">
    <path id="Path_1081" data-name="Path 1081" d="M42.686,21.344A21.343,21.343,0,1,1,21.343,0,21.343,21.343,0,0,1,42.686,21.344" transform="translate(0 0)" fill="#80167d"/>
    <path id="Path_1082" data-name="Path 1082" d="M39.467,37.432A6.258,6.258,0,1,1,32.861,28.3l-.006-.006.01-.01c0,.01,0,.015,0,.015a2.977,2.977,0,0,1-.294,2.846c-.65,1.232-1.789,1.016-2.964,3.066-1.132,2.429,2.16,4.306,2.16,4.306s3.3,1.75,4.725-.639c1.024-1.72.508-3.244.851-4.173a3.264,3.264,0,0,1,2.358-1.76,6.248,6.248,0,0,1-.23,5.488" transform="translate(-5.672 -5.79)" fill="#231815"/>
    <path id="Path_1083" data-name="Path 1083" d="M34.574,28.139a6.534,6.534,0,0,1,3.082.783,6.258,6.258,0,0,1,2.314,2.161,4.683,4.683,0,0,0-1.881,1.066,4.2,4.2,0,0,0-.818,1.082c-.506.946-.033,3.018-.9,4.147s-2.379.74-3.419.175-2.07-1.888-1.677-2.931c.425-1.13,2.208-1.956,2.826-3.066a9.612,9.612,0,0,0,.476-3.417" transform="translate(-6.384 -5.761)" fill="#231815"/>
    <path id="Path_1084" data-name="Path 1084" d="M36.8,19.148a12.67,12.67,0,0,1-2.372,4.578c-.139-.087-.275-.178-.422-.258a8.094,8.094,0,0,0-3.861-.973c-.262,0-.523.014-.783.04a7.268,7.268,0,0,0-.767.115,8.12,8.12,0,0,0-2.195.771,8,8,0,0,0-2.375,1.891,8.765,8.765,0,0,1-3.79-4.329c0,.608-.3,5.488-.3,5.488l3.512-.4c-.146.214-.283.444-.411.677a8.125,8.125,0,0,0-.551,1.295c-.557.087-1.108.18-1.574.269-.194.037-.372.071-.533.106a7.236,7.236,0,0,0-3.132,2.078c-.353.352-.707.736-1.068,1.145-.54.612-1.083,1.276-1.638,1.966-.37.462-.743.932-1.12,1.4q-.283.357-.573.712c-.382.474-.767.945-1.16,1.408-.364-.353-1.78-1.657-2.1-2.063,1.131-1.057,2.3-2.048,3.4-3,.221-.193.436-.384.65-.572a25.085,25.085,0,0,0,2.778-2.786A6.859,6.859,0,0,0,17.9,25.879c.132-.994.4-2.807.44-3.95.181-6.206,4.157-12.442,9.935-12.514s9.757,5.555,8.522,9.733" transform="translate(-1.962 -1.927)" fill="#231815"/>
  </g>
</svg>
