<svg xmlns="http://www.w3.org/2000/svg" xmlns:xlink="http://www.w3.org/1999/xlink" width="42.686" height="42.686" viewBox="0 0 42.686 42.686">
  <defs>
    <clipPath id="clip-path">
      <rect id="Rectangle_193" data-name="Rectangle 193" width="42.686" height="42.686" fill="none"/>
    </clipPath>
  </defs>
  <g id="Group_860" data-name="Group 860" transform="translate(0 0)">
    <g id="Group_859" data-name="Group 859" transform="translate(0 0)" clip-path="url(#clip-path)">
      <path id="Path_1111" data-name="Path 1111" d="M42.686,21.343A21.343,21.343,0,1,1,21.343,0,21.344,21.344,0,0,1,42.686,21.343" transform="translate(0 0)" fill="#f4dc2e"/>
      <path id="Path_1112" data-name="Path 1112" d="M23.043,37.78A14.735,14.735,0,1,1,37.781,23.043,14.734,14.734,0,0,1,23.043,37.78M33.062,13.547a.455.455,0,0,0-.015-.064c-.11-.313-.756-.513-1.055-.59l-.142-.479-.794.235.269.9c-.1.153-.217.325-.328.5l-.238-.573-.818.34.48,1.164c-.119.21-.233.411-.337.611l-.343-.631-.837.451.658,1.217c-.136.289-.249.545-.352.786l-.519-.759-.849.579.926,1.345c-.087.259-.164.506-.235.75l-.553-.649-.807.688,1.048,1.233c-.056.283-.1.55-.144.806l-.558-.53-.762.8,1.171,1.113c-.017.238-.023.456-.029.659L27.3,23l-.7.9,1.334,1.027c.019.265.045.522.074.763l-.655-.4-.577.938,1.458.9c.03.15.064.3.1.451l-.539-.259-.458.96,1.361.65c.052.17.109.345.175.532l-.513-.181-.345.965,1.344.478c.084.193.175.392.274.6l-.41-.1L29,32.154l1.218.293c.083.145.167.288.252.428l-.278-.037-.116.879,1.136.15L32.4,33.2l.472-1.141-.819-.34-.191.466c-.084-.139-.157-.268-.229-.4l.605-1.123-.837-.455-.289.536c-.084-.188-.157-.359-.228-.526l.842-1.231-.844-.579-.423.619c-.052-.159-.095-.309-.138-.461l1.015-1.191-.806-.687-.518.6c-.033-.161-.061-.328-.09-.49l1.122-1.07-.76-.8-.539.515c-.019-.185-.035-.357-.046-.522l1.4-1.075-.7-.911-.743.572c0-.19.014-.383.022-.563l0-.045,1.346-.825-.577-.942-.647.4c.032-.238.072-.491.117-.752l1.267-.6-.458-.961-.516.249c.055-.205.117-.418.188-.648l1.176-.415-.344-.966-.392.14c.062-.154.13-.312.2-.48l1.129-.272-.222-.924-.371.091c.076-.146.159-.3.251-.457l.938-.125-.115-.877-.219.028c.037-.055.079-.112.121-.173l.919-.024-.024-.828ZM19.152,23.9l-.7-.9-.594.456c0-.212-.015-.427-.028-.659L19,21.682l-.762-.8-.558.53c-.039-.251-.088-.519-.146-.8l1.05-1.235-.807-.688-.553.649c-.071-.244-.15-.492-.235-.75l.923-1.345-.844-.579-.519.759c-.106-.246-.221-.506-.353-.786l.658-1.217-.837-.451-.342.631c-.1-.2-.219-.4-.34-.611l.481-1.164L15,13.481l-.238.573c-.1-.162-.209-.324-.327-.5l.264-.9-.793-.235-.15.508-.916.63-.534-.016-.025.828.922.024c.045.063.082.12.121.173l-.22-.028-.117.877.938.125c.091.156.174.31.253.457l-.371-.091-.222.924,1.125.272c.074.168.14.325.2.48l-.39-.14-.344.966,1.175.415c.055.186.123.41.188.648l-.515-.249-.458.961,1.264.6c.049.262.088.514.119.752l-.645-.4-.579.942,1.345.825,0,.045c.008.185.018.373.021.563l-.74-.572-.7.911,1.4,1.075c-.013.182-.029.358-.045.522l-.54-.515-.763.8,1.125,1.07c-.025.157-.055.317-.091.49l-.513-.6-.81.687,1.014,1.191c-.041.146-.088.3-.136.461l-.424-.619-.845.579.842,1.231c-.068.168-.144.339-.227.526l-.289-.536-.837.455.605,1.123c-.072.132-.151.266-.23.4l-.192-.466-.82.34.472,1.141,1.188.662,1.135-.15-.118-.879-.271.037c.083-.138.169-.283.251-.428l1.215-.293-.223-.925-.411.1c.1-.212.192-.41.274-.6l1.344-.478-.344-.965-.512.181c.065-.187.123-.361.177-.532l1.359-.65-.46-.96-.54.259c.035-.152.068-.3.1-.451l1.459-.9-.577-.938-.653.4c.029-.242.055-.5.072-.763Z" transform="translate(-1.701 -1.701)" fill="#231815"/>
    </g>
  </g>
</svg>
