<svg xmlns="http://www.w3.org/2000/svg" xmlns:xlink="http://www.w3.org/1999/xlink" width="42.686" height="42.686" viewBox="0 0 42.686 42.686">
  <defs>
    <clipPath id="clip-path">
      <rect id="Rectangle_209" data-name="Rectangle 209" width="42.686" height="42.686" fill="none"/>
    </clipPath>
  </defs>
  <g id="Group_892" data-name="Group 892" transform="translate(0 0)">
    <g id="Group_891" data-name="Group 891" transform="translate(0 0)" clip-path="url(#clip-path)">
      <path id="Path_1168" data-name="Path 1168" d="M42.686,21.343A21.343,21.343,0,1,1,21.343,0,21.343,21.343,0,0,1,42.686,21.343" transform="translate(0 0)" fill="#e50012"/>
      <path id="Path_1169" data-name="Path 1169" d="M37.781,20.4c0,.425-1.443,2.9-1.771,2.9H33.4l4.263,12.874a1.059,1.059,0,0,1,.1.305,1.185,1.185,0,0,1,.019.19,1.109,1.109,0,0,1-2.129.436l-.006,0L31.282,23.939,26.993,36.884a1.024,1.024,0,0,1-.088.267,1.109,1.109,0,0,1-2.108-.482.984.984,0,0,1,.017-.181l-.017,0L29.165,23.3H16.909l4.26,12.874a1.093,1.093,0,0,1,.1.305c.006.063.015.127.015.19a1.11,1.11,0,0,1-2.131.436l-.009,0L14.792,23.939,10.5,36.884a1.108,1.108,0,0,1-2.2-.215,1.058,1.058,0,0,1,.016-.181l-.016,0L12.672,23.3h-2.6c-.326,0-1.769-2.473-1.769-2.9V15.626c0-.425,3.211-1.923,3.537-1.923h2.364c0-.373-.007-.732-.007-.827,0-2.524,1.229-4.566,3.752-4.566s3.754,2.042,3.754,4.566c0,.052,0,.373,0,.827h2.68c0-.373,0-.732,0-.827,0-2.524,1.229-4.566,3.754-4.566s3.751,2.042,3.751,4.566V13.7h2.36c.324,0,3.537,1.5,3.537,1.923ZM21.694,16.756h7.937c.006-.523.007-1.218.009-1.876H21.7c0,.658-.007,1.353-.007,1.876M17.952,10.55c-1.284,0-1.509,1.042-1.509,2.325,0,.1,0,.454.006.827h3.013c0-.454,0-.775,0-.827,0-1.284-.227-2.325-1.512-2.325M9.786,16.166H9.78a.188.188,0,0,0,0,.03.081.081,0,0,0,0,.021h0a.59.59,0,0,0,.586.539h9.084c0-.523,0-1.218.006-1.876H11.843c-.315,0-1.921.806-2.057,1.286m26.511,0c-.131-.48-1.74-1.286-2.053-1.286H31.88c0,.658-.006,1.353-.009,1.876h3.847a.586.586,0,0,0,.584-.539h0a.079.079,0,0,0,0-.015c0-.014,0-.026,0-.036ZM28.133,10.55c-1.285,0-1.51,1.042-1.51,2.325,0,.1,0,.454.006.827h3.013c0-.454,0-.775,0-.827,0-1.284-.225-2.325-1.509-2.325" transform="translate(-1.7 -1.701)" fill="#231815"/>
    </g>
  </g>
</svg>
