<svg xmlns="http://www.w3.org/2000/svg" xmlns:xlink="http://www.w3.org/1999/xlink" width="42.686" height="42.686" viewBox="0 0 42.686 42.686">
  <defs>
    <clipPath id="clip-path">
      <rect id="Rectangle_170" data-name="Rectangle 170" width="42.686" height="42.686" fill="none"/>
    </clipPath>
  </defs>
  <g id="Group_804" data-name="Group 804" clip-path="url(#clip-path)">
    <path id="Path_994" data-name="Path 994" d="M42.686,21.343A21.343,21.343,0,1,1,21.344,0,21.343,21.343,0,0,1,42.686,21.343" transform="translate(0 0)" fill="#44af35"/>
    <path id="Path_995" data-name="Path 995" d="M35.951,36.959c-3.244,2.187-7.46-.686-7.46-.686l-.643.705-1.736-1.9.733-.554A8.476,8.476,0,0,1,26,33.366l-.785.567-1.222-2.28.891-.415c-2.723-4.512-4.776-5.551-5.624-5.946l-.263,1.131-2.5-.816.5-1.132a5.811,5.811,0,0,1-1.583-.884l-.706,1.047-2.034-1.579.942-1.014c-.453-.417-.864-.822-1.237-1.216l-.9.872L9.9,19.668l.968-.643a11.414,11.414,0,0,1-.881-1.42l-.779.408s-2.383-4.17.62-7.467a7.191,7.191,0,0,1,7.319-1.928l-.166.681a13.866,13.866,0,0,1,2.239.652l.43-1.17,2.375.985-.6,1.028a13.5,13.5,0,0,1,1.916,1.113l.668-.993,2.012,1.607-.848.841a15.1,15.1,0,0,1,1.874,2.05l.85-.652,1.351,2.2-.953.483c.033.068.88,3.1,4.933,7.3l.655-.726L35.634,25.9l-.772.62c.1.109.729.84.974,1.171l.8-.588,1.141,2.2-.748.462s2.164,5.005-1.081,7.193M17.59,23.206l1.99.634.8-3.058L18.94,20.3Zm.161-8.428,1.323.547,1.571-2.978-1.9-.906Zm8.094,1.5L23.194,18.1l.75,1.223,2.982-1.288ZM22.437,13.36l-1.695,2.832,1.1.818,2.158-2.391Zm-9.576,2.166,1.358.131.18-1.847L16.327,14l.13-1.363-1.928-.188.177-1.845-1.358-.131-.179,1.846-1.93-.188-.13,1.362,1.929.185Zm1.952,1.209-3.028,1.723,1.369,1.731,2.533-2.237Zm1.82,2.208-2.169,2.25,1.642,1.262L17.763,19.8ZM28.672,29.678l-2.594,1.044,1.031,1.831,2.4-1.61Zm-.737,4.1L29.372,35.3l1.852-2.154L30.2,32.118Zm4.511-3.2.625,1.009,2.691-1.18L34.718,28.64Zm-.134-4.667L30.385,28.2,31.5,29.323l2.212-1.891Zm2.085,6.8-.888-.1-.133,1.207-1.261-.138-.095.891,1.264.138-.134,1.21.888.1.13-1.207,1.265.138.094-.892-1.261-.138Z" transform="translate(-1.701 -1.701)" fill="#231815"/>
  </g>
</svg>
