<svg xmlns="http://www.w3.org/2000/svg" xmlns:xlink="http://www.w3.org/1999/xlink" width="42.686" height="42.686" viewBox="0 0 42.686 42.686">
  <defs>
    <clipPath id="clip-path">
      <rect id="Rectangle_190" data-name="Rectangle 190" width="42.686" height="42.686" fill="none"/>
    </clipPath>
  </defs>
  <g id="Group_854" data-name="Group 854" transform="translate(0 0)">
    <g id="Group_853" data-name="Group 853" transform="translate(0 0)" clip-path="url(#clip-path)">
      <path id="Path_1105" data-name="Path 1105" d="M42.686,21.344A21.343,21.343,0,1,1,21.343,0,21.343,21.343,0,0,1,42.686,21.344" transform="translate(0 0)" fill="#f4dc2e"/>
      <path id="Path_1106" data-name="Path 1106" d="M38.121,27.6c0,3.076-6.827,6.786-15.247,6.786s-15.2-3.71-15.2-6.786c0-.411-.067-8.784.165-9.175,1.508-2.5,7.744-4.362,15.033-4.362,7.616,0,14.088,2.041,15.222,4.706.121.28.025,8.54.025,8.831M8.843,20.913c.787,3.035,6.784,5.394,14.07,5.394s13.282-2.36,14.069-5.394c-2.578,2.216-7.91,3.125-14.069,3.125s-11.492-.91-14.07-3.125" transform="translate(-1.57 -2.879)" fill="#231815"/>
    </g>
  </g>
</svg>
