<svg xmlns="http://www.w3.org/2000/svg" xmlns:xlink="http://www.w3.org/1999/xlink" width="42.686" height="42.686" viewBox="0 0 42.686 42.686">
  <defs>
    <clipPath id="clip-path">
      <rect id="Rectangle_178" data-name="Rectangle 178" width="42.686" height="42.686" fill="none"/>
    </clipPath>
  </defs>
  <g id="Group_820" data-name="Group 820" clip-path="url(#clip-path)">
    <path id="Path_1026" data-name="Path 1026" d="M42.686,21.343A21.343,21.343,0,1,1,21.343,0,21.342,21.342,0,0,1,42.686,21.343" transform="translate(0 0)" fill="#209bad"/>
    <path id="Path_1027" data-name="Path 1027" d="M36.426,44.611a7.893,7.893,0,0,1-3.051.733c-1.029,0-2.234-1.6-3.543-1.6-1.14,0-2.358,1.6-3.62,1.6-1.168,0-2.373-1.6-3.58-1.6s-2.432,1.6-3.616,1.6c-1.231,0-2.429-1.6-3.545-1.6-1.327,0-2.539,1.64-3.581,1.64a8.282,8.282,0,0,1-3.072-.734c-.713-.252-.718-1.562.239-1.572a9.625,9.625,0,0,0,2.87.428c1.039,0,2.256-1.638,3.578-1.638,1.12,0,2.316,1.6,3.549,1.6,1.161,0,2.352-1.6,3.545-1.6,1.231,0,2.458,1.6,3.651,1.6,1.234,0,2.43-1.6,3.545-1.6,1.327,0,2.543,1.6,3.581,1.6a9.978,9.978,0,0,0,2.737-.375c1.1-.15,1.054,1.376.315,1.517" transform="translate(-1.701 -8.571)" fill="#231815"/>
    <path id="Path_1028" data-name="Path 1028" d="M19.852,21.6l.755-.117a.342.342,0,0,1,.393.284l1.873,12.062a.346.346,0,0,1-.289.393l-.753.118a.342.342,0,0,1-.391-.287L19.566,22a.341.341,0,0,1,.286-.391" transform="translate(-4.005 -4.398)" fill="#231815"/>
    <path id="Path_1029" data-name="Path 1029" d="M25.809,35.3l8.327-8.924a.344.344,0,0,1,.485-.019l.556.522a.346.346,0,0,1,.019.488l-8.327,8.923a.343.343,0,0,1-.483.019l-.558-.522a.345.345,0,0,1-.019-.487" transform="translate(-5.265 -5.378)" fill="#231815"/>
    <path id="Path_1030" data-name="Path 1030" d="M38.3,23.947l-3.736.783A9.635,9.635,0,1,0,16.02,19.483l-2.77-2.621A13.015,13.015,0,0,1,38.3,23.947" transform="translate(-2.713 -1.513)" fill="#231815"/>
  </g>
</svg>
