<svg xmlns="http://www.w3.org/2000/svg" xmlns:xlink="http://www.w3.org/1999/xlink" width="42.686" height="42.686" viewBox="0 0 42.686 42.686">
  <defs>
    <clipPath id="clip-path">
      <rect id="Rectangle_179" data-name="Rectangle 179" width="42.686" height="42.686" fill="none"/>
    </clipPath>
  </defs>
  <g id="Group_822" data-name="Group 822" clip-path="url(#clip-path)">
    <path id="Path_1031" data-name="Path 1031" d="M42.686,21.343A21.343,21.343,0,1,1,21.343,0,21.343,21.343,0,0,1,42.686,21.343" transform="translate(0 0)" fill="#209bad"/>
    <path id="Path_1032" data-name="Path 1032" d="M13.842,28.247c-1.235-.44-4.255-3.979-4.255-4.665,0-.336,3.853-.046,8.778.182L23.854,28.7c-.437-.012-8.961-.08-10.013-.454" transform="translate(-1.963 -4.797)" fill="#231815"/>
    <path id="Path_1033" data-name="Path 1033" d="M36.974,34.692A4.674,4.674,0,0,1,35.2,37.013c-.434.149-1.687-.843-3.638-2.515s-2.725-4.539-3.247-5.833c-.047-.107-10.822-9.778-10.822-9.778a9.487,9.487,0,0,1-3.823-1.257c-1.416-1.016-4.514-4.535-4.042-5.712A4.7,4.7,0,0,1,11.4,9.6c.435-.148,1.688.844,3.639,2.515s2.722,4.536,3.246,5.833c.045.108,10.821,9.778,10.821,9.778a9.521,9.521,0,0,1,3.824,1.257c1.414,1.014,4.511,4.536,4.039,5.712" transform="translate(-1.962 -1.962)" fill="#231815"/>
    <path id="Path_1034" data-name="Path 1034" d="M36.263,28.249a16.765,16.765,0,0,1-4.34.433l-5.264-4.736c5.872-.142,13.862-.791,13.862-.362,0,.686-3.024,4.225-4.259,4.665" transform="translate(-5.458 -4.799)" fill="#231815"/>
  </g>
</svg>
