<svg xmlns="http://www.w3.org/2000/svg" xmlns:xlink="http://www.w3.org/1999/xlink" width="42.686" height="42.686" viewBox="0 0 42.686 42.686">
  <defs>
    <clipPath id="clip-path">
      <rect id="Rectangle_181" data-name="Rectangle 181" width="42.686" height="42.686" fill="none"/>
    </clipPath>
  </defs>
  <g id="Group_826" data-name="Group 826" clip-path="url(#clip-path)">
    <path id="Path_1038" data-name="Path 1038" d="M42.686,21.343A21.343,21.343,0,1,1,21.343,0,21.342,21.342,0,0,1,42.686,21.343" transform="translate(0 0)" fill="#209bad"/>
    <path id="Path_1039" data-name="Path 1039" d="M37.408,30.714c-1.965,3.831-5.372,6.242-6.633,5.8-1.793-.254-3.885-5.547-4.264-6.008s-1.46-4.05-3.6-4.109c-1.913-.316-3.65,3.948-3.785,4.109-.378.46-1.832,4.776-4.078,5.984-1.261.433-4.669-1.951-6.635-5.782-1.791-3.086.152-3.982.48-4.312.354-.206.6-.359,1.009-2.708s1.537-3.142,1.993-3.371a24.95,24.95,0,0,1,5.65.282c1.622.179,3.339,1.411,5.366,1.379,2.024.032,4.32-1.341,5.363-1.379a24.969,24.969,0,0,1,5.652-.282c.451.229,1.591,1.024,1.991,3.371s.658,2.5,1.011,2.708c.326.33,2.27,1.226.477,4.312M34.35,26.837l-1.611-4.358c-1.317-.532-7.531.1-7.531,1.416.083.989,3.368,10.276,5.335,9.656.524-.065,1.215-.3,2.826-1.884,2.029-2.118,1.944-3.307,1.944-3.814s-.543-.74-.962-1.016m-5.2,2.41c-.188-.383-.389-.823-.6-1.324-.568-1.319-1-2.52-1.257-3.316a9.629,9.629,0,0,1,1.059-.236c.257-.045.527-.087.8-.12ZM12.608,22.564c-1.364.888-.65,3.193-1.612,4.363-.418.274-.962.508-.962,1.016s-.083,1.693,1.944,3.811c1.611,1.589,2.3,1.823,2.826,1.884,1.964.622,5.25-8.664,5.335-9.656,0-1.311-6.214-1.946-7.531-1.417M16.8,28.013c-.041.1-.083.192-.123.285V24.4c.109.017.216.035.324.055a10.822,10.822,0,0,1,1.057.237c-.256.8-.686,1.995-1.257,3.317" transform="translate(-1.57 -4.143)" fill="#231815"/>
    <path id="Path_1040" data-name="Path 1040" d="M23.768,14.162h.14V12.521a1.526,1.526,0,0,1,0-3.052V9.191a1.525,1.525,0,0,1,3.024-.285h.7a1.526,1.526,0,0,1,1.525,1.528v1.127a1.522,1.522,0,0,1-1.525,1.524h-.67v1.078h.14a4.564,4.564,0,0,1,3.786,2c-.1.014-.2.03-.3.045a8.66,8.66,0,0,0-2.186.617,9.531,9.531,0,0,1-2.9.752h-.148a7.485,7.485,0,0,1-2.509-.643,10.78,10.78,0,0,0-2.522-.717c-.1-.021-.218-.038-.344-.055a4.569,4.569,0,0,1,3.787-2" transform="translate(-4.091 -1.57)" fill="#231815"/>
    <path id="Path_1041" data-name="Path 1041" d="M26.945,42.789H23.615a4.572,4.572,0,0,1-4.383-3.272,9.7,9.7,0,0,0,1.94-2.342,26.066,26.066,0,0,0,1.535-2.948c.1-.219.225-.491.287-.6a4.075,4.075,0,0,0,.3-.542,16.325,16.325,0,0,1,.965-1.75,3.653,3.653,0,0,1,.907-1.044h.064c.056,0,.29.11.639.57a10.137,10.137,0,0,1,1,1.8,5.6,5.6,0,0,0,.524.977c.072.126.228.451.362.721a32.981,32.981,0,0,0,1.769,3.25A9.772,9.772,0,0,0,30.8,39.239a5.332,5.332,0,0,0,.48.429,4.574,4.574,0,0,1-4.337,3.12" transform="translate(-3.937 -6.201)" fill="#231815"/>
  </g>
</svg>
