<svg xmlns="http://www.w3.org/2000/svg" xmlns:xlink="http://www.w3.org/1999/xlink" width="42.686" height="42.686" viewBox="0 0 42.686 42.686">
  <defs>
    <clipPath id="clip-path">
      <rect id="Rectangle_159" data-name="Rectangle 159" width="42.686" height="42.686" fill="none"/>
    </clipPath>
  </defs>
  <g id="Group_782" data-name="Group 782" clip-path="url(#clip-path)">
    <path id="Path_956" data-name="Path 956" d="M42.686,21.343A21.343,21.343,0,1,1,21.343,0,21.343,21.343,0,0,1,42.686,21.343" transform="translate(0 0)" fill="#ed7700"/>
    <path id="Path_957" data-name="Path 957" d="M36.143,36.641c-1.735,1.467-4.681,1.517-6.1.145-4.034-3.359-5.09-8.916-7.351-11.026-2.954-2.236-5.97-2-9.122-3.879A13.3,13.3,0,0,1,8.916,16c-2.08-4.178,1.3-9.372,8.075-7.163a18.309,18.309,0,0,1,6.682,4.036c5.515,5.1,2.842,7.354,10.592,13.884,5.916,5.305,2.776,9.02,1.878,9.887M32.212,26.257S29.26,29.907,33.3,36.769c3.522-.315,5.9-5.337-1.087-10.513m3.135,7.728a4.164,4.164,0,0,1-1.31.81c-2.2-3.824-.81-5.828-.81-5.828a16.454,16.454,0,0,1,1.395.916c-.749,1.939.724,4.1.724,4.1m-9.9-17.747a16.488,16.488,0,0,0-3.075-3.471l-.149.736-4.071-.752-.131-2.588-1.345-.53.134,2.9-4.267-.589-.668-2.314-1.164.707.4,1.453-1.43-.129-.365,1.328,2.2.253.873,3.07L9.915,16.1l.607,1.362,2.237.18.976,3.44c2.5,1.348,5.8,1.9,7.852,2.947-.058-.538-.606-2.83-.606-2.83l8.742,2.2c-2.227-2.74-2.826-5-4.275-7.168M12.954,13.446l3.929.493.13,2.869-3.2-.344Zm1.984,7.019-.736-2.6,2.873.309.156,3.131Zm6.1-.349-1.419-.4.554,2.626-1.6-.577-.148-3.388,2.8.646Zm.441-2.428-3.138-.7-.1-2.828L22,14.843Zm1.764-2.368a12.663,12.663,0,0,1,1.3,1.6A16.05,16.05,0,0,1,25.7,18.843l-2.927-.824Zm-.728,4.045,3.667,1.047.569,1.262-4.437-1.227Zm3.722,10.069c2.054,5.355,5.1,7.189,5.8,7.247C31.019,34,30.323,32.671,30.222,30.44c-.723-.187-2.57-.64-3.986-1.006" transform="translate(-1.701 -1.701)" fill="#231815" fill-rule="evenodd"/>
  </g>
</svg>
