<svg xmlns="http://www.w3.org/2000/svg" xmlns:xlink="http://www.w3.org/1999/xlink" width="42.686" height="42.686" viewBox="0 0 42.686 42.686">
  <defs>
    <clipPath id="clip-path">
      <rect id="Rectangle_173" data-name="Rectangle 173" width="42.686" height="42.686" fill="none"/>
    </clipPath>
  </defs>
  <g id="Group_810" data-name="Group 810" clip-path="url(#clip-path)">
    <path id="Path_1006" data-name="Path 1006" d="M42.686,21.343A21.343,21.343,0,1,1,21.343,0,21.342,21.342,0,0,1,42.686,21.343" transform="translate(0 0)" fill="#44af35"/>
    <path id="Path_1007" data-name="Path 1007" d="M32.74,19.282c.282.313,2.791,3.165,2.306,2.73.559.5.218.814.2.791-.036-.041.91,1.334.95,1.4.34.531,0,.69-.063.736s.367.384.233.543c-.169.191-.976.791-.894,1.176.035.155,1.393,1.381,1.395,1.843s-.947,1.384-1.366.974a13.61,13.61,0,0,1-1.841-2.542c-.393.346-.775-.174-.775-.174s-.784-.869-1.109-1.2c-.237-.245-.3.243-.749-.433s-2.15-2.643-2.1-3.046.328-.324.47-.657c.145-.348-1.527-1.983-2.114-2.979,0,0,1.123-1.487,1.989.654,1.28,3.148,2.549,1,2.62.86.089-.185.566-.989.85-.674" transform="translate(-5.585 -3.673)" fill="#231815"/>
    <path id="Path_1008" data-name="Path 1008" d="M26.276,35.188c-7.62-6.732-7.5-5.68-13.017-10.193-8.79-8.362.952-13.636.952-13.636,7.108-4.963,11.5,1.627,13.756,5.8-1.992,2.754-1.66-6.388-5.194-1.648-.788-.529-2.309-4.1-6.761-1.693C9.754,17.088,14.909,22,14.909,22s9.531,7.135,13.743,10.888c4.516,3.316,6.381-1.6,4.691-2.885-.59-.742.343-1.251.864-1.712,1.52-1.161-.857-2.3-.891-2.962-.025-.434.36-.449.42-.378.028.034,1.96,2.032,2.315,2.607,3.482,5.023-2.968,13.119-9.775,7.627" transform="translate(-1.962 -1.963)" fill="#231815"/>
  </g>
</svg>
