<svg xmlns="http://www.w3.org/2000/svg" width="42.686" height="42.686" viewBox="0 0 42.686 42.686">
  <g id="Group_845" data-name="Group 845" transform="translate(0 0)">
    <path id="Path_1090" data-name="Path 1090" d="M315.072,21.344A21.343,21.343,0,1,1,293.729,0a21.343,21.343,0,0,1,21.343,21.344" transform="translate(-272.386 0)" fill="#80167d"/>
    <path id="Path_1091" data-name="Path 1091" d="M308.688,36.812a3.916,3.916,0,1,1,3.915-3.918,3.917,3.917,0,0,1-3.915,3.918" transform="translate(-279.016 -5.933)" fill="#231815"/>
    <path id="Path_1092" data-name="Path 1092" d="M308,23.876c-.16.157-.34.315-.515.476a5.752,5.752,0,0,0-9.319,4.512c0,.115.01.23.018.344-2.486.649-4.87.77-6.54-.031,0,0-1.7.674-7.735,7.736.015,0-.247-.251-.585-.576s-.747-.722-1.028-1a2.127,2.127,0,0,1-.325-.358c7.363-5.693,7.756-7.757,7.756-7.757-1.906-4.174,1.682-12.618,5.348-16.279,2.461-2.458,6.565-.771,10.135,2.8s5.807,7.12,2.791,10.137" transform="translate(-274.348 -2.002)" fill="#231815"/>
  </g>
</svg>
