<svg xmlns="http://www.w3.org/2000/svg" xmlns:xlink="http://www.w3.org/1999/xlink" width="42.686" height="42.686" viewBox="0 0 42.686 42.686">
  <defs>
    <clipPath id="clip-path">
      <rect id="Rectangle_205" data-name="Rectangle 205" width="42.686" height="42.686" fill="none"/>
    </clipPath>
  </defs>
  <g id="Group_884" data-name="Group 884" transform="translate(0 0)">
    <g id="Group_883" data-name="Group 883" transform="translate(0 0)" clip-path="url(#clip-path)">
      <path id="Path_1146" data-name="Path 1146" d="M42.686,21.343A21.343,21.343,0,1,1,21.343,0,21.342,21.342,0,0,1,42.686,21.343" transform="translate(0 0)" fill="#e50012"/>
      <path id="Path_1147" data-name="Path 1147" d="M21.966,8.819c.178-.05.359-.1.542-.135a14.2,14.2,0,0,1,2.1-.326c.41-.037.822-.051,1.234-.051.211,0,.418,0,.627.014.047,0,.554.02.554.031v2.291c0,.015,0,.024-.01.024h-.946a14.424,14.424,0,0,0-1.561.071c-.483.052-.958.138-1.433.235-.289.056-.574.117-.86.173,0-.024-.01-.043-.013-.063-.055-.289-.114-.573-.175-.864-.069-.352-.14-.707-.211-1.057-.019-.091-.038-.18-.055-.265a.119.119,0,0,0,0-.017s.195-.056.214-.06" transform="translate(-4.453 -1.701)" fill="#231815"/>
      <path id="Path_1148" data-name="Path 1148" d="M11.6,15.332a15.515,15.515,0,0,1,1.19-1.487c.3-.324.614-.644.943-.945a13.857,13.857,0,0,1,1.412-1.145c.122.142.239.285.361.431.245.289.491.575.732.863.134.158.267.316.4.476l-.047.038-.768.647a13.262,13.262,0,0,0-1.2,1.128c-.3.325-.574.666-.848,1.012-.039.047-.5.637-.51.632-.178-.142-.356-.281-.534-.423-.294-.236-.587-.469-.884-.7-.1-.087-.2-.167-.307-.246-.025-.021-.05-.039-.076-.06l-.011-.009s.134-.192.145-.212" transform="translate(-2.345 -2.407)" fill="#231815"/>
      <path id="Path_1149" data-name="Path 1149" d="M8.431,27.513a.1.1,0,0,0-.032,0H8.394s-.008-.063-.008-.069c-.019-.192-.035-.385-.049-.578-.021-.328-.029-.655-.029-.981,0-.479.025-.958.071-1.437a14.773,14.773,0,0,1,.388-2.206c.185.029.369.063.551.093.373.066.748.129,1.121.192.2.037.41.069.614.107-.04.216-.074.428-.112.642-.068.4-.142.8-.187,1.2a13.7,13.7,0,0,0-.076,1.859c.009.337.021.673.029,1,0,.038,0,.071,0,.107a.175.175,0,0,0-.039,0c-.1,0-.209,0-.312.006l-1.1.03c-.277.009-.551.017-.826.023" transform="translate(-1.701 -4.554)" fill="#231815"/>
      <path id="Path_1150" data-name="Path 1150" d="M14.978,37.342c-.024.025-.05.044-.074.068-.235.212-.473.422-.709.634-.258.23-.516.456-.775.69l-.156.14c-.01.01-.291-.284-.321-.309q-.191-.2-.381-.4A14.842,14.842,0,0,1,11.3,36.588a14.669,14.669,0,0,1-1.1-1.868.523.523,0,0,1-.052-.118.041.041,0,0,1,.021-.013,1.02,1.02,0,0,1,.095-.056c.122-.069.242-.144.362-.213.327-.193.656-.382.982-.573.177-.1.359-.21.536-.312.058.1.118.2.178.3.154.261.307.526.463.788a12.438,12.438,0,0,0,1.266,1.756c.215.249.44.494.657.736.092.1.181.2.272.3.011.013.011.013,0,.022" transform="translate(-2.077 -6.845)" fill="#231815"/>
      <path id="Path_1151" data-name="Path 1151" d="M24.723,42.33c-.048.325-.093.647-.138.971s-.1.667-.143,1c0,.042-.011.085-.017.126a.231.231,0,0,1-.006.049c-.386-.022-.767-.063-1.149-.116a14.651,14.651,0,0,1-1.754-.356,14.192,14.192,0,0,1-2.115-.736.62.62,0,0,1-.122-.059.185.185,0,0,0,.01-.024l.037-.106c.045-.129.093-.262.138-.393.127-.354.257-.711.383-1.067.069-.195.14-.391.209-.589a.026.026,0,0,0,.015.008c.3.109.605.216.909.321a13.3,13.3,0,0,0,1.5.452c.463.11.932.185,1.405.252.288.041.577.08.862.122-.006.047-.012.092-.018.14" transform="translate(-3.947 -8.401)" fill="#231815"/>
      <path id="Path_1152" data-name="Path 1152" d="M36.405,41.337q-.451.329-.921.617a14.759,14.759,0,0,1-1.746.923c-.338.148-.681.29-1.031.411-.178.067-.359.123-.542.183-.091.03-.182.056-.274.081-.013.008-.109.041-.113.028-.08-.214-.162-.435-.243-.651-.134-.351-.265-.7-.4-1.058-.045-.12-.091-.239-.137-.359-.011-.029-.019-.056-.03-.083s.006-.013.022-.02c.3-.113.611-.226.915-.34a13.9,13.9,0,0,0,1.431-.619c.419-.213.818-.456,1.215-.7.249-.156.5-.312.744-.466.033.053.066.1.1.156.181.286.359.578.543.865l.515.823.059.1s.006.012.012.019a.721.721,0,0,1-.122.091" transform="translate(-6.341 -8.043)" fill="#231815"/>
      <path id="Path_1153" data-name="Path 1153" d="M33.566,24.55a11.6,11.6,0,0,1-.188,1.756,7.936,7.936,0,0,1-.5,1.643,8.812,8.812,0,0,1-1.986,2.962,9.2,9.2,0,0,1-3,2.018,9.232,9.232,0,0,1-6.852,0,9.428,9.428,0,0,1-5.01-5.009,9.2,9.2,0,0,1,0-6.856,9.168,9.168,0,0,1,2.015-2.992,7.54,7.54,0,0,1,1.4-1.152,10.351,10.351,0,0,1,1.6-.835,8.819,8.819,0,0,1,6.852,0,8.639,8.639,0,0,1,2.793,1.785l1.758-1.725v5.872H26.51L28.352,20.2a5.755,5.755,0,0,0-1.8-1.091,5.848,5.848,0,0,0-2.087-.378,5.571,5.571,0,0,0-4.092,1.7,5.676,5.676,0,0,0-1.267,1.9,5.707,5.707,0,0,0,0,4.352,5.806,5.806,0,0,0,3.14,3.152,6.043,6.043,0,0,0,4.407,0,5.844,5.844,0,0,0,3.123-3.111,6.123,6.123,0,0,0,.445-2.173V24.2h3.343Z" transform="translate(-3.146 -3.151)" fill="#231815"/>
      <path id="Path_1154" data-name="Path 1154" d="M38.312,12.73c-.025.032-.049.061-.072.091-.09.1-.176.216-.264.324-.241.292-.48.586-.72.877-.13.158-.262.319-.39.481-.01-.006-.018-.014-.025-.021-.254-.209-.508-.414-.762-.621a14.5,14.5,0,0,0-1.263-.927c-.389-.249-.8-.472-1.206-.687-.256-.132-.516-.269-.777-.4.09-.165.177-.332.262-.494.177-.336.355-.672.528-1,.1-.185.193-.368.292-.55a15.311,15.311,0,0,1,1.514.751c.394.227.779.468,1.15.728a15.014,15.014,0,0,1,1.662,1.351c.013.014.091.08.087.088s-.011.011-.016.016" transform="translate(-6.722 -2.006)" fill="#231815"/>
      <path id="Path_1155" data-name="Path 1155" d="M43.783,31.445c-.049.182-.1.365-.159.545-.1.321-.219.637-.338.954-.077.177-.148.363-.227.542s-.174.375-.264.564c-.115.223-.226.449-.348.666-.185.325-.381.651-.589.961a.683.683,0,0,1-.076.112.129.129,0,0,0-.023-.014c-.032-.015-.064-.037-.1-.056-.122-.067-.244-.138-.365-.207-.331-.181-.661-.371-.989-.557-.181-.1-.36-.2-.543-.305a.052.052,0,0,0,.011-.021c.162-.282.324-.566.482-.849a13.8,13.8,0,0,0,.7-1.4c.183-.429.332-.869.476-1.315.09-.274.177-.549.27-.828q.252.081.506.165c.361.117.718.23,1.079.348.205.068.411.134.616.2.011,0-.112.452-.125.494" transform="translate(-8.141 -6.191)" fill="#231815"/>
      <path id="Path_1156" data-name="Path 1156" d="M44.428,23.568a.245.245,0,0,0-.024.006l-.11.02c-.138.025-.276.051-.413.078l-1.117.208c-.2.039-.407.076-.61.116l0-.013c-.06-.322-.12-.637-.178-.954a13.955,13.955,0,0,0-.367-1.52c-.135-.453-.31-.891-.488-1.33q-.165-.4-.328-.806c.172-.071.344-.14.518-.209.349-.144.7-.286,1.051-.429.192-.079.386-.158.576-.234a14.61,14.61,0,0,1,.77,1.811c.156.45.286.91.4,1.369a15.287,15.287,0,0,1,.309,1.746.674.674,0,0,1,.013.138" transform="translate(-8.351 -3.788)" fill="#231815"/>
    </g>
  </g>
</svg>
