<svg xmlns="http://www.w3.org/2000/svg" xmlns:xlink="http://www.w3.org/1999/xlink" width="42.686" height="42.686" viewBox="0 0 42.686 42.686">
  <defs>
    <clipPath id="clip-path">
      <rect id="Rectangle_198" data-name="Rectangle 198" width="42.686" height="42.686" fill="none"/>
    </clipPath>
  </defs>
  <g id="Group_870" data-name="Group 870" transform="translate(0 0)">
    <g id="Group_869" data-name="Group 869" transform="translate(0 0)" clip-path="url(#clip-path)">
      <path id="Path_1124" data-name="Path 1124" d="M42.686,21.343A21.343,21.343,0,1,1,21.343,0,21.344,21.344,0,0,1,42.686,21.343" transform="translate(0 0)" fill="#f4dc2e"/>
      <path id="Path_1125" data-name="Path 1125" d="M23.042,37.78A14.736,14.736,0,1,1,37.781,23.043,14.736,14.736,0,0,1,23.042,37.78m-3.02-17.926-1.761-2.56-1.3.63,1.759,2.561Zm-3.35,1.122,1.762,2.562,1.3-.631-1.759-2.561ZM20.6,16.8l-1.761-2.562-1.3.628L19.3,17.431Zm-3.7-.966L15.164,12.8l-1.285.752,1.738,3.035ZM16.326,19.5l-1.738-3.04-1.286.751,1.737,3.035Zm-.291,3.663L14.3,20.129l-1.287.748,1.738,3.035ZM32.208,13.55,30.92,12.8l-1.739,3.036,1.287.75Zm-3.952-1.736-1.3-.631L25.2,13.748l1.3.628Zm-1.9,11.092,1.3.631,1.758-2.562-1.3-.631Zm-10.027,4.5-1.738-3.036-1.286.744,1.737,3.039ZM29.758,19.5l1.287.745,1.742-3.035L31.5,16.463Zm-4.271-2.7,1.3.63,1.761-2.564-1.3-.628Zm.576,3.052,1.3.631,1.76-2.561-1.3-.63ZM23.042,9.779c-.28,0-.558.011-.833.028-.168,2.037-.465,6.586-.465,13.15,0,6.6.3,11.256.471,13.326.271.017.547.023.827.023s.556-.006.829-.023c.165-2.09.47-6.806.47-13.383,0-6.52-.3-11.059-.465-13.093-.277-.017-.554-.028-.834-.028M13.879,29.361,15.616,32.4l1.287-.746-1.739-3.037ZM29.758,27.41l1.287.747,1.742-3.039L31.5,24.373Zm-3.695-.869,1.3.627,1.76-2.562-1.3-.631Zm-.576,3.63,1.3.631,1.761-2.566-1.3-.627Zm4.56-7,1.288.746,1.736-3.035-1.284-.748Zm-.866,8.485,1.287.746,1.738-3.036-1.286-.748ZM25.2,33.8l1.3.627,1.759-2.561-1.3-.63ZM20.6,30.17l-1.761-2.562-1.3.627L19.3,30.8Zm-.577-3.63-1.761-2.566-1.3.631,1.759,2.562Zm-2.193,5.33,1.761,2.561,1.3-.627L19.128,31.24Zm0-20.056,1.761,2.562,1.3-.628-1.759-2.566Z" transform="translate(-1.7 -1.701)" fill="#231815"/>
    </g>
  </g>
</svg>
