<svg xmlns="http://www.w3.org/2000/svg" xmlns:xlink="http://www.w3.org/1999/xlink" width="42.686" height="42.686" viewBox="0 0 42.686 42.686">
  <defs>
    <clipPath id="clip-path">
      <rect id="Rectangle_200" data-name="Rectangle 200" width="42.686" height="42.686" fill="none"/>
    </clipPath>
  </defs>
  <g id="Group_874" data-name="Group 874" transform="translate(0 0)">
    <g id="Group_873" data-name="Group 873" transform="translate(0 0)" clip-path="url(#clip-path)">
      <path id="Path_1128" data-name="Path 1128" d="M42.686,21.343A21.343,21.343,0,1,1,21.343,0,21.343,21.343,0,0,1,42.686,21.343" transform="translate(0 0)" fill="#f4dc2e"/>
      <path id="Path_1129" data-name="Path 1129" d="M28.9,32.246C18.877,39.124,8.337,33.718,8.337,33.718S7.3,22.221,17.321,15.346s20.417-1.722,20.417-1.722,1.179,11.742-8.84,18.621M18.847,17.585a15.616,15.616,0,0,0-6.59,13.474s7.732,3.966,15.079-1.078,6.485-13.657,6.485-13.657-7.628-3.783-14.974,1.261" transform="translate(-1.701 -2.41)" fill="#231815"/>
      <path id="Path_1130" data-name="Path 1130" d="M27.84,29.468a10.325,10.325,0,0,1-10,.717,10.089,10.089,0,0,1,14.3-9.776,10.378,10.378,0,0,1-4.3,9.058" transform="translate(-3.649 -3.994)" fill="#231815"/>
    </g>
  </g>
</svg>
