<svg xmlns="http://www.w3.org/2000/svg" xmlns:xlink="http://www.w3.org/1999/xlink" width="42.686" height="42.686" viewBox="0 0 42.686 42.686">
  <defs>
    <clipPath id="clip-path">
      <rect id="Rectangle_172" data-name="Rectangle 172" width="42.686" height="42.686" fill="none"/>
    </clipPath>
  </defs>
  <g id="Group_808" data-name="Group 808" clip-path="url(#clip-path)">
    <path id="Path_1003" data-name="Path 1003" d="M42.686,21.343A21.343,21.343,0,1,1,21.343,0,21.343,21.343,0,0,1,42.686,21.343" transform="translate(0 0)" fill="#44af35"/>
    <path id="Path_1004" data-name="Path 1004" d="M37.545,27.909a16.819,16.819,0,0,1-10.361,2.445,18.685,18.685,0,0,1-7.055-2.346,10.512,10.512,0,0,0,1.174,4.38c.175.558,2.617,3.673-3.437,3.8-3.765.079-6.594-3.037-7.728-4.529-.678-.219-1.427-.842-1.9-2.654-.783-2.971-1.357-9.946,2.549-13.069a17.819,17.819,0,0,1,5.771-3.13,3.591,3.591,0,0,1,2.923-1.763,3.067,3.067,0,0,1,3.114,1.292c4.17.417,10.724,2.592,11.671,12.036-.1.313,3.228,1.875,3.228,1.875s1.46.674.052,1.664M19.175,26a17.993,17.993,0,0,1-.623-11.538,5.88,5.88,0,0,1-1.674-.5,18.938,18.938,0,0,0,.168,11.417Zm3.876-12.775s.019.181-1.034.767c7.283,5.118,8.729,11.385,8.729,11.385L32.124,25s-2.354-8.286-9.073-11.776M17.71,27.389c-.573.207-4.947,3.512-4.947,3.512.208,2.237,4.062,2.89,4.634,2.941s2.655.314,1.564-1.925c-1.773-4.582-.679-4.736-1.25-4.528" transform="translate(-1.57 -2.253)" fill="#231815"/>
    <path id="Path_1005" data-name="Path 1005" d="M26.626,38.6A3.334,3.334,0,0,0,25.9,36.41c3.853.779,2.709-.177,3.02-.127a9.29,9.29,0,0,0,1.822.26c.366,3.489-4.529,2.105-4.112,2.053" transform="translate(-5.302 -7.428)" fill="#231815"/>
  </g>
</svg>
