<svg xmlns="http://www.w3.org/2000/svg" xmlns:xlink="http://www.w3.org/1999/xlink" width="42.686" height="42.686" viewBox="0 0 42.686 42.686">
  <defs>
    <clipPath id="clip-path">
      <rect id="Rectangle_166" data-name="Rectangle 166" width="42.686" height="42.686" fill="none"/>
    </clipPath>
  </defs>
  <g id="Group_796" data-name="Group 796" clip-path="url(#clip-path)">
    <path id="Path_977" data-name="Path 977" d="M42.686,21.343A21.343,21.343,0,1,1,21.343,0,21.342,21.342,0,0,1,42.686,21.343" transform="translate(0 0)" fill="#ed7700"/>
    <path id="Path_978" data-name="Path 978" d="M36.6,34.671a1.976,1.976,0,0,1-1.98,1.96s-22.948-.017-22.938.016a1.567,1.567,0,0,1-.816-.54,1.95,1.95,0,0,1-.637-1.436V12.4a2.3,2.3,0,0,1,2.122-2.175H34.615a2,2,0,0,1,1.441.691,1.78,1.78,0,0,1,.592.869C36.6,11.77,36.6,34.671,36.6,34.671m-24.9-20.963V33.2L33.145,11.748H13.653a1.958,1.958,0,0,0-1.959,1.96" transform="translate(-2.093 -2.094)" fill="#231815"/>
  </g>
</svg>
