<svg xmlns="http://www.w3.org/2000/svg" xmlns:xlink="http://www.w3.org/1999/xlink" width="42.686" height="42.686" viewBox="0 0 42.686 42.686">
  <defs>
    <clipPath id="clip-path">
      <rect id="Rectangle_214" data-name="Rectangle 214" width="42.686" height="42.686" fill="none"/>
    </clipPath>
  </defs>
  <g id="Group_902" data-name="Group 902" transform="translate(0 0)">
    <g id="Group_901" data-name="Group 901" transform="translate(0 0)" clip-path="url(#clip-path)">
      <path id="Path_1184" data-name="Path 1184" d="M42.686,21.343A21.343,21.343,0,1,1,21.344,0,21.343,21.343,0,0,1,42.686,21.343" transform="translate(0 0)" fill="#e50012"/>
      <path id="Path_1185" data-name="Path 1185" d="M14.679,9.928l7.346,7.433-4.712,4.712L9.927,14.6,9.585,9.586Z" transform="translate(-1.962 -1.963)" fill="#231815"/>
      <path id="Path_1186" data-name="Path 1186" d="M35.869,40.525l-7.422-7.453,4.711-4.71,7.386,7.411.344,5.1Z" transform="translate(-5.824 -5.807)" fill="#231815"/>
      <path id="Path_1187" data-name="Path 1187" d="M36.68,14.682l-22,22-5.094.344.343-5.017L32.006,9.927l5.017-.341Z" transform="translate(-1.962 -1.963)" fill="#231815"/>
    </g>
  </g>
</svg>
