<svg xmlns="http://www.w3.org/2000/svg" xmlns:xlink="http://www.w3.org/1999/xlink" width="42.686" height="42.686" viewBox="0 0 42.686 42.686">
  <defs>
    <clipPath id="clip-path">
      <rect id="Rectangle_210" data-name="Rectangle 210" width="42.686" height="42.686" fill="none"/>
    </clipPath>
  </defs>
  <g id="Group_894" data-name="Group 894" transform="translate(0 0)">
    <g id="Group_893" data-name="Group 893" transform="translate(0 0)" clip-path="url(#clip-path)">
      <path id="Path_1170" data-name="Path 1170" d="M42.686,21.343A21.343,21.343,0,1,1,21.343,0,21.342,21.342,0,0,1,42.686,21.343" transform="translate(0 0)" fill="#e50012"/>
      <path id="Path_1171" data-name="Path 1171" d="M37.619,17.869A4.608,4.608,0,0,1,35.038,20.6c-.021.006-.051.01-.068.016l2.292,2.5-1.1.488-2.5-2.727a14.891,14.891,0,0,1-2.434-.017l-9.415,7.8-1.132-1.1,9.054-6.868q-.571-.086-1.09-.2L20.757,26.5c-.168.4-.235.317-.448.693l-.925-1.029a5.485,5.485,0,0,0,.6-2.857c0-1.987-1.121-3.317-2.72-2.919-1.913.474-3.762,3.16-3.762,5.907,0,1.715.722,2.743,1.73,2.96a2.7,2.7,0,0,0,2.033-.518,5.125,5.125,0,0,0,.819-.7c0-.02,1.076,1.258,1.056,1.183a8.584,8.584,0,0,1-.958.99,7.139,7.139,0,0,1-.65.494,4.149,4.149,0,0,1-2.758.8s-.451.206-1.431-.577l-1.152-.56-2.568,2.7-1.318-.589L11,29.793l-.22-.107a3.243,3.243,0,0,1-1.067-.494l-.091-.066.015-.04a3.438,3.438,0,0,1-.926-1.408,6.18,6.18,0,0,1-.407-2.153,10.146,10.146,0,0,1,1.719-5.412,6.694,6.694,0,0,1,3.694-2.993,3.079,3.079,0,0,1,1-.087l.019-.053,2.414.68L20.4,16.652l-1.668-.408c-.552-.135-.458-.629.133-1.078l1.817-1.331a2.555,2.555,0,0,1,1.626-.527l3.519.679c.767.067,1.2.488.9.982l-.89,1.463a2.557,2.557,0,0,1-2.569.92l-1.64-.4-2.685,1.2c1.622.339,2.684,2.04,2.684,4.4a9.139,9.139,0,0,1-.173,1.637c2.884-2.113,3.742-2.644,5.718-4.14-.732-.26-.947-.469-.914-.787.052-.527-.039-1.112,0-1.517.121-1.218,2-2.111,3.83-2.476.911-.179,2.74.323,4.155.4.882.042,1.909-.042,2.624.029.427.046.741.146.841.368a.2.2,0,0,1-.01-.036l.021.049s-.009,0-.011-.013a2.545,2.545,0,0,1,.072.562,4.1,4.1,0,0,1-.161,1.243M24.625,16.011l.534-.886c.181-.293-.081-.551-.545-.589l-2.563-.464c-.309-.025-.582.377-.858.584l-.777.591c-.359.271-.416.57-.081.65l2.739.67a1.551,1.551,0,0,0,1.551-.554" transform="translate(-1.701 -2.723)" fill="#231815"/>
      <path id="Path_1172" data-name="Path 1172" d="M27.023,37.737l-8.047-8.928.587-1.314,8.777,9.655Z" transform="translate(-3.885 -5.629)" fill="#231815"/>
      <path id="Path_1173" data-name="Path 1173" d="M18.9,29.295c-.157.17,0,.05-.175.173-1.184.8-2.329.185-2.329-1.514s1.144-3.362,2.329-3.656a1.21,1.21,0,0,1,.969.139,1.93,1.93,0,0,1,.716,1.669,3.982,3.982,0,0,1-.122.949c-.073.282-.038.013-.162.282l-1.233-1.3L17.845,28.2Z" transform="translate(-3.357 -4.966)" fill="#231815"/>
    </g>
  </g>
</svg>
