<svg id="Group_846" data-name="Group 846" xmlns="http://www.w3.org/2000/svg" width="42.686" height="42.686" viewBox="0 0 42.686 42.686">
  <path id="Path_1093" data-name="Path 1093" d="M224.229,21.344A21.343,21.343,0,1,1,202.887,0a21.344,21.344,0,0,1,21.343,21.344" transform="translate(-181.543 0)" fill="#80167d"/>
  <path id="Path_1094" data-name="Path 1094" d="M217.066,25.5a4.424,4.424,0,0,0-7.146,4.842,10.058,10.058,0,0,1-4.574-.285,6.127,6.127,0,0,0-4.213.09c-.487.2-1.965-.082-7.518,6.764-.35-.355-2.185-2.1-2.488-2.508,5.136-3.5,6.911-6.832,7.033-7.107a7.744,7.744,0,0,0,.3-4.058,10.433,10.433,0,0,1-.468-3.23A10.29,10.29,0,1,1,217.066,25.5m-10.643,3.1-6.447-6.964a7.7,7.7,0,0,0,6.447,6.964" transform="translate(-183.505 -2.002)" fill="#231815"/>
  <path id="Path_1095" data-name="Path 1095" d="M219.407,36.22a3.024,3.024,0,1,1,3.025-3.026,3.023,3.023,0,0,1-3.025,3.026" transform="translate(-188.676 -6.177)" fill="#231815"/>
</svg>
