<svg xmlns="http://www.w3.org/2000/svg" xmlns:xlink="http://www.w3.org/1999/xlink" width="42.686" height="42.686" viewBox="0 0 42.686 42.686">
  <defs>
    <clipPath id="clip-path">
      <rect id="Rectangle_192" data-name="Rectangle 192" width="42.686" height="42.686" fill="none"/>
    </clipPath>
  </defs>
  <g id="Group_858" data-name="Group 858" transform="translate(0 0)">
    <g id="Group_857" data-name="Group 857" transform="translate(0 0)" clip-path="url(#clip-path)">
      <path id="Path_1109" data-name="Path 1109" d="M42.686,21.343A21.343,21.343,0,1,1,21.343,0,21.343,21.343,0,0,1,42.686,21.343" transform="translate(0 0)" fill="#f4dc2e"/>
      <path id="Path_1110" data-name="Path 1110" d="M28.9,32.229C18.876,39.108,8.337,33.7,8.337,33.7S7.3,22.208,17.32,15.33s20.418-1.6,20.418-1.6,1.177,11.626-8.843,18.5M10.278,27.4l4.307,6.481,4.066.2-6.716-9.9ZM25.71,19.782l-2.343,1.785-1.786-2.342-2.346,1.786,1.788,2.341-2.345,1.789,1.786,2.347L22.809,25.7,24.6,28.045l2.341-1.789-1.785-2.343L27.5,22.128Zm1.723-6.389,6.717,9.9,1.66-3.226L31.5,13.591Z" transform="translate(-1.701 -2.415)" fill="#231815"/>
    </g>
  </g>
</svg>
