<svg xmlns="http://www.w3.org/2000/svg" xmlns:xlink="http://www.w3.org/1999/xlink" width="42.686" height="42.686" viewBox="0 0 42.686 42.686">
  <defs>
    <clipPath id="clip-path">
      <rect id="Rectangle_199" data-name="Rectangle 199" width="42.686" height="42.686" fill="none"/>
    </clipPath>
  </defs>
  <g id="Group_872" data-name="Group 872" transform="translate(0 0)">
    <g id="Group_871" data-name="Group 871" transform="translate(0 0)" clip-path="url(#clip-path)">
      <path id="Path_1126" data-name="Path 1126" d="M42.686,21.343A21.343,21.343,0,1,1,21.343,0,21.344,21.344,0,0,1,42.686,21.343" transform="translate(0 0)" fill="#f4dc2e"/>
      <path id="Path_1127" data-name="Path 1127" d="M37.774,23.491l0,.129c0,.109-.009.216-.016.322,0,.047-.006.094-.01.139-.008.123-.015.243-.026.362a.745.745,0,0,0-.01.08c-.014.146-.032.293-.049.439a.919.919,0,0,0-.013.092c-.017.117-.035.233-.053.348-.006.041-.013.081-.019.12-.021.116-.041.23-.064.342-.006.03-.013.064-.017.09-.029.149-.062.292-.095.439v0c-.033.141-.068.282-.1.417,0,.014-.008.026-.011.041v0a14.789,14.789,0,0,1-1.1,2.878l0,.01c-.072.142-.149.285-.228.428-.018.03-.036.063-.055.1-.16.286-.328.565-.507.837-.022.028-.04.06-.06.089-.09.136-.183.268-.276.4-.006.006-.01.015-.018.022-.09.127-.181.253-.278.376-.018.026-.041.053-.061.078-.1.128-.2.254-.3.379a.294.294,0,0,0-.037.043c-.1.113-.194.227-.291.336-.021.026-.041.05-.061.073-.109.12-.219.238-.329.352l-.054.056c-.1.106-.2.209-.309.309-.019.02-.038.041-.056.056-.117.114-.236.222-.355.332a.827.827,0,0,0-.069.06c-.11.1-.222.192-.332.285-.017.013-.036.03-.052.044-.124.1-.249.2-.376.3-.025.02-.053.043-.08.061-.122.095-.243.183-.365.27a.247.247,0,0,1-.033.026c-.132.094-.267.183-.4.276-.029.02-.058.036-.09.06-.274.177-.552.345-.835.508a.535.535,0,0,1-.051.027,14.845,14.845,0,0,1-3.235,1.33h0a.283.283,0,0,0-.054.014c-.121.033-.24.063-.363.093-.032.006-.064.015-.095.023-.294.069-.592.133-.892.183-.029.006-.066.007-.1.016-.119.02-.238.041-.359.056a1.039,1.039,0,0,0-.115.017c-.146.018-.3.036-.447.052s-.305.026-.456.036l-.126.011c-.114.007-.227.013-.342.017-.046,0-.09,0-.134,0-.153.006-.3.011-.459.011s-.305,0-.458-.011c-.045,0-.088,0-.131,0-.116,0-.231-.01-.344-.017l-.126-.011c-.152-.01-.3-.018-.454-.036h0c-.15-.016-.3-.033-.448-.052a1.072,1.072,0,0,0-.114-.017c-.122-.016-.24-.037-.357-.056-.037-.009-.068-.01-.1-.016-.3-.05-.595-.114-.889-.183l-.094-.023c-.122-.03-.243-.06-.365-.093a.353.353,0,0,0-.053-.014h0a14.771,14.771,0,0,1-3.236-1.33.378.378,0,0,1-.049-.027c-.286-.163-.564-.332-.836-.508-.032-.024-.06-.04-.091-.06-.134-.093-.27-.182-.4-.276a.127.127,0,0,1-.034-.026c-.123-.087-.243-.175-.363-.27a.678.678,0,0,1-.081-.061c-.127-.1-.253-.2-.378-.3l-.05-.041c-.114-.1-.222-.192-.333-.288-.022-.021-.045-.041-.068-.06-.119-.111-.236-.219-.352-.332a.491.491,0,0,1-.059-.056c-.1-.1-.209-.2-.31-.309-.019-.017-.036-.037-.055-.056-.11-.114-.22-.231-.329-.355-.02-.02-.039-.044-.06-.068-.1-.111-.2-.225-.293-.338l-.037-.043c-.1-.126-.2-.251-.3-.379-.021-.025-.04-.052-.061-.078-.094-.123-.188-.252-.28-.379a.088.088,0,0,0-.013-.017c-.1-.137-.188-.272-.28-.41-.019-.025-.037-.056-.055-.081-.181-.276-.351-.557-.513-.847-.016-.027-.033-.055-.049-.087-.08-.142-.157-.289-.233-.437l0,0a14.787,14.787,0,0,1-1.1-2.878l0,0a.244.244,0,0,0-.01-.045c-.033-.132-.068-.27-.1-.4l0-.012c-.035-.15-.064-.293-.095-.439-.008-.033-.013-.063-.019-.1-.021-.112-.042-.223-.061-.339-.006-.039-.012-.079-.02-.12-.018-.115-.037-.231-.051-.348,0-.029-.009-.06-.014-.092-.018-.146-.037-.293-.051-.439,0-.025,0-.052-.008-.08-.011-.119-.019-.239-.029-.362,0-.045-.006-.092-.007-.139-.008-.106-.013-.213-.017-.322,0-.043,0-.086-.006-.129,0-.152-.007-.3-.007-.448s.006-.3.007-.445c0-.047,0-.091.006-.137,0-.106.01-.212.017-.322,0-.043,0-.093.007-.136.01-.122.017-.243.029-.362,0-.026,0-.053.008-.08.014-.144.033-.294.051-.437l.014-.1c.014-.113.033-.228.051-.341.008-.042.014-.084.02-.127.019-.114.04-.226.061-.334.006-.034.011-.068.019-.1.03-.146.06-.289.095-.433a.119.119,0,0,1,0-.023c.029-.132.064-.264.1-.4a.235.235,0,0,0,.01-.044h0a14.809,14.809,0,0,1,1.1-2.874l0,0c.076-.15.153-.293.233-.439.017-.029.033-.06.051-.088q.241-.429.511-.843l.055-.087c.091-.134.183-.271.28-.4,0-.006.01-.014.015-.021.089-.126.184-.251.276-.374.023-.028.041-.054.063-.081.1-.129.2-.254.3-.378.011-.017.025-.029.04-.047.093-.114.19-.221.288-.33.022-.027.041-.051.064-.075.106-.119.216-.235.326-.352l.058-.063c.1-.1.2-.2.3-.3a.687.687,0,0,1,.062-.064c.115-.112.231-.218.35-.328a.61.61,0,0,0,.073-.063c.108-.1.215-.188.327-.278.017-.017.037-.034.056-.051.122-.1.246-.2.373-.3.027-.021.056-.041.086-.066.118-.089.235-.179.355-.262l.041-.029c.129-.1.262-.185.4-.272a.832.832,0,0,1,.1-.063c.13-.087.266-.177.4-.257l.007-.006c.139-.083.279-.167.42-.243.017-.009.036-.023.054-.033A14.374,14.374,0,0,1,19.109,8.84l0,0c.02-.007.04-.01.063-.017.113-.029.231-.063.351-.089a.677.677,0,0,1,.1-.025c.146-.036.289-.069.433-.1h0c.147-.03.3-.06.448-.084l.106-.019c.117-.017.231-.036.349-.053.041-.008.079-.01.12-.015.146-.021.294-.038.442-.056h.006c.152-.016.3-.025.454-.037.042,0,.086-.009.127-.009.115-.006.227-.013.342-.017.044,0,.087-.006.132-.006.153,0,.3-.007.458-.007s.306,0,.459.007c.045,0,.088,0,.134.006.115,0,.228.011.34.017.042,0,.087.006.128.009.152.011.3.021.454.037h0c.151.017.3.034.445.056.041.006.079.007.118.015l.351.053.1.019c.15.024.3.053.449.084h0c.145.029.289.063.433.1.033.006.071.018.106.025.119.026.231.06.35.089.02.006.041.01.061.017l0,0a14.444,14.444,0,0,1,3.235,1.323c.019.01.035.024.054.033.138.076.28.16.418.243l.01.006c.134.08.27.17.4.257.033.019.064.039.1.063.132.087.264.177.394.272a.392.392,0,0,0,.04.029c.119.084.239.173.357.262.028.025.058.045.086.066.126.1.249.2.371.3.017.017.04.033.058.051.109.09.218.182.321.278l.077.066c.117.107.235.213.348.325a.683.683,0,0,1,.063.064c.1.1.205.2.3.3.02.02.039.043.058.063q.167.174.328.348c.021.027.044.054.064.078.1.109.192.216.284.327l.043.05c.1.123.2.249.3.378.021.027.043.053.063.084.095.12.183.243.274.368a.119.119,0,0,1,.02.027c.093.13.186.266.276.4a1.1,1.1,0,0,0,.06.093q.267.408.507.836c.017.033.037.063.055.1.08.138.157.282.228.425l0,.01a14.811,14.811,0,0,1,1.1,2.874.314.314,0,0,1,.011.039c.036.137.072.275.1.416V19.7c.033.141.065.287.095.433,0,.029.01.063.017.092.022.113.043.225.064.339.006.044.013.085.019.122.018.118.036.233.052.349,0,.03.008.06.014.094.017.142.034.293.049.437a.553.553,0,0,0,.01.077c.011.122.018.243.026.365,0,.046.008.093.01.136.007.111.011.216.016.322l0,.137c0,.146.006.294.006.445s0,.3-.006.448M36,20.221a13.166,13.166,0,0,0-1.011-2.943l-1.547,1.195-3.633-2.612-1.692-4.547.534-.292a13.267,13.267,0,0,0-11.221,0l.532.292-1.691,4.547-3.635,2.612L11.1,17.279a13.212,13.212,0,0,0-1.013,2.943l.963.744v4.155l-.963.743A13.184,13.184,0,0,0,11.1,28.808l1.544-1.195,3.635,2.612,1.691,4.545-.532.293a13.267,13.267,0,0,0,11.221,0l-.534-.293,1.692-4.545,3.633-2.612,1.547,1.195A13.138,13.138,0,0,0,36,25.864l-.96-.743V20.966ZM20.626,12.565h4.833l1.37,3.47-3.786,2.5-3.784-2.5ZM17.653,27.613l-3.679-2.46V20.928l3.679-2.455,3.927,2.558v4.023Zm7.806,5.9H20.626L19.26,30.049l3.784-2.5,3.786,2.5Zm6.654-8.363-3.677,2.46L24.51,25.054V21.032l3.927-2.558,3.677,2.455Z" transform="translate(-1.7 -1.7)" fill="#231815"/>
    </g>
  </g>
</svg>
