<svg xmlns="http://www.w3.org/2000/svg" xmlns:xlink="http://www.w3.org/1999/xlink" width="42.686" height="42.686" viewBox="0 0 42.686 42.686">
  <defs>
    <clipPath id="clip-path">
      <rect id="Rectangle_163" data-name="Rectangle 163" width="42.686" height="42.686" fill="none"/>
    </clipPath>
  </defs>
  <g id="Group_790" data-name="Group 790" clip-path="url(#clip-path)">
    <path id="Path_969" data-name="Path 969" d="M42.686,21.343A21.343,21.343,0,1,1,21.343,0,21.342,21.342,0,0,1,42.686,21.343" transform="translate(0 0)" fill="#ed7700"/>
    <path id="Path_970" data-name="Path 970" d="M21.2,28.811l-3.34-.465,5.818-5.793,2.238,1.639ZM10.1,31.422a3.759,3.759,0,0,1,1.254-.216,3.712,3.712,0,0,1,2.245.754c.644-.008,1.365-.013,2.146-.021a4.332,4.332,0,0,1,7-.069l.974-.009a4.332,4.332,0,0,1,6.871-.091c.992-.017,1.884-.033,2.623-.047a3.679,3.679,0,0,1,1.9-.517,3.573,3.573,0,0,1,.629.052,6.225,6.225,0,0,0,.278-.732C37.694,22.593,22.929,24.4,24.5,18.548c2.41-10.24-.312-7.572-1.991-6.865a7.078,7.078,0,0,0-5.072-1.261c-.228.155-1.437-2.927-2.546-1.909a4.139,4.139,0,0,0-.958,3.2S9.951,23.509,9.722,24.842c-.146.857-1.191,4.393.381,6.58" transform="translate(-1.893 -1.701)" fill="#231815"/>
    <path id="Path_971" data-name="Path 971" d="M34.923,43.389a2.859,2.859,0,0,1-2.657-1.8H30.082a3.332,3.332,0,0,1-6.161,0H22.165a3.332,3.332,0,0,1-6.161,0H13.913a2.863,2.863,0,1,1-.263-2.209h2.24a3.33,3.33,0,0,1,6.389,0h1.529a3.331,3.331,0,0,1,6.39,0H32.3a2.859,2.859,0,1,1,2.62,4.006" transform="translate(-1.701 -7.574)" fill="#231815"/>
  </g>
</svg>
