<svg xmlns="http://www.w3.org/2000/svg" xmlns:xlink="http://www.w3.org/1999/xlink" width="42.686" height="42.686" viewBox="0 0 42.686 42.686">
  <defs>
    <clipPath id="clip-path">
      <rect id="Rectangle_186" data-name="Rectangle 186" width="42.686" height="42.686" fill="none"/>
    </clipPath>
  </defs>
  <g id="Group_836" data-name="Group 836" clip-path="url(#clip-path)">
    <path id="Path_1056" data-name="Path 1056" d="M42.686,21.343A21.343,21.343,0,1,1,21.343,0,21.342,21.342,0,0,1,42.686,21.343" transform="translate(0 0)" fill="#209bad"/>
    <path id="Path_1057" data-name="Path 1057" d="M28.925,19.655l-2.661,2.791L23.6,19.665Z" transform="translate(-4.832 -4.024)" fill="#231815"/>
    <path id="Path_1058" data-name="Path 1058" d="M13.018,12.527l1.133-1.066a.617.617,0,0,1,.845.9l-.118.111,8.039,8.721-.859.91-8.118-8.75-.077.074a.617.617,0,1,1-.845-.9" transform="translate(-2.625 -2.313)" fill="#231815"/>
    <path id="Path_1059" data-name="Path 1059" d="M15.363,19.27,20.414,24.7a52.218,52.218,0,0,1-7.534-.454c-1.328-.473-4.573-4.46-4.573-5.2Z" transform="translate(-1.701 -3.901)" fill="#231815"/>
    <path id="Path_1060" data-name="Path 1060" d="M19.275,32.242c-2.445,2.6-3.789,5.306-6.516,2.744-2.765-2.6-.03-4,2.414-6.6,1.987-2.116,4.491-3.135,5.772-3.049L32.906,12.47l-.118-.109a.617.617,0,0,1,.845-.9l1.133,1.066a.617.617,0,1,1-.845.9l-.08-.074L21.888,26.212c.19,1.286-.619,3.906-2.612,6.03" transform="translate(-2.375 -2.313)" fill="#231815"/>
    <path id="Path_1061" data-name="Path 1061" d="M38.124,38.328c-2.727,2.562-4.074-.144-6.517-2.744-1.995-2.123-2.8-4.744-2.61-6.029l-1.035-1.111,1-.82.981,1.055c1.277-.086,3.785.932,5.774,3.048,2.442,2.6,5.176,4,2.412,6.6" transform="translate(-5.724 -5.656)" fill="#231815"/>
    <path id="Path_1062" data-name="Path 1062" d="M37.705,24.246a50.159,50.159,0,0,1-7.434.456l5.056-5.437,6.95-.216c0,.737-3.246,4.723-4.571,5.2" transform="translate(-6.197 -3.9)" fill="#231815"/>
  </g>
</svg>
