<svg xmlns="http://www.w3.org/2000/svg" xmlns:xlink="http://www.w3.org/1999/xlink" width="42.686" height="42.686" viewBox="0 0 42.686 42.686">
  <defs>
    <clipPath id="clip-path">
      <rect id="Rectangle_213" data-name="Rectangle 213" width="42.686" height="42.686" fill="none"/>
    </clipPath>
  </defs>
  <g id="Group_900" data-name="Group 900" transform="translate(0 0)">
    <g id="Group_899" data-name="Group 899" transform="translate(0 0)" clip-path="url(#clip-path)">
      <path id="Path_1182" data-name="Path 1182" d="M42.686,21.343A21.343,21.343,0,1,1,21.343,0,21.343,21.343,0,0,1,42.686,21.343" transform="translate(0 0)" fill="#e50012"/>
      <path id="Path_1183" data-name="Path 1183" d="M35.007,26.9c0,2.426-.661,9.2-4.965,10.509a22.087,22.087,0,0,1-6.148.605v-.009a22.164,22.164,0,0,1-6.15-.606c-4.3-1.31-4.965-8.082-4.965-10.509a9.9,9.9,0,0,1,1.455-5.271,11.062,11.062,0,0,1-1.326-5.265c0-6.136,4.978-8.444,11.115-8.444s11.116,2.308,11.116,8.444a11.092,11.092,0,0,1-1.45,5.491A9.969,9.969,0,0,1,35.007,26.9M24.023,11.565c-4.713,0-7.643.882-7.643,5.595a3.971,3.971,0,0,0,.386,1.73,11.961,11.961,0,0,1,7.128-2.222v.007a11.921,11.921,0,0,1,7.315,2.362,4.008,4.008,0,0,0,.458-1.877c0-4.713-2.931-5.595-7.644-5.595" transform="translate(-2.616 -1.62)" fill="#231815" fill-rule="evenodd"/>
    </g>
  </g>
</svg>
