<svg xmlns="http://www.w3.org/2000/svg" xmlns:xlink="http://www.w3.org/1999/xlink" width="42.686" height="42.686" viewBox="0 0 42.686 42.686">
  <defs>
    <clipPath id="clip-path">
      <rect id="Rectangle_218" data-name="Rectangle 218" width="42.686" height="42.686" fill="none"/>
    </clipPath>
  </defs>
  <g id="Group_910" data-name="Group 910" transform="translate(0 0)">
    <g id="Group_909" data-name="Group 909" transform="translate(0 0)" clip-path="url(#clip-path)">
      <path id="Path_1211" data-name="Path 1211" d="M42.686,21.343A21.343,21.343,0,1,1,21.343,0,21.343,21.343,0,0,1,42.686,21.343" transform="translate(0 0)" fill="#3061ac"/>
      <path id="Path_1212" data-name="Path 1212" d="M33.574,19.623C27.837,23.488,22.31,28.99,20.3,32.5c-1.558,1.905-5.027,7.073-9.189,2.911-4-4,.872-7.732,2.861-9.293,3.6-1.943,9.214-7.418,12.981-13.06,1.077-1.653,4.5-5.64,8.366-1.777,3.92,3.922.1,7.014-1.749,8.343M26.779,22.46H19.823a.681.681,0,0,0-.589.722.746.746,0,0,0,.589.788h6.956s.56,0,.56-.738-.56-.772-.56-.772M23.687,25.4H16.948a.652.652,0,0,0-.573.678.709.709,0,0,0,.573.739h6.739s.543-.006.543-.693a.648.648,0,0,0-.543-.724m6.538-5.722h-7.51a.693.693,0,0,0-.635.686.746.746,0,0,0,.635.748h7.51a.633.633,0,0,0,.608-.7.681.681,0,0,0-.608-.732" transform="translate(-1.962 -1.975)" fill="#231815"/>
    </g>
  </g>
</svg>
