<svg id="Group_844" data-name="Group 844" xmlns="http://www.w3.org/2000/svg" width="42.687" height="42.686" viewBox="0 0 42.687 42.686">
  <path id="Path_1087" data-name="Path 1087" d="M404.458,21.344A21.343,21.343,0,1,1,383.114,0a21.344,21.344,0,0,1,21.344,21.344" transform="translate(-361.771 0)" fill="#80167d"/>
  <path id="Path_1088" data-name="Path 1088" d="M398.964,32.2a3.034,3.034,0,1,1,3.031-3.034,3.034,3.034,0,0,1-3.031,3.034" transform="translate(-368.764 -5.35)" fill="#231815"/>
  <path id="Path_1089" data-name="Path 1089" d="M398.174,19.483a8.089,8.089,0,0,1-1.416,1.823c-.173.177-.352.337-.531.5a4.409,4.409,0,0,0-2.471-.753,4.457,4.457,0,0,0-4.459,4.458c0,.116.025.226.032.34-2.19.666-4.15.693-5.336.061a135.009,135.009,0,0,0-10.384,11.112c0,.016-2.253-2.268-2.253-2.252a136.8,136.8,0,0,0,11.129-10.351c-1.3-2.387-.028-8.187,4.59-12.8,2.069-2.066,3.993-2.413,5.836-1.693a6.539,6.539,0,0,1,1.094.557c.181.108.363.232.542.362a13.436,13.436,0,0,1,1.6,1.388c2.3,2.3,3.448,4.667,2.026,7.251" transform="translate(-363.733 -1.962)" fill="#231815"/>
</svg>
