<svg xmlns="http://www.w3.org/2000/svg" xmlns:xlink="http://www.w3.org/1999/xlink" width="42.686" height="42.686" viewBox="0 0 42.686 42.686">
  <defs>
    <clipPath id="clip-path">
      <rect id="Rectangle_208" data-name="Rectangle 208" width="42.686" height="42.686" fill="none"/>
    </clipPath>
  </defs>
  <g id="Group_890" data-name="Group 890" transform="translate(0 0)">
    <g id="Group_889" data-name="Group 889" transform="translate(0 0)" clip-path="url(#clip-path)">
      <path id="Path_1162" data-name="Path 1162" d="M42.686,21.343A21.343,21.343,0,1,1,21.343,0,21.343,21.343,0,0,1,42.686,21.343" transform="translate(0 0)" fill="#e50012"/>
      <path id="Path_1163" data-name="Path 1163" d="M26.034,7.238c3.921-1.754,8.84,1.754,10.749,4.556s1.742,4.836,1.551,5.916-6.08,2.266-6.08,2.266-3.027.736-6.221-4.4,0-8.342,0-8.342" transform="translate(-5.039 -1.386)" fill="#231815"/>
      <path id="Path_1164" data-name="Path 1164" d="M13.373,10.911,12.6,9.242l5.871,1.047L15.66,15.827l-.839-2.014a12.589,12.589,0,0,0-3.634,5.54l-2.88-1.338a15.752,15.752,0,0,1,5.066-7.1" transform="translate(-1.701 -1.892)" fill="#231815"/>
      <path id="Path_1165" data-name="Path 1165" d="M23.459,32.4s-2,5.664-3.1,5.705-3.131-.084-5.638-2.366-5.293-7.65-3.008-11.282c0,0,3.631-2.713,8.261,1.167s3.48,6.776,3.48,6.776" transform="translate(-2.225 -4.819)" fill="#231815"/>
      <path id="Path_1166" data-name="Path 1166" d="M33.082,45.282c-1.137.1-3.84-2.247-4.349-3.326a2.234,2.234,0,0,1,1.474-2.935c1.251-.3,4.877,1.009,5.26,2.666a3.305,3.305,0,0,1-2.386,3.6" transform="translate(-5.849 -7.98)" fill="#231815"/>
      <path id="Path_1167" data-name="Path 1167" d="M43.812,31.009a3.3,3.3,0,0,1-3.894,1.858c-1.585-.612-2.372-4.386-1.9-5.583a2.235,2.235,0,0,1,3.118-1.044c.995.655,2.936,3.658,2.679,4.769" transform="translate(-7.755 -5.313)" fill="#231815"/>
    </g>
  </g>
</svg>
