<svg xmlns="http://www.w3.org/2000/svg" xmlns:xlink="http://www.w3.org/1999/xlink" width="42.686" height="42.686" viewBox="0 0 42.686 42.686">
  <defs>
    <clipPath id="clip-path">
      <rect id="Rectangle_195" data-name="Rectangle 195" width="42.686" height="42.686" fill="none"/>
    </clipPath>
  </defs>
  <g id="Group_864" data-name="Group 864" transform="translate(0 0)">
    <g id="Group_863" data-name="Group 863" transform="translate(0 0)" clip-path="url(#clip-path)">
      <path id="Path_1117" data-name="Path 1117" d="M42.686,21.343A21.343,21.343,0,1,1,21.343,0,21.343,21.343,0,0,1,42.686,21.343" transform="translate(0 0)" fill="#f4dc2e"/>
      <path id="Path_1118" data-name="Path 1118" d="M20.127,8.865c.185.043.557.135,1.063.276l.278.825.438-.134L21.745,9.3c.219.063.453.132.7.21l.221.732.441-.132-.13-.433.709.239.254.841.463-.14-.151-.5c.217.079.437.165.659.254l.3.993.488-.146-.179-.6c.217.093.436.187.655.286l.231.991.522-.122-.138-.574c.244.12.484.243.718.373l.124,1,.559-.069-.075-.584q.35.206.667.431l-.02.975.565.015.011-.565c.016.012.037.027.055.042.178.146.339.3.506.449l-.114,1.1.59.059.063-.627c.186.192.363.389.53.584l-.219,1.132.613.117.118-.612c.175.233.342.464.493.7l-.38,1.021.616.23.2-.534c.146.255.28.51.4.759l-.452.92.622.309.2-.406c.108.275.206.541.291.793l-.585.932.616.388.246-.388c.087.346.153.651.2.912l-.667.771.55.477.243-.282c.026.294.038.589.038.877l-.765.539.42.595.3-.212c-.029.326-.077.647-.134.966l-1,.476.33.691.436-.209c-.087.3-.184.593-.3.88l-1.042.231.169.748L33,27.1c-.128.251-.266.5-.414.73l-1.233.1.064.807.557-.044a8.144,8.144,0,0,1-.553.61L30.278,29l-.2.779.627.164a7.046,7.046,0,0,1-.755.525l-1.113-.719-.461.714.691.448a6.245,6.245,0,0,1-1.055.325l-.867-.966-.631.565.466.523a5.729,5.729,0,0,1-1.1-.069l-.634-1.34-.809.38.319.674a7.6,7.6,0,0,1-1.071-.47l-.133-1.311-.888.1.055.61c-.122-.086-.243-.165-.363-.261s-.3-.23-.505-.385L22,28.119l-.887-.132-.072.61a10.621,10.621,0,0,1-.853-.926l.343-1.2-.818-.223-.172.561c-.164-.243-.331-.511-.5-.8l.463-1.032-.738-.327-.209.462c-.134-.264-.265-.545-.4-.839l.6-1.054-.7-.4-.3.518c-.12-.3-.241-.627-.357-.965l.62-.82-.614-.464-.3.4c-.122-.392-.238-.8-.351-1.221-.01-.027-.017-.048-.025-.072l.456-.994-.7-.322-.148.325a6.232,6.232,0,0,0-.7-1.09l.135-.921-.72-.1-.047.317a8.464,8.464,0,0,0-.9-.745l-.106-.892-.684.078.035.321c-.321-.189-.628-.348-.909-.48l-.168-.727-.641.15.062.258c-.263-.1-.429-.148-.461-.157a14.738,14.738,0,0,1,8.878-6.346" transform="translate(-2.303 -1.815)" fill="#231815"/>
      <path id="Path_1119" data-name="Path 1119" d="M23.045,37.78A14.706,14.706,0,0,1,9.789,16.638c.034.014.274.1.634.276l-.386.208.307.578.779-.413c.205.12.419.252.638.406l-.347.135.251.644.735-.287a5.908,5.908,0,0,1,.548.52l-.389.041.08.725.864-.1a4.9,4.9,0,0,1,.4.706L13.444,20l-.132.756.89.153c.065.258.146.55.238.86l-.415-.116-.291.709,1.007.359q.184.548.4,1.147l-.5-.1-.209.78,1.078.255c.153.371.32.748.492,1.128l-.537-.069-.129.794,1.1.16c.208.411.429.812.667,1.2h-.489l0,.849,1.027,0a12.754,12.754,0,0,0,.968,1.261l-.65.05.1.888,1.35-.129c.132.115.264.231.4.336.3.228.605.428.914.617l-.542.185.322.833,1.259-.461a9.042,9.042,0,0,0,1.69.584l-.478.383.574.683,1.053-.863a8.859,8.859,0,0,0,1.825,0l-.343.567.711.465.773-1.218a9.967,9.967,0,0,0,1.377-.431l-.243.656.808.261.484-1.406a10.032,10.032,0,0,0,1.211-.768l0,.62.807,0L32.007,30.7a11.1,11.1,0,0,0,1-1.029l.2.561.762-.266-.37-1.053a9.568,9.568,0,0,0,.611-.971l.181.348.683-.351-.434-.834a10.976,10.976,0,0,0,.487-1.282l.3.33.559-.52-.614-.713a10.968,10.968,0,0,0,.212-1.394l.251.243.4-.651-.6-.5c0-.294,0-.6-.021-.9-.013-.18-.049-.348-.069-.524l.322.192.251-.722-.686-.336a11.1,11.1,0,0,0-.31-1.244l.34.145.169-.716-.847-.3c-.145-.344-.311-.689-.5-1.03l.385.093L34.8,16.6l-.984-.212q-.251-.388-.538-.776l.418.08.064-.677L32.7,14.9c-.219-.266-.436-.53-.683-.793l.487-.011-.017-.6-1.058.02c-.216-.216-.417-.428-.651-.643l.479-.078-.093-.583-.965.152c-.216-.188-.42-.375-.651-.571l.465-.111-.135-.548-.9.219c-.239-.162-.515-.326-.809-.485l.474-.188-.211-.526-.924.372c-.258-.126-.519-.245-.791-.365l.425-.227-.251-.472-.8.428c-.224-.091-.442-.18-.661-.266l.343-.209L25.5,8.979l-.674.418c-.26-.1-.51-.188-.756-.275l.368-.225-.251-.412-.707.434c-.85-.291-1.5-.488-1.7-.548.419-.032.837-.063,1.264-.063a14.735,14.735,0,0,1,0,29.471" transform="translate(-1.7 -1.701)" fill="#231815"/>
    </g>
  </g>
</svg>
