<svg xmlns="http://www.w3.org/2000/svg" xmlns:xlink="http://www.w3.org/1999/xlink" width="42.686" height="42.686" viewBox="0 0 42.686 42.686">
  <defs>
    <clipPath id="clip-path">
      <rect id="Rectangle_188" data-name="Rectangle 188" width="42.686" height="42.686" fill="none"/>
    </clipPath>
  </defs>
  <g id="Group_849" data-name="Group 849" clip-path="url(#clip-path)">
    <path id="Path_1101" data-name="Path 1101" d="M42.686,21.344A21.343,21.343,0,1,1,21.343,0,21.344,21.344,0,0,1,42.686,21.344" transform="translate(0 0)" fill="#f4dc2e"/>
    <path id="Path_1102" data-name="Path 1102" d="M23.042,37.78A14.735,14.735,0,1,1,37.781,23.045,14.735,14.735,0,0,1,23.042,37.78m9.042-20.6a7.583,7.583,0,0,1,1.377-2.338l-.95-1.079a5.031,5.031,0,0,0-2.022,2.163c-.4-.279-.811-.551-1.253-.806a33.831,33.831,0,0,0-.072-3.75l-1.649-.752a35.269,35.269,0,0,1-.106,3.584c-.442-.193-.9-.365-1.378-.52a9.572,9.572,0,0,0-3.37-3.823l-1.641.242a6.921,6.921,0,0,1,2.563,3,19.508,19.508,0,0,0-10.992,1.781l-1.366,2.137a22.359,22.359,0,0,1,12.6-1.459c-.733,2.866-5.845,5.829-9.313,7.488-3.713,1.777-3.937,4.543-3.937,4.543l1.339,2.681A7.633,7.633,0,0,1,16.168,24.5c3.377-1.465,8.65-5.468,9.857-8.354.382.128.767.271,1.147.433-.684,5.545-2.693,13.717-8.488,18.97l1.987.573c6.129-4.916,7.944-13,8.425-18.586.279.159.554.327.833.511-.162,2.638,1.012,6.821.851,9.854a31.107,31.107,0,0,1-1.236,6.722l1.631-1.046a20.136,20.136,0,0,0,1.533-6.027,31.3,31.3,0,0,0-.909-7.487,4.792,4.792,0,0,1-.077-.674,22.227,22.227,0,0,1,4.48,5.328l.106-2.391a19.941,19.941,0,0,0-4.224-5.148" transform="translate(-1.701 -1.701)" fill="#231815"/>
  </g>
</svg>
