<svg xmlns="http://www.w3.org/2000/svg" xmlns:xlink="http://www.w3.org/1999/xlink" width="42.686" height="42.686" viewBox="0 0 42.686 42.686">
  <defs>
    <clipPath id="clip-path">
      <rect id="Rectangle_203" data-name="Rectangle 203" width="42.686" height="42.686" fill="none"/>
    </clipPath>
  </defs>
  <g id="Group_880" data-name="Group 880" transform="translate(0 0)">
    <g id="Group_879" data-name="Group 879" transform="translate(0 0)" clip-path="url(#clip-path)">
      <path id="Path_1137" data-name="Path 1137" d="M42.686,21.343A21.343,21.343,0,1,1,21.343,0,21.343,21.343,0,0,1,42.686,21.343" transform="translate(0 0)" fill="#e50012"/>
      <path id="Path_1138" data-name="Path 1138" d="M8.307,22.688c0-9.822,9.224-14.72,14.82-14.377a5.35,5.35,0,0,1,1.56.352l-.011.011a6.728,6.728,0,0,1-1.559,13.1l.01.01A9.253,9.253,0,0,0,14.072,30.7a9.761,9.761,0,0,0,1.89,5.98c-2.894-1.135-7.655-5.1-7.655-13.993M22.962,37.77a5.336,5.336,0,0,1-1.56-.352s.006-.006.01-.006a6.73,6.73,0,0,1,1.56-13.105l-.01-.011a9.253,9.253,0,0,0,9.054-8.913A9.778,9.778,0,0,0,30.129,9.4c2.892,1.136,7.652,5.1,7.652,13.993,0,9.821-9.224,14.723-14.818,14.378m.686-9.344A2.658,2.658,0,1,0,26.3,31.081a2.656,2.656,0,0,0-2.656-2.655M22.445,17.7a2.657,2.657,0,1,0-2.658-2.657A2.656,2.656,0,0,0,22.445,17.7" transform="translate(-1.701 -1.698)" fill="#231815"/>
    </g>
  </g>
</svg>
