<svg xmlns="http://www.w3.org/2000/svg" xmlns:xlink="http://www.w3.org/1999/xlink" width="42.686" height="42.686" viewBox="0 0 42.686 42.686">
  <defs>
    <clipPath id="clip-path">
      <rect id="Rectangle_189" data-name="Rectangle 189" width="42.686" height="42.686" fill="none"/>
    </clipPath>
  </defs>
  <g id="Group_851" data-name="Group 851" clip-path="url(#clip-path)">
    <path id="Path_1103" data-name="Path 1103" d="M42.686,21.344A21.343,21.343,0,1,1,21.343,0,21.344,21.344,0,0,1,42.686,21.344" transform="translate(0 0)" fill="#f4dc2e"/>
    <path id="Path_1104" data-name="Path 1104" d="M23.043,37.781A14.737,14.737,0,1,1,37.781,23.045,14.735,14.735,0,0,1,23.043,37.781m-6.7-12.5-3,4.284,4.707,4.284,5.044-1.2-.274-5.289Zm3.84-9.9L18.619,11.56l-5.3,1.559L11.07,17.525,14.88,20ZM29.7,11.517,24.807,9.389l-3.3.744L29,13.026ZM27.568,33.443V35.63l7.142-5.712-2.354-.211Zm-3.3-15.771,1.346,6.046,6.316,1.336,2.41-5.157L29.589,15.06Z" transform="translate(-1.701 -1.701)" fill="#231815"/>
  </g>
</svg>
