<svg xmlns="http://www.w3.org/2000/svg" xmlns:xlink="http://www.w3.org/1999/xlink" width="42.686" height="42.686" viewBox="0 0 42.686 42.686">
  <defs>
    <clipPath id="clip-path">
      <rect id="Rectangle_161" data-name="Rectangle 161" width="42.686" height="42.686" fill="none"/>
    </clipPath>
  </defs>
  <g id="Group_786" data-name="Group 786" clip-path="url(#clip-path)">
    <path id="Path_962" data-name="Path 962" d="M42.686,21.343A21.343,21.343,0,1,1,21.343,0,21.342,21.342,0,0,1,42.686,21.343" transform="translate(0 0)" fill="#ed7700"/>
    <path id="Path_963" data-name="Path 963" d="M15.082,25.6a1,1,0,1,1-.653-1.257,1,1,0,0,1,.653,1.257" transform="translate(-2.686 -4.975)" fill="#231815"/>
    <path id="Path_964" data-name="Path 964" d="M32.539,35.875A6.884,6.884,0,0,1,25.8,27.642l-.505-.161-.276-.087a1.909,1.909,0,0,1-3.327-1.746,1.948,1.948,0,0,1,.373-.67L18.339,17.56l-.513.879a6.892,6.892,0,1,1-.979-1.011l2.667-4.308s-2.1-.375-2.133-.383h0a.607.607,0,0,1-.163-1.133.622.622,0,0,1,.454-.05L20.076,12s.554.1.588.111a.725.725,0,0,1,.472.909.985.985,0,0,1-.052.124v0l-1.34,2.183,8.894,2.794,1.229-1.734-1.122-.378a.678.678,0,0,1-.521-.8.671.671,0,0,1,.8-.522l3.449.733a.879.879,0,0,1-.369,1.719.934.934,0,0,1-.19-.063l-.62-.207-1.387,1.886.988,3.559a7.031,7.031,0,0,1,1.644-.2,6.877,6.877,0,0,1,0,13.754m-3.2-16.308-4.152,5.758a1.882,1.882,0,0,1,.224.761l.783.248a6.9,6.9,0,0,1,3.929-3.777ZM19.216,16.153l-.315.516,4.2,7.688a1.9,1.9,0,0,1,.979.047c.009,0,.016.006.021.006l3.945-5.452Zm-5.421,2.236A4.5,4.5,0,1,0,16.717,24a4.424,4.424,0,0,0-2.923-5.612m20.036,6.37a4.569,4.569,0,0,0-5.613,2.918,4.475,4.475,0,1,0,8.534,2.7,4.569,4.569,0,0,0-2.921-5.614" transform="translate(-1.134 -2.362)" fill="#231815"/>
    <path id="Path_965" data-name="Path 965" d="M40.208,33.538a1,1,0,1,1-.655-1.259,1,1,0,0,1,.655,1.259" transform="translate(-7.83 -6.599)" fill="#231815"/>
  </g>
</svg>
