<svg xmlns="http://www.w3.org/2000/svg" xmlns:xlink="http://www.w3.org/1999/xlink" width="42.686" height="42.686" viewBox="0 0 42.686 42.686">
  <defs>
    <clipPath id="clip-path">
      <rect id="Rectangle_207" data-name="Rectangle 207" width="42.686" height="42.686" fill="none"/>
    </clipPath>
  </defs>
  <g id="Group_888" data-name="Group 888" transform="translate(0 0)">
    <g id="Group_887" data-name="Group 887" transform="translate(0 0)" clip-path="url(#clip-path)">
      <path id="Path_1159" data-name="Path 1159" d="M42.686,21.343A21.343,21.343,0,1,1,21.343,0,21.342,21.342,0,0,1,42.686,21.343" transform="translate(0 0)" fill="#e50012"/>
      <path id="Path_1160" data-name="Path 1160" d="M37.766,35.991l-.154.707h0l-.46,2.194-15.9-3.341a6.985,6.985,0,0,1-12.378-6.4l2.718-9.68h0a1.154,1.154,0,0,1,.623-.736l0,0,.022-.011a.17.17,0,0,0,.03-.011l7.927-3.38L17.736,9.01a.225.225,0,0,1-.017-.045L17.7,8.922h0a1.092,1.092,0,0,1-.058-.355,1.121,1.121,0,0,1,2.171-.392l2.83,7.253a1.17,1.17,0,0,1,.112.492,1.158,1.158,0,0,1-.674,1.049l-.024.014c-.007,0-.014,0-.021.008l-8.425,3.587-1.426,5.075a6.984,6.984,0,0,1,9.286,3l8.781-1.847-.145-.668a.639.639,0,0,1,.491-.761l5.641-1.217a.639.639,0,0,1,.761.491l.154.7h0l.079.383.06.278v.006l.321,1.532L22.189,30.8a6.961,6.961,0,0,1-.08,2.636l8.6,1.812.161-.744a.636.636,0,0,1,.759-.489l5.642,1.215a.641.641,0,0,1,.491.761M15.292,28.472a3.768,3.768,0,0,0,0,7.535s-2-1.689-2-3.769,2-3.766,2-3.766" transform="translate(-1.701 -1.525)" fill="#231815"/>
      <path id="Path_1161" data-name="Path 1161" d="M27.636,6.688a1.121,1.121,0,0,1,1.057.751l1.8,4.571a1.257,1.257,0,0,1,.049.3,1.113,1.113,0,0,1-.719,1.079l-2.082.908-.823-2.107,1.058-.451-1.4-3.572a1.09,1.09,0,0,1-.06-.358,1.126,1.126,0,0,1,1.123-1.122" transform="translate(-5.428 -1.37)" fill="#231815"/>
    </g>
  </g>
</svg>
