<svg xmlns="http://www.w3.org/2000/svg" xmlns:xlink="http://www.w3.org/1999/xlink" width="42.686" height="42.686" viewBox="0 0 42.686 42.686">
  <defs>
    <clipPath id="clip-path">
      <rect id="Rectangle_222" data-name="Rectangle 222" width="42.686" height="42.686" fill="none"/>
    </clipPath>
  </defs>
  <g id="Group_917" data-name="Group 917" clip-path="url(#clip-path)">
    <path id="Path_1223" data-name="Path 1223" d="M42.686,21.343A21.343,21.343,0,1,1,21.343,0,21.343,21.343,0,0,1,42.686,21.343" transform="translate(0 0)" fill="#3061ac"/>
    <path id="Path_1224" data-name="Path 1224" d="M9.585,37.025V16.758s6.444-7.172,8.289-7.172,7.529,9.6,8.6,9.6,3.266-4.615,5-4.615c1.649,0,5.535,8.387,5.535,8.387l.016,14.048ZM24.711,23.108a3.754,3.754,0,0,1,1.721-2.647c.392-.195.307-.828-.507-.415-.766.389-2.317,1.43-2.5,2.974-.167,1.416,2.464,3.382,2.264,5.085-.192,1.618-2.9,2.55-3.172,3.89a7.719,7.719,0,0,0,.184,3.5c-.009.62,1.969,1.625,1.912-.279a9.718,9.718,0,0,1-.19-2.912c.158-1.359,2.655-2.422,2.845-4.053.2-1.72-2.729-3.716-2.558-5.142m-.435,4.833c.377-1.7-2.317-4.025-2.006-5.429a4.291,4.291,0,0,1,2.435-2.531c.807-.437.346-.766-.255-.554-.783.279-3.082,1.22-3.444,2.848-.309,1.393,2.095,3.661,1.722,5.339-.353,1.594-3.128,2.215-3.537,3.521a11.763,11.763,0,0,0,.163,4.485c0,.547,1.688,1.466,1.917-.033a16.745,16.745,0,0,1-.226-3.929c.3-1.338,2.876-2.112,3.23-3.716" transform="translate(-1.962 -1.963)" fill="#231815"/>
  </g>
</svg>
