<svg xmlns="http://www.w3.org/2000/svg" xmlns:xlink="http://www.w3.org/1999/xlink" width="42.686" height="42.686" viewBox="0 0 42.686 42.686">
  <defs>
    <clipPath id="clip-path">
      <rect id="Rectangle_211" data-name="Rectangle 211" width="42.686" height="42.686" fill="none"/>
    </clipPath>
  </defs>
  <g id="Group_896" data-name="Group 896" transform="translate(0 0)">
    <g id="Group_895" data-name="Group 895" transform="translate(0 0)" clip-path="url(#clip-path)">
      <path id="Path_1174" data-name="Path 1174" d="M42.686,21.343A21.343,21.343,0,1,1,21.344,0,21.343,21.343,0,0,1,42.686,21.343" transform="translate(0 0)" fill="#e50012"/>
      <path id="Path_1175" data-name="Path 1175" d="M34.3,30.944c-.08.049-11.372,4.722-11.372,4.722l0-.06L8.306,26.4V24.69l4.153-2.359s12.627,5.726,16.03,7.229a6.472,6.472,0,0,0,2.618.581,5.349,5.349,0,1,0-5.25-5.348,5.48,5.48,0,0,0,.278,1.723c.022.069-12.548-5.068-12.548-5.068-.317-.2-3.725-.989-3.848-4.785s4.449-4.775,4.449-4.775,16.175,4.481,19.293,6.043h0a7.683,7.683,0,0,1,4.265,6.022c.2,2.445-.553,5.631-3.455,6.991" transform="translate(-1.7 -2.434)" fill="#231815"/>
    </g>
  </g>
</svg>
