<svg xmlns="http://www.w3.org/2000/svg" xmlns:xlink="http://www.w3.org/1999/xlink" width="42.686" height="42.686" viewBox="0 0 42.686 42.686">
  <defs>
    <clipPath id="clip-path">
      <rect id="Rectangle_191" data-name="Rectangle 191" width="42.686" height="42.686" fill="none"/>
    </clipPath>
  </defs>
  <g id="Group_856" data-name="Group 856" transform="translate(0 0)">
    <g id="Group_855" data-name="Group 855" transform="translate(0 0)" clip-path="url(#clip-path)">
      <path id="Path_1107" data-name="Path 1107" d="M42.686,21.344A21.343,21.343,0,1,1,21.344,0,21.344,21.344,0,0,1,42.686,21.344" transform="translate(0 0)" fill="#f4dc2e"/>
      <path id="Path_1108" data-name="Path 1108" d="M23.045,37.78A14.736,14.736,0,1,1,37.781,23.044,14.736,14.736,0,0,1,23.045,37.78M29.5,11.23c-.277-.091-1.9-.222-1.9-.222s6.418,4.032,5.926,10.081a25,25,0,0,1-3.273-1.5c-.028-8-9.373-9.947-9.373-9.947s-1.611.55-1.636.577a12.757,12.757,0,0,1,1.592.661A19.316,19.316,0,0,0,9.961,24.1l.706,1.458s2.9-9.514,11.894-13.749A14.8,14.8,0,0,1,24.948,13.4C14.6,19.353,13.011,31.565,13.011,31.565l1.152.8S17.317,20.98,26.54,15.12a9.424,9.424,0,0,1,1.723,3.892c-8.421,6.1-9.946,16-9.946,16l1.237.573A27.548,27.548,0,0,1,21.5,31.078c5.373,3.823,8.268,3.361,8.268,3.361l1.195-.973s-3.64-.647-8.578-4.288c.661-.885,1.039-1.718,2.124-3.138,5.44,3.312,9.768,3.183,9.768,3.183l.973-1.37s-3.065-.2-9.506-3.493a20.492,20.492,0,0,1,3.272-3.314,15.623,15.623,0,0,0,7.338,2.476V21.973A2.755,2.755,0,0,1,35.16,21.8c.045-.372.717-6.019-5.659-10.566" transform="translate(-1.701 -1.701)" fill="#231815"/>
    </g>
  </g>
</svg>
