<?xml version="1.0" encoding="utf-8"?>
<!-- Generator: Adobe Illustrator 25.2.0, SVG Export Plug-In . SVG Version: 6.00 Build 0)  -->
<svg version="1.1" id="圖層_1" xmlns="http://www.w3.org/2000/svg" xmlns:xlink="http://www.w3.org/1999/xlink" x="0px" y="0px"
	 viewBox="0 0 42.7 42.7" style="enable-background:new 0 0 42.7 42.7;" xml:space="preserve">
<style type="text/css">
	.st0{fill:#B3B3B3;}
	.st1{fill:none;stroke:#000000;stroke-miterlimit:10;}
</style>
<g>
	<g id="Group_780">
		<path id="Path_949" class="st0" d="M42.7,21.3c0,11.8-9.6,21.3-21.3,21.3S0,33.1,0,21.3S9.6,0,21.3,0c0,0,0,0,0,0
			C33.1,0,42.7,9.6,42.7,21.3C42.7,21.3,42.7,21.3,42.7,21.3"/>
	</g>
</g>
<g>
	<circle cx="9.1" cy="21.3" r="3.3"/>
	<circle cx="33.5" cy="21.3" r="3.3"/>
</g>
<path class="st1" d="M22.1,16.7"/>
<path class="st1" d="M26.1,21.3"/>
<path class="st1" d="M22.1,16.7"/>
<path d="M21.7,15.7L21,16.4l4.6,4.4H15.4v1h10.3L21,26.6l0.7,0.7l5.9-6L21.7,15.7z M26.1,21.3L26.1,21.3v0.1V21.3z"/>
</svg>
