<svg xmlns="http://www.w3.org/2000/svg" xmlns:xlink="http://www.w3.org/1999/xlink" width="42.686" height="42.686" viewBox="0 0 42.686 42.686">
  <defs>
    <clipPath id="clip-path">
      <rect id="Rectangle_160" data-name="Rectangle 160" width="42.686" height="42.686" fill="none"/>
    </clipPath>
  </defs>
  <g id="Group_784" data-name="Group 784" clip-path="url(#clip-path)">
    <path id="Path_958" data-name="Path 958" d="M42.686,21.343A21.343,21.343,0,1,1,21.344,0,21.343,21.343,0,0,1,42.686,21.343" transform="translate(0 0)" fill="#ed7700"/>
    <path id="Path_959" data-name="Path 959" d="M13.51,32.216a1,1,0,1,1,1-1.005,1,1,0,0,1-1,1.005" transform="translate(-2.561 -6.185)" fill="#231815"/>
    <path id="Path_960" data-name="Path 960" d="M32.986,34.386a6.429,6.429,0,0,1-6.392-5.74h-1.23a1.909,1.909,0,1,1-3.545-1.412l-5.779-5.957-.318,1.383a6.457,6.457,0,1,1-3.752-1.183,6.4,6.4,0,0,1,2.508.51L15.819,16.7l-1.907.239a.848.848,0,0,0-.751.835.752.752,0,0,0,.505.77.681.681,0,0,1-.223,1.326.6.6,0,0,1-.137-.016,2.1,2.1,0,0,1-1.628-2.106,2.069,2.069,0,0,1,1.909-1.991l2.431-.3s.559-.072.593-.072a.724.724,0,0,1,.725.724.846.846,0,0,1-.013.135v0L16.7,18.729l9.324-.014.982-2.948-1.187-.022a.677.677,0,1,1-.128-1.347l3.506-.338a.879.879,0,1,1,.169,1.75.937.937,0,0,1-.2,0l-.649-.013-1.088,3.146,2.271,3.5a6.427,6.427,0,1,1,3.284,11.951M29.03,22.9l-1.9-3.016-2.226,6.742a1.839,1.839,0,0,1,.437.657h1.246A6.388,6.388,0,0,1,29.03,22.9m-17.077.541a4.5,4.5,0,1,0,4.475,4.473,4.424,4.424,0,0,0-4.475-4.473m4.495-3.763-.146.587,6.322,6.067a1.911,1.911,0,0,1,.95-.252h.022l2.119-6.388Zm16.529,3.8A4.57,4.57,0,0,0,28.5,27.953a4.474,4.474,0,1,0,8.947,0,4.57,4.57,0,0,0-4.473-4.474" transform="translate(-1.134 -2.878)" fill="#231815"/>
    <path id="Path_961" data-name="Path 961" d="M39.858,32.216a1,1,0,1,1,1-1.005,1,1,0,0,1-1,1.005" transform="translate(-7.955 -6.185)" fill="#231815"/>
  </g>
</svg>
