<svg xmlns="http://www.w3.org/2000/svg" xmlns:xlink="http://www.w3.org/1999/xlink" width="42.686" height="42.686" viewBox="0 0 42.686 42.686">
  <defs>
    <clipPath id="clip-path">
      <rect id="Rectangle_169" data-name="Rectangle 169" width="42.686" height="42.686" fill="none"/>
    </clipPath>
  </defs>
  <g id="Group_802" data-name="Group 802" clip-path="url(#clip-path)">
    <path id="Path_992" data-name="Path 992" d="M42.686,21.343A21.343,21.343,0,1,1,21.343,0,21.343,21.343,0,0,1,42.686,21.343" transform="translate(0 0)" fill="#44af35"/>
    <path id="Path_993" data-name="Path 993" d="M34.289,25.737A35.613,35.613,0,0,1,28.6,17.9a13.312,13.312,0,0,0-4.066-5.337A17,17,0,0,0,17.427,8.73,7.8,7.8,0,0,0,9.91,10.5a5.948,5.948,0,0,0-.883,6.928A10.651,10.651,0,0,0,13,21.992c1.77,1.091,6.722,3.156,9.64,5.4,2.239,2.124,2.27,5.6,6.279,8.96a6.161,6.161,0,0,0,7.4.266c1.191-.7,3.376-5.1-2.032-10.876M13.154,20.225a7.824,7.824,0,0,1-1.325-1.3V15.215l.146-.148h3.094v-3.1l.148-.147h5.659a14.23,14.23,0,0,1,1.975,1.324H16.4v3.1l-.15.145H13.154ZM16.4,22.142c-.5-.266-.976-.5-1.328-.679v-3.89l.148-.146H18.34v-3.1l.146-.146h5.545a17.574,17.574,0,0,1,1.21,1.326H19.67v3.1l-.146.148H16.4Zm3.126,1.622q-.711-.4-1.328-.709V20.077l.145-.146h3.1v-3.1l.148-.146h4.569c.355.5.62.942.856,1.327H22.764V21.11l-.146.148H19.523Zm6.189-.148-.148.148H22.47V25.5c-.444-.267-.886-.56-1.327-.825V22.584l.146-.148h3.1V19.342l.147-.146h3.155q.4.66.883,1.327H25.712Zm.059,6.248,2.507-.973L29.1,30.13l-2.448,1.385c-.324-.56-.619-1.121-.883-1.651m3.1,4.715a13.006,13.006,0,0,1-1.212-1.531l2.151-1.74,1.032,1.032Zm1.115-7.191,2.092-2.271c.619.708,1,1.182,1,1.153a4.027,4.027,0,0,0,.3.353L31.1,28.538Zm4.924,6.6-1.267-.148-.148,1.21-.884-.089.148-1.209-1.271-.147.092-.884,1.266.15.119-1.212.882.091-.118,1.207L35,33.107Zm-2.24-3.213-.619-1,2.326-1.887a15.794,15.794,0,0,1,.975,1.5Z" transform="translate(-1.701 -1.722)" fill="#231815"/>
  </g>
</svg>
