<svg xmlns="http://www.w3.org/2000/svg" xmlns:xlink="http://www.w3.org/1999/xlink" width="42.686" height="42.686" viewBox="0 0 42.686 42.686">
  <defs>
    <clipPath id="clip-path">
      <rect id="Rectangle_174" data-name="Rectangle 174" width="42.686" height="42.686" fill="none"/>
    </clipPath>
  </defs>
  <g id="Group_812" data-name="Group 812" clip-path="url(#clip-path)">
    <path id="Path_1009" data-name="Path 1009" d="M42.686,21.343A21.343,21.343,0,1,1,21.343,0,21.343,21.343,0,0,1,42.686,21.343" transform="translate(0 0)" fill="#44af35"/>
    <path id="Path_1010" data-name="Path 1010" d="M9.585,37.025V16.814s6.493-7.228,8.353-7.228,7.584,9.675,8.661,9.675,3.291-4.652,5.04-4.652c1.665,0,5.367,8.454,5.367,8.454l.02,13.947Zm19.338-9.972c-.041-.052-.317-.042-.3.268.027.47,1.591,1.3.506,1.871-.983.886-1.31.514-.485,1.472.626,1.064-.055,4.084-3.357,2.065-3.013-2.684-9.834-7.786-9.834-7.786s-3.69-3.518.789-5.856c3.184-1.723,4.594,1.152,5.157,1.533,2.53-3.393,1.975,2.826,3.4.856-1.618-2.983-4.76-7.7-9.846-4.147,0,0-6.973,3.77-.681,9.754,3.948,3.227,3.862,2.474,9.315,7.29,3.106,3.158,9.855.588,7-5.457a24.772,24.772,0,0,0-1.657-1.863M23.2,21.412c-.62-1.531-1.491-.242-1.491-.242.418.713,1.618,1.88,1.512,2.131s-.3.18-.336.468,1.177,1.7,1.5,2.181.37.136.54.31c.231.238.791.857.791.857s.277.374.554.127a10.07,10.07,0,0,0,1.319,1.817c.3.293.982-.367.98-.7s-.977-1.207-1-1.321c-.057-.274.519-.7.639-.839.1-.113-.2-.362-.165-.39s.287-.146.045-.527c-.031-.046-.705-1.027-.681-1s.259-.208-.144-.564c.351.309-1.446-1.731-1.65-1.955s-.511.293-.577.426c-.05.1-.923,1.468-1.838-.785" transform="translate(-1.962 -1.963)" fill="#231815"/>
  </g>
</svg>
