<svg xmlns="http://www.w3.org/2000/svg" xmlns:xlink="http://www.w3.org/1999/xlink" width="42.686" height="42.686" viewBox="0 0 42.686 42.686">
  <defs>
    <clipPath id="clip-path">
      <rect id="Rectangle_158" data-name="Rectangle 158" width="42.686" height="42.686" fill="none"/>
    </clipPath>
  </defs>
  <g id="Group_780" data-name="Group 780" clip-path="url(#clip-path)">
    <path id="Path_949" data-name="Path 949" d="M42.686,21.343A21.343,21.343,0,1,1,21.343,0,21.342,21.342,0,0,1,42.686,21.343" transform="translate(0 0)" fill="#ed7700"/>
    <path id="Path_950" data-name="Path 950" d="M25.694,7.4a4.436,4.436,0,1,1-4.435,4.437A4.437,4.437,0,0,1,25.694,7.4" transform="translate(-4.352 -1.515)" fill="#231815"/>
    <path id="Path_951" data-name="Path 951" d="M35.935,27.037a6.254,6.254,0,0,0-1.925,1.177L29.329,20.1a6.187,6.187,0,0,0,1.966-1.092Z" transform="translate(-6.004 -3.892)" fill="#231815"/>
    <path id="Path_952" data-name="Path 952" d="M20.682,19.013a6.213,6.213,0,0,0,1.97,1.094l-4.685,8.11a6.2,6.2,0,0,0-1.919-1.179Z" transform="translate(-3.285 -3.892)" fill="#231815"/>
    <path id="Path_953" data-name="Path 953" d="M12.106,39.692a4.437,4.437,0,1,1,4.435-4.437,4.437,4.437,0,0,1-4.435,4.437" transform="translate(-1.57 -6.309)" fill="#231815"/>
    <path id="Path_954" data-name="Path 954" d="M30.328,37.234h-9.4a6.437,6.437,0,0,0,0-2.254h9.4a6.193,6.193,0,0,0,0,2.254" transform="translate(-4.285 -7.161)" fill="#231815"/>
    <path id="Path_955" data-name="Path 955" d="M39.286,39.692a4.437,4.437,0,1,1,4.437-4.437,4.436,4.436,0,0,1-4.437,4.437" transform="translate(-7.134 -6.309)" fill="#231815"/>
  </g>
</svg>
