<svg xmlns="http://www.w3.org/2000/svg" xmlns:xlink="http://www.w3.org/1999/xlink" width="42.686" height="42.686" viewBox="0 0 42.686 42.686">
  <defs>
    <clipPath id="clip-path">
      <rect id="Rectangle_204" data-name="Rectangle 204" width="42.686" height="42.686" fill="none"/>
    </clipPath>
  </defs>
  <g id="Group_882" data-name="Group 882" transform="translate(0 0)">
    <g id="Group_881" data-name="Group 881" transform="translate(0 0)" clip-path="url(#clip-path)">
      <path id="Path_1139" data-name="Path 1139" d="M42.686,21.343A21.343,21.343,0,1,1,21.344,0,21.343,21.343,0,0,1,42.686,21.343" transform="translate(0 0)" fill="#e50012"/>
      <path id="Path_1140" data-name="Path 1140" d="M34.511,33.628l.5,1.671L33.774,36.68l-20.3-.627-1.525-1.6a38.606,38.606,0,0,0,3.309-3.474,8.258,8.258,0,0,0,.748-6.147l-2.571-9.357,1.86-.687s.569,1.775,2.6,9.177c.613,2.232,2.382,1.051,2.76.849A58.887,58.887,0,0,1,29.9,17.94l-1.477-7.064,6.062-.025-.352,2.13-3.751-.025,1.657,8.277H32.1a6.433,6.433,0,0,1,2.415,12.394M32.1,23.529a4.135,4.135,0,1,0,4.137,4.135A4.134,4.134,0,0,0,32.1,23.529m-11.5,3.647a2.51,2.51,0,1,0,2.508,2.51,2.51,2.51,0,0,0-2.508-2.51" transform="translate(-2.447 -2.222)" fill="#231815"/>
      <path id="Path_1141" data-name="Path 1141" d="M8.645,11.194a4.073,4.073,0,0,1,2.732-.849c1.841.482,5.194.049,6.5.1s2.1,1.524,1.355,1.716a9.55,9.55,0,0,1-2.95.536c-2.082-.048-2.2,1-4.858,1.532-4.068-.049-3.112-2.574-2.78-3.036" transform="translate(-1.7 -2.118)" fill="#231815"/>
      <path id="Path_1142" data-name="Path 1142" d="M26.8,26.86c.009,0,.02-.013.035-.022-.015.01-.026.018-.035.022" transform="translate(-5.486 -5.495)" fill="#231815"/>
      <path id="Path_1143" data-name="Path 1143" d="M26.839,26.832h0l.034-.024c-.013.008-.022.017-.034.024" transform="translate(-5.495 -5.489)" fill="#231815"/>
      <path id="Path_1144" data-name="Path 1144" d="M26.83,26.865a.256.256,0,0,1,.006-.027.256.256,0,0,0-.006.027" transform="translate(-5.493 -5.495)" fill="#231815"/>
      <path id="Path_1145" data-name="Path 1145" d="M26.847,26.8a.071.071,0,0,0-.008.028.071.071,0,0,1,.008-.028" transform="translate(-5.495 -5.488)" fill="#231815"/>
    </g>
  </g>
</svg>
