<?xml version="1.0" encoding="utf-8"?>
<!-- Generator: Adobe Illustrator 25.1.0, SVG Export Plug-In . SVG Version: 6.00 Build 0)  -->
<svg version="1.1" id="圖層_1" xmlns="http://www.w3.org/2000/svg" xmlns:xlink="http://www.w3.org/1999/xlink" x="0px" y="0px"
	 viewBox="0 0 1024 1024" style="enable-background:new 0 0 1024 1024;" xml:space="preserve">
<path id="compass_large_circled" transform="translate(0)" d="M512,41.6C252.2,41.6,41.6,252.2,41.6,512S252.2,982.4,512,982.4
	S982.4,771.8,982.4,512S771.8,41.6,512,41.6 M512,73c242.5,0,439,196.5,439,439S754.5,951,512,951S73,754.5,73,512
	C73.3,269.7,269.7,73.3,512,73 M586,585.1l-245.8,98.1l99.4-244.5l244.5-99.4L586,585.1z M422.3,411.9L422.3,411.9
	c-4.4,1.8-7.7,5.2-9.5,9.5L283.4,739.7L603.3,612c4.4-1.8,7.8-5.3,9.6-9.7l127.7-319.8L422.3,411.9z M513,535.3
	c-13,0-23.5-10.5-23.5-23.5c0-13,10.5-23.5,23.5-23.5c13,0,23.5,10.5,23.5,23.5C536.5,524.7,526,535.2,513,535.3 M513,456.9
	c-30.3,0-54.9,24.6-54.9,54.9c0,30.3,24.6,54.9,54.9,54.9c30.3,0,54.9-24.6,54.9-54.9C567.8,481.5,543.3,456.9,513,456.9"/>
</svg>
