<?xml version="1.0" encoding="utf-8"?>
<!-- Generator: Adobe Illustrator 25.1.0, SVG Export Plug-In . SVG Version: 6.00 Build 0)  -->
<svg version="1.1" id="圖層_1" xmlns="http://www.w3.org/2000/svg" xmlns:xlink="http://www.w3.org/1999/xlink" x="0px" y="0px"
	 viewBox="0 0 1024 1024" style="enable-background:new 0 0 1024 1024;" xml:space="preserve">
<style type="text/css">
	.st0{fill-rule:evenodd;clip-rule:evenodd;}
</style>
<path class="st0" d="M512,35.6C248.9,35.6,35.6,248.9,35.6,512S248.9,988.4,512,988.4S988.4,775.1,988.4,512S775.1,35.6,512,35.6z
	 M512,956.6C266.5,956.6,67.4,757.5,67.4,512C67.7,266.6,266.6,67.7,512,67.4c245.5,0,444.6,199.1,444.6,444.6
	S757.5,956.6,512,956.6z M621.6,343c4.5-10.1,7.6-20.8,9.1-31.8c62,36.5,103.7,99.5,113,170.9c-10.4-2.9-21.1-4.4-31.9-4.4h-0.8
	C701.2,422.3,668.8,373.5,621.6,343z M312.1,478.3c-10.7,0-21.4,1.5-31.7,4.4c9.1-71.6,51-135,113.2-171.6
	c1.5,10.9,4.6,21.6,9.1,31.7c-47.5,30.6-80,79.8-89.6,135.5H312.1z M650.8,700.2c-82.3,61-194.8,61.1-277.2,0.2
	c9.5-5.7,18.1-12.6,25.6-20.6c68.2,46,157.6,45.9,225.7-0.2C632.5,687.7,641.2,694.7,650.8,700.2z M513.4,382.5
	c35.3-0.5,66.9-22.1,80.2-54.8c4.2-10.1,6.4-20.8,6.5-31.7v-1.4c-0.1-48.5-39.4-87.8-87.9-87.9c-48.5,0.1-87.8,39.4-87.9,87.9v1.3
	C425,344.4,464.8,383.2,513.4,382.5z M456.8,285.4c5.1-30.6,33.9-51.2,64.5-46.2c23.7,3.9,42.3,22.5,46.2,46.3
	c0.5,3,0.8,6.1,0.8,9.1c0,7.8-1.6,15.5-4.8,22.5c-12.4,28.4-45.5,41.3-73.8,28.9c-12.9-5.7-23.3-16-28.9-29
	c-3.2-7.1-4.8-14.7-4.8-22.5C456,291.5,456.3,288.4,456.8,285.4z M745.6,516.3c-10.1-4.2-20.8-6.5-31.8-6.8h-2.2
	c-48.6,0-88,39.3-88,87.9c0,48.6,39.3,88,87.9,88s88-39.3,88-87.9C799.6,562,778.3,530,745.6,516.3z M758.6,628.1
	c-10.4,15.8-28,25.4-47,25.3h0c-4.2,0-8.3-0.5-12.4-1.4c-25.6-5.8-43.7-28.5-43.7-54.7c0-31,25.1-56.1,56.1-56.1h0.2
	c10.9,0,21.6,3.2,30.6,9.3C768.4,567.5,775.6,602.2,758.6,628.1z M400,598c-0.5-48.3-39.6-87.4-87.9-87.9h-1.8
	c-49,0.5-88.4,40.7-87.9,89.7c0.5,49,40.7,88.4,89.7,87.9C361.1,687.2,400.5,647,400,598z M325.2,652.5c-4.3,1.1-8.7,1.6-13.1,1.6
	c-31,0-56.1-25.1-56.1-56c0-19.1,9.7-36.9,25.7-47.2c9-5.9,19.6-9.1,30.4-9.1h0.2c30.9,0.2,55.9,25.2,55.9,56.1
	C368.1,623.9,350.4,646.4,325.2,652.5z"/>
</svg>
