<?xml version="1.0" encoding="utf-8"?>
<!-- Generator: Adobe Illustrator 25.1.0, SVG Export Plug-In . SVG Version: 6.00 Build 0)  -->
<svg version="1.1" id="Group_729" xmlns="http://www.w3.org/2000/svg" xmlns:xlink="http://www.w3.org/1999/xlink" x="0px" y="0px"
	 viewBox="0 0 1024 1024" style="enable-background:new 0 0 1024 1024;" xml:space="preserve">
<style type="text/css">
	.st0{fill:url(#play-circle-solid_1_);}
	.st1{fill:#FFFFFF;}
</style>
<g>
	
		<linearGradient id="play-circle-solid_1_" gradientUnits="userSpaceOnUse" x1="-894.6405" y1="569.3417" x2="-906.2134" y2="569.9088" gradientTransform="matrix(81.636 0 0 -81.636 74023.8594 47014.1523)">
		<stop  offset="0" style="stop-color:#BEF4F6"/>
		<stop  offset="1" style="stop-color:#007B80"/>
	</linearGradient>
	<path id="play-circle-solid" class="st0" d="M512,39.6C251.1,39.6,39.6,251.1,39.6,512c0,260.9,211.5,472.4,472.4,472.4
		c260.9,0,472.4-211.5,472.4-472.4c0-260.8-211.4-472.3-472.2-472.4C512.1,39.6,512,39.6,512,39.6z M732.4,557.7L397.1,750.1
		c-22.1,12.3-50,4.3-62.3-17.8c-3.8-6.8-5.7-14.4-5.7-22.2V313.9c0.1-25.3,20.6-45.8,45.9-45.7c7.7,0,15.3,2,22.1,5.7l335.2,203.8
		c22.1,12.4,30,40.3,17.6,62.4C745.8,547.5,739.7,553.6,732.4,557.7z"/>
	<path class="st1" d="M732.4,557.7L397.1,750.1c-22.1,12.3-50,4.3-62.3-17.8c-3.8-6.8-5.7-14.4-5.7-22.2V313.9
		c0.1-25.3,20.6-45.8,45.9-45.7c7.7,0,15.3,2,22.1,5.7l335.2,203.8c22.1,12.4,30,40.3,17.6,62.4
		C745.8,547.5,739.7,553.6,732.4,557.7z"/>
</g>
</svg>
