<?xml version="1.0" encoding="utf-8"?>
<!-- Generator: Adobe Illustrator 25.1.0, SVG Export Plug-In . SVG Version: 6.00 Build 0)  -->
<svg version="1.1" id="圖層_1" xmlns="http://www.w3.org/2000/svg" xmlns:xlink="http://www.w3.org/1999/xlink" x="0px" y="0px"
	 viewBox="0 0 1024 1024" style="enable-background:new 0 0 1024 1024;" xml:space="preserve">
<path d="M512,40.2C251.5,40.2,40.2,251.5,40.2,512S251.5,983.8,512,983.8S983.8,772.5,983.8,512S772.5,40.2,512,40.2z M512,952.3
	C268.8,952.3,71.7,755.2,71.7,512C72,268.9,268.9,72,512,71.7c243.2,0,440.3,197.1,440.3,440.3S755.2,952.3,512,952.3z M261.5,502.1
	c-3.5,10.8,2.3,22.3,13.1,25.9l166.1,54.8l51.5,166.5c1.7,5.6,5.8,10.2,11.2,12.6c10.3,4.7,22.5,0.1,27.2-10.3l188.4-425.2
	l16.3-36.8l-462.2,200C267.5,492,263.3,496.5,261.5,502.1z M673.7,350.5L513.6,712.1l-45.4-146.4l-2.4-7.8l-154.1-50.8L673.7,350.5z
	"/>
</svg>
