<?xml version="1.0" encoding="utf-8"?>
<!-- Generator: Adobe Illustrator 25.1.0, SVG Export Plug-In . SVG Version: 6.00 Build 0)  -->
<svg version="1.1" id="圖層_2" xmlns="http://www.w3.org/2000/svg" xmlns:xlink="http://www.w3.org/1999/xlink" x="0px" y="0px"
	 viewBox="0 0 1024 1024" style="enable-background:new 0 0 1024 1024;" xml:space="preserve">
<style type="text/css">
	.st0{fill:url(#SVGID_1_);}
	.st1{fill:url(#SVGID_2_);}
</style>
<g>
	<linearGradient id="SVGID_1_" gradientUnits="userSpaceOnUse" x1="919.2044" y1="919.2044" x2="130.508" y2="130.508">
		<stop  offset="0" style="stop-color:#161616"/>
		<stop  offset="1" style="stop-color:#313131"/>
	</linearGradient>
	<path class="st0" d="M778.8,46.8H245.2c-109.8,0-198.8,89-198.8,198.8v532.8c0,109.8,89,198.8,198.8,198.8h533.7
		c109.8,0,198.8-89,198.8-198.8V245.6C977.7,135.8,888.6,46.8,778.8,46.8z M696.4,642.7H328c-6.9,0-11-7.8-6.9-13.5l184-255.7
		c3.4-4.7,10.4-4.7,13.8,0l184.4,255.7C707.4,634.8,703.4,642.7,696.4,642.7z"/>
	<linearGradient id="SVGID_2_" gradientUnits="userSpaceOnUse" x1="512.2349" y1="643.4276" x2="512.2349" y2="362.9366">
		<stop  offset="0" style="stop-color:#E92021"/>
		<stop  offset="1" style="stop-color:#FB5519"/>
	</linearGradient>
	<path class="st1" d="M518.9,373.4c-3.4-4.7-10.4-4.7-13.8,0l-184,255.7c-4,5.6,0,13.5,6.9,13.5h368.4c6.9,0,11-7.9,6.9-13.5
		L518.9,373.4z"/>
</g>
</svg>
