<svg xmlns="http://www.w3.org/2000/svg" xmlns:xlink="http://www.w3.org/1999/xlink" width="42.686" height="42.686" viewBox="0 0 42.686 42.686">
  <defs>
    <clipPath id="clip-path">
      <rect id="Rectangle_180" data-name="Rectangle 180" width="42.686" height="42.686" fill="none"/>
    </clipPath>
  </defs>
  <g id="Group_824" data-name="Group 824" clip-path="url(#clip-path)">
    <path id="Path_1035" data-name="Path 1035" d="M42.686,21.343A21.343,21.343,0,1,1,21.344,0,21.343,21.343,0,0,1,42.686,21.343" transform="translate(0 0)" fill="#209bad"/>
    <path id="Path_1036" data-name="Path 1036" d="M36.512,41.285a7.608,7.608,0,0,1-2.92.7c-.988,0-2.14-1.533-3.4-1.533-1.09,0-2.255,1.533-3.463,1.533-1.121,0-2.275-1.533-3.43-1.533s-2.328,1.533-3.46,1.533c-1.183,0-2.325-1.533-3.4-1.533-1.269,0-2.434,1.564-3.428,1.564a7.99,7.99,0,0,1-2.943-.7c-.681-.244-.686-1.5.229-1.51a9.114,9.114,0,0,0,2.75.412c.995,0,2.158-1.567,3.428-1.567,1.07,0,2.213,1.534,3.394,1.534,1.111,0,2.255-1.534,3.4-1.534,1.175,0,2.353,1.534,3.5,1.534,1.179,0,2.323-1.534,3.394-1.534,1.269,0,2.433,1.534,3.43,1.534a9.46,9.46,0,0,0,2.617-.362c1.058-.142,1.009,1.315.3,1.456" transform="translate(-1.962 -7.914)" fill="#231815"/>
    <path id="Path_1037" data-name="Path 1037" d="M30.786,23.143c-.06,0-.115,0-.17,0a10.466,10.466,0,0,1-2.557,1.311,12.762,12.762,0,0,1-1.7,1.019c-1.477,1.986-2.53,3.991-6.3,5.334-3.211.988-5.676-.737-6.585-.908a4.635,4.635,0,0,1-3.333-2.842c.007.028.013.057.019.084.023.074.045.15.072.226a.869.869,0,0,1-.072-.226c-.017-.058-.033-.111-.049-.167a4.287,4.287,0,0,1-.2-1.1c-.581-3.65-1.183-12.6,5.483-10.887,4.7,1.206,7.222-1.658,10.16-3.545,2.475-1.8,3.874.8,4.582.37,5.336-1.286,5.593,1.02,6.846,2.1.023.02.049,3.257.029,3.257,0-.025-.01-.085-.029-.169.27,1.781-.908,5.417-6.2,6.147m-.939-9.585c-1.147.354-2.554-2.2-3.749-.237-2.73,4.481-3.079,4.751-8.8,3.919-2.544-.369-4.221-.968-4.885.156-2.395,4.063-1.323,5.088-1.323,5.088s-.021.018-.058.057c.017-.017.038-.039.056-.053a6.786,6.786,0,0,1,3.635-.48c1.25,0,6.072-2.328,7.717-2.611,1.239-.219,3,1.653,4.15,2.471a5.691,5.691,0,0,0,1.835.271,3.6,3.6,0,0,1-.195-2.912c.289-1.8,2.472-3.3,3.747-4.236a13.876,13.876,0,0,1,2.74-1.152s.084.041.216.119c-1.073-.665-2.678-1-5.086-.4m5.086.4A4.5,4.5,0,0,1,36.6,15.845a4.122,4.122,0,0,0-1.665-1.887M10.489,23.284a4.536,4.536,0,0,0-.577,2.336,5.154,5.154,0,0,1,.577-2.336m26.254-7.007a1.272,1.272,0,0,1,.109.205,5.9,5.9,0,0,0-.255-.637,3.665,3.665,0,0,1,.146.432m.244.72a2.187,2.187,0,0,0-.135-.515,4.073,4.073,0,0,1,.135.515M11.034,22.541a2.786,2.786,0,0,0-.545.743,3.62,3.62,0,0,1,.545-.743M9.912,25.619c0,.082,0,.163.006.246,0,.02.007.041.01.06-.007-.1-.013-.207-.016-.305m.2,1.35c.01.026.019.056.029.084-.057-.248-.137-.636-.216-1.128a5.692,5.692,0,0,0,.186,1.044m6.3,2.909c.007.011.013.025.021.036.006-.006,0-.019-.021-.036m3.712-5.557c-2.016,1.808-3.646,3.67-2.1,5.005s3.187.266,5.2-1.542,2.954-4.047,2.1-5.005-3.187-.266-5.2,1.542m11.833-6.6c-1.257,1.443-1.777,3.2-1.005,3.719,1.156.783,2.29-.059,3.548-1.5s1.707-3.107,1-3.719-2.289.059-3.546,1.5M23.6,20.975a8.067,8.067,0,0,0-5.77,1.431c-3.028,2.33-3.568,4.78-2.449,6.652a3.142,3.142,0,0,0,1.036.821c-2.374-3.329,1.5-7.857,7.182-8.9" transform="translate(-1.962 -2.209)" fill="#231815"/>
  </g>
</svg>
