<svg xmlns="http://www.w3.org/2000/svg" xmlns:xlink="http://www.w3.org/1999/xlink" width="42.686" height="42.686" viewBox="0 0 42.686 42.686">
  <defs>
    <clipPath id="clip-path">
      <rect id="Rectangle_168" data-name="Rectangle 168" width="42.686" height="42.686" fill="none"/>
    </clipPath>
  </defs>
  <g id="Group_800" data-name="Group 800" clip-path="url(#clip-path)">
    <path id="Path_981" data-name="Path 981" d="M42.686,21.343A21.343,21.343,0,1,1,21.343,0,21.342,21.342,0,0,1,42.686,21.343" transform="translate(0 0)" fill="#ed7700"/>
    <path id="Path_982" data-name="Path 982" d="M36.143,36.64c-1.731,1.47-4.679,1.517-6.1.144-2.473-2.057-5.586-9.773-7.348-11.023-2.958-2.237-5.973-2-9.127-3.879A13.347,13.347,0,0,1,8.915,16c-2.079-4.178,1.3-9.372,8.075-7.164a18.426,18.426,0,0,1,6.684,4.034c4.139,3.833,3.642,6.075,6.45,9.691.7.725,3.125,3.339,4.14,4.191,5.916,5.306,2.777,9.024,1.878,9.888m-8.16-14.58c-.125-.188-.254-.411-.39-.662-.415-.058-.834-.112-1.257-.168q-.314-.3-.63-.593c.47-.068.935-.128,1.4-.185-.394-.784-.853-1.715-1.426-2.685-.28.027-.561.056-.843.086-.067.523-.131,1.055-.2,1.6l-.639-.627c-.066-.694-.133-1.375-.2-2.047.467.066.932.133,1.4.2a18.591,18.591,0,0,0-1.338-1.837c-.555.048-1.11.1-1.669.174-.076.519-.145,1.046-.215,1.579-.216-.2-.433-.406-.651-.6-.066-.685-.125-1.358-.176-2.033.739.082,1.471.181,2.2.291a14.075,14.075,0,0,0-2.19-1.943c-.542.068-1.089.142-1.636.232-.09.53-.171,1.065-.248,1.6q-.328-.295-.663-.581c-.055-.683-.1-1.362-.136-2.053q.828.05,1.645.133A16.512,16.512,0,0,0,16.9,10.415c-.022,0-.041.008-.064.013-.112.563-.213,1.114-.3,1.663-.224-.187-.448-.371-.672-.555-.03-.473-.051-.951-.065-1.439-2.189-.511-4.063-.234-5.208.9-1.025,1.019-1.009,2.778-.3,4.6.544-.049,1.086-.093,1.623-.131.235.153.47.307.7.464-.632.19-1.268.39-1.9.6a11.808,11.808,0,0,0,1.81,2.584c-.038-.486-.081-.962-.125-1.435.791-.049,1.579-.09,2.357-.114.227.172.456.339.682.512q-.951.259-1.917.559c-.056.424-.114.851-.177,1.288a10.036,10.036,0,0,0,.919.734,6.3,6.3,0,0,0,1.212.638c-.028-.5-.063-1-.1-1.487.779-.029,1.553-.038,2.319-.035.219.185.443.366.662.55-.623.159-1.256.328-1.892.515-.037.258-.076.522-.115.787.62.218,1.3.429,2.006.648,0-.072-.011-.162-.016-.274q1.149,0,2.275.035c.216.2.432.389.647.587-.353.08-.7.168-1.062.261,1.93.682,3.739,1.559,4.57,2.975,1.326,2.251,3.243,6.024,4.7,8,1.979,2.7,3.745,2.815,5.36,1.632s2.173-3.018-.017-5.91c-1.238-1.641-5.084-4.884-6.825-7.519" transform="translate(-1.701 -1.701)" fill="#231815"/>
    <path id="Path_983" data-name="Path 983" d="M13.1,12.911c-.079.55-.152,1.1-.224,1.645-.235-.163-.473-.328-.711-.486-.074-.672-.146-1.338-.207-2.012q1.224-.126,2.427-.195c.231.157.459.313.686.473q-.983.271-1.971.574" transform="translate(-2.449 -2.429)" fill="#231815"/>
    <path id="Path_984" data-name="Path 984" d="M16.727,15.586c-.072.55-.144,1.1-.216,1.664-.231-.181-.461-.359-.694-.536-.07-.693-.142-1.375-.212-2.057q1.188-.05,2.352-.04c.223.172.449.34.672.513-.628.14-1.265.293-1.9.456" transform="translate(-3.195 -2.992)" fill="#231815"/>
    <path id="Path_985" data-name="Path 985" d="M20.268,18.457c-.068.557-.139,1.116-.213,1.692-.222-.195-.449-.388-.673-.579-.067-.716-.138-1.415-.205-2.109q1.15.012,2.282.077c.222.182.441.363.662.547-.612.108-1.229.235-1.853.372" transform="translate(-3.926 -3.575)" fill="#231815"/>
    <path id="Path_986" data-name="Path 986" d="M23.726,21.518c-.07.565-.144,1.139-.222,1.727-.22-.206-.439-.412-.658-.616-.057-.738-.122-1.463-.187-2.168.75.037,1.494.093,2.227.158.218.192.433.383.65.576q-.9.141-1.81.323" transform="translate(-4.639 -4.189)" fill="#231815"/>
    <path id="Path_987" data-name="Path 987" d="M27.191,24.848c-.072.581-.15,1.171-.235,1.775-.212-.219-.427-.435-.638-.651-.048-.763-.1-1.506-.163-2.236.736.059,1.465.133,2.187.214q.32.295.634.595c-.59.093-1.183.192-1.785.3" transform="translate(-5.355 -4.86)" fill="#231815"/>
    <path id="Path_988" data-name="Path 988" d="M28.517,28.187c.6-.125,1.2-.238,1.791-.347.083-.592.158-1.175.23-1.745l.629.656c.052.736.1,1.49.138,2.259q-1.075-.116-2.168-.207c-.206-.2-.414-.41-.62-.617" transform="translate(-5.838 -5.343)" fill="#231815"/>
    <path id="Path_989" data-name="Path 989" d="M31.71,31.675q.895-.183,1.785-.352.136-.919.258-1.805c.207.223.41.446.614.671.039.763.071,1.543.09,2.336-.715-.073-1.426-.143-2.146-.212l-.6-.638" transform="translate(-6.492 -6.043)" fill="#231815"/>
    <path id="Path_990" data-name="Path 990" d="M35.373,35.916c-.195-.219-.386-.438-.585-.658.6-.121,1.193-.244,1.786-.369.112-.633.214-1.257.313-1.875l.6.684q.026,1.189.021,2.416c-.709-.059-1.421-.131-2.133-.2" transform="translate(-7.122 -6.759)" fill="#231815"/>
    <path id="Path_991" data-name="Path 991" d="M40.462,39.757c-.718-.049-1.426-.107-2.136-.171-.187-.221-.373-.443-.561-.667.6-.129,1.2-.262,1.8-.4.133-.655.258-1.306.378-1.947.193.23.39.46.584.69-.01.824-.033,1.657-.061,2.5" transform="translate(-7.731 -7.487)" fill="#231815"/>
  </g>
</svg>
