<svg xmlns="http://www.w3.org/2000/svg" xmlns:xlink="http://www.w3.org/1999/xlink" width="42.686" height="42.686" viewBox="0 0 42.686 42.686">
  <defs>
    <clipPath id="clip-path">
      <rect id="Rectangle_177" data-name="Rectangle 177" width="42.686" height="42.686" fill="none"/>
    </clipPath>
  </defs>
  <g id="Group_818" data-name="Group 818" clip-path="url(#clip-path)">
    <path id="Path_1024" data-name="Path 1024" d="M42.686,21.343A21.343,21.343,0,1,1,21.344,0,21.343,21.343,0,0,1,42.686,21.343" transform="translate(0 0)" fill="#209bad"/>
    <path id="Path_1025" data-name="Path 1025" d="M31.638,26.325c-.072,0-.139,0-.208-.006a12.509,12.509,0,0,1-3.106,1.6,15.545,15.545,0,0,1-2.065,1.237c-1.793,2.414-3.073,4.85-7.653,6.483-3.9,1.2-6.9-.9-8-1.1a5.632,5.632,0,0,1-4.054-3.455,1.035,1.035,0,0,0,.026.1c.027.091.053.181.084.275a1.226,1.226,0,0,1-.084-.275c-.022-.068-.042-.135-.059-.2a5.287,5.287,0,0,1-.24-1.34c-.705-4.433-1.436-15.3,6.662-13.226,5.71,1.466,8.773-2.014,12.343-4.3,3-2.2,4.709.971,5.565.449,6.486-1.561,6.8,1.241,8.319,2.554.03.025.057,3.957.04,3.957,0-.029-.017-.1-.038-.2.328,2.163-1.1,6.583-7.534,7.467m5.037-11.159A5.448,5.448,0,0,1,38.7,17.46a5.007,5.007,0,0,0-2.021-2.294m2.5,3.692a2.484,2.484,0,0,0-.166-.623,4.827,4.827,0,0,1,.166.623M6.276,29.335c0,.1,0,.2.006.3a.529.529,0,0,0,.014.074c-.012-.126-.017-.253-.02-.372M30.5,14.681c-1.393.433-3.106-2.671-4.558-.287-3.313,5.44-3.742,5.771-10.685,4.761-3.1-.449-5.131-1.175-5.938.188-2.908,4.939-1.607,6.182-1.607,6.182s-.025.021-.071.068c.025-.02.046-.045.071-.063,1.6-.834,2.9-.585,4.416-.585S19.5,22.121,21.5,21.773c1.5-.266,3.642,2.008,5.041,3a6.835,6.835,0,0,0,2.224.329,4.389,4.389,0,0,1-.235-3.538c.352-2.186,3-4.015,4.551-5.144a16.519,16.519,0,0,1,3.332-1.4s.1.049.26.142c-1.3-.806-3.253-1.221-6.179-.485M7.637,25.594a3.4,3.4,0,0,0-.66.9,4.624,4.624,0,0,1,.66-.9m-.66.9a5.474,5.474,0,0,0-.7,2.838,6.258,6.258,0,0,1,.7-2.838m11.715,1.261c-2.449,2.2-4.431,4.461-2.546,6.081s3.871.324,6.321-1.874,3.587-4.916,2.547-6.078-3.875-.326-6.322,1.87m14.374-8.02c-1.526,1.751-2.157,3.884-1.218,4.517,1.4.951,2.783-.071,4.312-1.821s2.072-3.775,1.219-4.517-2.784.071-4.313,1.821m5.81-1.752a1.409,1.409,0,0,1,.129.25,6.574,6.574,0,0,0-.309-.775,4.026,4.026,0,0,1,.181.525M14.177,34.51a.32.32,0,0,0,.028.044c.01-.01,0-.022-.028-.044M6.522,30.973c.01.037.022.069.033.1-.072-.3-.165-.774-.258-1.369a6.392,6.392,0,0,0,.226,1.266m16.384-7.28A9.8,9.8,0,0,0,15.9,25.429c-3.679,2.833-4.334,5.81-2.972,8.082a3.806,3.806,0,0,0,1.252,1C11.3,30.463,16,24.965,22.906,23.693" transform="translate(-1.203 -2.317)" fill="#231815"/>
  </g>
</svg>
